<svg width="72" height="20" viewBox="0 0 72 20" fill="none" xmlns="http://www.w3.org/2000/svg">
<path d="M20.2189 13.2938V9.96681C20.2189 9.79621 20.2473 9.62559 20.3042 9.51185C20.3611 9.36967 20.4464 9.28436 20.5601 9.19905C20.6739 9.11374 20.7876 9.05687 20.9014 9.02844C21.0436 9 21.1857 8.97155 21.3279 8.97155C21.4701 8.97155 21.6123 9 21.726 9.02844C21.8682 9.05687 21.9819 9.14218 22.0957 9.19905C22.2094 9.28436 22.2947 9.3981 22.3516 9.51185C22.4085 9.65403 22.4369 9.79621 22.4369 9.96681V13.2938H26.3327C26.5033 13.2938 26.6454 13.3223 26.7592 13.3791C26.8729 13.436 26.9582 13.4929 27.0436 13.5782C27.1289 13.6635 27.1573 13.7488 27.2142 13.8626C27.2426 13.9763 27.271 14.09 27.271 14.2038C27.271 14.4313 27.2142 14.6303 27.072 14.8294C26.9298 15.0284 26.7023 15.1137 26.3611 15.1137H17.9725C17.6597 15.1137 17.4037 15.0284 17.2616 14.8294C17.1194 14.6303 17.0625 14.4313 17.0625 14.2038C17.0625 14.09 17.091 13.9763 17.1194 13.8626C17.1478 13.7488 17.2047 13.6635 17.29 13.5782C17.3753 13.4929 17.4606 13.436 17.5744 13.3791C17.6881 13.3223 17.8303 13.2938 18.0009 13.2938H20.2189ZM24.0578 11.3886C24.2284 10.9905 24.3421 10.564 24.4274 10.0237C24.5127 9.51185 24.5412 8.85782 24.5412 8.11847V7.40758C24.5412 7.32228 24.5127 7.2654 24.4843 7.20853C24.4274 7.15166 24.3706 7.12322 24.2853 7.12322H18.3706C18.2 7.12322 18.0578 7.09479 17.944 7.03792C17.8303 6.98104 17.7165 6.89574 17.6597 6.81043C17.5744 6.72512 17.5175 6.61138 17.4891 6.49763C17.4606 6.38389 17.4322 6.27014 17.4322 6.1564C17.4322 6.04266 17.4606 5.92891 17.4891 5.81517C17.5175 5.70142 17.5744 5.58768 17.6597 5.50237C17.745 5.41706 17.8303 5.33176 17.9725 5.27488C18.0862 5.21801 18.2284 5.18958 18.399 5.18958H25.0246C25.3374 5.18958 25.6218 5.21801 25.8208 5.27488C26.0483 5.33176 26.2189 5.4455 26.3327 5.55924C26.4748 5.70142 26.5601 5.8436 26.617 6.04266C26.6739 6.24171 26.7023 6.4692 26.7023 6.75356V8.11847C26.7023 9.88152 26.5033 11.1896 26.0767 12.0711C25.9914 12.2133 25.9061 12.3554 25.7924 12.4408C25.6786 12.5545 25.5364 12.6114 25.3943 12.6682C25.2521 12.7251 25.1099 12.7536 24.9393 12.7536C24.7687 12.7536 24.6265 12.7251 24.4843 12.6398C24.2568 12.5261 24.0862 12.3554 24.0293 12.128C23.944 11.9005 23.944 11.6445 24.0578 11.3886Z" fill="#3370FF"/>
<path d="M31.3925 13.2938V9.96681C31.3925 9.79621 31.4209 9.62559 31.4778 9.51185C31.5347 9.36967 31.62 9.28436 31.7337 9.19905C31.8475 9.11374 31.9612 9.05687 32.075 9.02844C32.2172 9 32.3593 8.97155 32.5015 8.97155C32.6437 8.97155 32.7859 9 32.8996 9.02844C33.0418 9.05687 33.1555 9.14218 33.2693 9.19905C33.383 9.28436 33.4683 9.3981 33.5252 9.51185C33.5821 9.65403 33.6105 9.79621 33.6105 9.96681V13.2938H37.5347C37.7053 13.2938 37.8475 13.3223 37.9612 13.3791C38.075 13.436 38.1603 13.4929 38.2456 13.5782C38.3309 13.6635 38.3593 13.7488 38.4162 13.8626C38.4446 13.9763 38.4731 14.09 38.4731 14.2038C38.4731 14.4313 38.3878 14.6303 38.274 14.8294C38.1318 15.0284 37.9044 15.1137 37.5631 15.1137H29.2029C28.8901 15.1137 28.6342 15.0284 28.492 14.8294C28.3499 14.6303 28.293 14.4313 28.293 14.2038C28.293 14.09 28.3214 13.9763 28.3499 13.8626C28.3783 13.7488 28.4352 13.6635 28.5205 13.5782C28.6058 13.4929 28.6911 13.436 28.8048 13.3791C28.9186 13.3223 29.0608 13.2938 29.2314 13.2938H31.3925ZM35.2598 11.3886C35.4304 10.9905 35.5442 10.564 35.6295 10.0237C35.7148 9.51185 35.7432 8.85782 35.7432 8.11847V7.40758C35.7432 7.32228 35.7148 7.2654 35.6863 7.20853C35.6295 7.15166 35.5726 7.12322 35.4873 7.12322H29.5726C29.402 7.12322 29.2598 7.09479 29.1461 7.03792C29.0323 6.98104 28.9186 6.89574 28.8617 6.81043C28.7764 6.72512 28.7195 6.61138 28.6911 6.49763C28.6627 6.38389 28.6342 6.27014 28.6342 6.1564C28.6342 6.04266 28.6627 5.92891 28.6911 5.81517C28.7195 5.70142 28.7764 5.58768 28.8617 5.50237C28.947 5.41706 29.0323 5.33176 29.1745 5.27488C29.2882 5.21801 29.4304 5.18958 29.601 5.18958H36.2551C36.5679 5.18958 36.8522 5.21801 37.0513 5.27488C37.2788 5.33176 37.4494 5.4455 37.5631 5.55924C37.7053 5.70142 37.7906 5.8436 37.8475 6.04266C37.9044 6.24171 37.9328 6.4692 37.9328 6.75356V8.11847C37.9328 9.88152 37.7337 11.1896 37.3072 12.0711C37.2219 12.2133 37.1366 12.3554 37.0228 12.4408C36.9091 12.5545 36.7669 12.6114 36.6247 12.6682C36.4826 12.7251 36.3404 12.7536 36.1698 12.7536C35.9991 12.7536 35.857 12.7251 35.7148 12.6398C35.4873 12.5261 35.3167 12.3554 35.2598 12.128C35.1461 11.9005 35.1461 11.6445 35.2598 11.3886Z" fill="#3370FF"/>
<path d="M43.4497 13.2945V11.2187H41.5729C41.2601 11.2187 40.9758 11.1903 40.7767 11.1334C40.5777 11.0765 40.4072 10.9912 40.2934 10.849C40.1797 10.7353 40.0943 10.5647 40.0658 10.3372C40.0374 10.1097 40.009 9.85382 40.009 9.51258V6.89647C40.009 6.58368 40.0374 6.29932 40.0658 6.10026C40.0943 5.87278 40.1797 5.70216 40.2934 5.58842C40.4072 5.44624 40.5492 5.36093 40.7767 5.30406C40.9758 5.24718 41.2317 5.21875 41.5729 5.21875H47.5445C47.8573 5.21875 48.1418 5.24718 48.3408 5.30406C48.5399 5.36093 48.7105 5.44624 48.8242 5.58842C48.938 5.7306 49.0233 5.90121 49.0517 6.10026C49.0801 6.32775 49.1086 6.58368 49.1086 6.89647V11.1903H45.6963V13.2661H48.7673C48.9379 13.2661 49.0801 13.2945 49.1939 13.3514C49.3076 13.4083 49.3928 13.4652 49.4782 13.5505C49.5635 13.6358 49.5919 13.7211 49.6488 13.8348C49.7056 13.9486 49.7057 14.0623 49.7057 14.1761C49.7057 14.4035 49.6488 14.6026 49.5066 14.8017C49.3644 15.0007 49.1369 15.086 48.7957 15.086H40.3787C40.0659 15.086 39.81 15.0007 39.6678 14.8017C39.5256 14.6026 39.4688 14.4035 39.4688 14.1761C39.4688 14.0623 39.4972 13.9486 39.5256 13.8348C39.5541 13.7211 39.611 13.6358 39.6963 13.5505C39.7816 13.4652 39.8668 13.4083 39.9805 13.3514C40.0943 13.2945 40.2366 13.2661 40.4072 13.2661H43.4497V13.2945ZM42.1986 9.11448C42.1986 9.22822 42.2271 9.31353 42.2555 9.3704C42.3124 9.42728 42.3976 9.45571 42.5113 9.45571H46.9189V7.29458C46.9189 7.18083 46.8905 7.09552 46.862 7.03865C46.8336 6.98178 46.7484 6.95334 46.6347 6.95334H42.4546C42.3408 6.95334 42.2839 6.98178 42.2555 7.03865C42.2271 7.09552 42.1986 7.18083 42.1986 7.29458V9.11448Z" fill="#3370FF"/>
<path d="M52.5495 14.8569C52.2367 14.8569 51.9807 14.8285 51.7532 14.7716C51.5542 14.7147 51.3836 14.6294 51.2698 14.4872C51.1561 14.3451 51.0708 14.1745 51.0139 13.9754C50.957 13.7763 50.957 13.5204 50.957 13.2076V6.26923C50.957 5.89956 51.0423 5.6152 51.2698 5.44459C51.4973 5.27397 51.7248 5.18866 52.0376 5.18866C52.3504 5.18866 52.6063 5.27397 52.7769 5.44459C52.976 5.6152 53.0613 5.89956 53.0613 6.26923V8.00383H54.9096V6.26923C54.9096 5.89956 54.995 5.6152 55.194 5.44459C55.3931 5.27397 55.649 5.18866 55.9618 5.18866C56.2746 5.18866 56.5305 5.27397 56.7295 5.44459C56.9286 5.6152 57.0139 5.89956 57.0139 6.26923V14.8285H52.5495V14.8569ZM54.9096 13.037V9.7953H53.0613V12.7527C53.0613 12.8664 53.0897 12.9517 53.1182 12.9801C53.1466 13.0086 53.2319 13.037 53.3741 13.037H54.9096ZM58.0945 5.98487C58.0945 5.64364 58.2082 5.35928 58.4073 5.18866C58.6348 5.01805 58.8622 4.9043 59.1466 4.9043C59.2888 4.9043 59.431 4.93274 59.5447 4.98961C59.6869 5.04648 59.8006 5.10335 59.8859 5.18866C59.9713 5.27397 60.0566 5.38771 60.1134 5.52989C60.1703 5.67207 60.1987 5.81425 60.1987 5.98487V8.80004H60.5684C60.739 8.80004 60.8812 8.82847 60.9949 8.88534C61.1087 8.94222 61.194 9.02752 61.2509 9.11283C61.3077 9.19814 61.3646 9.31188 61.393 9.42563C61.4215 9.53937 61.4499 9.65312 61.4499 9.76686C61.4499 9.8806 61.4215 9.99435 61.393 10.1081C61.3646 10.2218 61.3077 10.3356 61.2509 10.4209C61.194 10.5062 61.1087 10.5915 60.9949 10.6484C60.8812 10.7053 60.739 10.7337 60.5968 10.7337H60.2272V15.3403H58.066V5.98487H58.0945Z" fill="#3370FF"/>
<path d="M62.1055 7.46439C62.1055 7.00941 62.1908 6.63974 62.333 6.32695C62.4751 6.01415 62.7026 5.75823 62.9586 5.55917C63.2429 5.36012 63.5557 5.21794 63.9254 5.13263C64.2951 5.04733 64.7216 4.99045 65.205 4.99045C65.6884 4.99045 66.0865 5.04733 66.4846 5.13263C66.8543 5.21794 67.1955 5.36012 67.4514 5.55917C67.7358 5.75823 67.9349 6.01415 68.077 6.32695C68.2192 6.63974 68.3045 7.00941 68.3045 7.46439V7.77718C68.3045 8.23216 68.2192 8.60183 68.077 8.91462C67.9349 9.22742 67.7074 9.48334 67.4514 9.68239C67.1671 9.88145 66.8543 10.0236 66.4846 10.1089C66.115 10.1942 65.6884 10.2511 65.205 10.2511C64.7216 10.2511 64.3235 10.1942 63.9254 10.1089C63.5557 10.0236 63.2145 9.88145 62.9586 9.68239C62.6742 9.48334 62.4751 9.22742 62.333 8.91462C62.1908 8.60183 62.1055 8.23216 62.1055 7.77718V7.46439ZM64.0676 15.3127C63.8116 15.3127 63.6126 15.2843 63.4135 15.199C63.2145 15.1137 63.0723 14.9999 62.9301 14.8577C62.7879 14.7156 62.7026 14.545 62.6173 14.3743C62.5605 14.2037 62.5036 14.0047 62.5036 13.8056V13.6634C62.5036 13.2653 62.6458 12.9525 62.9017 12.6966C63.1576 12.4691 63.5557 12.3269 64.0391 12.3269H69.4988V12.0426C69.4988 11.9857 69.4988 11.9288 69.4704 11.9004C69.442 11.872 69.4135 11.872 69.3282 11.872H63.2145C63.0154 11.872 62.8448 11.8151 62.7595 11.6729C62.6742 11.5307 62.6173 11.3886 62.6173 11.2179C62.6173 11.0758 62.6742 10.9051 62.7595 10.7914C62.8448 10.6492 63.0154 10.5923 63.2145 10.5923H70.3804C70.8638 10.5923 71.205 10.6777 71.4041 10.8483C71.6031 11.0189 71.7168 11.3317 71.7168 11.7582V13.5213H65.0344C64.9491 13.5213 64.8922 13.5497 64.8638 13.5781C64.8353 13.6066 64.8069 13.6634 64.8069 13.7203V13.7487C64.8069 13.8056 64.8353 13.8625 64.8638 13.8909C64.8922 13.9194 64.9775 13.9478 65.0344 13.9478H71.3756C71.6031 13.9478 71.7453 14.0047 71.859 14.1468C71.9443 14.289 72.0012 14.4312 72.0012 14.6018C72.0012 14.744 71.9443 14.9146 71.859 15.0284C71.7737 15.1705 71.6031 15.2274 71.3756 15.2274H64.0676V15.3127ZM64.2382 7.83405C64.2382 8.11841 64.3235 8.31747 64.4941 8.43121C64.6647 8.54495 64.8922 8.63026 65.1766 8.63026C65.4609 8.63026 65.6884 8.57339 65.859 8.43121C66.0297 8.31747 66.115 8.08998 66.115 7.83405V7.37908C66.115 7.09472 66.0297 6.89567 65.859 6.78192C65.6884 6.63974 65.4609 6.58287 65.1766 6.58287C64.8922 6.58287 64.6647 6.63974 64.4941 6.78192C64.3235 6.9241 64.2382 7.12315 64.2382 7.37908V7.83405ZM69.5557 5.98571C69.5557 5.61605 69.6695 5.36012 69.8969 5.16107C70.1244 4.96202 70.3804 4.87671 70.6647 4.87671C70.8069 4.87671 70.9491 4.90515 71.0628 4.96202C71.205 5.01889 71.3187 5.07576 71.4041 5.16107C71.5178 5.24638 71.5747 5.36012 71.66 5.5023C71.7168 5.64448 71.7453 5.78666 71.7453 5.98571V10.2511H69.5557V5.98571Z" fill="#3370FF"/>
<path d="M9.46919 7.74881V12.4692H4.74881V7.74881H9.46919V3H0V7.74881V12.4692V17.218H14.218V12.4692V7.74881H9.46919Z" fill="#3370FF"/>
</svg>
