<svg width="68" height="20" viewBox="0 0 68 20" fill="none" xmlns="http://www.w3.org/2000/svg">
<g clip-path="url(#clip0_1064_10453)">
<path d="M41.7934 4C41.2994 4 40.8991 4.40034 40.8991 4.89431C40.8991 5.38829 41.2994 5.78863 41.7934 5.78863C42.2874 5.78863 42.6877 5.38829 42.6877 4.89431C42.6877 4.40034 42.2874 4 41.7934 4ZM41.1271 6.82428H42.4729V13.3475H41.1271V6.82428ZM25.2251 4.89431C25.2251 5.38829 24.8247 5.78863 24.3307 5.78863C23.8369 5.78863 23.4364 5.38829 23.4364 4.89431C23.4364 4.40034 23.8369 4 24.3307 4C24.8247 4 25.2251 4.40034 25.2251 4.89431ZM23.6645 13.3476H25.0103V6.82432H23.6645V13.3476ZM17.3536 10.086C17.3536 11.2389 18.2881 12.1734 19.4411 12.1734C20.594 12.1734 21.5286 11.2389 21.5286 10.086C21.5286 8.93299 20.594 7.99822 19.4411 7.99822C18.2881 7.99822 17.3536 8.93299 17.3536 10.086ZM17.3536 16H16.0078V10.086C16.0078 8.18973 17.545 6.65264 19.4411 6.65264C21.3373 6.65264 22.8743 8.18973 22.8743 10.086C22.8743 11.9821 21.3974 13.5192 19.5011 13.5192C18.6322 13.5192 17.7092 13.092 17.3536 12.5166V16ZM64.7064 12.0018C63.9378 12.0018 63.1621 11.3476 63.1621 10.4146V8.17008H65.8657V6.82428H63.1621V4.64543H61.8164V10.4574C61.8164 12.1336 63.0303 13.3476 64.7064 13.3476H66.2506V12.0018H64.7064ZM47.4786 6.82428H46.3872C44.7529 6.82428 43.4779 7.91642 43.4779 9.73345C43.4779 9.73822 43.4783 13.3476 43.4783 13.3476H44.8237V9.73345C44.8237 8.72262 45.4483 8.17008 46.3872 8.17008H47.4786V6.82428ZM52.8823 9.39817C52.6946 8.39626 51.922 7.99822 51.0402 7.99822C50.1583 7.99822 49.3181 8.4531 49.1 9.39817H52.8823ZM53.99 8.42908C54.4758 9.39817 54.2971 10.6648 54.2971 10.6648H49.0357C49.1696 11.5725 50.0883 12.1734 51.0402 12.1734C51.8703 12.1734 52.5214 11.9221 52.9782 11.2766L53.9082 11.9726C53.2942 12.9041 52.2393 13.5192 51.0402 13.5192C49.144 13.5192 47.6069 12.0926 47.6069 10.086C47.6069 8.09742 49.144 6.65264 51.0402 6.65264C51.3278 6.65264 51.6155 6.68828 51.8941 6.75966C52.8443 7.00303 53.5607 7.5727 53.99 8.42908ZM58.3993 12.1734C57.2463 12.1734 56.3117 11.2389 56.3117 10.086C56.3117 8.93299 57.2463 7.99822 58.3993 7.99822C59.1612 7.99822 59.7229 8.34573 60.119 8.90649L61.1612 8.04667C60.5358 7.20116 59.5316 6.65264 58.3993 6.65264C56.503 6.65264 54.966 8.18973 54.966 10.086C54.966 11.9821 56.503 13.5192 58.3993 13.5192C59.6689 13.5192 60.6786 12.8295 61.2727 11.8047L60.2825 11.031C59.889 11.704 59.3029 12.1734 58.3993 12.1734ZM38.7763 10.086C38.7763 8.93299 37.8417 7.99822 36.6888 7.99822C35.5358 7.99822 34.6012 8.93299 34.6012 10.086C34.6012 11.2389 35.5358 12.1734 36.6888 12.1734C37.8417 12.1734 38.7763 11.2389 38.7763 10.086ZM38.7763 4.17168H40.122V10.086C40.122 11.9821 38.585 13.5192 36.6888 13.5192C34.7925 13.5192 33.2554 11.9821 33.2554 10.086C33.2554 8.18973 34.7925 6.65264 36.6888 6.65264C37.5577 6.65264 38.4205 7.0797 38.7763 7.6553V4.17168ZM32.4594 9.87461V13.3476H31.1136V9.87461C31.1136 8.83838 30.5353 7.9984 29.2374 7.9984C27.9395 7.9984 27.361 8.83838 27.361 9.87461V13.3476H26.0152V9.87461C26.0152 8.09512 27.1962 6.65264 29.2374 6.65264C31.2784 6.65264 32.4594 8.09512 32.4594 9.87461Z" fill="black"/>
<path d="M10.2427 5.75733C7.89955 3.41422 4.10044 3.41422 1.75733 5.75733C-0.585777 8.10045 -0.585777 11.8996 1.75733 14.2427C4.10044 16.5858 7.89955 16.5858 10.2427 14.2427C12.5858 11.8996 12.5858 8.10045 10.2427 5.75733Z" fill="#3246FA"/>
<path d="M9.15461 9.35329L7.68077 10.8273C7.61686 10.8912 7.53263 10.9269 7.44575 10.9309C7.39363 10.9331 7.34081 10.9241 7.29081 10.9029L5.936 10.3265C5.89537 10.3092 5.8527 10.3 5.80999 10.2983C5.71317 10.2949 5.61706 10.331 5.546 10.4021L4.07198 11.8759C3.73259 12.2125 3.18447 12.2118 2.84601 11.8733C2.5075 11.5348 2.50675 10.9869 2.84353 10.6473L4.3172 9.17353C4.38544 9.10529 4.47647 9.06916 4.56913 9.06955C4.61577 9.06955 4.66281 9.07874 4.70738 9.09773L6.06197 9.67426C6.11987 9.6989 6.18175 9.70716 6.24173 9.70023C6.3196 9.69118 6.39424 9.65642 6.45215 9.59851L7.92599 8.12467C8.26555 7.78807 8.8135 7.78882 9.15196 8.12728C9.49042 8.46578 9.49117 9.01368 9.15461 9.35329ZM7.26917 7.46785L5.79533 8.94187C5.73141 9.00582 5.64696 9.04151 5.56031 9.04548C5.50819 9.04774 5.45536 9.03873 5.40537 9.01748L4.05056 8.44113C4.00374 8.42121 3.95409 8.41198 3.9052 8.41273C3.81492 8.41441 3.72694 8.45036 3.66055 8.5167L2.18676 9.99055C1.48462 10.6926 1.48462 11.8308 2.18676 12.5328C2.88867 13.2347 4.02684 13.2347 4.7288 12.5328L6.20264 11.0589C6.26673 10.9948 6.351 10.9591 6.43766 10.9551C6.48973 10.9529 6.54278 10.9619 6.59278 10.9831L7.94741 11.5597C7.99741 11.5809 8.05045 11.59 8.10253 11.5875C8.18923 11.5835 8.27363 11.5478 8.33759 11.4839L9.81143 10.0101C10.5133 9.30815 10.5133 8.16999 9.81143 7.46785C9.10947 6.76593 7.9713 6.76593 7.26917 7.46785Z" fill="white"/>
</g>
<defs>
<clipPath id="clip0_1064_10453">
<rect width="68" height="20" fill="white"/>
</clipPath>
</defs>
</svg>
