<svg width="62" height="20" viewBox="0 0 62 20" fill="none" xmlns="http://www.w3.org/2000/svg">
<g clip-path="url(#clip0_1064_10455)">
<path d="M3.03711 10.11C2.55734 9.88526 2.16396 9.70327 2.16396 9.33778C2.16396 9.05718 2.38759 8.85334 2.83026 8.85334C2.97583 8.85459 3.12096 8.8694 3.26379 8.89756C3.33415 8.91141 3.40556 8.91924 3.47725 8.92095C3.86351 8.92095 4.08205 8.69016 4.22689 8.25249L4.28687 8.07356C3.8051 7.87629 3.28984 7.77377 2.76927 7.77161C1.45853 7.77161 0.766316 8.61188 0.766824 9.48418C0.766824 9.9244 0.904556 10.2432 1.12259 10.4943C1.40059 10.8171 1.796 11.029 2.16701 11.21C2.70524 11.4749 3.19365 11.6711 3.19365 12.064C3.19365 12.4127 2.83382 12.6105 2.35201 12.6105C1.6913 12.6105 1.11547 12.2333 1.04178 12.188L0.5 13.2037C0.596565 13.2576 1.29336 13.6988 2.44146 13.6988C3.66479 13.6988 4.59028 12.9963 4.59028 11.9196C4.59028 10.843 3.73238 10.4455 3.03711 10.11Z" fill="#EA002C"/>
<path d="M7.82077 10.6097L10.0407 7.88867H8.45911L6.68942 10.2366H6.66299V7.88867H5.35938V13.6536H5.43612C6.00027 13.6536 6.67113 13.3924 6.67113 12.4509V11.1293H6.69959L8.50384 13.5835H10.1607L7.82077 10.6097Z" fill="#EA002C"/>
<path d="M17.9233 15.1725L23.7919 5.00586H12.0547L13.7187 7.88912H18.5312L16.1252 12.0574L17.9233 15.1725Z" fill="#3617CE"/>
<path d="M52.2891 5.00586H54.1803V13.5824H52.2891V5.00586Z" fill="#3617CE"/>
<path d="M50.9653 7.88867V13.582H49.0742V7.88867H50.9653Z" fill="#3617CE"/>
<path d="M48.957 6.06051C48.957 5.77928 49.0687 5.50956 49.2675 5.3107C49.4663 5.11184 49.736 5.00012 50.0171 5.00012C50.2983 5.00012 50.568 5.11184 50.7668 5.3107C50.9656 5.50956 51.0773 5.77928 51.0773 6.06051C51.0773 6.19976 51.0499 6.33765 50.9966 6.4663C50.9433 6.59495 50.8653 6.71185 50.7668 6.81031C50.6684 6.90878 50.5515 6.98688 50.4229 7.04017C50.2942 7.09346 50.1564 7.12089 50.0171 7.12089C49.8779 7.12089 49.7401 7.09346 49.6114 7.04017C49.4828 6.98688 49.3659 6.90878 49.2675 6.81031C49.169 6.71185 49.0909 6.59495 49.0377 6.4663C48.9844 6.33765 48.957 6.19976 48.957 6.06051Z" fill="#3617CE"/>
<path d="M61.4991 10.7362C61.4991 8.96161 60.1045 7.77161 58.3394 7.77161C56.5743 7.77161 55.1797 8.96161 55.1797 10.7362C55.1797 12.5108 56.5743 13.6988 58.3394 13.6988C59.7874 13.6988 60.9853 12.8977 61.369 11.6304H59.5561C59.4164 11.9522 58.9935 12.2501 58.3719 12.2501C57.5969 12.2501 57.1181 11.7473 57.0958 11.1826H61.4696C61.4899 11.0347 61.4997 10.8855 61.4991 10.7362ZM57.1166 10.1369C57.1572 9.64736 57.6045 9.21578 58.3419 9.21578C59.0794 9.21578 59.5266 9.64736 59.5678 10.1369H57.1166Z" fill="#3617CE"/>
<path d="M25.6802 8.61086C26.0055 8.16251 26.5442 7.77161 27.2248 7.77161C28.0862 7.77161 28.6331 8.22606 28.9665 8.79844C29.2633 8.33484 29.8813 7.77161 30.9085 7.77161C32.3518 7.77161 33.1447 8.81216 33.1447 10.1964V13.5829H31.253V10.477C31.253 10.0703 31.1768 9.8085 31.0116 9.6255C30.9237 9.53255 30.8177 9.45852 30.7001 9.40793C30.5826 9.35734 30.456 9.33124 30.328 9.33124C30.2001 9.33124 30.0735 9.35734 29.956 9.40793C29.8384 9.45852 29.7324 9.53255 29.6445 9.6255C29.4793 9.8085 29.4031 10.0708 29.4031 10.477V13.5829H27.5302V10.477C27.5302 10.0703 27.4535 9.8085 27.2888 9.6255C27.2008 9.53254 27.0948 9.4585 26.9772 9.4079C26.8596 9.3573 26.733 9.3312 26.605 9.3312C26.477 9.3312 26.3503 9.3573 26.2327 9.4079C26.1152 9.4585 26.0091 9.53254 25.9211 9.6255C25.7565 9.8085 25.6802 10.0708 25.6802 10.477V13.5829H23.7891V7.88954H25.6802V8.61086Z" fill="#3617CE"/>
<path d="M45.1794 7.77119C44.5213 7.76256 43.8798 7.97763 43.3599 8.38119V5.00586H41.4688V13.5824H43.3599V13.0024C43.826 13.4574 44.4826 13.7004 45.1794 13.7004C46.7941 13.7004 48.0702 12.5098 48.0702 10.7358C48.0702 8.96171 46.7941 7.77119 45.1794 7.77119ZM44.8318 12.1403C44.0836 12.1403 43.4753 11.5572 43.4753 10.7358C43.4753 9.91432 44.0852 9.33076 44.8318 9.33076C45.5784 9.33076 46.1903 9.91432 46.1903 10.7358C46.1903 11.5572 45.5804 12.1403 44.8318 12.1403Z" fill="#3617CE"/>
<path d="M37.3063 7.77161C35.5412 7.77161 34.1445 8.96161 34.1445 10.7362C34.1445 12.5108 35.5412 13.6988 37.3063 13.6988C39.0714 13.6988 40.466 12.5083 40.466 10.7342C40.466 8.96009 39.0714 7.77161 37.3063 7.77161ZM37.3063 12.1408C36.5866 12.1408 36.0011 11.5577 36.0011 10.7362C36.0011 9.91474 36.5866 9.33117 37.3063 9.33117C38.0259 9.33117 38.6109 9.91474 38.6109 10.7362C38.6109 11.5577 38.0259 12.1408 37.3063 12.1408Z" fill="#3617CE"/>
</g>
<defs>
<clipPath id="clip0_1064_10455">
<rect width="61" height="20" fill="white" transform="translate(0.5)"/>
</clipPath>
</defs>
</svg>
