<svg width="66" height="20" fill="none" xmlns="http://www.w3.org/2000/svg"><g clip-path="url(#a)"><path d="M13.887 17.724a2.899 2.899 0 0 1-1.395.271h-8.37a2.05 2.05 0 0 1-2.097-1.657c0-.084 0-.172-.032-.26-.032-.087-.056-.07-.096 0a5.636 5.636 0 0 0-.797.579 3.058 3.058 0 0 0-.538.398.936.936 0 0 0-.35.26L0 17.417c.048-.196.255-.212.323-.355.526-.327 1-.753 1.506-1.124.355-.267.71-.534 1.057-.797.06-.043.18-.051.147-.175.028.044.056.024.084 0l1.22-.944c.035-.024.075-.04.111-.068l4.783-3.614 2.726-2.08 1.304-.973 2.57-1.905c.51-.374 1.017-.74 1.52-1.115.207-.16.195-.207-.04-.303-.331-.136-.666-.255-.985-.422-.056-.028-.084-.052-.068-.112l.26-.072c.287.054.58.082.872.084 0-.191-.275-.335-.06-.53a.446.446 0 0 1 .447.024.865.865 0 0 0 1.132-.148c.096-.083.199-.159.307-.227.127-.08.255-.151 0-.23a.223.223 0 0 1-.132-.144c-.052-.196-.18-.196-.303-.196a4.867 4.867 0 0 1-1.594-.65 6.25 6.25 0 0 0-.977-.37.283.283 0 0 1 .307-.183c.128 0 .255.028.399.044.092.04.19.064.29.068l.694.12c.38.081.765.14 1.152.174l.152.024.426.08a.303.303 0 0 0 .335-.084c.084-.076.178-.14.279-.19.195-.097.347 0 .35.222 0 .056-.115.12 0 .164a.223.223 0 0 0 .224-.048l.666-.478.04-.036.063-.052c.114-.053.218-.123.311-.207a.682.682 0 0 0 .267-.2c.317-.25.709-.387 1.112-.39.188 0 .28.068.24.263-.281.477-.675.877-1.148 1.164a2.788 2.788 0 0 0-.495.338.335.335 0 0 0-.127.399c.032.123.052.29.14.346.087.056.167-.12.258-.175a.267.267 0 0 1 .379.028c.107.131.048.243-.064.339-.08.079-.17.145-.27.195-.164.072-.172.18-.128.319.06.215.131.434.179.653.082.181.12.38.111.578l-.19.108c-.053 0-.12 0-.144-.048-.236-.327-.578-.55-.841-.849a.458.458 0 0 1-.136-.247c0-.052-.044-.127-.088-.12-.227.064-.322-.151-.49-.219-.167-.067-.223-.08-.323.032l-.398.223c-.108 0-.164.084-.235.144-.201.161-.435.276-.686.335a.307.307 0 0 0-.211.454c.03.1.054.2.072.303a.2.2 0 0 1-.1.263c-.271-.056-.399-.3-.614-.447-.104-.075-.195-.183-.33-.06-.4.3-.798.594-1.197.901-.235.14-.46.3-.67.478-.25.184-.493.367-.744.546a.263.263 0 0 0-.14.231v9.791c-.09.439-.306.842-.622 1.16l-.163.151-.215.147Zm-4.783-1.302c.35.021.701.021 1.052 0h2.455a.861.861 0 0 0 .77-.483.84.84 0 0 0 .159-.593V7.639c0-.064.044-.152-.036-.187-.08-.036-.108.04-.143.087-.4.291-.798.582-1.196.905l-1.005.721c-.043.032-.107.06-.043.136.063.075.223.283.35.398.128.116.168.112.144.247-.024.136-.112.068-.184.056-.071-.012-.047.04-.067.064-.02.024 0 .183-.144.127a.239.239 0 0 1-.135-.25c.06-.168-.04-.224-.14-.292 0-.056-.024-.123-.104-.12 0 0-.047.025-.043.037a.34.34 0 0 0 .1.131c.087.155-.128.31.023.482a.398.398 0 0 0 .522.084s0-.128.036 0c.036.127.215.183.327.275l.052.04v-.044h-.06l.28-.502c.05.1.055.155.019.215a2.256 2.256 0 0 0-.155.662c-.024.115.103.1.175.083.191-.04.132.124.18.207.083.152-.052.14-.124.18-.216.043-.283-.148-.399-.26-.115-.11-.215-.195-.398-.107-.184.088 0-.135-.136-.135-.08.063-.154.135-.22.215-.075.107-.11.25-.258.072h-.088c0 .243-.16.203-.299.203-.068 0-.104.02-.084.087.02.068 0 .236.152.24a.678.678 0 0 0 .33-.048.155.155 0 0 1 .172 0c.144.08.423 0 .438-.16.017-.16.1-.123.196-.123.195 0 .367.135.566.087.16.204.27.443.438.65.1.123.052.327.02.482a.538.538 0 0 1-.737.466c-.26-.052-.399.044-.399.3a.446.446 0 0 1-.083.214.642.642 0 0 0-.072.522c.027.266-.024.533-.148.77-.032.095-.107.183-.067.294-.1.088-.208 0-.311 0l-.22-.127c-.071-.203-.255-.37-.227-.614a.104.104 0 0 0-.04-.088c-.25-.139-.219-.338-.151-.565.068-.228-.072-.335-.207-.45a1.115 1.115 0 0 1-.311-.535c.107-.06.23.08.319-.044.275-.23.299-.597.438-.9a1.908 1.908 0 0 0-.418.845 1.544 1.544 0 0 1-.59-.319.183.183 0 0 1 0-.319c.287.128.323-.08.362-.287-.127.108-.29.14-.418.235a.712.712 0 0 0-.55.212.506.506 0 0 0-.092.195c-.052.171-.115.338-.2.594a1.295 1.295 0 0 0-.354-.678c-.203-.16-.315-.16-.375.092-.023.1-.155.123-.12.239l-.159.076c-.051-.044-.083 0-.131.024-.048.023-.028.175-.152.107a.195.195 0 0 1-.083-.247.703.703 0 0 1 .087-.183c.04-.06.04-.108-.027-.148-.068-.04-.052-.052-.084 0-.29.137-.552.326-.773.558-.3.17-.582.371-.841.598a.279.279 0 0 0-.208.255c-.06-.104-.107-.028-.16 0l-.633.478a6.476 6.476 0 0 0-1.1.849v.044c-.034.19-.034.384 0 .573a.988.988 0 0 0 .989.798h4.643a.091.091 0 0 0 .112.004h-.004Zm-1.196.796a.534.534 0 1 0 1.065-.07.534.534 0 0 0-1.065.07Zm2.587-6.375c-.068-.032-.176.063-.247-.036-.068.091-.18.18-.184.267-.004.088.132.072.204.048a.538.538 0 0 1 .362.055.295.295 0 0 0-.135-.346v.012Zm-.953.295a.203.203 0 0 0 0 .23c0 .02.068.02.096 0 .095-.035.04-.119.052-.179.011-.06.055-.147.067-.223.028-.14-.075-.143-.21-.175a.227.227 0 0 1-.005.335v.012Z" fill="#040404"/><path d="M6.696 13.35c.088.043.056.17.148.207.091.035.279-.072.23-.22-.047-.147-.198-.223-.338-.29-.028 0-.068.031-.048.063.02.032-.04.16.008.24ZM9.694 14.055c.003.184.036.367.095.542 0 .043.032.083.084.083.052 0 .084-.056.084-.107a.478.478 0 0 0-.263-.518ZM5.6 13.548c-.076.088-.227.112-.22.268.24 0 .451-.025.547-.284-.112-.12-.215.016-.327.016ZM7.266 13.628a.968.968 0 0 0 .339-.478c-.068 0-.156-.048-.195.056.055.175-.172.199-.184.335l.04.087ZM6.852 14.493l-.204-.1c-.127-.215-.398-.23-.558-.398-.043-.056-.191-.056-.175.04.016.095-.036.243-.148.247-.111.004-.091-.16-.131-.248l-.024-.04c-.116.096-.104.252-.18.367a.686.686 0 0 0-.175.87.745.745 0 0 0 .168.214h.056a.334.334 0 0 0 .31-.179.475.475 0 0 1 .586-.183c.066.022.13.049.192.08.155.091.223.06.25-.128a.769.769 0 0 1 .124-.399c.036-.095-.051-.103-.091-.143Z" fill="#040404"/><path d="M66.165 9.91a2.79 2.79 0 0 1-.443.375c-.259.144-.303.682-.713.487-.686-.331-1.088-1.156-.897-1.698a1.036 1.036 0 0 1 1.112-.706c.399 0 .626.355.953.514l-.012 1.029Zm-1.049-.932a.434.434 0 1 0 0 .869.399.399 0 0 0 .423-.43c.032-.252-.136-.395-.41-.439h-.013Z" fill="#7DC50F"/><path d="M21.894 16.561c-2.092.916-3.663.697-4.914-.685a3.677 3.677 0 0 1 3.46-6.037 3.548 3.548 0 0 1 2.973 3.044c.123 1.311.107 2.63.151 3.949 0 .123.024.235-.111.315a1.283 1.283 0 0 1-1.559-.586Zm-4.651-3.072a2.558 2.558 0 0 0 2.495 2.55 2.527 2.527 0 1 0 .048-5.053 2.56 2.56 0 0 0-2.543 2.503Z" fill="#F70A0A"/><path d="M38.02 12.453c1.109-.865 1.854-.87 2.79 0 .252.235.3.1.44-.056.593-.67 1.339-.722 2.124-.45.785.27 1 .94 1.024 1.665.032 1.02 0 2.04 0 3.06 0 .399-.171.498-.538.49-.367-.007-.562-.043-.55-.478a51.81 51.81 0 0 0 0-2.837c0-.534-.084-1.08-.797-1.127a1.096 1.096 0 0 0-1.228.96c-.219.956-.083 1.933-.087 2.9 0 .451-.112.599-.582.595-.47-.005-.542-.168-.53-.57.027-.92 0-1.841 0-2.762 0-.534-.092-1.02-.734-1.112a1.073 1.073 0 0 0-1.263.797c-.228.63-.092 1.284-.124 1.925a7.5 7.5 0 0 0 0 1.12c.048.474-.144.582-.594.59-.51 0-.486-.256-.486-.606v-4.033c0-.25-.175-.65.359-.63.414.06.864-.099.777.559Z" fill="#322522"/><path d="M51.96 12.5a1.963 1.963 0 0 1 1.45-.68 1.846 1.846 0 0 1 1.921 1.358 4.53 4.53 0 0 1 .052 2.574c-.399 1.45-1.762 1.992-3.05 1.196-.262-.164-.282-.156-.45.111-.167.267-.558.148-.837.08-.279-.068-.159-.33-.163-.514v-6.197c0-.398.092-.55.53-.561.498 0 .59.175.566.605-.048.606-.02 1.22-.02 2.029Zm2.49 2.037c0-1.144-.338-1.706-1.06-1.79-.937-.111-1.399.443-1.435 1.718-.036 1.275.399 1.925 1.252 1.925s1.247-.606 1.243-1.853Z" fill="#352825"/><path d="M63.63 14.871h-1.128c-.706 0-.797.132-.522.797a1.218 1.218 0 0 0 2.076.283c.144-.179.216-.398.502-.35.22.031.538-.044.646.075.18.204-.044.466-.16.67-.553.96-1.482.996-2.43.908a1.857 1.857 0 0 1-1.679-1.394 4.226 4.226 0 0 1-.04-2.427c.283-1.04 1.013-1.594 2.157-1.594 1.144 0 1.897.498 2.208 1.526 0 .048.02.1.032.148.339 1.303.287 1.366-1.06 1.366l-.602-.008Zm-.598-.797c.15.014.3.014.45 0 .267-.051.706.18.778-.167a.993.993 0 0 0-.519-1.004 1.236 1.236 0 0 0-1.594.283c-.16.227-.327.506-.223.757.103.251.442.1.673.131.145.01.29.01.435 0Z" fill="#6C6B6B"/><path d="M49.946 14.457c.018.427-.024.855-.123 1.271-.343 1.112-1.013 1.562-2.32 1.538a1.993 1.993 0 0 1-2.065-1.665 4.722 4.722 0 0 1-.028-1.921c.236-1.263 1.045-1.893 2.392-1.85a2.065 2.065 0 0 1 2.133 1.973c.007.247.003.494.011.654Zm-1.06 0c0-.16 0-.399-.04-.602-.115-.773-.526-1.147-1.22-1.14-.693.008-1.072.4-1.195 1.196a4.131 4.131 0 0 0 .044 1.55 1.195 1.195 0 0 0 2.28.104c.094-.356.139-.724.131-1.092v-.016Z" fill="#0B83C9"/><path d="M36.068 15.633v.968c0 .183.203.442-.044.538-.247.095-.721.167-.853-.044-.287-.482-.546-.195-.837-.096a2.58 2.58 0 0 1-2.997-3.852 2.578 2.578 0 0 1 4.727 1.218c.028.419 0 .845 0 1.268h.004Zm-.857-1.048a1.757 1.757 0 1 0-3.515-.008 1.757 1.757 0 0 0 3.515.008Z" fill="#C9DC0B"/><path d="M26.306 17.254c-.82.02-1.554-.175-1.937-.98-.091-.191-.326-.57.068-.673.275-.068.666-.228.913.215a1.134 1.134 0 0 0 1.57.498.642.642 0 0 0 .399-.57.537.537 0 0 0-.399-.574c-.426-.131-.869-.223-1.303-.326-.973-.228-1.4-.726-1.347-1.594.047-.774.59-1.28 1.494-1.403 1.196-.16 2.073.223 2.336 1.012.068.207.287.534-.092.602-.279.048-.717.259-.889-.211a.796.796 0 0 0-.868-.562c-.399 0-.841.08-.91.585-.067.507.344.59.718.674.375.084.69.135 1.025.231.964.267 1.363.797 1.295 1.634a1.646 1.646 0 0 1-1.594 1.43c-.136.024-.311.012-.479.012Z" fill="#2D201D"/><path d="M58.707 13.5c0-1.02.028-2.04 0-3.06 0-.478.148-.586.594-.578.447.008.562.096.558.538a267.76 267.76 0 0 0 0 6.197c0 .458-.131.59-.59.598-.458.008-.566-.224-.558-.634.008-1.02-.004-2.04-.004-3.06ZM30.432 14.572v2.164c0 .466-.263.443-.578.447-.315.004-.574 0-.566-.463.024-1.442.024-2.885 0-4.327 0-.427.187-.486.542-.486.355 0 .63 0 .606.502-.032.74-.004 1.442-.004 2.163Z" fill="#3B2E2B"/><path d="M56.507 14.533v-2.084c0-.351.032-.57.47-.538.343.024.622 0 .61.49a111.467 111.467 0 0 0 0 4.315c0 .455-.235.45-.562.463-.327.012-.546-.068-.522-.49.028-.718.004-1.435.004-2.156Z" fill="#322522"/><path d="M30.416 10.437c.131.514-.152.55-.574.573-.514.028-.546-.207-.554-.613-.008-.407.155-.53.558-.534.402-.004.697.075.57.574Z" fill="#3B2E2B"/><path d="M57.56 10.436c.087.399-.068.546-.507.566-.506.024-.546-.19-.558-.605-.012-.415.152-.523.558-.527.407-.004.594.152.506.566Z" fill="#2C1E1B"/></g><defs><clipPath id="a"><path fill="#fff" d="M0 0h66v20H0z"/></clipPath></defs></svg>