<svg width="45" height="20" fill="none" xmlns="http://www.w3.org/2000/svg"><g clip-path="url(#a)" fill="#DD4228"><path d="M15.28 7.221h4.804v1.717H15.28c-.297 0-.582.118-.792.326-.21.209-.329.49-.33.785v3.938c.001.294.12.576.33.785.21.208.495.325.792.326h7.053v-2.22h-5.941v-1.72h5.94V5.001h-7.052a1.13 1.13 0 0 0-.826.307 1.111 1.111 0 0 0-.347.803 1.103 1.103 0 0 0 .347.804 1.122 1.122 0 0 0 .826.306ZM26.257 5.001h-2.24v10.097h2.24V5ZM1.12 7.221h.418v1.717h-.419c-.288.013-.56.136-.76.343a1.106 1.106 0 0 0 0 1.535c.2.207.472.33.76.342h10.986v-2.22h-1.21V7.221h1.21v-2.22H1.119c-.288.013-.56.136-.76.343a1.106 1.106 0 0 0 0 1.535c.2.207.472.33.76.342Zm2.658 0h4.876v1.717H3.778V7.221ZM3.778 15.098h8.327v-2.22H3.778c-.288.013-.56.135-.76.342a1.106 1.106 0 0 0 0 1.535c.2.207.472.33.76.343ZM1.119 12.878a1.129 1.129 0 0 0-1.036.686 1.102 1.102 0 0 0 .244 1.211 1.125 1.125 0 0 0 1.223.24 1.118 1.118 0 0 0 .69-1.029 1.1 1.1 0 0 0-.328-.784 1.12 1.12 0 0 0-.793-.324ZM28.305 13.986c0 .295.119.577.329.786.21.208.495.325.792.326h6.97v-2.22h-6.97c-.297 0-.582.116-.792.324-.21.208-.329.49-.33.784ZM28.305 10.05c0 .294.119.576.329.784.21.207.495.324.792.324h6.97v-2.22h-6.97c-.297 0-.582.118-.792.326-.21.209-.329.49-.33.785ZM28.305 6.11c0 .295.119.577.329.785.21.208.495.326.792.326h6.97v-2.22h-6.97c-.297 0-.582.117-.792.325-.21.208-.329.49-.33.784ZM40.41 5.001h-2.24v10.097h2.24V5ZM43.306 15.098a1.129 1.129 0 0 0 1.036-.686 1.101 1.101 0 0 0-.243-1.211 1.125 1.125 0 0 0-1.222-.241 1.104 1.104 0 0 0 0 2.053c.136.056.282.085.429.085Z"/></g><defs><clipPath id="a"><path fill="#fff" d="M0 0h45v20H0z"/></clipPath></defs></svg>