<svg width="51" height="20" fill="none" xmlns="http://www.w3.org/2000/svg"><path d="M31.695 7.787c.648.046 1.171-.117 1.686.214.879.542 1.28.285 1.538-.959a2.41 2.41 0 0 1-2.12.246c-1.139-.452-1.697-1.863-1.229-3.146a2.103 2.103 0 0 1 1.97-1.461c.293-.005.583.05.852.163.281.098.496.261.78-.066.122-.14.52-.074.781-.039a.445.445 0 0 1 .422.48c0 1.477.043 2.954-.043 4.427-.05.936-.937 1.669-1.893 1.778-1.44.16-2.092-.203-2.744-1.637ZM33.8 6.18a1.036 1.036 0 0 0 1.17-1.01c.044-.631-.503-1.306-1.06-1.313a1.075 1.075 0 0 0-1.062 1.153c-.02.78.288 1.17.952 1.17ZM25.053 14.873c.78-1.4 1.46-2.654 2.177-3.898.215-.366.352-1.01.976-.78.445.168.219.687.223 1.045v5.36c0 .3.062.67-.434.643-.39-.024-.51-.253-.507-.628a36.42 36.42 0 0 0-.14-4.104c-.555.982-1.105 1.968-1.667 2.95-.472.82-.757.815-1.28 0-.628-.97-1.038-2.065-1.87-3.118v4.4c0 .235 0 .496-.324.508-.323.011-.62-.086-.612-.511v-6.049c0-.234-.02-.488.316-.511.234-.02.472-.047.609.222.066.137.156.265.23.39l2.303 4.08ZM41.995 5.152v1.516c0 .842-.094.943-.948.815a3.236 3.236 0 0 0-1.312 0c-1.424.327-2.607-.686-2.661-2.16-.086-.66.089-1.329.487-1.863a2.018 2.018 0 0 1 2.08-.78c.432.146.895.17 1.34.07.807-.214 1.018.032 1.03.886a65.737 65.737 0 0 0-.016 1.516Zm-3.512 0c0 .701.44 1.17 1.018 1.17a1.316 1.316 0 0 0 1.09-1.275 1.328 1.328 0 0 0-1.11-1.17c-.62-.035-1.034.51-1.018 1.29l.02-.015ZM36.629 12.73c.862-.554 1.611-.862 2.525-.511 1.377.522 1.998 2.186 1.37 3.683-.558 1.321-2.342 1.89-3.407 1.056-.367-.288-.39-.05-.645.125-.39.28-.78.043-.78-.437v-6.053a.92.92 0 0 1 .039-.343c.101-.253.332-.296.574-.288.242.007.312.194.312.39.016.744.012 1.48.012 2.377Zm3.266 2.026a1.72 1.72 0 0 0-1.56-1.816 1.688 1.688 0 0 0-1.687 1.699c-.055 1.095.59 1.824 1.62 1.832.94-.012 1.6-.702 1.627-1.715ZM30.727 5.214v1.863c0 .285-.132.425-.425.417-.156.01-.312.01-.468 0a3.475 3.475 0 0 0-1.417 0c-1.17.262-2.073-.495-2.131-1.691-.043-.854 0-1.707-.024-2.561 0-.39.157-.565.559-.534.402.031.839-.078.854.518V5.32c.024.62.238.87.691.897.554.039.757-.34.867-.78.109-.651.129-1.315.058-1.972 0-.803.137-.78.917-.756.39 0 .523.25.512.624-.004.639.008 1.262.008 1.882ZM25.502 4.177c-.543.074-1.066.238-1.526-.222a.39.39 0 0 0-.2-.113c-.335-.043-.839-.199-.932.156-.117.452.429.456.733.495.505.038.994.193 1.429.452a1.233 1.233 0 0 1 .39 1.72c-.808 1.235-3.15 1.184-3.93-.094-.238-.39-.11-.636.39-.647.39 0 .78-.067 1.07.304.19.234.503.171.78.152.188 0 .418 0 .441-.265.024-.265-.238-.3-.39-.347-.445-.14-.906-.21-1.35-.34a1.257 1.257 0 0 1-1.035-1.106 1.332 1.332 0 0 1 .746-1.341 2.285 2.285 0 0 1 3.384 1.196ZM48.786 17.34a2.59 2.59 0 0 1-2.709-2.338c-.124-1.107.555-2.593 1.987-2.857a2.414 2.414 0 0 1 2.771 1.54c.069.177.115.363.137.553.082.729.023.803-.695.81h-2.689c-.39 0-.527.23-.39.612.312.811 1.413 1.068 2.29.573.262-.148.36-.538.75-.483.152.023.34-.027.43.117a.39.39 0 0 1-.055.429 2.476 2.476 0 0 1-1.827 1.044Zm-1.76-3.083h3.005c-.265-.99-.6-1.317-1.358-1.349-.89-.038-1.245.246-1.663 1.35h.016ZM32.101 17.336a2.533 2.533 0 0 1-2.344-1.659 2.523 2.523 0 0 1-.15-.999c.032-1.395.863-2.537 2.557-2.623 1.346-.066 2.568 1.232 2.51 2.678-.075 1.695-1.175 2.56-2.573 2.603Zm.051-.884a1.778 1.778 0 0 0 1.746-.994 1.772 1.772 0 0 0-1.215-2.505 1.778 1.778 0 0 0-2.159 1.76c.012 1.04.668 1.743 1.628 1.739ZM46.245 3.452c.055.39-.054.562-.562.562-1.089 0-1.288.245-1.307 1.302v1.75c0 .58-.465.39-.78.39-.317 0-.637.019-.633-.445V3.164c0-.452.265-.542.605-.472a4.217 4.217 0 0 0 1.897-.039c.667-.124.784.051.78.8ZM43.99 13.618V10.94a2.876 2.876 0 0 1 0-.58.467.467 0 0 1 .503-.414.492.492 0 0 1 .562.46c.01.154.01.31 0 .464v5.925a.474.474 0 0 1-.55.467.472.472 0 0 1-.504-.514v-.819l-.011-2.311Z" fill="#575757"/><path d="M.304 6.96H0v-.674c.3-.187.347-.534.488-.815A2.23 2.23 0 0 1 1.95 4.142a.98.98 0 0 0 .64-.69 2.615 2.615 0 0 1 1.628-1.59.995.995 0 0 0 .152-.05c.87-.484.933-.46 1.3.502a.782.782 0 0 0-.664.23c-.92 1.045-2.084 1.84-3.056 2.857-.49.578-1.043 1.1-1.647 1.56Z" fill="#98F289"/><path d="M11.318 18.498v-.3c0-.39.258-.558.57-.71.272-.122.519-.293.73-.502.937-.955 1.909-1.88 2.838-2.846.384-.333.68-.756.862-1.232a.52.52 0 0 1 .3.78c-.234.39-.316.865-.612 1.22a2.4 2.4 0 0 1-1.296.943.78.78 0 0 0-.593.643 2.117 2.117 0 0 1-1.35 1.52c-.23.086-.555.13-.606.472l-.843.012Z" fill="#EB43C6"/><path d="M10.791 17.368a3.93 3.93 0 0 1-.69-1.657c.234-.055.347-.257.503-.39.84-.78 1.561-1.645 2.49-2.338.363-.273.835-.55.878-1.111a3.418 3.418 0 0 1 1.64.701c.035.226-.114.351-.254.484-1.487 1.465-2.908 3.013-4.567 4.31Z" fill="#FD3DB6"/><path d="M9.304 15.348a2.934 2.934 0 0 1-1.99 0c-.023-.39.312-.592.554-.78a14.87 14.87 0 0 0 2.155-2.014c1.003-1.049 2.158-1.95 3.169-2.97a.504.504 0 0 1 .437-.184c.25.632.062 1.224-.14 1.82a.466.466 0 0 0-.39.106c-1.172 1.146-2.444 2.16-3.556 3.352a.78.78 0 0 0-.239.67Z" fill="#FE3BA5"/><path d="M4.984 14.218a1.728 1.728 0 0 1-.667-.662c.035-.176.195-.254.296-.39.43-.538 1.054-.858 1.53-1.345.804-.826 1.628-1.63 2.447-2.436a5.83 5.83 0 0 1 .484-.448 20.972 20.972 0 0 0 2.908-2.858c.367.168.464.554.695.839-.605.506-1.234.993-1.807 1.531-.843.78-1.647 1.63-2.471 2.444-.15.16-.31.312-.48.452a21.233 21.233 0 0 0-2.935 2.873Z" fill="#FE7A88"/><path d="M3.31 11.74c-.293-.223-.094-.554-.184-.82a2.732 2.732 0 0 0 1.26-.841c.89-.78 1.695-1.684 2.64-2.452.838-.698 1.56-1.528 2.34-2.3.16-.156.325-.304.29-.557.289-.017.576.058.82.214a.848.848 0 0 1-.075.308c-.195.491-.695.663-1.022 1.014-1.562 1.68-3.345 3.153-4.977 4.77a2.022 2.022 0 0 1-1.092.663Z" fill="#FEB16A"/><path d="M3.31 11.74a2.022 2.022 0 0 0 1.085-.664c1.631-1.617 3.41-3.09 4.972-4.77.328-.351.827-.523 1.022-1.014a.848.848 0 0 0 .075-.308c.285.148.62.199.82.48C9.721 6.933 8.16 8.394 6.6 9.872c-.968.92-1.846 1.949-2.963 2.693a.963.963 0 0 1-.327-.826Z" fill="#FEA373"/><path d="M9.305 15.348a.779.779 0 0 1 .245-.65c1.113-1.193 2.4-2.207 3.556-3.353a.464.464 0 0 1 .39-.105c-.183.472.293.437.484.624-.043.561-.515.838-.878 1.11-.921.69-1.65 1.56-2.49 2.34-.156.144-.27.346-.504.39-.14-.398-.472-.379-.803-.356Z" fill="#FE3CAE"/><path d="M6.635 15.173c-.215-.125-.511-.05-.675-.288.404-.534.858-1.028 1.358-1.474 1.596-1.586 3.267-3.095 4.886-4.658a3.607 3.607 0 0 1 1.066-.814.848.848 0 0 1 .175.658.457.457 0 0 0-.39.13c-.39.389-.835.779-1.198 1.2-.87 1.025-1.994 1.773-2.912 2.76-.663.716-1.393 1.395-2.123 2.061a.464.464 0 0 0-.187.425Z" fill="#FE5797"/><path d="M13.27 7.939c-.402.203-.762.479-1.062.814-1.62 1.56-3.29 3.072-4.886 4.678-.5.446-.955.94-1.358 1.473a1.083 1.083 0 0 1-.703-.487c.707-.367 1.206-.994 1.752-1.524 1.733-1.676 3.587-3.228 5.238-4.985.113-.121.238-.23.351-.347a.598.598 0 0 1 .39-.117c.135.138.23.308.278.495Z" fill="#FE6492"/><path d="M6.635 15.173a.463.463 0 0 1 .215-.417c.73-.667 1.46-1.345 2.123-2.062.917-.986 2.041-1.734 2.911-2.76.363-.428.8-.799 1.198-1.2a.456.456 0 0 1 .39-.129c-.023.293.266.519.173.823a.504.504 0 0 0-.438.183c-1.01 1.037-2.166 1.921-3.169 2.97a14.864 14.864 0 0 1-2.154 2.015c-.242.168-.578.359-.554.78-.27.035-.45-.191-.695-.203Z" fill="#FE489D"/><path d="M3.653 12.566c1.116-.757 1.994-1.774 2.962-2.694C8.177 8.395 9.738 6.933 11.3 5.464a.507.507 0 0 1 .359.304c-.09.276-.347.413-.527.616-.983 1.099-2.205 1.948-3.216 3.028-1.23 1.306-2.611 2.452-3.926 3.664a.543.543 0 0 1-.336-.51Z" fill="#FE9779"/><path d="M10.791 17.368c1.66-1.298 3.08-2.846 4.575-4.311.14-.133.289-.258.253-.484.313-.066.441.234.668.335a3.087 3.087 0 0 1-.863 1.232c-.929.967-1.9 1.89-2.837 2.846a2.495 2.495 0 0 1-.73.499c-.312.152-.562.33-.57.709-.18-.265-.453-.48-.496-.826Z" fill="#F240C2"/><path d="M13 7.424a.598.598 0 0 0-.39.117c-.113.117-.238.226-.351.347-1.651 1.758-3.513 3.31-5.238 4.985-.546.53-1.046 1.17-1.752 1.525-.125 0-.254-.028-.289-.18a21.225 21.225 0 0 1 2.935-2.865c.17-.14.33-.291.48-.452.824-.815 1.628-1.649 2.47-2.444.574-.538 1.203-1.025 1.808-1.532l.328.5Z" fill="#FE708D"/><path d="M2.986 8.274a1.82 1.82 0 0 1-.992-.343.46.46 0 0 1 .125-.366c1.03-1.018 2.026-2.07 3.095-3.037.316-.296.64-.686 1.124-.729a.92.92 0 0 1 .297.823c-.262-.043-.39.152-.55.3-.968.88-1.772 1.949-2.869 2.685a.663.663 0 0 0-.23.667Z" fill="#E1E560"/><path d="M3.977 13.076c1.315-1.212 2.697-2.358 3.926-3.664 1.011-1.072 2.233-1.93 3.216-3.029.18-.202.438-.339.527-.615a.602.602 0 0 1 .336.32 20.966 20.966 0 0 1-2.908 2.856 5.83 5.83 0 0 0-.488.449c-.82.806-1.643 1.61-2.447 2.436-.476.487-1.1.807-1.53 1.345-.101.128-.261.206-.296.39a.511.511 0 0 1-.336-.488Z" fill="#FE8D7F"/><path d="M9.648 4.77c.035.253-.129.39-.289.557-.78.78-1.506 1.602-2.342 2.3-.932.78-1.736 1.657-2.626 2.46a2.732 2.732 0 0 1-1.269.834c-.25-.188-.097-.449-.125-.675.107-.014.212-.042.313-.082.78-.448 1.373-1.169 2.053-1.742 1.112-.947 2.092-2.042 3.122-3.064a.78.78 0 0 0 .304-.717c.305.016.613-.117.859.129Z" fill="#FEBD61"/><path d="M2.986 8.274a.662.662 0 0 1 .242-.655c1.096-.748 1.9-1.805 2.868-2.685.149-.149.29-.343.539-.312.152.366.336 0 .5.02a1.168 1.168 0 0 1-.445.997c-.957.85-1.897 1.711-2.787 2.631a1.018 1.018 0 0 1-.722.328l-.195-.324Z" fill="#FDDD4C"/><path d="M8.809 4.641a.779.779 0 0 1-.305.717C7.458 6.38 6.48 7.475 5.382 8.422c-.679.585-1.26 1.294-2.053 1.742-.1.04-.205.068-.312.082V9.42c.187 0 .372-.042.542-.12.31-.175.584-.405.808-.68.988-.896 1.827-1.948 2.916-2.728.423-.296.727-.732.858-1.231l.668-.02Z" fill="#FEC75A"/><path d="M.304 6.96a10.532 10.532 0 0 0 1.647-1.559c.96-1.01 2.124-1.804 3.045-2.85a.78.78 0 0 1 .663-.229c.168.055.145.203.176.327-.8.71-1.62 1.423-2.424 2.152-.886.807-1.65 1.746-2.603 2.487a.543.543 0 0 1-.504-.328Z" fill="#AEF07F"/><path d="M8.141 4.653a2.183 2.183 0 0 1-.858 1.232c-1.09.78-1.928 1.847-2.916 2.728-.223.277-.497.51-.808.686a1.297 1.297 0 0 1-.546.113c-.098-.304.137-.542.16-.822a1.02 1.02 0 0 0 .73-.32 48.143 48.143 0 0 1 2.806-2.62 1.17 1.17 0 0 0 .445-.997h.987Z" fill="#FED151"/><path d="M.808 7.288c.952-.74 1.717-1.68 2.603-2.487.804-.729 1.624-1.442 2.443-2.16.172.125.207.332.297.507-.3-.043-.433.195-.605.363-.69.67-1.366 1.348-2.033 2.023a5.668 5.668 0 0 1-.781.725 6.003 6.003 0 0 0-1.39 1.348.535.535 0 0 1-.534-.32Z" fill="#C1EC74"/><path d="M1.33 7.607c.391-.522.865-.978 1.402-1.348.282-.217.544-.46.78-.725.684-.675 1.359-1.353 2.042-2.023.172-.168.304-.39.605-.363.14.187.21.418.195.651-.5.043-.824.433-1.14.73-1.07.966-2.064 2.018-3.095 3.036a.46.46 0 0 0-.125.366.817.817 0 0 1-.663-.324Z" fill="#D2E96A"/><path d="M42.74 14.713v2.082c0 .308-.187.39-.452.39-.266 0-.465-.055-.465-.367v-4.167c0-.39.239-.413.531-.42.293-.008.41.128.39.416v2.086l-.003-.02ZM42.366 9.903a.601.601 0 0 1 .565.592c.028.304-.39.725-.663.682a.69.69 0 0 1-.612-.6c-.051-.288.362-.67.71-.674Z" fill="#575757"/></svg>