<svg width="48" height="20" fill="none" xmlns="http://www.w3.org/2000/svg"><g clip-path="url(#a)"><path d="M38.553 5.277H37.22v2.227h1.333V5.277ZM38.553 8.095H37.22v6.612h1.333V8.095ZM22.575 11.011a2.616 2.616 0 0 0-.774-1.789 2.597 2.597 0 0 0-1.792-.752 2.297 2.297 0 0 0-1.793.887l-.017.023a2.4 2.4 0 0 0-1.816-.907 2.483 2.483 0 0 0-1.726.786c-.449.48-.69 1.12-.673 1.779v3.69h1.319v-3.546c-.044-.809.5-1.391 1.074-1.391.718.003 1.277.417 1.277 1.347v3.578h1.298v-3.587c.003-.744.468-1.335 1.133-1.335.754 0 1.177.614 1.177 1.368v3.545h1.307v-3.699M26.19 8.456a3.106 3.106 0 0 0-1.708.596 3.137 3.137 0 0 0-.277 4.825 3.11 3.11 0 0 0 3.418.539 3.118 3.118 0 0 0 1.35-1.208 3.135 3.135 0 0 0-.547-3.927 3.107 3.107 0 0 0-2.237-.825Zm.211 4.922a1.795 1.795 0 0 1-1.71-1.047 1.814 1.814 0 0 1 .31-1.985 1.8 1.8 0 0 1 1.946-.472 1.802 1.802 0 0 1 1.179 1.625c.019.477-.15.942-.472 1.294a1.798 1.798 0 0 1-1.244.585H26.4ZM33.332 8.453a3.1 3.1 0 0 0-1.819.59v-3.79h-1.286v6.337a3.13 3.13 0 0 0 .532 1.732 3.112 3.112 0 0 0 3.197 1.314 3.107 3.107 0 0 0 1.589-.86 3.126 3.126 0 0 0 .664-3.403 3.12 3.12 0 0 0-1.149-1.398 3.102 3.102 0 0 0-1.728-.522Zm0 4.925a1.797 1.797 0 0 1-1.658-1.122 1.815 1.815 0 0 1 .395-1.967 1.799 1.799 0 0 1 3.073 1.278 1.81 1.81 0 0 1-1.11 1.673c-.22.091-.454.138-.691.138h-.009ZM44.883 13.404a1.739 1.739 0 0 0 1.319-.481.788.788 0 0 0 .068-.074h1.471a3.13 3.13 0 0 1-.656.957 3.113 3.113 0 0 1-3.396.68 3.118 3.118 0 0 1-1.399-1.152 3.137 3.137 0 0 1-.526-1.738 3.029 3.029 0 0 1 .912-2.21 3.05 3.05 0 0 1 2.204-.969 3.18 3.18 0 0 1 2.267.97 2.956 2.956 0 0 1 .85 2.21c0 .21-.02.419-.059.626H43.23s.215 1.181 1.654 1.181Zm1.766-2.493a1.752 1.752 0 0 0-.447-.641 1.868 1.868 0 0 0-2.041-.41 1.868 1.868 0 0 0-.608.41c-.18.177-.313.398-.385.64h3.481ZM40.898 5.28h-1.344v9.424h1.344V5.28Z" fill="#1B1718"/><path d="M4.322 5.885s-4.326-.18-3.11 2.754a22.651 22.651 0 0 0 4.57 6.745s2.802 2.874 4.515-1.09c0 0 1.065-2.798 1.412-4.692 0 0 .533-2.148-1.218-2.706-.003 0-1.98-.863-6.169-1.01Z" fill="#104F9F"/><path d="M5.538 15.425c-2.234.7-3.332-1.327-3.332-1.327C.956 11.803.146 8.275.146 8.275s-.91-2.638 1.648-3.486c0 0 2.649-.945 6.831-1.181 0 0 3.826-.249 2.649 2.85-.012-.011-3.235 8.388-5.736 8.967Z" fill="#52AADA"/><path d="M4.322 5.885s-4.326-.18-3.11 2.754a22.651 22.651 0 0 0 4.57 6.745s2.802 2.874 4.515-1.09c0 0 1.065-2.798 1.412-4.692 0 0 .533-2.148-1.218-2.706-.003 0-1.98-.863-6.169-1.01Z" fill="#1F77BB"/><path d="M5.538 15.425c-2.234.7-3.329-1.327-3.329-1.327C.96 11.806.15 8.275.15 8.275S-.76 5.637 1.794 4.79c0 0 2.664-.945 6.834-1.181 0 0 3.826-.249 2.649 2.85-.012-.011-3.238 8.388-5.74 8.967Z" fill="#07348E"/><path d="m5.04 7.726-1.71 4.555h.945l.295-.806h3.037l.294.806h.942L7.124 7.676S6.83 6.88 6.08 6.88a1.101 1.101 0 0 0-1.039.845Zm1.295.295.98 2.57H4.87l.98-2.57s.076-.224.244-.224c0-.009.165-.009.241.224Z" fill="#fff"/></g><defs><clipPath id="a"><path fill="#fff" d="M0 0h48v20H0z"/></clipPath></defs></svg>