<svg width="66" height="20" viewBox="0 0 66 20" fill="none" xmlns="http://www.w3.org/2000/svg">
<path d="M0 6.12204H1.71712V9.36896L4.74551 6.12204H6.99338L3.52791 9.74361L7.27436 13.9271H4.87039L1.71712 10.2119V13.9271H0V6.12204Z" fill="#44207A"/>
<path d="M14.3302 13.3652C13.3311 13.8959 12.2072 14.1145 11.052 14.1145C8.61683 14.1145 6.83727 12.5222 6.83727 10.0246C6.83727 7.52697 8.64805 5.93472 11.0832 5.93472C12.3008 5.93472 13.3936 6.21571 14.1741 6.93378L12.9565 8.24503C12.4882 7.74551 11.9262 7.49574 11.052 7.49574C9.58466 7.49574 8.64805 8.55724 8.64805 9.99338C8.64805 11.4295 9.61588 12.491 11.052 12.491C11.8013 12.491 12.3633 12.2725 12.6755 12.1164V10.8363H11.2706V9.24409H14.3614L14.3302 13.3652Z" fill="#44207A"/>
<path d="M30.2526 15.3008H18.2327V13.8647H23.3217V11.1173H21.386C20.5118 11.1173 19.9499 10.5241 19.9499 9.68116V4.52979H28.5043V11.1173H25.3198V13.8647H30.2526V15.3008ZM26.5686 9.68116V5.96592H21.8543V9.24407C21.8543 9.49383 22.0104 9.68116 22.2914 9.68116H26.5686Z" fill="#44207A"/>
<path d="M37.0898 4.62346V13.4588H32.3756C31.5014 13.4588 30.9394 12.8657 30.9394 12.0227V4.62346H32.8439V7.74551H35.1854V4.62346H37.0898ZM35.1854 12.0227V9.18165H32.8439V11.5856C32.8439 11.8354 33 12.0227 33.281 12.0227H35.1854ZM40.93 8.36992H42.6783V9.89972H40.93V16.8931H39.0255V3.96783H40.93V8.36992Z" fill="#44207A"/>
<path d="M50.4834 7.15232C50.4834 5.40397 49.0161 4.03027 46.8931 4.03027C44.7701 4.03027 43.334 5.37275 43.334 7.15232C43.334 8.93188 44.7701 10.2744 46.8931 10.2744C49.0161 10.2744 50.4834 8.93188 50.4834 7.15232ZM45.2696 7.15232C45.2696 6.2157 45.894 5.43519 46.9243 5.43519C47.9546 5.43519 48.6102 6.2157 48.6102 7.15232C48.6102 8.08893 47.9546 8.86944 46.9243 8.86944C45.8628 8.86944 45.2696 8.08893 45.2696 7.15232Z" fill="#44207A"/>
<path d="M47.8297 15.6443C47.6736 15.6443 47.6111 15.5818 47.6111 15.4257V14.7389H54.105V11.1485H45.7067V12.5534H52.2005V13.334H45.7067V15.8628C45.7067 16.5497 46.175 17.018 46.8619 17.018H54.3548V15.6131H47.8297V15.6443Z" fill="#44207A"/>
<path d="M54.1362 4.90445C54.1362 4.3737 53.6991 3.93661 53.1684 3.93661C52.6376 3.93661 52.2006 4.3737 52.2006 4.90445C52.2006 4.93567 52.2006 4.96689 52.2006 4.99811V10.6802H54.105V4.90445H54.1362Z" fill="#44207A"/>
<path d="M63.0653 5.9035C63.0653 5.87228 63.0965 5.84106 63.0965 5.77862V5.65374V4.56102C63.0965 3.68685 62.4097 3 61.5355 3C60.6613 3 59.9745 3.68685 59.9745 4.56102V5.68496H58.8505C57.9764 5.68496 57.2895 6.37181 57.2895 7.24598C57.2895 8.12015 57.9764 8.807 58.8505 8.807H59.9745H60.0993C60.1306 8.807 60.1618 8.807 60.2242 8.807C60.193 7.18354 61.473 5.9035 63.0653 5.9035Z" fill="#764CCB"/>
<path d="M64.4078 5.90347H63.2838H63.0653C63.0028 7.46449 61.754 8.74453 60.193 8.77575V8.9943V10.1182C60.193 10.9924 60.8798 11.6793 61.754 11.6793C62.6282 11.6793 63.315 10.9924 63.315 10.1182V8.9943H64.439C65.3131 8.9943 66 8.30745 66 7.43327C65.9688 6.59032 65.2819 5.90347 64.4078 5.90347Z" fill="#ED0080"/>
<path d="M63.0653 5.90347C61.473 5.90347 60.193 7.18351 60.193 8.77575C61.754 8.71331 63.0028 7.46449 63.0653 5.90347Z" fill="#6E0066"/>
</svg>
