<svg width="60" height="20" viewBox="0 0 60 20" fill="none" xmlns="http://www.w3.org/2000/svg">
<path d="M7.191 13.999L4.806 11.137L8.272 6.984H6.381C6.01179 6.96272 5.64269 7.02777 5.303 7.174C4.96587 7.31821 4.66772 7.54028 4.433 7.822L2.609 10.009V4H0.779C0.573227 4.00035 0.375648 4.08067 0.228 4.224C0.156021 4.29393 0.0987665 4.37755 0.0596091 4.46995C0.0204518 4.56235 0.000183977 4.66165 0 4.762V15.964H1.831C2.03558 15.9645 2.23239 15.8857 2.38 15.744C2.45171 15.675 2.50898 15.5925 2.54847 15.5011C2.58795 15.4098 2.60887 15.3115 2.61 15.212V12.232L4.094 14.006L5.357 15.52C5.46948 15.659 5.61167 15.771 5.77313 15.8479C5.93458 15.9247 6.1112 15.9644 6.29 15.964H8.845L7.191 14V13.999Z" fill="url(#paint0_linear_1064_10478)"/>
<path d="M8.20147 15.5976C8.05347 15.4406 7.46347 14.6856 6.72747 13.8376C5.75147 12.7166 4.75547 11.4446 4.50947 11.1436L7.66747 7.35357L7.79747 7.20557H6.28147C5.97038 7.21239 5.66376 7.28105 5.37947 7.40757C5.09708 7.53306 4.84299 7.71436 4.63247 7.94057L2.45747 10.5526C2.4472 10.5567 2.43574 10.5567 2.42547 10.5526C2.41429 10.5526 2.40353 10.5483 2.39547 10.5406C2.39149 10.5367 2.38837 10.532 2.3863 10.5268C2.38424 10.5217 2.38327 10.5161 2.38347 10.5106V4.22657H0.781469C0.635972 4.22605 0.496028 4.28239 0.391469 4.38357C0.340584 4.43292 0.300117 4.49198 0.272462 4.55725C0.244808 4.62252 0.230528 4.69268 0.230469 4.76357V15.7566H1.83347C1.97959 15.7558 2.11973 15.6985 2.22447 15.5966C2.2752 15.5463 2.31547 15.4865 2.34293 15.4206C2.37039 15.3547 2.38451 15.284 2.38447 15.2126V11.6616C2.3844 11.6559 2.38552 11.6503 2.38776 11.6452C2.39 11.64 2.39331 11.6354 2.39747 11.6316C2.40568 11.6242 2.41643 11.6202 2.42747 11.6206C2.43734 11.6183 2.4476 11.6183 2.45747 11.6206L4.29347 13.8246L5.57347 15.3566C5.66762 15.4698 5.7842 15.5623 5.91586 15.6282C6.04753 15.6941 6.19142 15.732 6.33847 15.7396H8.34847L8.20147 15.5996V15.5976Z" fill="url(#paint1_linear_1064_10478)"/>
<path d="M11.8889 15.964C11.5721 15.9804 11.2552 15.9317 10.9579 15.821C10.6625 15.7109 10.3931 15.5406 10.1669 15.321C9.94271 15.1037 9.76718 14.8412 9.65192 14.551C9.53761 14.2625 9.48679 13.9529 9.50292 13.643V4.755C9.50421 4.65505 9.52539 4.55635 9.56522 4.46467C9.60505 4.37299 9.66274 4.29016 9.73492 4.221C9.88279 4.07901 10.0799 3.9998 10.2849 4H12.1169V13.175C12.1169 13.356 12.1909 13.53 12.3229 13.658C12.4539 13.787 12.6329 13.858 12.8189 13.858H14.6819V15.226C14.6748 15.4249 14.5893 15.613 14.4439 15.749C14.2964 15.8876 14.1014 15.9645 13.8989 15.964H11.8889Z" fill="url(#paint2_linear_1064_10478)"/>
<path d="M11.8914 15.7567C11.6042 15.7717 11.3169 15.7274 11.0474 15.6267C10.78 15.5273 10.5362 15.3734 10.3314 15.1747C10.1287 14.9777 9.97015 14.7397 9.86644 14.4767C9.7633 14.2152 9.71793 13.9344 9.73344 13.6537V4.7667C9.7324 4.69501 9.74606 4.62386 9.77358 4.55764C9.8011 4.49143 9.84189 4.43155 9.89344 4.3817C9.94547 4.33037 10.0072 4.28988 10.075 4.26259C10.1428 4.23529 10.2154 4.22174 10.2884 4.2227H11.8914V13.1757C11.8914 13.4157 11.9894 13.6457 12.1634 13.8157C12.3384 13.9857 12.5744 14.0817 12.8214 14.0817H14.4564V15.2167C14.4564 15.3597 14.3974 15.4967 14.2934 15.5987C14.1883 15.7004 14.0477 15.757 13.9014 15.7567H11.8914Z" fill="url(#paint3_linear_1064_10478)"/>
<path style="mix-blend-mode:screen" opacity="0.5" d="M0.258562 7.88672H0.226562V15.7417H0.258562V7.88672Z" fill="url(#paint4_radial_1064_10478)"/>
<path style="mix-blend-mode:screen" opacity="0.25" d="M0.425781 15.7554H1.85678C2.00219 15.7479 2.13907 15.6845 2.23878 15.5784C2.28718 15.5266 2.32483 15.4658 2.34954 15.3993C2.37426 15.3329 2.38556 15.2622 2.38278 15.1914V11.6914H2.35178V15.1914C2.35348 15.325 2.3033 15.4541 2.21178 15.5514C2.11893 15.6506 1.99224 15.7112 1.85678 15.7214H0.425781V15.7554Z" fill="url(#paint5_radial_1064_10478)"/>
<path style="mix-blend-mode:screen" opacity="0.25" d="M9.76247 7.82466V4.72466C9.77314 4.60143 9.82822 4.48629 9.91747 4.40066C10.0078 4.31395 10.1256 4.26158 10.2505 4.25266H11.8565L11.8885 4.22266H10.2505C10.117 4.23145 9.99095 4.28704 9.89447 4.37966C9.79967 4.47089 9.74137 4.59354 9.73047 4.72466V7.82466H9.76247Z" fill="url(#paint6_radial_1064_10478)"/>
<path style="mix-blend-mode:screen" opacity="0.25" d="M9.76247 13.7007V7.8457H9.73047V13.6997H9.76247V13.7007Z" fill="url(#paint7_radial_1064_10478)"/>
<path style="mix-blend-mode:screen" opacity="0.5" d="M11.856 13.0684C11.853 13.1774 11.864 13.2864 11.888 13.3934C11.931 13.5834 12.037 13.7534 12.189 13.8784C12.385 14.0384 12.635 14.1234 12.891 14.1144H14.438V14.0804H12.881C12.6647 14.0897 12.4517 14.0252 12.277 13.8974C12.1045 13.7717 11.9817 13.5894 11.93 13.3824C11.9105 13.2789 11.9021 13.1736 11.905 13.0684H11.856Z" fill="url(#paint8_radial_1064_10478)"/>
<path style="mix-blend-mode:screen" opacity="0.25" d="M13.8744 15.722H11.8604C11.5841 15.7368 11.3077 15.6946 11.0484 15.598C10.7907 15.5025 10.5557 15.3543 10.3584 15.163C10.163 14.974 10.0099 14.7457 9.90938 14.493C9.80954 14.2415 9.76519 13.9713 9.77938 13.701H9.74438C9.73138 13.974 9.77638 14.247 9.87738 14.501C9.97838 14.756 10.1334 14.988 10.3314 15.181C10.5294 15.374 10.7674 15.525 11.0284 15.623C11.2904 15.722 11.5704 15.766 11.8504 15.753H13.8634L13.8734 15.722H13.8744Z" fill="url(#paint9_radial_1064_10478)"/>
<path style="mix-blend-mode:multiply" d="M9.73047 9.85286H11.8885V8.50586H9.73047V9.85286Z" fill="url(#paint10_linear_1064_10478)"/>
<path style="mix-blend-mode:screen" opacity="0.25" d="M4.48794 11.1488C4.48794 11.1488 7.36594 7.68283 7.71694 7.29883H7.67394L4.46094 11.1348L4.48894 11.1488H4.48794Z" fill="url(#paint11_radial_1064_10478)"/>
<path style="mix-blend-mode:multiply" d="M6.272 7.18555C5.969 7.19255 5.672 7.25855 5.397 7.38155C5.12325 7.50287 4.87669 7.67801 4.672 7.89655L2.5 10.4945L4.514 11.1235C4.514 11.1235 7.444 7.60955 7.77 7.22355C7.37 7.22955 6.272 7.18555 6.272 7.18555Z" fill="url(#paint12_linear_1064_10478)"/>
<path style="mix-blend-mode:screen" opacity="0.25" d="M5.61328 15.4004C5.80052 15.6059 6.06157 15.7289 6.33928 15.7424H8.09328L8.06828 15.7224H6.31428C6.05182 15.6941 5.80572 15.5811 5.61328 15.4004Z" fill="url(#paint13_radial_1064_10478)"/>
<path style="mix-blend-mode:screen" opacity="0.25" d="M2.18485 4.22656H0.752846C0.608428 4.23402 0.472393 4.29667 0.372846 4.40156C0.324287 4.45291 0.286383 4.51337 0.261324 4.57945C0.236265 4.64554 0.224546 4.71593 0.226846 4.78656V8.36256H0.261846V4.78656C0.259499 4.65322 0.308969 4.52417 0.399846 4.42656C0.492198 4.32786 0.618097 4.26723 0.752846 4.25656H2.18485V4.22656Z" fill="url(#paint14_radial_1064_10478)"/>
<path d="M12.9813 7.28205H6.15428C5.78353 7.25855 5.41233 7.32047 5.06928 7.46305C4.72926 7.60449 4.42692 7.82328 4.18628 8.10205L2.86328 9.70505C3.39269 9.32766 4.02714 9.12585 4.67728 9.12805H12.9813C14.0343 9.12805 15.0483 8.81305 15.0483 8.00305C15.056 7.58266 15.0242 7.16248 14.9533 6.74805C14.9533 6.74805 14.4733 7.28205 12.9813 7.28205Z" fill="url(#paint15_linear_1064_10478)"/>
<path d="M2.87891 9.68031L4.40891 7.84531C4.62891 7.55531 4.92091 7.32431 5.25691 7.17231C5.59391 7.02034 5.96295 6.95306 6.33191 6.97631H12.9799C14.3839 6.97631 14.8779 6.49131 14.8819 6.48431L15.0469 6.32031V8.00931C15.0438 8.19356 14.9684 8.36919 14.8369 8.49831C14.5129 8.83931 13.8889 9.01431 12.9799 9.01431H4.66491C4.01078 9.02475 3.38015 9.25991 2.87891 9.68031Z" fill="url(#paint16_linear_1064_10478)"/>
<path style="mix-blend-mode:screen" opacity="0.7" d="M15.0477 8.10289C15.0477 8.26689 14.8197 8.98489 12.9947 8.98489H4.79272C4.09306 8.95929 3.41044 9.20425 2.88672 9.66889V9.68589C3.42042 9.22873 4.10417 8.98479 4.80672 9.00089H12.9807C15.0407 9.00089 15.0337 8.08789 15.0337 8.08789L15.0477 8.10189V8.10289Z" fill="url(#paint17_radial_1064_10478)"/>
<path d="M19.9636 14.5296H21.8936C22.0966 14.5256 22.2986 14.4886 22.4896 14.4196C22.5709 14.3895 22.6399 14.3332 22.6856 14.2596C22.7305 14.187 22.7492 14.1013 22.7386 14.0166C22.7414 13.9054 22.703 13.7971 22.6306 13.7126C22.5165 13.6031 22.378 13.5223 22.2266 13.4766L20.0336 12.7166C19.5933 12.5839 19.2008 12.3266 18.9036 11.9756C18.6877 11.6617 18.5796 11.2862 18.5956 10.9056C18.5831 10.6481 18.6332 10.3915 18.7416 10.1576C18.8496 9.92259 19.0136 9.71659 19.2196 9.55559C19.7266 9.20169 20.3347 9.0217 20.9526 9.04259H22.3566C22.6736 9.06259 22.9926 9.05059 23.3066 9.00859C23.5516 8.97559 23.7886 8.90459 24.0086 8.79659V9.66159C24.0123 9.80244 23.9694 9.94059 23.8866 10.0546C23.7923 10.1708 23.6721 10.2632 23.5356 10.3246C23.3806 10.4006 23.2156 10.4546 23.0446 10.4816C22.8506 10.5116 22.6546 10.5236 22.4586 10.5156H20.9036C20.7136 10.5096 20.5236 10.5456 20.3496 10.6216C20.3023 10.6517 20.262 10.6915 20.2313 10.7384C20.2006 10.7853 20.1802 10.8382 20.1716 10.8936C20.1636 10.949 20.1678 11.0055 20.184 11.0591C20.2003 11.1127 20.2281 11.162 20.2656 11.2036C20.3836 11.2916 20.5156 11.3606 20.6556 11.4086L22.8056 12.1496C23.2196 12.2946 23.5956 12.5276 23.9036 12.8336C24.057 12.9961 24.1743 13.1891 24.2481 13.4C24.3218 13.6109 24.3503 13.8349 24.3316 14.0576C24.3396 14.3646 24.2676 14.6676 24.1216 14.9396C23.9787 15.1824 23.7785 15.3867 23.5386 15.5346C23.2738 15.697 22.9828 15.8123 22.6786 15.8756C22.3326 15.9436 21.9796 15.9766 21.6266 15.9756H19.9986C19.7759 15.9803 19.5537 15.9534 19.3386 15.8956C19.1926 15.8512 19.0586 15.7743 18.9466 15.6706C18.8553 15.5868 18.7885 15.4796 18.7536 15.3606C18.7204 15.2493 18.7035 15.1337 18.7036 15.0176V14.4096C18.7036 14.3546 18.7326 14.3346 18.7846 14.3546C18.9586 14.4086 19.1376 14.4466 19.3186 14.4676C19.5316 14.4986 19.7476 14.5196 19.9636 14.5296ZM28.6086 12.2736C28.8686 12.5496 29.1416 12.8506 29.4286 13.1726L30.2956 14.1356C30.5876 14.4776 30.8756 14.7816 31.1626 15.0966L31.9656 15.9646H30.4406C30.2945 15.9669 30.1496 15.9376 30.0159 15.8788C29.8821 15.8199 29.7626 15.7329 29.6656 15.6236L27.3046 12.9876V15.3396C27.3057 15.4222 27.2898 15.5041 27.258 15.5803C27.2262 15.6565 27.1791 15.7253 27.1196 15.7826C27.0597 15.8414 26.9887 15.8877 26.9108 15.919C26.8329 15.9502 26.7496 15.9657 26.6656 15.9646H25.7256V7.68859C25.7256 7.58259 25.7256 7.44259 25.7426 7.27159C25.7576 7.10059 25.7956 6.93159 25.8556 6.76959C25.9116 6.61559 25.9986 6.47359 26.1116 6.35259C26.1708 6.29127 26.2425 6.24357 26.322 6.21283C26.4014 6.18209 26.4866 6.16904 26.5716 6.17459H27.6236C27.4904 6.38237 27.401 6.6151 27.3606 6.85859C27.3126 7.12859 27.2906 7.40159 27.2906 7.67559V11.5556L29.5676 9.35359C29.6894 9.21857 29.8456 9.11934 30.0196 9.06659C30.1916 9.03959 30.3656 9.02659 30.5396 9.02859H31.9286L28.6086 12.2736ZM34.5556 18.8156L35.5556 15.6636C35.3127 15.6184 35.0855 15.5117 34.8956 15.3536C34.669 15.1486 34.4998 14.888 34.4046 14.5976L32.5586 9.56959C32.5039 9.45537 32.4939 9.3248 32.5306 9.20359C32.5756 9.08759 32.6926 9.02859 32.8816 9.02859H33.9906L35.8076 14.1776C35.8236 14.2216 35.8426 14.2646 35.8636 14.3076C35.8742 14.3238 35.889 14.3367 35.9065 14.345C35.924 14.3533 35.9434 14.3566 35.9626 14.3546C36.0186 14.3546 36.0636 14.2966 36.0986 14.1776L37.2536 10.3926C37.3006 10.2326 37.3586 10.0746 37.4256 9.92159C37.4916 9.76559 37.5756 9.61759 37.6746 9.48059C37.7686 9.34659 37.8876 9.23059 38.0246 9.13859C38.159 9.05326 38.3154 9.00912 38.4746 9.01159H39.7236C39.4936 9.16759 39.3076 9.37659 39.1836 9.62059C39.0162 9.92657 38.8763 10.2468 38.7656 10.5776L36.3096 18.1906C36.2566 18.3606 36.1636 18.5176 36.0396 18.6486C35.9131 18.7542 35.7512 18.8078 35.5866 18.7986L34.5556 18.8156ZM42.0776 6.16059V14.0236C42.07 14.1874 42.1183 14.3489 42.2146 14.4816C42.2648 14.5424 42.3289 14.5902 42.4015 14.6211C42.4741 14.6519 42.553 14.6647 42.6316 14.6586H42.7406C42.9716 14.6586 43.1826 14.6586 43.3756 14.6316C43.5596 14.6126 43.7396 14.5666 43.9086 14.4946C43.9436 14.4946 43.9646 14.4946 43.9646 14.5226V15.2266C43.9695 15.3563 43.9398 15.4851 43.8786 15.5996C43.8167 15.7152 43.7257 15.8128 43.6146 15.8826C43.3536 16.0396 43.0506 16.1166 42.7446 16.1046H42.3826C42.079 16.1138 41.7772 16.0557 41.4986 15.9346C41.2756 15.8315 41.0805 15.6765 40.9296 15.4826C40.7868 15.2878 40.6832 15.067 40.6246 14.8326C40.5653 14.5853 40.5361 14.3318 40.5376 14.0776V6.79759C40.5347 6.71406 40.549 6.63083 40.5796 6.55307C40.6102 6.47531 40.6565 6.40468 40.7156 6.34559C40.775 6.28416 40.8467 6.23594 40.9259 6.20407C41.0052 6.17219 41.0903 6.15737 41.1756 6.16059H42.0776ZM46.7226 7.54159C46.7268 7.67006 46.6904 7.79658 46.6186 7.9032C46.5468 8.00982 46.4432 8.09113 46.3226 8.13559C46.2388 8.16759 46.1493 8.18189 46.0596 8.17759H45.1436V7.07759C45.1436 6.64659 45.3536 6.42759 45.7826 6.42759H46.7226V7.54159ZM46.7226 9.02859V15.1816C46.744 15.3958 46.691 15.6108 46.5726 15.7906C46.4881 15.8598 46.3902 15.9109 46.2851 15.9408C46.1801 15.9708 46.07 15.9788 45.9616 15.9646H45.1436V9.65159C45.1385 9.56848 45.1504 9.48521 45.1788 9.40693C45.2072 9.32865 45.2514 9.25706 45.3086 9.19659C45.3719 9.13759 45.4466 9.09223 45.5282 9.06333C45.6097 9.03442 45.6963 9.0226 45.7826 9.02859H46.7226ZM50.8446 9.02859H51.3996C52.2306 9.02859 52.7536 8.94359 52.9676 8.76859V9.62359C52.9739 9.76036 52.9364 9.89556 52.8606 10.0096C52.7834 10.1248 52.6723 10.2132 52.5426 10.2626C52.1992 10.4077 51.8282 10.4757 51.4556 10.4616H50.8456V15.3396C50.8569 15.4256 50.8476 15.5131 50.8184 15.5949C50.7891 15.6766 50.7409 15.7502 50.6776 15.8096C50.6139 15.8707 50.5371 15.9164 50.4531 15.9433C50.369 15.9701 50.2799 15.9774 50.1926 15.9646H49.2626V10.4616H47.8066V9.65159C47.7942 9.56536 47.8028 9.47739 47.8317 9.3952C47.8606 9.31301 47.9089 9.23903 47.9726 9.17959C48.0366 9.11852 48.1139 9.07317 48.1984 9.04713C48.283 9.0211 48.3724 9.01509 48.4596 9.02959H49.2626V8.10259C49.2576 7.82559 49.3126 7.55059 49.4236 7.29559C49.5236 7.06759 49.6696 6.86059 49.8516 6.68759C50.0356 6.52159 50.2496 6.39159 50.4836 6.30459C50.7306 6.21159 50.9936 6.16459 51.2586 6.16759H52.9786V6.83759C52.9837 6.94666 52.9642 7.05548 52.9216 7.15604C52.8791 7.25659 52.8145 7.34631 52.7326 7.41859C52.5611 7.55877 52.3439 7.6307 52.1226 7.62059H51.3716C51.2346 7.61516 51.0997 7.65602 50.9886 7.73659C50.937 7.78605 50.8972 7.84656 50.8723 7.91358C50.8473 7.9806 50.8379 8.0524 50.8446 8.12359V9.02859ZM56.4096 14.6796C56.6196 14.6966 56.8656 14.7036 57.1426 14.6996L57.8796 14.6796C58.0396 14.6766 58.1986 14.6656 58.3566 14.6456L58.8936 14.5706C59.0566 14.5446 59.2186 14.5106 59.3776 14.4676C59.4986 14.4376 59.6166 14.3956 59.7276 14.3416C59.7636 14.3236 59.7846 14.3416 59.7846 14.3686V15.1106C59.7878 15.2055 59.7707 15.3 59.7345 15.3877C59.6983 15.4755 59.6438 15.5545 59.5746 15.6196C59.3985 15.7711 59.1892 15.879 58.9636 15.9346C58.7936 15.9856 58.6206 16.0226 58.4436 16.0436C58.2456 16.0706 58.0346 16.0916 57.8136 16.1046C57.5916 16.1046 57.3606 16.1246 57.1106 16.1246H56.4376C55.7376 16.1556 55.0516 15.9206 54.5256 15.4696C54.2747 15.2341 54.0755 14.9491 53.9406 14.6326C53.8066 14.3179 53.7405 13.9785 53.7466 13.6366C53.7287 13.2655 53.7204 12.8941 53.7216 12.5226C53.7216 12.1126 53.7216 11.7396 53.7466 11.4086C53.7496 11.0826 53.8216 10.7616 53.9586 10.4646C54.0956 10.1662 54.2931 9.8996 54.5386 9.68159C55.0376 9.22659 55.7906 8.99859 56.7986 8.99859H57.3006C57.6566 8.99459 58.0116 9.04459 58.3536 9.14559C58.6636 9.23559 58.9536 9.37759 59.2136 9.56559C59.4626 9.74759 59.6636 9.98559 59.7996 10.2596C59.9356 10.5326 60.0026 10.8346 59.9946 11.1386V11.6916C60.0166 11.9366 59.9766 12.1816 59.8806 12.4086C59.7834 12.6365 59.6324 12.8376 59.4406 12.9946C58.9191 13.3105 58.3116 13.455 57.7036 13.4076H55.2906V13.6376C55.2906 13.7526 55.3076 13.8676 55.3396 13.9786C55.3726 14.0986 55.4326 14.2086 55.5146 14.3036C55.6106 14.4136 55.7306 14.5006 55.8656 14.5596C56.0356 14.6366 56.2216 14.6776 56.4096 14.6796ZM58.4616 11.2166C58.4614 11.1024 58.4303 10.9905 58.3716 10.8926C58.3128 10.7939 58.2289 10.7125 58.1286 10.6566C57.8676 10.5067 57.5693 10.4342 57.2686 10.4476H56.8086C56.5722 10.4429 56.3364 10.4729 56.1086 10.5366C55.9386 10.5816 55.7786 10.6586 55.6406 10.7656C55.5345 10.8484 55.4492 10.9549 55.3916 11.0766C55.3409 11.1835 55.3146 11.3003 55.3146 11.4186V11.9726H57.7006C57.8866 11.9756 58.0716 11.9616 58.2546 11.9316C58.3245 11.9215 58.3876 11.8845 58.4306 11.8286C58.4515 11.8011 58.4666 11.7696 58.4751 11.7361C58.4835 11.7026 58.485 11.6677 58.4796 11.6336L58.4616 11.2166Z" fill="#EC1B23"/>
<defs>
<linearGradient id="paint0_linear_1064_10478" x1="4.42" y1="19.355" x2="4.42" y2="0.961" gradientUnits="userSpaceOnUse">
<stop stop-color="#414041"/>
<stop offset="1" stop-color="#252A2B"/>
</linearGradient>
<linearGradient id="paint1_linear_1064_10478" x1="4.28847" y1="1.64057" x2="4.28847" y2="18.3666" gradientUnits="userSpaceOnUse">
<stop stop-color="#333333"/>
<stop offset="1"/>
</linearGradient>
<linearGradient id="paint2_linear_1064_10478" x1="188.103" y1="430.514" x2="188.103" y2="2.444" gradientUnits="userSpaceOnUse">
<stop stop-color="#414041"/>
<stop offset="1" stop-color="#252A2B"/>
</linearGradient>
<linearGradient id="paint3_linear_1064_10478" x1="172.616" y1="11.7217" x2="172.616" y2="393.812" gradientUnits="userSpaceOnUse">
<stop stop-color="#333333"/>
<stop offset="1"/>
</linearGradient>
<radialGradient id="paint4_radial_1064_10478" cx="0" cy="0" r="1" gradientUnits="userSpaceOnUse" gradientTransform="translate(0.415562 11.6677) scale(3.2597 3.176)">
<stop stop-color="white"/>
<stop offset="1" stop-color="#221E1F"/>
</radialGradient>
<radialGradient id="paint5_radial_1064_10478" cx="0" cy="0" r="1" gradientUnits="userSpaceOnUse" gradientTransform="translate(614.597 583.921) scale(5.75694 11.9494)">
<stop stop-color="white"/>
<stop offset="1" stop-color="#221E1F"/>
</radialGradient>
<radialGradient id="paint6_radial_1064_10478" cx="0" cy="0" r="1" gradientUnits="userSpaceOnUse" gradientTransform="translate(715.275 438.558) scale(9.42913 15.7449)">
<stop stop-color="white"/>
<stop offset="1" stop-color="#221E1F"/>
</radialGradient>
<radialGradient id="paint7_radial_1064_10478" cx="0" cy="0" r="1" gradientUnits="userSpaceOnUse" gradientTransform="translate(20.0533 779.562) scale(0.134198 24.8865)">
<stop stop-color="white"/>
<stop offset="1" stop-color="#221E1F"/>
</radialGradient>
<radialGradient id="paint8_radial_1064_10478" cx="0" cy="0" r="1" gradientUnits="userSpaceOnUse" gradientTransform="translate(869.039 157.487) scale(5.52672 2.23986)">
<stop stop-color="white"/>
<stop offset="1" stop-color="#221E1F"/>
</radialGradient>
<radialGradient id="paint9_radial_1064_10478" cx="0" cy="0" r="1" gradientUnits="userSpaceOnUse" gradientTransform="translate(1373.32 302.888) scale(16.2792 8.09)">
<stop stop-color="white"/>
<stop offset="1" stop-color="#221E1F"/>
</radialGradient>
<linearGradient id="paint10_linear_1064_10478" x1="10.8115" y1="9.84986" x2="10.8115" y2="9.35386" gradientUnits="userSpaceOnUse">
<stop stop-color="white"/>
<stop offset="1" stop-color="#211D1E"/>
</linearGradient>
<radialGradient id="paint11_radial_1064_10478" cx="0" cy="0" r="1" gradientUnits="userSpaceOnUse" gradientTransform="translate(1042.98 511.952) scale(6.54424 7.73664)">
<stop stop-color="white"/>
<stop offset="1" stop-color="#221E1F"/>
</radialGradient>
<linearGradient id="paint12_linear_1064_10478" x1="5.135" y1="9.91355" x2="5.135" y2="8.70355" gradientUnits="userSpaceOnUse">
<stop stop-color="white"/>
<stop offset="0.53" stop-color="#211D1E"/>
<stop offset="1" stop-color="white"/>
</linearGradient>
<radialGradient id="paint13_radial_1064_10478" cx="0" cy="0" r="1" gradientUnits="userSpaceOnUse" gradientTransform="translate(800.827 63.6034) scale(6.62286 0.9127)">
<stop stop-color="white"/>
<stop offset="1" stop-color="#221E1F"/>
</radialGradient>
<radialGradient id="paint14_radial_1064_10478" cx="0" cy="0" r="1" gradientUnits="userSpaceOnUse" gradientTransform="translate(-13370.4 -25955.5) rotate(180) scale(9.44704 19.9564)">
<stop stop-color="white"/>
<stop offset="1" stop-color="#221E1F"/>
</radialGradient>
<linearGradient id="paint15_linear_1064_10478" x1="14.9923" y1="6.84405" x2="2.88028" y2="10.099" gradientUnits="userSpaceOnUse">
<stop stop-color="#CE2027"/>
<stop offset="0.48" stop-color="#A01D20"/>
<stop offset="0.59" stop-color="#A31D21"/>
<stop offset="0.68" stop-color="#AE1E22"/>
<stop offset="0.77" stop-color="#BF1F25"/>
<stop offset="0.83" stop-color="#CE2027"/>
<stop offset="0.93" stop-color="#991B1E"/>
<stop offset="0.95" stop-color="#961B1E"/>
<stop offset="0.96" stop-color="#8D1A1C"/>
<stop offset="0.97" stop-color="#7D181A"/>
<stop offset="0.98" stop-color="#671517"/>
<stop offset="0.99" stop-color="#4A1213"/>
<stop offset="1" stop-color="#310F0F"/>
</linearGradient>
<linearGradient id="paint16_linear_1064_10478" x1="6.19491" y1="5.73231" x2="12.4769" y2="11.1443" gradientUnits="userSpaceOnUse">
<stop stop-color="#B71F24"/>
<stop offset="0.02" stop-color="#D61F26"/>
<stop offset="0.03" stop-color="#DC3030"/>
<stop offset="0.07" stop-color="#E85443"/>
<stop offset="0.09" stop-color="#EF6A50"/>
<stop offset="0.11" stop-color="#F27254"/>
<stop offset="0.28" stop-color="#EF4F40"/>
<stop offset="0.48" stop-color="#EC2126"/>
<stop offset="0.71" stop-color="#EC2126"/>
<stop offset="1" stop-color="#D61F26"/>
</linearGradient>
<radialGradient id="paint17_radial_1064_10478" cx="0" cy="0" r="1" gradientUnits="userSpaceOnUse" gradientTransform="translate(3.45872 9.28489) scale(11.6548 11.3556)">
<stop/>
<stop offset="0.24" stop-color="white"/>
<stop offset="0.76" stop-color="white"/>
<stop offset="0.78" stop-color="#FAFAFA"/>
<stop offset="0.81" stop-color="#ECECEC"/>
<stop offset="0.85" stop-color="#D4D4D4"/>
<stop offset="0.88" stop-color="#B3B3B3"/>
<stop offset="0.91" stop-color="#898989"/>
<stop offset="0.95" stop-color="#555555"/>
<stop offset="0.99" stop-color="#191919"/>
<stop offset="1"/>
</radialGradient>
</defs>
</svg>
