<svg width="64" height="20" viewBox="0 0 64 20" fill="none" xmlns="http://www.w3.org/2000/svg">
<path d="M24.3262 4C21.0126 4 18.3267 6.68598 18.3267 9.99954C18.3267 13.3131 21.0126 15.9991 24.3262 15.9991C27.6398 15.9991 30.3257 13.3131 30.3257 9.99954C30.3268 6.68598 27.6398 4 24.3262 4ZM24.3262 12.222C23.0986 12.222 22.1038 11.2272 22.1038 9.99954C22.1038 8.7719 23.0986 7.77709 24.3262 7.77709C25.5538 7.77709 26.5486 8.7719 26.5486 9.99954C26.5486 11.2261 25.5538 12.222 24.3262 12.222Z" fill="black"/>
<path d="M33.8076 12.2219C32.5799 12.2219 31.5851 11.2271 31.5851 9.99942C31.5851 8.77179 32.5799 7.77698 33.8076 7.77698C35.0352 7.77698 36.03 8.77179 36.03 9.99942C36.03 11.226 35.0352 12.2219 33.8076 12.2219Z" fill="#0000FF"/>
<path d="M47.084 12.2103L44.216 4.33337H41.6962H40.4389H37.9191V15.6657H41.6962V7.78874L44.5642 15.6657H47.084H48.3413H50.8611V4.33337H47.084V12.2103Z" fill="black"/>
<path d="M13.2902 4.33337H10.7704L8.53418 10.4768L6.29798 4.33337H3.77815H2.51983H0V15.6657H3.77815V7.78874L6.6451 15.6657H10.4222H10.4233L13.2902 7.78874V15.6657H17.0673V4.33337H14.5475H13.2902Z" fill="black"/>
<path d="M64 15.5587L59.8747 4.22534H56.0976L51.9724 15.5587H55.7505L57.9867 9.41527L60.2218 15.5587H64Z" fill="black"/>
</svg>
