<svg width="64" height="20" viewBox="0 0 64 20" fill="none" xmlns="http://www.w3.org/2000/svg">
<path d="M6.35402 13.5607L4.24298 10.969L7.30503 7.2015H5.63292C4.88047 7.2015 4.36839 7.43142 3.91378 7.9644L2.29915 9.95003V4.5H0.689746C0.308295 4.5 0 4.8083 0 5.18975V15.3583H1.61986C2.00131 15.3583 2.3096 15.05 2.3096 14.6685V11.9618L3.62116 13.566L4.73416 14.9402C4.95885 15.2224 5.2567 15.353 5.55977 15.353H7.81712L6.35924 13.5607H6.35402Z" fill="#231815"/>
<path d="M10.5043 15.3583C9.26062 15.3583 8.39844 14.5013 8.39844 13.2525V5.18975C8.39844 4.8083 8.70673 4.5 9.08818 4.5H10.7081V12.8187C10.7081 13.1584 10.985 13.4406 11.3246 13.4406H12.9759V14.6685C12.9759 15.05 12.6676 15.3583 12.2861 15.3583H10.5095H10.5043Z" fill="#231815"/>
<path d="M13.3072 6.60547L13.1662 6.75701C13.1662 6.75701 12.7272 7.20116 11.4784 7.20116H5.59462C4.66451 7.20116 4.22558 7.57739 3.89638 7.99019L3.70827 8.21488C3.70827 8.21488 3.69782 8.22533 3.69259 8.23056L2.52734 9.66753C2.9506 9.34878 3.53583 9.15544 4.1263 9.15544H11.4731C12.3667 9.15544 13.2236 8.88895 13.2916 8.22533C13.302 8.17308 13.302 8.1365 13.302 8.1365V6.60547H13.3072Z" fill="#E50012"/>
<path d="M16.6108 7.4418C16.6108 6.96107 16.8146 6.7207 17.2848 6.7207H18.5755C18.8995 6.7207 19.0562 6.7416 19.1294 7.02377L21.0001 13.8063L22.7767 7.39477C22.9073 6.89836 23.1006 6.7207 23.5134 6.7207H25.5513C25.452 7.0081 25.3946 7.3582 25.3946 8.00091V15.0029C25.3946 15.2432 25.2953 15.353 25.0549 15.353H23.9942V9.58942C23.9942 9.03553 24.0203 8.29876 24.0308 7.76577L22.0138 15.0081C21.9302 15.3112 21.7577 15.3477 21.4442 15.3477H20.4775C20.1379 15.3477 20.0177 15.2276 19.9236 14.8879L17.9171 7.76577C17.9432 8.29876 17.9537 9.04598 17.9537 9.58942V14.9976C17.9537 15.238 17.8701 15.3477 17.6402 15.3477H16.6055V7.4418H16.6108Z" fill="#E50012"/>
<path d="M28.7188 9.28727C28.7188 9.05735 28.8284 8.93717 29.0688 8.93717H30.1453V9.29772C30.5947 9.01032 31.1485 8.83789 31.7024 8.83789C32.4392 8.83789 32.8834 9.0678 33.2492 9.47538C33.6463 9.19843 34.3256 8.83789 35.2296 8.83789C36.5464 8.83789 37.2465 9.61124 37.2465 10.8549V15.0456C37.2465 15.2494 37.1367 15.3487 36.9434 15.3487H35.8199V11.0743C35.8199 10.4473 35.5326 10.1233 34.916 10.1233C34.4823 10.1233 34.0224 10.3166 33.6828 10.5936C33.6932 10.6772 33.6933 10.7608 33.6933 10.8601V15.0508C33.6933 15.2546 33.5835 15.3539 33.3902 15.3539H32.2667V11.0743C32.2667 10.4473 31.9793 10.1233 31.3627 10.1233C30.929 10.1233 30.4693 10.3166 30.1453 10.5831V15.0404C30.1453 15.2441 30.025 15.3539 29.7847 15.3539H28.7239V9.28727H28.7188Z" fill="#E50012"/>
<path d="M38.5 12.1755C38.5 9.73534 39.5869 8.8418 41.3479 8.8418C43.1088 8.8418 44.2113 9.73534 44.2113 12.1755C44.2113 14.6158 43.114 15.4832 41.3479 15.4832C39.5817 15.4832 38.5 14.6158 38.5 12.1755ZM42.7587 12.1755C42.7587 10.655 42.278 10.122 41.3426 10.122C40.4073 10.122 39.9422 10.655 39.9422 12.1755C39.9422 13.6961 40.4125 14.203 41.3426 14.203C42.2727 14.203 42.7587 13.6961 42.7587 12.1755Z" fill="#E50012"/>
<path d="M45.6589 15.1901V7.64469C45.6589 6.54737 45.7216 6.19727 46.1396 6.19727H47.2369C47.1429 6.48467 47.0802 6.93404 47.0802 7.57154V9.16527C47.4146 8.98238 47.9005 8.8413 48.5015 8.8413C50.299 8.8413 51.0096 10.1581 51.0096 11.9086C51.0096 14.2391 49.8653 15.4827 47.9423 15.4827C47.1794 15.4827 46.3382 15.373 45.6484 15.1953L45.6589 15.1901ZM49.5727 11.919C49.5727 10.6022 49.0397 10.132 48.1984 10.132C47.7856 10.132 47.3885 10.2887 47.0906 10.4194V14.1032C47.3414 14.1764 47.655 14.1973 48.005 14.1973C48.9247 14.1973 49.5727 13.5598 49.5727 11.9138V11.919Z" fill="#E50012"/>
<path d="M52.4219 7.03422C52.4219 6.83044 52.5159 6.7207 52.6988 6.7207H53.8693V7.8546C53.8693 8.05839 53.7491 8.15767 53.5662 8.15767H52.4219V7.03422ZM52.4323 9.29157C52.4323 9.08778 52.5159 8.94147 52.7354 8.94147H53.8588V15.0029C53.8588 15.2432 53.7386 15.353 53.5192 15.353H52.4323V9.28635V9.29157Z" fill="#E50012"/>
<path d="M55.6445 13.7061V6.54737C55.6445 6.307 55.7647 6.19727 56.0051 6.19727H57.0658V13.6957C57.0658 14.2025 57.2957 14.2495 57.442 14.2495C57.5988 14.2495 57.7556 14.2495 57.975 14.1868V15.0177C57.975 15.2006 57.8653 15.3207 57.7347 15.3678C57.5309 15.4409 57.3584 15.4775 57.1651 15.4775C56.0312 15.4775 55.6445 14.8975 55.6445 13.7009V13.7061Z" fill="#E50012"/>
<path d="M58.6484 12.139C58.6484 10.2526 59.2859 8.8418 61.4388 8.8418C63.5916 8.8418 63.9992 10.3153 63.9992 11.5224V12.1755C63.9992 12.5883 63.7588 12.7555 63.393 12.7555H60.0488C60.0488 13.7588 60.6759 14.2552 61.6321 14.2552C62.4629 14.2552 63.2154 14.0358 63.7431 13.7745V14.7255C63.7431 14.9084 63.6334 15.0129 63.5028 15.1017C63.1318 15.3421 62.2226 15.4884 61.5119 15.4884C59.3539 15.4884 58.6537 14.1612 58.6537 12.1442L58.6484 12.139ZM62.6197 11.5851V11.4753C62.6197 10.4877 62.1233 10.0749 61.3656 10.0749C60.5348 10.0749 60.0854 10.6027 60.075 11.5798H62.6249L62.6197 11.5851Z" fill="#E50012"/>
</svg>
