<svg width="63" height="20" viewBox="0 0 63 20" fill="none" xmlns="http://www.w3.org/2000/svg">
<path d="M7.57345 6.17942C7.10102 6.13496 6.62501 6.20997 6.189 6.39757C5.753 6.58517 5.37094 6.87936 5.07781 7.25322C4.78503 6.87929 4.40321 6.58501 3.96739 6.3974C3.53157 6.20978 3.0557 6.13483 2.58344 6.17942C1.87107 6.25321 1.21171 6.59032 0.734044 7.12496C0.256382 7.65959 -0.00529697 8.35337 8.12867e-05 9.0709V13.1572H1.22057V9.05944C1.21766 8.63374 1.3785 8.22328 1.66969 7.91327C1.96088 7.60326 2.36004 7.41752 2.78431 7.39461C3.00184 7.38674 3.21871 7.42284 3.42201 7.50077C3.6253 7.5787 3.81085 7.69685 3.96758 7.84818C4.12432 7.99951 4.24902 8.18091 4.33427 8.38157C4.41952 8.58224 4.46355 8.79804 4.46375 9.01613V13.1572H5.68042V9.05944C5.67755 8.63333 5.83874 8.22251 6.13046 7.91243C6.42219 7.60235 6.82199 7.41688 7.24671 7.39461C7.4644 7.38657 7.68147 7.42254 7.88499 7.50037C8.0885 7.5782 8.27428 7.69631 8.43125 7.84764C8.58822 7.99896 8.71317 8.18042 8.79863 8.38117C8.88409 8.58193 8.92833 8.79787 8.92869 9.01613V13.1572H10.1454V9.0709C10.1507 8.35523 9.89056 7.66309 9.41531 7.12879C8.94006 6.59449 8.28364 6.25615 7.57345 6.17942Z" fill="#FF3399"/>
<path d="M62.1609 3.99997C61.9946 3.99972 61.832 4.04892 61.6936 4.14134C61.5552 4.23376 61.4473 4.36524 61.3835 4.51914C61.3197 4.67304 61.303 4.84244 61.3354 5.00589C61.3678 5.16933 61.4478 5.31947 61.5654 5.4373C61.683 5.55513 61.8329 5.63534 61.996 5.66779C62.1591 5.70024 62.3282 5.68346 62.4818 5.61957C62.6354 5.55569 62.7667 5.44757 62.8589 5.30892C62.9511 5.17026 63.0003 5.0073 63 4.84066C62.9997 4.6178 62.9112 4.40416 62.7539 4.24658C62.5966 4.08899 62.3834 4.00031 62.1609 3.99997Z" fill="#FF3399"/>
<path d="M47.2748 3.99997C47.1085 3.99997 46.946 4.04938 46.8078 4.14196C46.6696 4.23453 46.5619 4.3661 46.4983 4.52003C46.4347 4.67395 46.4182 4.84331 46.4507 5.00667C46.4832 5.17003 46.5634 5.32005 46.681 5.43775C46.7987 5.55545 46.9485 5.63554 47.1116 5.66788C47.2747 5.70023 47.4437 5.68337 47.5973 5.61945C47.7508 5.55553 47.882 5.44741 47.9742 5.30878C48.0663 5.17015 48.1154 5.00724 48.1152 4.84066C48.1148 4.61758 48.0261 4.40375 47.8686 4.24613C47.711 4.0885 47.4975 3.99997 47.2748 3.99997Z" fill="#FF3399"/>
<path d="M14.0306 6.30679C13.0135 6.30679 11.9303 6.65963 11.4307 6.99209C11.4018 7.0106 11.377 7.03477 11.3578 7.06313C11.3385 7.09149 11.3251 7.12346 11.3184 7.15713C11.3118 7.1908 11.312 7.22546 11.3191 7.25905C11.3261 7.29263 11.3399 7.32444 11.3595 7.35257L11.7498 7.93978C11.7682 7.9686 11.7922 7.99341 11.8203 8.01274C11.8485 8.03207 11.8802 8.04553 11.9137 8.05231C11.9471 8.05908 11.9816 8.05904 12.015 8.05218C12.0485 8.04532 12.0802 8.03179 12.1083 8.01238C12.4516 7.7831 13.283 7.53599 14.0268 7.53599C14.431 7.53599 14.9688 7.60605 15.2282 7.93978C15.3053 8.05177 15.3437 8.18599 15.3375 8.32191V8.5168C15.3375 8.58437 15.3107 8.64916 15.263 8.69694C15.2154 8.74472 15.1507 8.77156 15.0832 8.77156H13.2894C12.883 8.76108 12.4806 8.85452 12.1203 9.04307C11.7599 9.23161 11.4535 9.50904 11.2298 9.84917C11.0405 10.1441 10.9294 10.4826 10.9072 10.8326C10.8849 11.1825 10.9522 11.5324 11.1027 11.849C11.7384 13.1585 13.4636 13.1585 14.4959 13.1585C15.6693 13.1585 16.5542 12.2834 16.5542 11.1204V8.31809C16.5622 7.90978 16.4323 7.51073 16.1855 7.1857C15.7443 6.60995 15.0019 6.30679 14.0306 6.30679ZM15.0782 10.0008C15.1456 10.0008 15.2103 10.0276 15.258 10.0754C15.3056 10.1231 15.3324 10.1879 15.3324 10.2555V11.1217C15.3345 11.2309 15.3141 11.3394 15.2725 11.4404C15.2309 11.5414 15.169 11.6328 15.0906 11.7087C15.0123 11.7847 14.9192 11.8438 14.8171 11.8821C14.715 11.9205 14.6061 11.9374 14.4972 11.9318C13.461 11.9318 12.463 11.8579 12.2087 11.3153C12.1477 11.186 12.1207 11.0433 12.1302 10.9006C12.1398 10.7579 12.1856 10.62 12.2634 10.5001C12.4643 10.1791 12.8368 9.99056 13.2805 9.99056L15.0782 10.0008Z" fill="#FF3399"/>
<path d="M22.5168 7.94105L22.9071 7.35257C22.9266 7.32436 22.9403 7.29248 22.9473 7.25885C22.9542 7.22521 22.9543 7.19052 22.9476 7.15684C22.9408 7.12317 22.9273 7.09122 22.9079 7.0629C22.8885 7.03459 22.8635 7.0105 22.8346 6.99209C22.3362 6.65963 21.2556 6.30679 20.236 6.30679C19.2698 6.30679 18.5222 6.60995 18.0747 7.1857C17.8288 7.51113 17.6994 7.91 17.7073 8.31809V12.9687C17.7073 13.0362 17.7341 13.101 17.7818 13.1488C17.8295 13.1966 17.8941 13.2234 17.9616 13.2234H18.6672C18.7346 13.2234 18.7993 13.1966 18.847 13.1488C18.8946 13.101 18.9214 13.0362 18.9214 12.9687V8.31809C18.9152 8.18217 18.9536 8.04795 19.0308 7.93596C19.285 7.60223 19.8266 7.53217 20.2309 7.53217C20.9746 7.53217 21.8061 7.77928 22.1506 8.00984C22.1787 8.03066 22.2108 8.04546 22.2449 8.05329C22.279 8.06113 22.3143 8.06185 22.3487 8.05539C22.383 8.04893 22.4157 8.03545 22.4446 8.01578C22.4735 7.9961 22.4981 7.97067 22.5168 7.94105Z" fill="#FF3399"/>
<path d="M40.8698 7.1844C40.6237 7.5098 40.4939 7.90859 40.5011 8.31679V12.9686C40.5011 13.0362 40.5279 13.101 40.5756 13.1488C40.6233 13.1965 40.688 13.2234 40.7554 13.2234H41.461C41.5284 13.2234 41.5931 13.1965 41.6408 13.1488C41.6885 13.101 41.7153 13.0362 41.7153 12.9686V8.31806C41.7097 8.1824 41.7476 8.04851 41.8233 7.93593C42.0839 7.6022 42.6204 7.53214 43.0247 7.53214C43.7685 7.53214 44.5999 7.77925 44.9432 8.00853C44.9713 8.02793 45.003 8.04147 45.0364 8.04833C45.0699 8.05518 45.1044 8.05523 45.1378 8.04845C45.1713 8.04168 45.203 8.02822 45.2312 8.00889C45.2593 7.98956 45.2833 7.96474 45.3017 7.93593L45.692 7.34744C45.7116 7.31924 45.7252 7.28736 45.7322 7.25372C45.7392 7.22009 45.7393 7.18539 45.7325 7.15172C45.7257 7.11804 45.7122 7.08609 45.6928 7.05778C45.6734 7.02946 45.6485 7.00537 45.6195 6.98696C45.1212 6.6545 44.0405 6.30167 43.0209 6.30167C42.0661 6.30676 41.3186 6.60992 40.8698 7.1844Z" fill="#FF3399"/>
<path d="M34.0224 10.6937C34.8894 10.6937 35.6599 10.2912 36.082 9.6148C36.2713 9.32011 36.3824 8.98183 36.4046 8.63206C36.4269 8.28229 36.3596 7.93263 36.2091 7.61624C35.5734 6.30679 33.8482 6.30679 32.8146 6.30679C31.6412 6.30679 30.7563 7.18188 30.7563 8.34484V11.3369C30.7485 11.7452 30.8784 12.1442 31.125 12.4693C31.5738 13.0438 32.3213 13.3482 33.2863 13.3482C34.3034 13.3482 35.3865 12.9954 35.8849 12.663C35.9138 12.6445 35.9388 12.6205 35.9582 12.5921C35.9776 12.5638 35.9911 12.5319 35.9979 12.4982C36.0046 12.4645 36.0045 12.4298 35.9976 12.3962C35.9906 12.3626 35.9769 12.3307 35.9574 12.3025L35.5671 11.714C35.548 11.6852 35.5234 11.6606 35.4948 11.6414C35.4661 11.6222 35.4339 11.6089 35.4001 11.6023C35.3663 11.5957 35.3315 11.5958 35.2978 11.6028C35.264 11.6097 35.2319 11.6232 35.2035 11.6427C34.8602 11.8707 34.0287 12.119 33.285 12.119C32.8807 12.119 32.3442 12.049 32.0836 11.714C32.0071 11.6018 31.9692 11.4676 31.9755 11.3319V10.9497C31.9755 10.8822 32.0023 10.8174 32.05 10.7696C32.0977 10.7218 32.1624 10.695 32.2298 10.695L34.0224 10.6937ZM32.2349 9.46831C32.1674 9.46831 32.1028 9.44147 32.0551 9.3937C32.0074 9.34592 31.9806 9.28112 31.9806 9.21356V8.34739C31.9786 8.23826 31.9989 8.12988 32.0404 8.02897C32.082 7.92806 32.1438 7.83678 32.222 7.76081C32.3002 7.68483 32.3932 7.62578 32.4951 7.58733C32.5971 7.54887 32.7058 7.53183 32.8146 7.53726C33.8508 7.53726 34.8488 7.61114 35.103 8.15377C35.1637 8.28321 35.1903 8.426 35.1806 8.56865C35.1708 8.7113 35.1248 8.84909 35.0471 8.96899C34.8462 9.28998 34.4737 9.4785 34.0237 9.4785L32.2349 9.46831Z" fill="#FF3399"/>
<path d="M38.2903 4.33884C38.1282 4.33917 37.9728 4.40383 37.8582 4.51866C37.7436 4.63349 37.6791 4.78913 37.6787 4.95153V12.6146C37.6787 12.7771 37.7432 12.9329 37.8578 13.0478C37.9725 13.1627 38.1281 13.2273 38.2903 13.2273C38.3707 13.2274 38.4503 13.2117 38.5247 13.181C38.599 13.1503 38.6666 13.1052 38.7235 13.0483C38.7804 12.9914 38.8256 12.9238 38.8564 12.8493C38.8872 12.7749 38.903 12.6951 38.903 12.6146V4.95153C38.903 4.87096 38.8872 4.79118 38.8564 4.71677C38.8256 4.64235 38.7804 4.57475 38.7235 4.51784C38.6666 4.46093 38.599 4.41583 38.5247 4.38511C38.4503 4.35439 38.3707 4.33867 38.2903 4.33884Z" fill="#FF3399"/>
<path d="M52.0105 6.16535C50.4557 6.20102 49.2314 7.51301 49.2314 9.07084V13.1571H50.4481V9.05938C50.4448 8.63389 50.6051 8.22346 50.8958 7.91324C51.1865 7.60303 51.5852 7.41683 52.0093 7.39328C52.2269 7.38559 52.4439 7.42185 52.6473 7.4999C52.8506 7.57796 53.0362 7.69621 53.1931 7.84762C53.3499 7.99904 53.4747 8.18051 53.5601 8.38125C53.6454 8.58198 53.6896 8.79787 53.69 9.01607V13.1571H54.9219V9.01607C54.9217 8.63617 54.8457 8.26014 54.6985 7.91005C54.5513 7.55995 54.3357 7.24284 54.0646 6.97731C53.7934 6.71178 53.472 6.50318 53.1193 6.36375C52.7666 6.22433 52.3896 6.15687 52.0105 6.16535Z" fill="#FF3399"/>
<path d="M47.304 13.2272C47.4662 13.2272 47.6218 13.1627 47.7364 13.0478C47.8511 12.9329 47.9156 12.777 47.9156 12.6145V6.91948C47.9156 6.75699 47.8511 6.60115 47.7364 6.48625C47.6218 6.37135 47.4662 6.30679 47.304 6.30679C47.2236 6.30663 47.144 6.32235 47.0696 6.35307C46.9953 6.38378 46.9277 6.42889 46.8708 6.4858C46.8139 6.54271 46.7687 6.6103 46.7379 6.68472C46.7071 6.75914 46.6913 6.83892 46.6913 6.91948V12.6145C46.6913 12.6951 46.7071 12.7749 46.7379 12.8493C46.7687 12.9237 46.8139 12.9913 46.8708 13.0482C46.9277 13.1051 46.9953 13.1503 47.0696 13.181C47.144 13.2117 47.2236 13.2274 47.304 13.2272Z" fill="#FF3399"/>
<path d="M59.0474 6.16537C58.6151 6.14841 58.1838 6.21901 57.7793 6.37295C57.3748 6.52689 57.0055 6.76101 56.6935 7.06129C56.3814 7.36157 56.1331 7.72184 55.9632 8.12054C55.7934 8.51924 55.7056 8.94817 55.705 9.38166C55.705 10.1841 55.8118 10.7523 56.3649 11.3509L56.492 11.4936L56.6535 11.3866C56.8623 11.2482 57.0938 11.1477 57.3374 11.0898L57.7697 10.9854L57.4315 10.6949C56.9942 10.3128 56.923 9.95741 56.923 9.38549C56.923 8.99122 57.0397 8.6058 57.2583 8.27798C57.4769 7.95015 57.7877 7.69464 58.1512 7.54376C58.5148 7.39288 58.9148 7.35341 59.3008 7.43032C59.6867 7.50724 60.0413 7.6971 60.3195 7.97589C60.5978 8.25468 60.7873 8.60989 60.864 8.99658C60.9408 9.38327 60.9014 9.78409 60.7508 10.1484C60.6002 10.5126 60.3452 10.8239 60.018 11.043C59.6908 11.262 59.3062 11.3789 58.9126 11.3789C58.8529 11.3789 58.7855 11.3789 58.7283 11.37C58.6711 11.3611 58.5935 11.3471 58.5172 11.3382L58.4308 11.3293H58.3749C58.3342 11.3293 58.2918 11.3293 58.2477 11.3293C57.9013 11.33 57.559 11.4045 57.2434 11.5477C56.9279 11.691 56.6463 11.8998 56.4173 12.1602C56.1883 12.4207 56.0172 12.727 55.9152 13.0587C55.8133 13.3904 55.7828 13.74 55.8258 14.0845C55.9033 14.7021 56.213 15.267 56.6918 15.6638C57.1706 16.0606 57.7824 16.2596 58.4025 16.2201C59.0226 16.1806 59.6044 15.9057 60.0292 15.4514C60.454 14.997 60.6898 14.3975 60.6887 13.7749C60.7019 13.4619 60.6233 13.1519 60.4624 12.8833L60.367 12.6986L60.1763 12.775C59.9475 12.8676 59.7046 12.9206 59.458 12.9317L59.0423 12.9508L59.2839 13.2909C59.425 13.4822 59.5004 13.7141 59.4987 13.952C59.4987 14.6704 58.8554 15.064 58.1219 14.9812C57.8123 14.9463 57.5278 14.7939 57.3269 14.5553C57.126 14.3167 57.0241 14.01 57.042 13.6984C57.0599 13.3868 57.1963 13.0938 57.4232 12.8799C57.6501 12.666 57.9502 12.5473 58.2617 12.5483C58.2922 12.5483 58.3215 12.5483 58.3507 12.5483C58.4181 12.561 58.4855 12.5699 58.549 12.5776H58.5783C59.0323 12.6271 59.4916 12.5791 59.9256 12.4367C60.3596 12.2944 60.7583 12.0609 61.0952 11.752C61.4321 11.443 61.6993 11.0657 61.8791 10.6451C62.059 10.2245 62.1472 9.77034 62.138 9.31288C62.1171 8.49342 61.7863 7.7125 61.2125 7.12815C60.6388 6.5438 59.8648 6.19966 59.0474 6.16537Z" fill="#FF3399"/>
<path d="M30.6393 5.27373C30.6372 5.06109 30.5626 4.85556 30.4279 4.69122C30.2932 4.52689 30.1065 4.41362 29.8988 4.3702C29.691 4.32678 29.4747 4.35582 29.2856 4.45251C29.0966 4.54919 28.9462 4.70772 28.8594 4.90178L26.4706 10.3026C26.4562 10.335 26.4327 10.3624 26.4031 10.3817C26.3734 10.401 26.3388 10.4113 26.3034 10.4113C26.2681 10.4113 26.2334 10.401 26.2038 10.3817C26.1741 10.3624 26.1507 10.335 26.1362 10.3026L24.5522 6.67488C24.4872 6.5259 24.3659 6.40885 24.2149 6.34949C24.0638 6.29013 23.8955 6.29332 23.7468 6.35835C23.5981 6.42338 23.4812 6.54493 23.422 6.69626C23.3627 6.84759 23.3659 7.01631 23.4308 7.16529L25.6569 12.2604L25.957 12.9482C26.0048 13.0573 26.0833 13.15 26.1829 13.2152C26.2824 13.2803 26.3987 13.315 26.5176 13.3151H26.7821C26.9007 13.3151 27.0167 13.2805 27.116 13.2156C27.2153 13.1507 27.2936 13.0582 27.3415 12.9495L30.563 5.63803C30.6121 5.5228 30.638 5.399 30.6393 5.27373Z" fill="#FF3399"/>
</svg>
