<svg width="60" height="20" fill="none" xmlns="http://www.w3.org/2000/svg"><path d="M22.044 11.748c.103.329.233.658.311 1.002.131.575.066.823-.36 1.03-.558.078-1.053-.247-1.645-.347-.131.047-.312.121-.49.18a3.814 3.814 0 0 1-3.666-.682 3.785 3.785 0 0 1-1.314-3.48 3.78 3.78 0 0 1 2.306-2.922 3.812 3.812 0 0 1 3.703.452 3.535 3.535 0 0 1 1.538 2.973c0 .618-.131 1.23-.383 1.794Zm-1.311.354c0-.211-.134-.391-.069-.574.066-.184.196-.364.259-.556.159-.416.214-.864.162-1.306a2.478 2.478 0 0 0-1.14-1.71 2.497 2.497 0 0 0-2.043-.27 2.465 2.465 0 0 0-1.473 1.291 2.45 2.45 0 0 0 1.334 3.332 2.469 2.469 0 0 0 1.96-.074c.18-.09.367-.166.558-.226.142.063.296.095.452.093Z" fill="#EC064F"/><path d="M11.085 11.72c.124.583.442 1.099.311 1.704a.902.902 0 0 1-.374.366c-.595.078-1.096-.31-1.672-.332-2.071.869-4.102.025-4.983-1.552a3.732 3.732 0 0 1 .539-4.49 3.82 3.82 0 0 1 4.808-.593c1.46.912 2.249 2.874 1.37 4.897Zm-1.358-.31c.486-.882.57-1.53.211-2.334a2.454 2.454 0 0 0-2.217-1.5 2.467 2.467 0 0 0-2.276 1.408 2.444 2.444 0 0 0 .363 2.645 2.462 2.462 0 0 0 2.573.746c.31-.145.63-.263.96-.354.133.028.264.13.439.05a2.33 2.33 0 0 1-.053-.668v.007Z" fill="#FE6D2D"/><path d="M23.33 5.293c.312-.31.695-.112 1.04-.159.197-.024.424-.065.558.224V7.65c.557.106 1.105-.08 1.588.134.17.444.161.936-.022 1.375-.485.136-1.012 0-1.557.077v1.524c.52.103 1.068-.084 1.576.124.138.366.165.764.078 1.145-.028.208-.171.292-.427.31H24.92v3.678c-.197.245-.415.186-.623.19-.76 0-.76 0-1-.146l.034-10.77Z" fill="#48494D"/><path d="M27.946 7.425c.056-.357-.106-.773.124-1.164h5.295c.043 0 .087.062.124.09.271 3.414-1.812 6.517-5.16 7.933-.446-.156-.54-.637-.804-.963a.325.325 0 0 1 .072-.453 10.17 10.17 0 0 0 1.987-1.241 5.853 5.853 0 0 0 2.143-3.482c.021-.118.105-.23.062-.357a.34.34 0 0 0 0-.04c-.09-.081-.206-.044-.312-.044H28.55a.578.578 0 0 1-.604-.28Z" fill="#454649"/><path d="M44.962 13.11c-.647.137-1.292 0-1.965.084-.03.396-.03.793 0 1.189h2.588a.583.583 0 0 1 .15.8.718.718 0 0 1-.492.122H39.72a.565.565 0 0 1-.551-.249c.043-.205-.1-.475.193-.67h2.591V13.19h-1.738a.352.352 0 0 1-.249-.385V9.79a.364.364 0 0 1 .38-.224h4.242c.162 0 .311.025.373.17v3.374Zm-.89-.797v-.897c.026-.294.014-.59-.038-.882a20.16 20.16 0 0 0-3.173.047v1.732h3.21Z" fill="#4C4B4B"/><path d="M12.34 5.274c.489-.332 1.015-.143 1.479-.149a.505.505 0 0 1 .171.456v10.146a.489.489 0 0 1-.187.462H12.49a.28.28 0 0 1-.15-.28V5.276Z" fill="#45464A"/><path d="M35.012 5.175c.464-.162.934-.05 1.358-.08a.463.463 0 0 1 .203.45v10.473a.31.31 0 0 1-.33.187c-.402-.031-.82.09-1.228-.093l-.003-10.937Z" fill="#444548"/><path d="M49.92 14.389a.349.349 0 0 1-.342.177h-3.033a.568.568 0 0 1-.234-.512v-3.945a.51.51 0 0 1 .268-.524c.17-.027.341-.027.51 0 .269.257.203.583.21.887.005.305 0 .6 0 .931h1.69v-1.31a.492.492 0 0 1 .29-.524c.202.038.473-.108.645.202l-.003 4.618Zm-.934-2.033h-1.694c0 .444-.028.86.019 1.282h1.675v-1.282Z" fill="#4C4C4C"/><path d="M52.705 11.708c.202.248.121.493.109.726-.312.378-.77.105-1.153.254v3.215c-.31.385-.597.4-.965.056V9.557a2.133 2.133 0 0 1 0-.245.323.323 0 0 1 .203-.317.328.328 0 0 1 .13-.025c.055-.003.11-.003.165 0 .35 0 .44.087.443.432v2.01a.356.356 0 0 0 .053.265c.323.055.663-.007 1.015.03Z" fill="#4F4F4F"/><path d="M4.607 4.11c.062.202-.06.31-.221.435-1.175-.078-2.224.254-2.98 1.241a2.952 2.952 0 0 0-.387 3.14c-.122.383-.122.383-.508.417A.723.723 0 0 1 .2 8.89a3.994 3.994 0 0 1 .152-2.837 3.71 3.71 0 0 1 3-2.172c.222-.047.448-.074.675-.081a.693.693 0 0 1 .58.31Z" fill="#ED0B51"/><path d="M4.572 5.6a.465.465 0 0 1 .14.503.623.623 0 0 1-.544.214 1.502 1.502 0 0 0-1.236.604 1.49 1.49 0 0 0-.219 1.354.619.619 0 0 1-.019.51c-.395.176-.563.142-.666-.209a2.252 2.252 0 0 1 .467-2.321A2.118 2.118 0 0 1 4.572 5.6Z" fill="#ED0B51"/><path d="M54.966 12.694c-1.065 0-1.931-.772-1.931-1.725 0-.953.866-1.726 1.93-1.726 1.066 0 1.935.776 1.935 1.726s-.866 1.726-1.934 1.726Zm0-2.628c-.623 0-1.106.406-1.106.903s.495.9 1.106.9c.61 0 1.096-.4 1.096-.9s-.483-.903-1.096-.903Z" fill="#505050"/><path d="M53.96 12.865v.742h3.843v.31H53.96v2.173h4.787s.57-.382 0-.95h-3.875v-.363h3.85V9.209a.604.604 0 0 0-.934 0V12.8l-3.828.065Z" fill="#505050"/></svg>