<svg width="71" height="20" viewBox="0 0 71 20" fill="none" xmlns="http://www.w3.org/2000/svg">
<path d="M39.7135 13.6867H38.3205V8.75933C38.3254 8.59086 38.296 8.42316 38.2341 8.26663C38.1723 8.11009 38.0794 7.96804 37.961 7.84927C37.8427 7.7305 37.7015 7.63754 37.5462 7.57614C37.3909 7.51473 37.2247 7.48619 37.0581 7.49229C36.8922 7.48576 36.7267 7.51415 36.5723 7.57565C36.4178 7.63716 36.2777 7.73044 36.1608 7.84957C36.0439 7.96871 35.9528 8.1111 35.8932 8.26771C35.8336 8.42432 35.8069 8.59174 35.8148 8.75933V13.6867H34.4217V8.75933C34.4096 8.43031 34.2718 8.11884 34.0372 7.8904C33.8026 7.66195 33.4895 7.53432 33.1637 7.53432C32.8379 7.53432 32.5248 7.66195 32.2902 7.8904C32.0556 8.11884 31.9177 8.43031 31.9056 8.75933V13.6867H30.5265V8.78221C30.5181 8.42965 30.5808 8.07905 30.7108 7.75178C30.8408 7.42451 31.0354 7.12743 31.2827 6.87863C31.53 6.62984 31.8249 6.43455 32.1493 6.30467C32.4738 6.17479 32.821 6.11303 33.1698 6.12317C33.5453 6.12042 33.9164 6.20539 34.2541 6.37145C34.5918 6.5375 34.8869 6.78016 35.1165 7.0805C35.3463 6.77993 35.6417 6.53712 35.9798 6.37105C36.3178 6.20498 36.6892 6.12015 37.065 6.12317C37.4145 6.11207 37.7625 6.17309 38.0879 6.30252C38.4132 6.43195 38.709 6.62705 38.9572 6.87592C39.2054 7.12479 39.4008 7.42219 39.5315 7.74995C39.6621 8.07772 39.7252 8.42896 39.717 8.78221L39.7135 13.6867Z" fill="#601986"/>
<path d="M47.955 9.94899C47.955 12.0977 46.4506 13.8012 44.3872 13.8012C42.3237 13.8012 40.8071 12.0977 40.8071 9.94899C40.8071 7.80029 42.3133 6.10913 44.3872 6.10913C46.461 6.10913 47.955 7.80733 47.955 9.94899ZM46.562 9.94899C46.562 8.57635 45.5939 7.43777 44.3941 7.43777C43.1944 7.43777 42.214 8.57635 42.214 9.94899C42.214 11.3216 43.1839 12.4708 44.3872 12.4708C45.5904 12.4708 46.5551 11.3269 46.5551 9.94899H46.562Z" fill="#601986"/>
<path d="M52.8446 13.6727H49.0468V6.28156H52.6548C54.1174 6.28156 54.854 7.04882 54.854 8.28243C54.8636 8.56673 54.8032 8.84898 54.6783 9.1039C54.5534 9.35882 54.3679 9.57843 54.1383 9.74306C54.76 10.0739 55.1396 10.6687 55.1396 11.5028C55.1396 12.8209 54.255 13.6727 52.8446 13.6727ZM50.4364 7.5662V9.19401H52.6548C52.7648 9.20001 52.8748 9.18321 52.9782 9.14465C53.0815 9.10608 53.1759 9.04657 53.2557 8.96977C53.3354 8.89296 53.3988 8.80048 53.4419 8.69802C53.485 8.59556 53.5069 8.48527 53.5062 8.37394C53.5062 7.88472 53.1806 7.5662 52.6548 7.5662H50.4364ZM52.6234 10.4804H50.4364V12.3827H52.6548C53.1911 12.3827 53.7169 12.1716 53.7169 11.4465C53.7169 10.8324 53.3286 10.4804 52.6234 10.4804Z" fill="#601986"/>
<path d="M57.6122 13.6727H56.2192V6.28156H57.6122V13.6727Z" fill="#601986"/>
<path d="M60.2033 12.3634H64.0654V13.6727H58.8033V6.28156H60.1963L60.2033 12.3634Z" fill="#601986"/>
<path d="M70.6666 13.6727H65.2565V6.28156H70.6666V7.59084H66.646V9.31895H70.139V10.6282H66.646V12.3563H70.6666V13.6727Z" fill="#601986"/>
<path d="M2.78606 13.7712C0.910693 13.7712 0 12.8685 0 10.6494V6.30444H1.45397V10.8324C1.45397 11.9569 1.82487 12.6362 2.77735 12.6362C3.90048 12.6362 4.31143 12.1082 4.31143 10.6406V6.30444H5.7654V10.7321C5.7654 12.8579 4.70147 13.7712 2.78606 13.7712Z" fill="#E4007F"/>
<path d="M11.2452 7.45887H9.45518V9.25737H8.24498V7.45887H6.45668V6.30796H8.24498V4.48834H9.45518V6.30796H11.2452V7.45887Z" fill="#E4007F"/>
<path d="M20.8833 2C19.3176 2 17.7872 2.46919 16.4854 3.34824C15.1837 4.22729 14.1691 5.47672 13.5699 6.93853C12.9708 8.40034 12.814 10.0089 13.1195 11.5607C13.4249 13.1126 14.1788 14.538 15.2859 15.6569C16.3929 16.7757 17.8034 17.5376 19.3389 17.8463C20.8745 18.155 22.4661 17.9965 23.9125 17.391C25.359 16.7855 26.5953 15.7602 27.4651 14.4446C28.3349 13.129 28.7991 11.5822 28.7991 10C28.7968 7.87898 27.9621 5.8455 26.4781 4.34572C24.9941 2.84593 22.982 2.00233 20.8833 2V2Z" fill="#601986"/>
<path d="M22.9032 5.63574V11.5979C22.9032 12.4162 22.7726 13.0057 22.5149 13.3665C22.3206 13.6158 22.0729 13.8173 21.7905 13.9559C21.508 14.0944 21.1981 14.1664 20.8841 14.1664C20.5702 14.1664 20.2603 14.0944 19.9778 13.9559C19.6953 13.8173 19.4477 13.6158 19.2534 13.3665C18.9957 12.9969 18.8651 12.4021 18.8651 11.5961V5.63574H17.3206V11.9939C17.3056 12.4724 17.3871 12.949 17.5601 13.3946C17.7331 13.8403 17.994 14.2458 18.327 14.5864C18.6599 14.9269 19.0579 15.1955 19.4967 15.3758C19.9356 15.556 20.4062 15.6442 20.8798 15.6349C21.3674 15.6431 21.8514 15.5487 22.301 15.3579C22.7506 15.167 23.1561 14.8838 23.4917 14.5262C23.8075 14.1883 24.054 13.7906 24.2168 13.356C24.3797 12.9213 24.4558 12.4584 24.4407 11.9939V5.63574H22.9032Z" fill="white"/>
</svg>
