<svg width="34" height="20" viewBox="0 0 34 20" fill="none" xmlns="http://www.w3.org/2000/svg">
<g clip-path="url(#clip0_2509_6589)">
<path d="M29.4135 3.46752C29.4564 3.56712 29.4689 3.67726 29.4494 3.784C29.4299 3.89073 29.3794 3.98927 29.3042 4.06711C29.229 4.14496 29.1325 4.19862 29.0269 4.2213C28.9214 4.24398 28.8115 4.23465 28.7112 4.19451C28.6109 4.15436 28.5247 4.08519 28.4636 3.99577C28.4024 3.90635 28.369 3.8007 28.3677 3.69219C28.3663 3.58369 28.397 3.47721 28.4558 3.38625C28.5147 3.29528 28.5991 3.22393 28.6983 3.18122C28.831 3.12413 28.9807 3.1222 29.1147 3.17586C29.2488 3.22953 29.3562 3.3344 29.4135 3.46752Z" fill="#03328D"/>
<path d="M28.0802 2.40815C28.0235 2.6002 27.9114 2.77103 27.7581 2.89903C27.6048 3.02703 27.4172 3.10644 27.219 3.12724C27.0208 3.14803 26.8209 3.10926 26.6446 3.01583C26.4683 2.9224 26.3236 2.77852 26.2287 2.60237C26.1337 2.42623 26.0929 2.22575 26.1114 2.02628C26.1298 1.82682 26.2067 1.63733 26.3323 1.4818C26.4579 1.32627 26.6266 1.21168 26.817 1.15252C27.0074 1.09336 27.2109 1.0923 27.4019 1.14947C27.5288 1.18715 27.647 1.24964 27.7498 1.33335C27.8526 1.41706 27.938 1.52034 28.001 1.63727C28.064 1.7542 28.1034 1.88249 28.117 2.01478C28.1306 2.14706 28.1181 2.28074 28.0802 2.40815Z" fill="#03328D"/>
<path d="M29.4304 10.5032C29.4726 10.6029 29.4844 10.713 29.4644 10.8195C29.4444 10.926 29.3935 11.0242 29.318 11.1015C29.2425 11.1789 29.1459 11.2321 29.0404 11.2543C28.9348 11.2766 28.8251 11.2669 28.7251 11.2264C28.6251 11.186 28.5392 11.1167 28.4783 11.0272C28.4175 10.9377 28.3844 10.8321 28.3832 10.7237C28.382 10.6154 28.4128 10.5091 28.4717 10.4183C28.5306 10.3275 28.615 10.2563 28.7141 10.2137C28.78 10.1851 28.8509 10.1699 28.9227 10.1689C28.9945 10.168 29.0657 10.1814 29.1323 10.2083C29.1989 10.2352 29.2595 10.2751 29.3107 10.3258C29.3619 10.3764 29.4025 10.4367 29.4304 10.5032Z" fill="#03328D"/>
<path d="M28.2352 12.5063C28.258 12.5598 28.2645 12.619 28.2538 12.6762C28.2431 12.7335 28.2159 12.7863 28.1754 12.828C28.1349 12.8696 28.0831 12.8983 28.0264 12.9104C27.9697 12.9225 27.9107 12.9174 27.8569 12.8958C27.8031 12.8743 27.7568 12.8371 27.724 12.7891C27.6911 12.7412 27.6732 12.6845 27.6723 12.6262C27.6715 12.568 27.6879 12.5108 27.7193 12.4619C27.7508 12.413 27.796 12.3746 27.8492 12.3515C27.8846 12.3359 27.9227 12.3276 27.9614 12.3269C28.0001 12.3263 28.0385 12.3334 28.0744 12.3478C28.1103 12.3622 28.143 12.3836 28.1706 12.4108C28.1982 12.438 28.2202 12.4705 28.2352 12.5063Z" fill="#03328D"/>
<path d="M27.3344 4.77179C27.4056 4.93918 27.4258 5.12405 27.3925 5.303C27.3592 5.48195 27.2738 5.64695 27.1472 5.77712C27.0206 5.9073 26.8584 5.9968 26.6812 6.03432C26.504 6.07183 26.3196 6.05567 26.1516 5.98787C25.9835 5.92008 25.8392 5.8037 25.7369 5.65345C25.6346 5.50321 25.579 5.32584 25.577 5.14379C25.575 4.96175 25.6267 4.78319 25.7257 4.63071C25.8246 4.47824 25.9664 4.35869 26.1329 4.28719C26.3562 4.19164 26.6081 4.18899 26.8333 4.27983C27.0585 4.37067 27.2387 4.54759 27.3344 4.77179Z" fill="#03328D"/>
<path d="M32.8819 4.57029C32.9957 4.83877 33.0278 5.13516 32.9741 5.42198C32.9205 5.70881 32.7834 5.9732 32.5803 6.18173C32.3772 6.39027 32.1171 6.5336 31.833 6.5936C31.5488 6.6536 31.2534 6.62758 30.984 6.51883C30.7145 6.41008 30.4832 6.22348 30.3193 5.98262C30.1553 5.74175 30.0661 5.45743 30.0628 5.1656C30.0596 4.87376 30.1425 4.5875 30.301 4.34301C30.4596 4.09851 30.6867 3.90675 30.9536 3.79196C31.312 3.63816 31.7165 3.63375 32.0781 3.77971C32.4397 3.92568 32.7288 4.21005 32.8819 4.57029Z" fill="#03328D"/>
<path d="M29.481 6.11106C29.5416 6.25377 29.5586 6.41132 29.5301 6.5638C29.5016 6.71627 29.4288 6.85683 29.3208 6.96771C29.2129 7.07858 29.0747 7.1548 28.9236 7.18673C28.7726 7.21866 28.6155 7.20487 28.4723 7.14709C28.3291 7.08932 28.2061 6.99016 28.1189 6.86215C28.0317 6.73413 27.9842 6.58301 27.9824 6.42787C27.9807 6.27274 28.0247 6.12056 28.1089 5.99056C28.1931 5.86056 28.3138 5.75858 28.4557 5.69751C28.55 5.65661 28.6514 5.63488 28.7541 5.63355C28.8568 5.63222 28.9587 5.65133 29.054 5.68977C29.1493 5.72821 29.2361 5.78522 29.3094 5.85752C29.3827 5.92983 29.441 6.01599 29.481 6.11106Z" fill="#03328D"/>
<path d="M31.7511 0.922562C31.8685 1.19894 31.9017 1.5041 31.8466 1.79947C31.7914 2.09483 31.6504 2.36713 31.4414 2.58194C31.2323 2.79674 30.9646 2.94441 30.672 3.00627C30.3795 3.06812 30.0752 3.04139 29.7978 2.92945C29.5204 2.81751 29.2822 2.62539 29.1134 2.37737C28.9446 2.12936 28.8527 1.8366 28.8494 1.5361C28.8461 1.2356 28.9315 0.94086 29.0948 0.689149C29.2581 0.437438 29.492 0.240059 29.7669 0.121968C30.1356 -0.0361353 30.5517 -0.0406223 30.9238 0.109493C31.2958 0.259608 31.5934 0.552047 31.7511 0.922562Z" fill="#03328D"/>
<path d="M31.5295 8.23713C31.6111 8.42847 31.6344 8.63984 31.5964 8.84448C31.5585 9.04913 31.461 9.23785 31.3162 9.38674C31.1715 9.53564 30.9861 9.63802 30.7834 9.68093C30.5808 9.72383 30.37 9.70532 30.1779 9.62775C29.9857 9.55018 29.8207 9.41703 29.7039 9.24517C29.587 9.0733 29.5235 8.87044 29.5214 8.66228C29.5193 8.45411 29.5787 8.25 29.6921 8.07579C29.8054 7.90157 29.9677 7.76508 30.1582 7.68361C30.4131 7.57433 30.7007 7.57125 30.9579 7.67504C31.215 7.77884 31.4206 7.98101 31.5295 8.23713Z" fill="#03328D"/>
<path d="M1.07807 12.9368C1.51794 12.8138 2.08756 13.0269 1.7479 11.1744C1.40824 9.32191 1.25317 6.93285 3.31119 6.95088C3.31119 6.95088 4.81647 6.80136 4.04115 9.46718C2.94305 13.2347 -0.172985 18.7594 3.55064 19.8802C3.55064 19.8802 5.07385 20.3606 6.15718 18.6014C7.28271 16.7711 7.26161 17.3671 7.24052 18.2833C7.21731 19.3012 8.03693 19.842 8.42406 19.9194C8.79115 19.9926 10.903 20.6564 13.3566 16.3046C13.7426 15.6196 17.6899 6.83954 14.385 6.53202C13.3924 6.43871 12.9852 7.07706 13.307 8.92638C14.2352 14.2548 11.1108 16.9853 10.0116 16.5792C9.31119 16.3194 9.0517 15.7935 9.47469 13.4797C9.89769 11.1659 11.2342 6.42917 9.00423 6.41432C7.88925 6.41008 7.29326 7.35382 8.01689 9.2042C9.75107 13.6366 6.28482 17.0426 4.75845 16.5792C4.75845 16.5792 3.54853 16.5538 4.48841 13.4288C5.45887 10.202 6.83862 6.36236 3.3133 6.28495C1.70571 6.2489 0.139251 8.05898 1.04151e-05 11.1256C-0.0801584 13.0513 1.07807 12.9368 1.07807 12.9368Z" fill="#E60012"/>
<path d="M16.5728 16.5061C16.4821 18.0563 17.3597 18.3745 18.6488 18.3745C19.4633 18.3589 20.2684 18.1958 21.0253 17.893V19.3426C20.2191 19.6907 19.3521 19.8742 18.4747 19.8823C16.3175 19.8823 15.0285 18.4423 15.0285 16.3184C15.0285 14.1944 16.2732 12.5328 18.3144 12.5328C20.6171 12.5328 21.2099 14.5412 21.2099 15.8369C21.2106 16.0612 21.1919 16.2851 21.154 16.5061H16.5728ZM19.5148 15.2696C19.5253 14.6673 19.2606 13.7851 18.1815 13.7851C17.2015 13.7851 16.7922 14.5984 16.7163 15.2696H19.5148Z" fill="#03328D"/>
<path d="M25.3239 9.41736H26.9874V19.7233H25.3239V9.41736Z" fill="#03328D"/>
<path d="M22.5981 9.41736H24.2616V19.7233H22.5981V9.41736Z" fill="#03328D"/>
<path d="M17.4135 7.43549C17.4128 7.35629 17.4249 7.2775 17.4494 7.20221C17.4718 7.13097 17.5104 7.06598 17.5622 7.0124C17.6112 6.95702 17.6713 6.91259 17.7384 6.88197C17.8816 6.82258 18.0424 6.82258 18.1857 6.88197C18.2534 6.91314 18.3143 6.95747 18.365 7.0124C18.4154 7.06687 18.4535 7.13161 18.4768 7.20221C18.526 7.35451 18.526 7.51859 18.4768 7.6709C18.4528 7.74245 18.4148 7.80844 18.365 7.86495C18.3136 7.91763 18.2527 7.96008 18.1857 7.99007C18.0424 8.04946 17.8816 8.04946 17.7384 7.99007C17.672 7.96055 17.6121 7.91801 17.5622 7.86495C17.511 7.8093 17.4725 7.74307 17.4494 7.6709C17.4247 7.59493 17.4126 7.5154 17.4135 7.43549ZM17.6245 7.43549C17.6238 7.48884 17.6305 7.54202 17.6445 7.59349C17.6566 7.63807 17.679 7.67914 17.7099 7.71331C17.7389 7.74696 17.7749 7.77375 17.8154 7.79178C17.8604 7.81122 17.9089 7.82098 17.9578 7.82041C18.0054 7.82067 18.0524 7.81091 18.096 7.79178C18.139 7.77393 18.1778 7.7472 18.2099 7.71331C18.2398 7.67873 18.2615 7.63775 18.2732 7.59349C18.3032 7.48959 18.3032 7.37927 18.2732 7.27537C18.2615 7.23111 18.2398 7.19013 18.2099 7.15555C18.1775 7.12201 18.1388 7.09532 18.096 7.07708C18.0525 7.05761 18.0054 7.0475 17.9578 7.04739C17.9088 7.04719 17.8603 7.0573 17.8154 7.07708C17.7752 7.09554 17.7392 7.12227 17.7099 7.15555C17.679 7.18972 17.6566 7.23079 17.6445 7.27537C17.6307 7.32757 17.6243 7.38148 17.6255 7.43549H17.6245ZM19.0443 8.15868C19.0507 8.20537 19.0434 8.25293 19.0232 8.29547C18.9568 8.3856 18.8302 8.44074 18.6414 8.45983C18.5475 8.47891 18.5011 8.51073 18.5011 8.55632C18.5073 8.5824 18.5231 8.60513 18.5454 8.61995C18.5788 8.63334 18.6149 8.63913 18.6508 8.63691C18.7244 8.63872 18.7971 8.62118 18.8618 8.58601C18.9094 8.55456 18.9491 8.51246 18.9778 8.46301C18.9806 8.44994 18.9859 8.43756 18.9935 8.42663C19.0011 8.41569 19.0109 8.40642 19.0222 8.39938C19.0339 8.39187 19.0471 8.38678 19.0609 8.38441C19.0746 8.38205 19.0887 8.38245 19.1023 8.3856C19.1159 8.38934 19.1286 8.39578 19.1396 8.40452C19.1507 8.41326 19.1599 8.42413 19.1667 8.4365C19.1743 8.4479 19.1794 8.46077 19.1818 8.47428C19.1841 8.48779 19.1836 8.50165 19.1804 8.51497C19.1664 8.55413 19.1449 8.59016 19.1171 8.62101C19.0918 8.65495 19.0636 8.68654 19.0327 8.71538C18.9852 8.76243 18.9257 8.79545 18.8608 8.81082C18.7988 8.82831 18.7351 8.83862 18.6709 8.84157C18.6239 8.84569 18.5766 8.84569 18.5295 8.84157C18.4913 8.83441 18.4552 8.81844 18.4241 8.79491C18.3912 8.77311 18.3623 8.74586 18.3386 8.71432C18.315 8.68331 18.2994 8.64686 18.2932 8.60828C18.2875 8.57317 18.2875 8.53735 18.2932 8.50224C18.2996 8.46335 18.316 8.42681 18.3407 8.3962C18.3692 8.36074 18.4053 8.33212 18.4462 8.31243C18.4967 8.28625 18.5507 8.26767 18.6065 8.25729C18.6656 8.24457 18.712 8.2329 18.7447 8.22442C18.7711 8.21743 18.7963 8.20672 18.8196 8.19261C18.8305 8.18595 18.8385 8.17531 18.8418 8.16292C18.8425 8.1556 18.8417 8.14822 18.8393 8.14126C18.8369 8.1343 18.8331 8.12795 18.8281 8.12262C18.8093 8.11306 18.7889 8.1073 18.7679 8.10566C18.7367 8.10402 18.7053 8.10402 18.6741 8.10566C18.6396 8.1099 18.6044 8.1152 18.5686 8.12156L18.4895 8.13959C18.477 8.14636 18.463 8.14991 18.4488 8.14991C18.4347 8.14991 18.4207 8.14636 18.4082 8.13959C18.385 8.12513 18.3675 8.10302 18.3586 8.07703C18.3516 8.06419 18.348 8.04979 18.348 8.03514C18.348 8.0205 18.3516 8.00609 18.3586 7.99326C18.3654 7.98017 18.3746 7.96856 18.3859 7.9591C18.3971 7.94963 18.4101 7.9425 18.4241 7.93812C18.4346 7.93812 18.4589 7.93069 18.4979 7.92115C18.5433 7.91045 18.5895 7.90336 18.6361 7.89994C18.6897 7.89411 18.7438 7.89411 18.7975 7.89994C18.8528 7.9049 18.9057 7.92508 18.9504 7.95826C18.9732 7.98159 18.994 8.00677 19.0127 8.03355C19.0302 8.07323 19.0412 8.11548 19.0454 8.15868H19.0443ZM18.6224 6.81092C18.6489 6.80082 18.6781 6.80082 18.7046 6.81092C18.7182 6.81482 18.7307 6.82156 18.7414 6.8307C18.7522 6.83984 18.7608 6.85117 18.7669 6.86394C18.7669 6.8703 18.7816 6.90212 18.8059 6.95832C18.8329 7.03074 18.8527 7.10569 18.865 7.18206C18.8804 7.28307 18.8854 7.38541 18.8797 7.48745C18.8771 7.58312 18.8552 7.67727 18.8154 7.76421C18.8036 7.78812 18.7833 7.80667 18.7584 7.81617C18.7466 7.8214 18.7339 7.8241 18.721 7.8241C18.7081 7.8241 18.6953 7.8214 18.6835 7.81617C18.6696 7.81177 18.6568 7.80423 18.6462 7.79412C18.6356 7.78402 18.6275 7.77161 18.6224 7.75785C18.6118 7.73203 18.6118 7.70308 18.6224 7.67726C18.6403 7.62563 18.6547 7.57284 18.6656 7.51926C18.6701 7.47484 18.6701 7.43007 18.6656 7.38565C18.6649 7.32836 18.6593 7.27124 18.6487 7.21493C18.6392 7.16403 18.6287 7.11949 18.6181 7.08132C18.6076 7.04315 18.5897 7.00603 18.5707 6.96468C18.5613 6.93792 18.5613 6.90873 18.5707 6.88197C18.5733 6.86681 18.5795 6.85249 18.5887 6.84015C18.5978 6.82781 18.6097 6.8178 18.6234 6.81092H18.6224ZM18.7078 7.1407C18.7174 7.13062 18.7288 7.12252 18.7415 7.11688C18.7541 7.11124 18.7678 7.10817 18.7816 7.10783C18.8096 7.10768 18.8366 7.11787 18.8576 7.13646C18.8693 7.14777 18.8846 7.15454 18.9008 7.15555C18.9264 7.15845 18.9523 7.15592 18.9768 7.14813C19.0009 7.14374 19.0243 7.13625 19.0464 7.12586L19.1118 7.09299C19.1244 7.08552 19.1384 7.08077 19.1529 7.07903C19.1675 7.0773 19.1822 7.07862 19.1962 7.0829C19.2101 7.08719 19.2231 7.09436 19.2342 7.10394C19.2453 7.11352 19.2542 7.12532 19.2605 7.13858C19.2684 7.15228 19.2726 7.16783 19.2726 7.18365C19.2726 7.19947 19.2684 7.21501 19.2605 7.22871C19.248 7.25995 19.2258 7.28633 19.1973 7.304C19.1792 7.3134 19.1605 7.32155 19.1414 7.32839C19.1224 7.33475 19.0865 7.3443 19.0359 7.35702C18.9807 7.37118 18.9233 7.3737 18.8671 7.36444C18.8112 7.35695 18.759 7.33254 18.7173 7.29446C18.6977 7.27257 18.6865 7.24438 18.6857 7.21493C18.6838 7.18813 18.692 7.16159 18.7089 7.1407H18.7078Z" fill="#03328D"/>
<path d="M20.827 7.70055C20.8408 7.69816 20.855 7.69892 20.8685 7.70277C20.8821 7.70662 20.8945 7.71348 20.9051 7.72282C20.9271 7.74096 20.9418 7.76663 20.9462 7.79493C20.9504 7.82258 20.9436 7.85078 20.9272 7.8734C20.9092 7.89565 20.8837 7.91038 20.8555 7.91475C20.7996 7.92111 20.73 7.92535 20.6445 7.92854C20.5591 7.93172 20.4705 7.92854 20.3776 7.92854C20.2848 7.92854 20.1857 7.92854 20.0897 7.92854C19.9937 7.92854 19.9061 7.92854 19.827 7.92111H19.6297H19.5432C19.5284 7.92094 19.5138 7.91765 19.5004 7.91144C19.487 7.90522 19.475 7.89624 19.4652 7.88506C19.4461 7.86312 19.4363 7.83461 19.4378 7.80553C19.4401 7.77806 19.4529 7.75258 19.4736 7.73449C19.4838 7.72459 19.4959 7.71686 19.5091 7.71176C19.5224 7.70666 19.5365 7.70429 19.5506 7.70479L19.8196 7.7154C19.8966 7.7154 19.9821 7.7154 20.077 7.72176H20.3629C20.4578 7.72176 20.5464 7.72176 20.6297 7.72176C20.6958 7.71809 20.7617 7.71101 20.827 7.70055ZM19.731 6.80558C19.7743 6.76881 19.825 6.74205 19.8797 6.7272C19.9344 6.71236 19.9917 6.70979 20.0475 6.71969C20.0618 6.72639 20.0746 6.73596 20.0851 6.74781C20.0957 6.75966 20.1037 6.77355 20.1086 6.78862C20.1193 6.81662 20.1193 6.84757 20.1086 6.87557C20.1031 6.88862 20.0942 6.89999 20.0829 6.90855C20.0716 6.9171 20.0583 6.92255 20.0443 6.92435C20.0192 6.92848 19.9938 6.93061 19.9684 6.93071C19.9182 6.94388 19.8742 6.97412 19.8438 7.01628C19.8134 7.05844 19.7985 7.1099 19.8017 7.16187C19.7963 7.19872 19.8015 7.23633 19.8167 7.27032C19.8318 7.30431 19.8562 7.33326 19.8871 7.35381C19.9356 7.37814 19.9896 7.38919 20.0437 7.38584C20.0978 7.38248 20.15 7.36485 20.1951 7.33472C20.2217 7.32517 20.2508 7.32517 20.2774 7.33472C20.2905 7.33794 20.3027 7.3441 20.3132 7.35273C20.3236 7.36136 20.3319 7.37224 20.3376 7.38456C20.3453 7.3967 20.3502 7.41046 20.3519 7.4248C20.3535 7.43914 20.3519 7.45367 20.347 7.46727C20.3431 7.48079 20.3365 7.49339 20.3276 7.50431C20.3187 7.51524 20.3077 7.52427 20.2954 7.53089C20.0844 7.62067 19.9114 7.62456 19.7764 7.54255C19.7132 7.50224 19.6623 7.44515 19.6294 7.3776C19.5964 7.31005 19.5827 7.23466 19.5897 7.15975C19.596 7.02912 19.6458 6.90441 19.731 6.80558ZM20.6171 8.26362C20.6251 8.3079 20.6177 8.3536 20.596 8.39299C20.5338 8.48206 20.4072 8.53614 20.2194 8.55629C20.1234 8.57643 20.0749 8.61143 20.0749 8.66233C20.0776 8.67609 20.083 8.68918 20.0908 8.70083C20.0986 8.71248 20.1086 8.72246 20.1203 8.73019C20.1559 8.74389 20.194 8.75003 20.2321 8.74822C20.3059 8.74994 20.3787 8.73162 20.443 8.6952C20.4947 8.6635 20.5381 8.61988 20.5696 8.56795C20.5719 8.55535 20.5768 8.54336 20.584 8.53277C20.5912 8.52217 20.6005 8.5132 20.6113 8.50641C20.6221 8.49963 20.6342 8.49519 20.6468 8.49337C20.6595 8.49155 20.6723 8.49239 20.6846 8.49584C20.7107 8.50314 20.7329 8.52022 20.7468 8.54356C20.7605 8.56612 20.7646 8.5932 20.7584 8.61885C20.7453 8.65817 20.7241 8.69428 20.6962 8.72489C20.6713 8.75878 20.6434 8.79036 20.6129 8.81926C20.5646 8.86429 20.5058 8.89638 20.442 8.91258C20.3814 8.92958 20.3191 8.93989 20.2563 8.94333C20.2091 8.94544 20.1618 8.94331 20.115 8.93697C20.0768 8.93059 20.0407 8.91534 20.0095 8.89243C19.9773 8.87105 19.9488 8.84455 19.9251 8.81396C19.9039 8.78483 19.8888 8.75163 19.8808 8.7164C19.8756 8.68125 19.8756 8.64552 19.8808 8.61037C19.8864 8.57163 19.902 8.53505 19.9262 8.50433C19.9534 8.47098 19.9872 8.44356 20.0253 8.42374C20.0752 8.398 20.1285 8.37944 20.1835 8.3686C20.2437 8.35587 20.289 8.34421 20.3238 8.33467C20.3495 8.32803 20.374 8.31767 20.3966 8.30391C20.4036 8.30038 20.4097 8.2953 20.4145 8.28906C20.4192 8.28281 20.4225 8.27556 20.424 8.26786C20.4252 8.25963 20.4245 8.25123 20.422 8.24333C20.4194 8.23542 20.4151 8.22821 20.4093 8.22226C20.3897 8.2108 20.3676 8.20426 20.3449 8.20318C20.3133 8.20052 20.2816 8.20052 20.25 8.20318C20.2131 8.20318 20.1772 8.21166 20.1445 8.21802L20.0654 8.23605C20.0537 8.24284 20.0404 8.24642 20.0269 8.24642C20.0134 8.24642 20.0001 8.24284 19.9884 8.23605C19.9666 8.22246 19.9505 8.20135 19.943 8.17667C19.9363 8.1649 19.9327 8.15155 19.9327 8.13796C19.9327 8.12438 19.9363 8.11103 19.943 8.09926C19.9565 8.07534 19.9783 8.05723 20.0042 8.04836L20.0759 8.03139C20.1215 8.02099 20.1676 8.01355 20.2141 8.00913C20.2675 8.00437 20.3211 8.00437 20.3745 8.00913C20.4282 8.01385 20.4797 8.03329 20.5232 8.06533C20.5451 8.08848 20.5652 8.1133 20.5833 8.13955C20.6014 8.17872 20.6128 8.22066 20.6171 8.26362ZM20.2342 6.6953C20.276 6.6655 20.3246 6.64689 20.3755 6.64122C20.4218 6.63538 20.4685 6.63538 20.5148 6.64122C20.5537 6.64787 20.5922 6.65744 20.6297 6.66985L20.6793 6.68894C20.6922 6.6951 20.7037 6.70382 20.7131 6.71457C20.7226 6.72533 20.7297 6.73789 20.7342 6.7515C20.7402 6.76408 20.7433 6.77785 20.7433 6.7918C20.7433 6.80575 20.7402 6.81951 20.7342 6.83209C20.7225 6.85886 20.7015 6.88037 20.6751 6.89254C20.6629 6.89903 20.6493 6.90243 20.6355 6.90243C20.6218 6.90243 20.6082 6.89903 20.596 6.89254C20.562 6.87852 20.5267 6.86821 20.4905 6.86178C20.4663 6.85878 20.4419 6.85878 20.4177 6.86178C20.3936 6.86446 20.3705 6.87282 20.3502 6.88617C20.3112 6.9148 20.2869 6.99221 20.2785 7.12264C20.2737 7.16277 20.2776 7.20346 20.29 7.24191C20.3024 7.28036 20.3229 7.31565 20.3502 7.34532C20.3973 7.36959 20.4503 7.37961 20.503 7.37415C20.5556 7.36869 20.6055 7.34799 20.6466 7.31457C20.6598 7.30888 20.674 7.30595 20.6883 7.30595C20.7026 7.30595 20.7168 7.30888 20.73 7.31457C20.7436 7.31893 20.7561 7.32634 20.7666 7.33626C20.777 7.34618 20.785 7.35834 20.7901 7.37183C20.7955 7.384 20.7983 7.39719 20.7983 7.41054C20.7983 7.42388 20.7955 7.43707 20.7901 7.44924C20.7855 7.4607 20.7786 7.47112 20.7699 7.47986C20.7612 7.4886 20.7509 7.4955 20.7394 7.50014C20.6661 7.55124 20.5801 7.58104 20.491 7.58627C20.4018 7.59151 20.313 7.57198 20.2342 7.52983C20.1754 7.48163 20.1294 7.4197 20.0999 7.34946C20.0705 7.27922 20.0587 7.2028 20.0654 7.12688C20.077 6.89254 20.134 6.75681 20.2342 6.6953Z" fill="#03328D"/>
<path d="M22.2711 6.82467C22.3324 6.81343 22.3945 6.80705 22.4568 6.80558C22.5216 6.80323 22.5848 6.82644 22.6329 6.87027C22.6884 6.92452 22.7253 6.99506 22.7384 7.07174C22.7608 7.18836 22.7683 7.30739 22.7606 7.42591C22.7561 7.52576 22.7434 7.62507 22.7226 7.72282C22.7057 7.79789 22.6659 7.86575 22.6087 7.91687C22.5714 7.95193 22.5272 7.97867 22.4789 7.99534C22.4226 8.01471 22.3642 8.02683 22.3049 8.03139C22.2323 8.03932 22.1594 8.04322 22.0865 8.04306C22.0063 8.04306 21.9093 8.04306 21.7933 8.03139C21.7515 8.03095 21.7103 8.02121 21.6728 8.00288C21.6352 7.98454 21.6021 7.95807 21.576 7.92535C21.5391 7.87868 21.5105 7.82594 21.4916 7.76948C21.471 7.70502 21.4572 7.63855 21.4504 7.57118C21.441 7.50089 21.4365 7.43003 21.4367 7.35911C21.4367 7.29336 21.4367 7.22868 21.4452 7.16611C21.4536 7.10355 21.4557 7.04947 21.462 6.99751C21.4684 6.94555 21.4726 6.91374 21.4736 6.90102C21.4754 6.88675 21.4801 6.873 21.4874 6.8606C21.4946 6.84821 21.5043 6.83743 21.5158 6.82891C21.5265 6.82034 21.539 6.81419 21.5523 6.8109C21.5655 6.8076 21.5794 6.80724 21.5928 6.80982C21.654 6.81725 21.7089 6.82361 21.7595 6.82679L21.8861 6.83951C21.9374 6.84236 21.9888 6.84236 22.0401 6.83951C22.0644 6.83951 22.1013 6.83951 22.1519 6.83951C22.192 6.8377 22.2318 6.83273 22.2711 6.82467ZM22.7711 8.18515C22.7837 8.17809 22.7978 8.17439 22.8122 8.17439C22.8266 8.17439 22.8408 8.17809 22.8534 8.18515C22.8778 8.19848 22.896 8.22097 22.904 8.24771C22.909 8.26078 22.911 8.27478 22.9099 8.28872C22.9088 8.30266 22.9046 8.31618 22.8977 8.3283C22.8913 8.34085 22.8826 8.352 22.8719 8.3611C22.8612 8.37021 22.8488 8.37708 22.8355 8.38132C22.7393 8.4117 22.6409 8.43439 22.5411 8.44919C22.442 8.46262 22.3481 8.47216 22.2595 8.47782C22.1677 8.47782 22.0802 8.47782 21.9979 8.47782C21.9156 8.47782 21.846 8.47039 21.7869 8.46509C21.7279 8.45979 21.6741 8.45237 21.6382 8.446C21.6023 8.43964 21.5802 8.4354 21.5749 8.43434C21.5612 8.43236 21.5482 8.42733 21.5367 8.41962C21.5252 8.41192 21.5155 8.40173 21.5084 8.3898C21.5003 8.37847 21.4945 8.36563 21.4913 8.35202C21.4881 8.33841 21.4876 8.3243 21.4899 8.3105C21.4921 8.2967 21.4971 8.28349 21.5044 8.27162C21.5118 8.25976 21.5214 8.24947 21.5327 8.24135C21.5555 8.22563 21.5835 8.21954 21.6108 8.22438L21.6646 8.23075C21.6994 8.23075 21.7437 8.24029 21.7996 8.24453C21.8555 8.24877 21.923 8.25619 22 8.26044C22.077 8.26468 22.1561 8.26044 22.2416 8.26044C22.3309 8.25695 22.42 8.24881 22.5084 8.23605C22.5971 8.2256 22.6849 8.20858 22.7711 8.18515ZM22.3144 7.03569C22.2806 7.04205 22.2352 7.04735 22.1793 7.05265C22.1234 7.05795 22.0738 7.06008 22.0443 7.06008C21.9637 7.06139 21.883 7.05785 21.8028 7.04947L21.6762 7.03569C21.6762 7.06008 21.6688 7.10355 21.6646 7.16717C21.6603 7.2308 21.6572 7.29654 21.6572 7.36441C21.6561 7.44748 21.6621 7.53049 21.6751 7.61254C21.6823 7.67544 21.7064 7.73518 21.7447 7.78538C21.7526 7.79504 21.7624 7.80296 21.7735 7.80861C21.7845 7.81427 21.7967 7.81756 21.8091 7.81825C21.9146 7.82462 22.0042 7.82886 22.0728 7.83098C22.1365 7.83251 22.2003 7.83003 22.2637 7.82356C22.307 7.82029 22.3497 7.81247 22.3914 7.80023C22.4196 7.79238 22.4463 7.77983 22.4705 7.76311C22.4969 7.73298 22.5151 7.69643 22.5232 7.65707C22.541 7.57805 22.5505 7.49738 22.5517 7.41637C22.5555 7.35811 22.5555 7.29966 22.5517 7.2414C22.549 7.20227 22.544 7.16333 22.5369 7.12476C22.5323 7.10247 22.5252 7.08078 22.5158 7.06008C22.5118 7.04889 22.5049 7.03899 22.4958 7.03144C22.4858 7.02483 22.4746 7.02029 22.4628 7.01811C22.451 7.01592 22.4389 7.01613 22.4272 7.01872L22.3144 7.03569ZM22.0116 8.01973C22.0127 8.00681 22.0163 7.99424 22.0223 7.98277C22.0282 7.97129 22.0365 7.96114 22.0464 7.95292C22.0667 7.93488 22.0932 7.92538 22.1203 7.92641C22.1343 7.92702 22.148 7.93043 22.1607 7.93644C22.1734 7.94245 22.1847 7.95093 22.1941 7.96141C22.2041 7.9711 22.2119 7.98284 22.217 7.99583C22.2221 8.00881 22.2244 8.02275 22.2236 8.03669C22.2236 8.07063 22.2215 8.09608 22.2173 8.11304C22.2173 8.13107 22.2173 8.15546 22.2173 8.18515C22.2293 8.23092 22.2441 8.2759 22.2616 8.31982C22.2716 8.34866 22.2716 8.38005 22.2616 8.40889C22.2497 8.43401 22.2285 8.45343 22.2025 8.46297C22.1914 8.4691 22.1789 8.47231 22.1661 8.47231C22.1534 8.47231 22.1409 8.4691 22.1298 8.46297C22.1014 8.45323 22.0757 8.43688 22.0549 8.41525C22.0482 8.40616 22.0422 8.39659 22.0369 8.38662C22.0271 8.36536 22.02 8.3429 22.0158 8.31982C22.0093 8.28481 22.0054 8.24937 22.0042 8.21378C22.0034 8.14901 22.0059 8.08424 22.0116 8.01973Z" fill="#03328D"/>
<path d="M24.0106 7.00709C24.0229 7 24.0366 6.9955 24.0507 6.99386C24.0649 6.99222 24.0792 6.99348 24.0929 6.99755C24.1062 7.00077 24.1187 7.0069 24.1295 7.01551C24.1402 7.02412 24.149 7.035 24.1551 7.04739C24.1635 7.0617 24.1709 7.07658 24.1772 7.09192C24.193 7.12921 24.2064 7.16746 24.2173 7.20644C24.2354 7.26308 24.2498 7.32081 24.2606 7.37929C24.2738 7.45168 24.2802 7.52518 24.2796 7.59879C24.2796 7.65075 24.2796 7.70483 24.2796 7.75891C24.2769 7.81207 24.2698 7.86492 24.2585 7.91691C24.2462 7.96821 24.2293 8.01826 24.2078 8.06642C24.1848 8.11482 24.1538 8.15893 24.1161 8.19685C24.0617 8.24962 23.9968 8.29029 23.9258 8.31624C23.8547 8.34218 23.779 8.3528 23.7036 8.34742C23.3966 8.34742 23.2268 8.13535 23.1973 7.7324C23.188 7.64329 23.1859 7.55357 23.191 7.46412C23.191 7.38459 23.2047 7.31779 23.2131 7.26371C23.2189 7.21967 23.2277 7.17608 23.2395 7.13328C23.249 7.10147 23.2553 7.0845 23.2564 7.08132C23.2608 7.06771 23.268 7.05514 23.2774 7.04439C23.2868 7.03364 23.2983 7.02492 23.3112 7.01876C23.3239 7.01151 23.3383 7.00769 23.3529 7.00769C23.3675 7.00769 23.3818 7.01151 23.3945 7.01876C23.4195 7.03051 23.44 7.05028 23.4526 7.07496C23.4588 7.0871 23.462 7.10054 23.462 7.11419C23.462 7.12784 23.4588 7.14129 23.4526 7.15343C23.4388 7.20432 23.4293 7.25946 23.4209 7.30188C23.4115 7.36161 23.4052 7.42177 23.4019 7.48215C23.3963 7.56051 23.3963 7.63919 23.4019 7.71755C23.4048 7.79435 23.4182 7.87037 23.442 7.94342C23.4574 7.98875 23.481 8.03083 23.5116 8.06748C23.5347 8.09344 23.5647 8.11221 23.5981 8.12156C23.6305 8.13022 23.6638 8.1345 23.6973 8.13429C23.7447 8.13844 23.7924 8.13225 23.8372 8.11615C23.882 8.10004 23.9228 8.0744 23.9568 8.04097C23.9816 8.01834 24.0017 7.99094 24.0158 7.96038C24.031 7.92658 24.0416 7.89093 24.0475 7.85434C24.0538 7.81511 24.0591 7.77375 24.0623 7.73028C24.0654 7.6868 24.0623 7.64333 24.0623 7.59879C24.0623 7.53729 24.057 7.47591 24.0464 7.41534C24.0352 7.3602 24.0246 7.31354 24.0148 7.27537C24.0011 7.2372 23.9853 7.1969 23.9652 7.15343C23.9573 7.14178 23.9521 7.12846 23.9501 7.11449C23.9481 7.10052 23.9493 7.08627 23.9536 7.07284C23.9638 7.04456 23.9841 7.02112 24.0106 7.00709ZM23.2068 7.61682C23.2088 7.59003 23.2209 7.56502 23.2405 7.54683C23.251 7.53718 23.2633 7.52977 23.2768 7.52503C23.2902 7.52029 23.3044 7.51833 23.3186 7.51926L23.5559 7.53517C23.6263 7.53941 23.7011 7.54153 23.7806 7.54153C24.0348 7.5288 24.1762 7.54153 24.2026 7.57864C24.2093 7.59044 24.2134 7.60354 24.2147 7.61707C24.216 7.63061 24.2143 7.64426 24.2099 7.65711C24.2066 7.67022 24.2004 7.68244 24.1918 7.69288C24.1833 7.70333 24.1725 7.71175 24.1604 7.71755C24.1337 7.73346 24.1037 7.7429 24.0728 7.74512C24.0317 7.74512 23.9874 7.75255 23.9367 7.75361C23.8861 7.75467 23.8386 7.75361 23.7954 7.75361C23.7521 7.75361 23.7015 7.75361 23.6414 7.75361H23.462L23.2985 7.74194C23.2706 7.73802 23.2449 7.72454 23.2258 7.70377C23.215 7.6924 23.2075 7.67829 23.2042 7.66296C23.2008 7.64763 23.2017 7.63167 23.2068 7.61682ZM24.4831 7.00391C24.4967 7.00151 24.5107 7.00237 24.5239 7.00642C24.5371 7.01047 24.5492 7.01761 24.5591 7.02724C24.5794 7.04477 24.5931 7.06869 24.5981 7.0951C24.5981 7.0951 24.5981 7.12267 24.6066 7.16403C24.615 7.20538 24.6139 7.25416 24.6192 7.31354C24.6245 7.37293 24.6256 7.44079 24.6287 7.5129C24.6319 7.585 24.6287 7.65711 24.6287 7.72498C24.6287 7.79284 24.6287 7.86707 24.6203 7.93705C24.6168 7.99332 24.6061 8.04891 24.5886 8.10247C24.5809 8.12846 24.5635 8.15047 24.5401 8.16398C24.5144 8.17458 24.4856 8.17458 24.4599 8.16398C24.446 8.16079 24.4329 8.15459 24.4216 8.14579C24.4103 8.137 24.4011 8.12584 24.3945 8.11308C24.3882 8.10057 24.3843 8.08691 24.3832 8.07289C24.3821 8.05887 24.3838 8.04478 24.3882 8.03143C24.3973 7.99381 24.4033 7.95551 24.4061 7.91691C24.4114 7.86919 24.4135 7.81723 24.4156 7.76209C24.4177 7.70695 24.4156 7.64545 24.4156 7.58288C24.4156 7.52032 24.4156 7.462 24.4083 7.40262C24.4009 7.34323 24.4009 7.29658 24.3977 7.2425C24.3945 7.18842 24.3903 7.15237 24.3872 7.12055C24.3844 7.10622 24.3848 7.09145 24.3885 7.07732C24.3921 7.06319 24.3989 7.05006 24.4083 7.0389C24.4179 7.02818 24.4296 7.01954 24.4426 7.01353C24.4557 7.00751 24.4698 7.00424 24.4842 7.00391H24.4831ZM24.4452 7.42807C24.453 7.41655 24.4629 7.40669 24.4745 7.39905C24.4861 7.39141 24.4991 7.38613 24.5127 7.38353C24.526 7.37981 24.5399 7.37921 24.5534 7.38179C24.567 7.38436 24.5797 7.39004 24.5907 7.39838C24.6005 7.40449 24.6121 7.40676 24.6234 7.40474C24.6465 7.4028 24.6694 7.39926 24.692 7.39413C24.7231 7.38766 24.7535 7.37807 24.7827 7.3655C24.8123 7.35278 24.8397 7.33899 24.8661 7.32521C24.8924 7.31385 24.9218 7.31198 24.9494 7.31991C24.9633 7.32372 24.9761 7.33095 24.9866 7.34094C24.9971 7.35093 25.005 7.36338 25.0095 7.37717C25.0201 7.40298 25.0201 7.43194 25.0095 7.45776C25.0059 7.47177 24.9992 7.48478 24.9899 7.4958C24.9806 7.50682 24.9689 7.51557 24.9557 7.52138L24.8798 7.55637C24.8377 7.57514 24.7939 7.5897 24.749 7.59985C24.7011 7.61095 24.6524 7.61769 24.6034 7.62C24.5556 7.62041 24.5086 7.60677 24.4684 7.58076C24.4459 7.56335 24.4303 7.53859 24.4241 7.51078C24.4201 7.49542 24.4201 7.4793 24.4239 7.46392C24.4278 7.44853 24.4355 7.43438 24.4462 7.42276L24.4452 7.42807Z" fill="#03328D"/>
<path d="M25.0675 7.43548C25.067 7.35637 25.0787 7.27766 25.1023 7.20219C25.1247 7.13187 25.1617 7.06715 25.211 7.01238C25.2604 6.95705 25.3208 6.91264 25.3882 6.88195C25.4595 6.85145 25.5364 6.83628 25.6139 6.83742C25.6897 6.8368 25.7648 6.85196 25.8344 6.88195C25.9024 6.9126 25.9635 6.95699 26.0137 7.01238C26.0644 7.0668 26.1029 7.13153 26.1266 7.20219C26.1758 7.3545 26.1758 7.51857 26.1266 7.67088C26.0903 7.77816 26.0211 7.87113 25.929 7.93647C25.837 8.0018 25.7266 8.03615 25.6139 8.0346C25.5365 8.03522 25.4597 8.02007 25.3882 7.99006C25.3215 7.96055 25.2612 7.91802 25.211 7.86493C25.1634 7.80788 25.1276 7.74193 25.1055 7.67088C25.0806 7.59491 25.0678 7.51546 25.0675 7.43548ZM25.2785 7.43548C25.2778 7.48883 25.2845 7.54201 25.2985 7.59347C25.3106 7.63806 25.333 7.67913 25.3639 7.7133C25.3948 7.74719 25.4326 7.77396 25.4747 7.79177C25.5197 7.81109 25.5682 7.82084 25.6171 7.8204C25.6641 7.82067 25.7106 7.81142 25.7539 7.7932C25.7972 7.77498 25.8364 7.74817 25.8692 7.71436C25.899 7.67955 25.921 7.63868 25.9336 7.59454C25.9621 7.49043 25.9621 7.38052 25.9336 7.27642C25.921 7.23228 25.899 7.1914 25.8692 7.15659C25.8368 7.12352 25.7985 7.09689 25.7563 7.07813C25.7124 7.05878 25.665 7.04868 25.6171 7.04843C25.5681 7.04833 25.5196 7.05844 25.4747 7.07813C25.4328 7.09641 25.3951 7.12311 25.3639 7.15659C25.333 7.19076 25.3106 7.23183 25.2985 7.27642C25.2844 7.32823 25.2777 7.38177 25.2785 7.43548ZM26.6983 8.15866C26.705 8.20546 26.6973 8.25321 26.6762 8.29545C26.6118 8.38559 26.4842 8.44073 26.2954 8.45981C26.2015 8.4789 26.1551 8.51071 26.1551 8.55631C26.161 8.58222 26.1765 8.60493 26.1983 8.61993C26.2319 8.63313 26.2678 8.63891 26.3038 8.6369C26.3773 8.63871 26.4501 8.62116 26.5148 8.586C26.5624 8.55454 26.6021 8.51244 26.6308 8.46299C26.6335 8.44993 26.6389 8.43755 26.6465 8.42661C26.6541 8.41568 26.6638 8.40641 26.6751 8.39937C26.6986 8.38447 26.7271 8.37952 26.7542 8.38559C26.768 8.3892 26.7809 8.39558 26.7921 8.40432C26.8033 8.41307 26.8127 8.42401 26.8196 8.43648C26.8272 8.44789 26.8324 8.46075 26.8347 8.47426C26.8371 8.48778 26.8366 8.50163 26.8333 8.51495C26.8194 8.55412 26.7978 8.59015 26.7701 8.62099C26.7451 8.65486 26.7172 8.68644 26.6867 8.71537C26.6386 8.76224 26.5789 8.79521 26.5137 8.8108C26.4518 8.82836 26.3881 8.83867 26.3239 8.84155C26.2768 8.84568 26.2295 8.84568 26.1825 8.84155C26.1443 8.83421 26.1082 8.81826 26.077 8.7949C26.0442 8.77309 26.0153 8.74584 25.9916 8.71431C25.9675 8.68356 25.9518 8.64699 25.9462 8.60827C25.9405 8.57316 25.9405 8.53734 25.9462 8.50223C25.9516 8.46324 25.9677 8.42652 25.9926 8.39619C26.021 8.36057 26.0571 8.33192 26.0981 8.31242C26.1485 8.28608 26.2026 8.26749 26.2584 8.25728C26.3165 8.24455 26.3639 8.23289 26.3966 8.22441C26.4223 8.21748 26.4469 8.20676 26.4694 8.19259C26.4751 8.18949 26.4801 8.18526 26.4841 8.18015C26.4881 8.17505 26.491 8.16918 26.4926 8.1629C26.4936 8.15567 26.4929 8.1483 26.4908 8.14134C26.4886 8.13438 26.4849 8.12798 26.48 8.12261C26.4608 8.11323 26.44 8.10748 26.4188 8.10564C26.3872 8.104 26.3555 8.104 26.3239 8.10564C26.2901 8.10564 26.2542 8.11519 26.2184 8.12155L26.1393 8.13958C26.127 8.14635 26.1132 8.1499 26.0992 8.1499C26.0852 8.1499 26.0714 8.14635 26.0591 8.13958C26.035 8.12556 26.0167 8.10338 26.0074 8.07701C26.0014 8.06367 25.9988 8.04907 25.9997 8.03447C26.0007 8.01988 26.0051 8.00573 26.0127 7.99324C26.0191 7.97998 26.0283 7.96822 26.0396 7.95872C26.0508 7.94923 26.0639 7.9422 26.0781 7.9381L26.1509 7.92113C26.196 7.9106 26.2418 7.90351 26.288 7.89993C26.342 7.8941 26.3964 7.8941 26.4504 7.89993C26.5058 7.90489 26.5587 7.92507 26.6034 7.95825C26.6265 7.98129 26.6473 8.0065 26.6656 8.03354C26.6836 8.07304 26.6947 8.11537 26.6983 8.15866ZM26.3882 6.68048C26.4002 6.67529 26.4131 6.67261 26.4262 6.67261C26.4392 6.67261 26.4522 6.67529 26.4641 6.68048C26.4901 6.69358 26.5104 6.71585 26.5211 6.74304C26.5211 6.7494 26.5306 6.77698 26.5443 6.82575C26.5614 6.89121 26.5738 6.95784 26.5812 7.02511C26.5907 7.11206 26.596 7.21173 26.5981 7.32732C26.5984 7.4523 26.5889 7.5771 26.5696 7.70057C26.5645 7.72856 26.5491 7.75357 26.5264 7.77056C26.5157 7.77953 26.5031 7.78607 26.4897 7.78973C26.4762 7.79338 26.4621 7.79408 26.4483 7.79177C26.4343 7.78943 26.421 7.78428 26.409 7.77663C26.397 7.76897 26.3867 7.75898 26.3787 7.74723C26.3704 7.73634 26.3644 7.72384 26.3612 7.71052C26.3579 7.6972 26.3574 7.68334 26.3597 7.66982C26.3777 7.55692 26.3866 7.44272 26.3861 7.32838C26.385 7.23766 26.3794 7.14706 26.3692 7.05692C26.358 6.98198 26.3464 6.92154 26.3344 6.87559C26.3228 6.82999 26.3175 6.80667 26.3175 6.80561C26.3131 6.79315 26.3114 6.77991 26.3125 6.76675C26.3136 6.75359 26.3175 6.74081 26.3239 6.72926C26.3301 6.71669 26.3392 6.70575 26.3503 6.69729C26.3615 6.68883 26.3745 6.68308 26.3882 6.68048Z" fill="#03328D"/>
</g>
<defs>
<clipPath id="clip0_2509_6589">
<rect width="33" height="20" fill="white"/>
</clipPath>
</defs>
</svg>
