<svg width="50" height="20" viewBox="0 0 50 20" fill="none" xmlns="http://www.w3.org/2000/svg">
<path d="M31.664 13.8471H23.9717V12.8622H27.256V11.298H24.9358V6.89697H30.7033V11.298H28.3832V12.8622H31.6675V13.8471H31.664ZM29.6178 10.2368V7.96169H26.0075V10.2368H29.6178Z" fill="#4A4A49"/>
<path d="M36.0893 7.8091H37.1298V13.6529H32.6212V7.39292H33.6721V9.70269H36.0893V7.8091ZM36.0893 10.6738H33.6721V12.6749H36.0893V10.6738ZM40.0708 9.25184H41.6245V10.3478H40.0708V13.8506H38.9332V5.9259H40.0708V9.25184Z" fill="#4A4A49"/>
<path d="M44.4926 11.3084C44.1423 11.3084 43.8267 11.2425 43.5285 11.1108C43.2233 10.9894 42.9701 10.816 42.7516 10.5975C42.5227 10.379 42.3458 10.1258 42.2279 9.82061C42.0961 9.53622 42.0302 9.21716 42.0302 8.88075C42.0302 8.54434 42.0961 8.23568 42.2279 7.92701C42.3493 7.63222 42.5227 7.36864 42.7516 7.15015C42.9701 6.93166 43.2233 6.75479 43.5285 6.62647C43.8233 6.50508 44.1423 6.43919 44.4926 6.43919C44.8221 6.43919 45.1481 6.50508 45.4568 6.62647C45.7515 6.75825 46.0151 6.93166 46.244 7.15015C46.4625 7.36864 46.6394 7.63222 46.7677 7.92701C46.8891 8.23221 46.955 8.55128 46.955 8.88075C46.955 9.21022 46.8891 9.53622 46.7677 9.82061C46.6359 10.1258 46.4625 10.379 46.244 10.5975C46.0151 10.816 45.7515 10.9928 45.4568 11.1108C45.1516 11.2425 44.8221 11.3084 44.4926 11.3084ZM44.4926 7.46922C44.2949 7.46922 44.1215 7.51431 43.9551 7.5802C43.7816 7.6565 43.636 7.75361 43.5077 7.8854C43.3759 8.01718 43.2788 8.16978 43.2129 8.33278C43.1366 8.50619 43.1019 8.69347 43.1019 8.88075C43.1019 9.07843 43.1331 9.25184 43.2129 9.41831C43.2788 9.59171 43.3759 9.73391 43.5077 9.8657C43.6395 10.0079 43.7816 10.1189 43.9551 10.1813C44.1181 10.2576 44.2949 10.2923 44.4926 10.2923C44.6799 10.2923 44.8637 10.2611 45.0406 10.1813C45.2036 10.1154 45.3458 10.0079 45.4776 9.8657C45.6094 9.73391 45.7065 9.59171 45.7828 9.41831C45.8486 9.25531 45.8937 9.07843 45.8937 8.88075C45.8937 8.69347 45.8486 8.50966 45.7828 8.33278C45.7065 8.16978 45.6094 8.01372 45.4776 7.8854C45.3458 7.75361 45.2036 7.6565 45.0406 7.5802C44.8672 7.51431 44.6799 7.46922 44.4926 7.46922ZM45.807 14.8112H50V15.7095H44.7042V13.2679H48.3249V12.6125H44.999V11.7246H49.4312V14.1558H45.807V14.8112ZM48.5885 5.9259H49.7052V11.0379H48.5885V5.9259Z" fill="#4A4A49"/>
<path d="M10.4564 12.1547C10.2657 12.1547 10.1096 11.9986 10.1096 11.8079V2.34681C10.1096 2.15607 10.2657 2 10.4564 2C10.6471 2 10.8032 2.15607 10.8032 2.34681V11.8079C10.8032 11.9986 10.6471 12.1547 10.4564 12.1547Z" fill="#E73458"/>
<path d="M10.4564 6.70974H3.62419C3.43344 6.70974 3.27737 6.55367 3.27737 6.36293C3.27737 6.17218 3.43344 6.01611 3.62419 6.01611H10.4564C10.6471 6.01611 10.8032 6.17218 10.8032 6.36293C10.8032 6.55367 10.6471 6.70974 10.4564 6.70974Z" fill="#E73458"/>
<path d="M10.4564 2.69363H3.62419C3.43344 2.69363 3.27737 2.53756 3.27737 2.34681C3.27737 2.15607 3.43344 2 3.62419 2H10.4564C10.6471 2 10.8032 2.15607 10.8032 2.34681C10.8032 2.53756 10.6471 2.69363 10.4564 2.69363Z" fill="#E73458"/>
<path d="M1.61615 5.97099C0.724839 5.97099 0 5.24615 0 4.35485C0 3.46354 0.724839 2.73523 1.61615 2.73523C2.50746 2.73523 3.23229 3.46007 3.23229 4.35138C3.23229 5.24269 2.50746 5.96752 1.61615 5.96752V5.97099ZM1.61615 3.42886C1.10633 3.42886 0.693626 3.84503 0.693626 4.35138C0.693626 4.85772 1.1098 5.2739 1.61615 5.2739C2.12249 5.2739 2.53867 4.86119 2.53867 4.35138C2.53867 3.84156 2.12596 3.42886 1.61615 3.42886Z" fill="#E73458"/>
<path d="M19.914 12.1547H10.4529C10.2622 12.1547 10.1061 11.9986 10.1061 11.8079C10.1061 11.6171 10.2622 11.4611 10.4529 11.4611H19.914C20.1047 11.4611 20.2608 11.6171 20.2608 11.8079C20.2608 11.9986 20.1047 12.1547 19.914 12.1547Z" fill="#E73458"/>
<path d="M15.9014 18.9869C15.7106 18.9869 15.5546 18.8308 15.5546 18.6401V11.8079C15.5546 11.6171 15.7106 11.4611 15.9014 11.4611C16.0921 11.4611 16.2482 11.6171 16.2482 11.8079V18.6401C16.2482 18.8308 16.0921 18.9869 15.9014 18.9869Z" fill="#E73458"/>
<path d="M19.914 18.9869C19.7232 18.9869 19.5672 18.8308 19.5672 18.6401V11.8079C19.5672 11.6171 19.7232 11.4611 19.914 11.4611C20.1047 11.4611 20.2608 11.6171 20.2608 11.8079V18.6401C20.2608 18.8308 20.1047 18.9869 19.914 18.9869Z" fill="#E73458"/>
<path d="M17.9094 10.1814C17.0181 10.1814 16.2933 9.45655 16.2933 8.56524C16.2933 7.67394 17.0181 6.9491 17.9094 6.9491C18.8007 6.9491 19.5256 7.67394 19.5256 8.56524C19.5256 9.45655 18.8007 10.1814 17.9094 10.1814ZM17.9094 7.63925C17.3996 7.63925 16.9869 8.05196 16.9869 8.56178C16.9869 9.07159 17.4031 9.4843 17.9094 9.4843C18.4158 9.4843 18.8319 9.07159 18.8319 8.56178C18.8319 8.05196 18.4192 7.63925 17.9094 7.63925Z" fill="#E73458"/>
</svg>
