<svg width="31" height="20" fill="none" xmlns="http://www.w3.org/2000/svg"><path d="M2.491 13.23a.075.075 0 0 0-.077-.066.111.111 0 0 0-.077-.084.072.072 0 0 0-.06-.072.118.118 0 0 0-.086-.09.45.45 0 0 0-.14-.213.424.424 0 0 0-.145-.238 4.68 4.68 0 0 1-.383-2.163c.018-.537 0-1.072 0-1.606 0-.192-.054-.273-.253-.261-.27.03-.542-.002-.799-.093a.663.663 0 0 0-.216-.168L.18 8.083a.246.246 0 0 0-.1-.147 1.121 1.121 0 0 1 .243-1.2.558.558 0 0 1 .445-.187c.755-.018.755-.018.755-.747a1.922 1.922 0 0 1 .05-.48.959.959 0 0 1 .354-.571.94.94 0 0 1 1.246.085c.162.165.26.383.274.615.018.288.018.576 0 .864 0 .174.057.246.235.24h1.04a.9.9 0 0 1 .68.256.919.919 0 0 1 .279.678.924.924 0 0 1-.265.68.905.905 0 0 1-.674.268H3.738c-.199 0-.297.048-.297.27v2.257a1.211 1.211 0 0 0 .357.877 1.185 1.185 0 0 0 .876.341H6.31c.211 0 .277-.069.28-.279 0-.726-.042-1.452.035-2.178a3.76 3.76 0 0 1 1.133-2.301 3.688 3.688 0 0 1 2.333-1.022 3.658 3.658 0 0 1 2.395.817 3.728 3.728 0 0 1 1.309 2.184 3.889 3.889 0 0 1-.337 2.609 3.828 3.828 0 0 1-1.914 1.782 3.14 3.14 0 0 1-1.23.252H8.79c-.19 0-.264.063-.261.261 0 .561.015 1.126 0 1.69a.973.973 0 0 1-.252.692.95.95 0 0 1-1.348.056.969.969 0 0 1-.307-.67c-.03-.3 0-.576-.015-.864-.014-.289 0-.526 0-.79s-.035-.33-.332-.35h-.772c-.684 0-1.37.044-2.032-.184l-.529-.282a.485.485 0 0 0-.222-.165.115.115 0 0 0-.09-.081.072.072 0 0 0-.024-.043.07.07 0 0 0-.047-.017.123.123 0 0 0-.068-.07Zm7.104-1.048h.668a1.84 1.84 0 0 0 1.266-.533 1.88 1.88 0 0 0 .555-1.267c.057-1.063-.594-1.927-1.589-2.014a1.595 1.595 0 0 0-.935.13 1.616 1.616 0 0 0-.701.638c-.191.296-.3.638-.315.99-.015.6 0 1.225 0 1.837 0 .186.077.237.246.234.262-.02.535-.015.805-.015ZM18.577 6.702l.065-.066a1.113 1.113 0 0 1 1.022-.156.557.557 0 0 0 .231.147l.069.07a.103.103 0 0 0 .074.083c.142.278.207.589.187.9v2.858c-.017.15-.001.3.044.444a.728.728 0 0 0 .146.46c.01.084.049.162.11.221a.23.23 0 0 0 .125.156.093.093 0 0 0 .077.087.097.097 0 0 0 .083.081.188.188 0 0 0 .13.111.115.115 0 0 0 .107.063.17.17 0 0 0 .158.081.926.926 0 0 0 .924 0 .168.168 0 0 0 .157-.084.168.168 0 0 0 .149-.093.089.089 0 0 0 .086-.072.22.22 0 0 0 .154-.153.3.3 0 0 0 .152-.23.172.172 0 0 0 .086-.157c.15-.274.212-.589.178-.9v-2.92a1.768 1.768 0 0 1 .137-.766.104.104 0 0 0 .071-.099.106.106 0 0 0-.048-.066.089.089 0 0 0 .075-.063 1.035 1.035 0 0 1 1.247 0l.068.07c.186.268.277.591.259.918 0 .876-.027 1.752 0 2.629a4.236 4.236 0 0 1-.648 2.572.26.26 0 0 0-.121.168.153.153 0 0 0-.101.11v.016a.206.206 0 0 0-.11.108c-.018 0-.024 0-.021.027a.238.238 0 0 0-.14.135h-.018a1.187 1.187 0 0 0-.33.255.087.087 0 0 0-.09.06c-.078.033-.159.066-.236.105a3.14 3.14 0 0 1-2.418.204 8.2 8.2 0 0 1-.807-.372l-.404-.324-.027-.021-.086-.015v-.018l-.048-.054v-.01a.024.024 0 0 0-.012-.014.026.026 0 0 0-.008-.003.451.451 0 0 0-.176-.183 4.267 4.267 0 0 1-.775-2.833c.033-.826 0-1.654 0-2.48-.01-.274.033-.549.128-.807a.324.324 0 0 0 .125-.18ZM29.515 9.35H30a.9.9 0 0 1 .657.264.921.921 0 0 1 .27.66.891.891 0 0 1-.235.677.872.872 0 0 1-.656.277c-.47 0-.933.084-1.399.12-.398.03-.594.36-.725.717-.077.317-.1.645-.068.97a3.856 3.856 0 0 1-.615 2.13c-.855 1.309-2.079 1.822-3.605 1.693a.888.888 0 0 1-.573-.32.906.906 0 0 1-.203-.628.924.924 0 0 1 .23-.618.906.906 0 0 1 .578-.304c.196-.02.398 0 .594 0 .422-.027.82-.208 1.12-.51.299-.301.48-.702.508-1.128a7.156 7.156 0 0 1 .235-1.846 3.131 3.131 0 0 1 1.136-1.568 3.079 3.079 0 0 1 1.834-.59l.433.003ZM15.08 4.76c.037-.077.07-.158.11-.236a.95.95 0 0 1 1.043-.522 1.044 1.044 0 0 1 .716.723c.034.146.048.297.042.447v7.854a1.247 1.247 0 0 1-.594 1.128.651.651 0 0 1-.802-.045 1.499 1.499 0 0 1-.517-.666V6.699c-.012-.642-.003-1.29.003-1.938Z" fill="#FE0078"/><path d="M18.452 6.882a2.089 2.089 0 0 0-.125.81c0 .826.03 1.654 0 2.48a4.268 4.268 0 0 0 .763 2.833 1.74 1.74 0 0 1-.668-1.036 4.96 4.96 0 0 1-.234-1.698c.023-.949 0-1.9 0-2.851.003-.223.026-.418.264-.538Z" fill="#EA2F88"/><path d="M24.255 12.828a4.236 4.236 0 0 0 .648-2.572c-.03-.877 0-1.753 0-2.63a1.47 1.47 0 0 0-.262-.924c.333.141.363.448.372.742.017.513 0 1.026 0 1.54v1.728a4.08 4.08 0 0 1-.413 1.693c-.074.17-.14.363-.345.423Z" fill="#EB358D"/><path d="M15.08 4.76v8.692c-.127-.087-.094-.222-.094-.342V5.103c0-.12-.03-.255.095-.342Z" fill="#CF0775"/><path d="M23.127 6.867a1.77 1.77 0 0 0-.137.766v2.92c.034.311-.028.626-.178.9-.05-.429.083-.843.071-1.27-.027-.852 0-1.701 0-2.553.004-.203.033-.405.086-.6a.205.205 0 0 1 .158-.163Z" fill="#E2046F"/><path d="M19.833 13.677c.262.139.532.263.808.372a3.137 3.137 0 0 0 2.417-.204c.078-.039.158-.072.235-.105-.027.147-.154.183-.261.237a3.127 3.127 0 0 1-2.332.186 5.455 5.455 0 0 1-.526-.18c-.148-.057-.302-.117-.341-.306Z" fill="#EA2F88"/><path d="M.486 8.341c.256.09.53.122.8.093.198 0 .255.07.252.261v1.606a4.68 4.68 0 0 0 .383 2.178 1.124 1.124 0 0 1-.366-.753 4.339 4.339 0 0 1-.107-1.002c.018-.576 0-1.153 0-1.726 0-.402-.038-.45-.442-.462-.205-.003-.398.015-.52-.195Z" fill="#D50C72"/><path d="M20.264 10.988a1.073 1.073 0 0 1-.03-.444V7.687a1.735 1.735 0 0 0-.187-.9c.33.071.226.375.297.579a.742.742 0 0 0-.057.438c-.014 1.06-.017 2.122-.023 3.184Z" fill="#EA2F88"/><path d="M20.264 10.988c0-1.062 0-2.125.017-3.187a.742.742 0 0 1 .057-.438c.038 1.362-.063 2.725.071 4.084a.729.729 0 0 1-.145-.459Z" fill="#DF0270"/><path d="M3.471 13.881c.662.228 1.348.183 2.032.183h.4a.406.406 0 0 1-.282.06H4.136a.881.881 0 0 1-.665-.243Z" fill="#D50C72"/><path d="M24.573 6.64a1.035 1.035 0 0 0-1.247 0 .757.757 0 0 1 .623-.334.748.748 0 0 1 .624.333Z" fill="#EB358D"/><path d="M19.664 6.486a1.109 1.109 0 0 0-1.022.156.666.666 0 0 1 .474-.325.656.656 0 0 1 .548.17Z" fill="#EA2F88"/><path d="M22.07 12.2a.924.924 0 0 1-.924 0h.923Z" fill="#E2046F"/><path d="m2.942 13.605.541.282a.477.477 0 0 1-.54-.282Z" fill="#D50C72"/><path d="m19.429 13.353.404.324a.348.348 0 0 1-.364-.184.356.356 0 0 1-.04-.14ZM23.382 13.68c.094-.104.206-.19.33-.255-.01.219-.155.255-.33.255ZM19.892 6.633a.557.557 0 0 1-.231-.147c.115-.012.208.012.231.147Z" fill="#EA2F88"/><path d="M22.735 11.591a.303.303 0 0 1-.152.231c-.006-.114.006-.216.152-.23Z" fill="#E2046F"/><path d="M2.726 13.443a.485.485 0 0 1 .222.162.2.2 0 0 1-.222-.162ZM.275 8.176c.083.04.157.097.217.168a.185.185 0 0 1-.194-.095.19.19 0 0 1-.023-.073Z" fill="#D50C72"/><path d="M18.577 6.702a.323.323 0 0 1-.131.171c-.018-.099.033-.15.13-.17Z" fill="#EA2F88"/><path d="M20.513 11.66a.367.367 0 0 1-.11-.222.228.228 0 0 1 .164.22l-.054.002Z" fill="#DF0270"/><path d="M19.087 13.005a.45.45 0 0 1 .176.183c-.137.012-.167-.078-.176-.183Z" fill="#EA2F88"/><path d="M24.125 13.005a.262.262 0 0 1 .121-.168.132.132 0 0 1-.018.115.129.129 0 0 1-.103.053Z" fill="#EB358D"/><path d="M2.051 12.705a.45.45 0 0 1 .164.228.209.209 0 0 1-.163-.228Z" fill="#D50C72"/><path d="M1.909 12.47c.073.06.125.144.145.237a.215.215 0 0 1-.146-.237Z" fill="#D50C72"/><path d="M22.586 11.82a.222.222 0 0 1-.154.152.145.145 0 0 1 .094-.145.14.14 0 0 1 .06-.008ZM20.513 11.66h.053a.213.213 0 0 1 .072.16.226.226 0 0 1-.125-.16Z" fill="#E2046F"/><path d="M23.73 13.413a.238.238 0 0 1 .14-.135c.002.099-.042.147-.14.135Z" fill="#EA2F88"/><path d="M22.355 12.038a.17.17 0 0 1-.149.093.168.168 0 0 1 .149-.093ZM21.155 12.203a.168.168 0 0 1-.158-.08.147.147 0 0 1 .158.08Z" fill="#E2046F"/><path d="M22.218 12.122a.17.17 0 0 1-.157.084.152.152 0 0 1 .157-.084ZM20.911 12.077a.187.187 0 0 1-.13-.11c.07.005.118.032.13.11Z" fill="#E2046F"/><path d="M24.027 13.116a.154.154 0 0 1 .1-.111c-.005.063-.032.108-.1.11ZM23.902 13.239a.206.206 0 0 1 .11-.108l-.033.105-.077.003Z" fill="#EB358D"/><path d="M22.818 11.441a.177.177 0 0 1-.086.156.151.151 0 0 1 .086-.156Z" fill="#E2046F"/><path d="M.118 7.957c.05.034.087.087.1.147a.137.137 0 0 1-.1-.147Z" fill="#D50C72"/><path d="M22.438 11.966a.09.09 0 0 1-.086.072l.086-.072ZM21.01 12.128a.115.115 0 0 1-.108-.063.136.136 0 0 1 .107.063ZM20.712 11.897a.093.093 0 0 1-.077-.087l.077.087Z" fill="#E2046F"/><path d="M2.2 12.918a.115.115 0 0 1 .086.09l-.086-.09ZM2.345 13.08a.11.11 0 0 1 .078.084l-.078-.084ZM2.491 13.23a.122.122 0 0 1 .083.084l-.083-.084Z" fill="#D50C72"/><path d="m19.284 13.212.047.054c-.039.003-.056-.015-.047-.054ZM23.902 13.239h.077a.09.09 0 0 1-.098.03c-.003-.021.003-.03.02-.03ZM19.343 13.284l.05.048c-.03.009-.05-.006-.05-.048Z" fill="#EA2F88"/><path d="M2.645 13.374a.113.113 0 0 1 .09.08l-.09-.08ZM.21 8.095l.074.108a.11.11 0 0 1-.074-.108Z" fill="#D50C72"/><path d="M23.183 6.777a.105.105 0 0 1-.071.1l.071-.1Z" fill="#E2046F"/><path d="M23.296 13.74a.086.086 0 0 1 .09-.06.107.107 0 0 1-.09.06Z" fill="#EA2F88"/><path d="M23.251 6.702a.105.105 0 0 1-.08.084l.08-.084Z" fill="#E2046F"/><path d="M20.035 6.786a.1.1 0 0 1-.074-.084.107.107 0 0 1 .074.084Z" fill="#EA2F88"/><path d="M20.786 11.97a.095.095 0 0 1-.083-.082l.083.081Z" fill="#E2046F"/></svg>