<svg width="66" height="20" viewBox="0 0 66 20" fill="none" xmlns="http://www.w3.org/2000/svg">
<g clip-path="url(#clip0_1064_10452)">
<path d="M40.8376 13.7016H37.1446C36.7796 13.7016 36.7446 13.5466 36.7556 13.2636C36.7556 12.7976 36.7556 12.7916 37.1516 12.7876H39.8816C40.3356 12.7876 40.3356 12.7876 40.3396 12.3196C40.3426 11.8506 40.3396 11.3686 40.3396 10.8966C40.3396 10.6096 40.2436 10.5286 39.9676 10.5396C39.5376 10.5596 39.1036 10.5396 38.6706 10.5396C37.9566 10.5396 37.5746 10.1856 37.5646 9.49059C37.5446 8.37459 37.5646 7.26159 37.5646 6.14559C37.5646 5.87559 37.6746 5.80859 37.9056 5.80859H43.7936C44.0596 5.80859 44.1336 5.89659 44.1336 6.14559V9.18059C44.1336 10.0066 43.6296 10.4786 42.7866 10.5086H41.6906C41.4726 10.5086 41.3976 10.5826 41.4006 10.7916V12.4776C41.4006 12.7306 41.5206 12.7706 41.7416 12.7706H44.5846C44.7216 12.7706 44.9266 12.6936 44.9746 12.8826C45.0446 13.1196 45.0356 13.3726 44.9466 13.6036C44.8816 13.7356 44.7046 13.6676 44.5786 13.6676C43.3356 13.7046 42.0866 13.7016 40.8376 13.7016ZM40.8926 6.74259H38.9506C38.7076 6.74259 38.6326 6.81659 38.6366 7.05259V9.26159C38.6366 9.52159 38.7176 9.65959 39.0086 9.65959H42.5476C42.9576 9.65959 43.0936 9.52059 43.1036 9.12359V7.06359C43.1036 6.82359 43.0086 6.74959 42.7626 6.75359C42.1546 6.74359 41.5226 6.74259 40.8926 6.74259Z" fill="#1352A4"/>
<path d="M59.0498 14.9627H56.8048C56.0538 14.9627 55.7228 14.6427 55.6918 13.8837V12.8497C55.6748 12.5737 55.7738 12.4857 56.0608 12.4897H60.4528C60.6538 12.4897 60.7568 12.3677 60.7628 12.1517C60.7708 11.9357 60.6438 11.8587 60.4228 11.8617H56.0778C55.9238 11.8617 55.6978 11.9527 55.6238 11.7737C55.5421 11.5393 55.5421 11.2841 55.6238 11.0497C55.6778 10.8777 55.8868 10.9547 56.0238 10.9547H61.5658C61.7838 10.9547 61.8588 11.0357 61.8518 11.2447V12.4247C61.8348 13.0997 61.5118 13.4127 60.8288 13.4367H57.1838C56.8418 13.4367 56.7768 13.5507 56.8418 13.8507C56.8898 14.0867 57.0708 14.0537 57.2278 14.0537H61.5588C61.7598 14.0537 61.9518 14.0197 61.9548 14.3337C61.9548 14.7747 61.9038 14.9397 61.5968 14.9737C61.3303 14.9872 61.0633 14.9872 60.7968 14.9737L59.0508 14.9637L59.0498 14.9627Z" fill="#1755A6"/>
<path d="M45.7383 8.83082V6.22782C45.7383 5.93482 45.8103 5.79282 46.1273 5.83782C46.2087 5.85136 46.2918 5.85136 46.3733 5.83782C46.7143 5.77982 46.7963 5.94182 46.7863 6.24782V8.06582C46.7863 8.36882 46.9193 8.40282 47.1753 8.40282H49.1173C49.3933 8.40282 49.4963 8.32882 49.4853 8.04582C49.4683 7.45882 49.4853 6.86882 49.4853 6.27882C49.4853 5.84082 49.4853 5.83382 49.9093 5.83382C50.6463 5.83382 50.5373 5.76982 50.5373 6.46782V10.4928C50.5453 10.6568 50.5453 10.8208 50.5373 10.9848C50.4273 11.9528 49.9803 12.3908 48.9873 12.4348C48.2573 12.4688 47.5233 12.4588 46.7933 12.4348C46.6557 12.4478 46.517 12.4307 46.3868 12.3845C46.2566 12.3384 46.138 12.2645 46.0393 12.1678C45.942 12.0715 45.8674 11.9548 45.8207 11.8262C45.774 11.6975 45.7564 11.5601 45.7693 11.4238V8.82082L45.7383 8.83082ZM48.1273 9.33282H47.0283C46.8513 9.33282 46.7523 9.38682 46.7553 9.58582V11.2048C46.7553 11.4198 46.8473 11.5418 47.0963 11.5418H48.8443C49.2603 11.5218 49.4213 11.3628 49.4443 10.9648C49.4753 10.5098 49.4443 10.0518 49.4683 9.59282C49.4683 9.38382 49.3593 9.34982 49.1853 9.35282C48.8375 9.33774 48.4894 9.33107 48.1413 9.33282H48.1273Z" fill="#1755A5"/>
<path d="M32.5265 11.3933H35.3215C35.6315 11.3933 35.7245 11.4833 35.7145 11.7833C35.6945 12.4033 35.7145 13.0283 35.7145 13.6513C35.6905 14.6393 35.3015 15.0003 34.3045 15.0003H30.4615C29.6865 15.0003 29.3695 14.6933 29.3625 13.9313C29.3555 13.1693 29.3625 12.4883 29.3625 11.7673C29.3625 11.4673 29.4415 11.3723 29.7525 11.3793C30.6625 11.4033 31.5945 11.3933 32.5265 11.3933ZM32.5465 12.3133H30.7515C30.5405 12.3133 30.4515 12.3803 30.4585 12.5963V13.7763C30.449 13.8226 30.4512 13.8706 30.465 13.9158C30.4788 13.9611 30.5037 14.0021 30.5375 14.0353C30.5715 14.0687 30.6131 14.0932 30.6588 14.1068C30.7045 14.1204 30.7528 14.1226 30.7995 14.1133H34.1445C34.4545 14.1133 34.5985 13.9583 34.5845 13.6483C34.5675 13.3372 34.5675 13.0254 34.5845 12.7143C34.6045 12.4213 34.5165 12.3063 34.1985 12.3203C33.6455 12.3303 33.0965 12.3133 32.5465 12.3133Z" fill="#1151A3"/>
<path d="M21.6128 10.846C20.5888 10.803 19.7218 10.472 19.2438 9.49797C19.017 9.0834 18.9094 8.61416 18.9328 8.1422C18.9563 7.67024 19.11 7.21399 19.3768 6.82397C20.1138 5.69397 21.9768 5.38397 23.2298 6.14997C24.3328 6.82397 24.6908 8.48597 23.9678 9.64597C23.4348 10.519 22.6018 10.819 21.6128 10.846ZM23.1788 8.28697C23.1926 8.08253 23.1633 7.87747 23.0928 7.68506C23.0224 7.49265 22.9123 7.31717 22.7698 7.16997C22.6265 7.02083 22.4539 6.90297 22.2629 6.8238C22.0719 6.74464 21.8665 6.70588 21.6598 6.70997C21.241 6.7165 20.8418 6.88874 20.5498 7.18897C20.4068 7.33724 20.2949 7.51263 20.2207 7.7048C20.1465 7.89698 20.1115 8.10206 20.1178 8.30797C20.1101 8.51254 20.1444 8.71652 20.2187 8.90728C20.293 9.09804 20.4057 9.27151 20.5498 9.41697C20.6945 9.56403 20.8674 9.6804 21.0581 9.75909C21.2488 9.83779 21.4535 9.8772 21.6598 9.87497C22.5678 9.87897 23.1788 9.23797 23.1788 8.28697Z" fill="#1553A5"/>
<path d="M52.8666 8.31402C53.1886 8.24502 53.5166 8.21402 53.8466 8.22402C54.2426 8.26002 54.4436 8.44202 54.4366 8.75302C54.4296 9.06302 54.2216 9.24802 53.8426 9.28502H53.6926C53.0306 9.32202 52.8086 9.54202 52.7986 10.202V14.232C52.7986 14.805 52.3756 15.108 51.7746 14.936C51.7341 14.931 51.6968 14.9115 51.6696 14.881C51.6425 14.8508 51.6275 14.8116 51.6276 14.771V6.03202C51.6276 5.48202 51.5596 5.51202 52.1196 5.51902C52.8876 5.51902 52.7816 5.42902 52.8016 6.16002V7.84602C52.7698 8.00488 52.7927 8.16984 52.8666 8.31402Z" fill="#1150A3"/>
<path d="M4.45602 14.868H4.30602C3.73902 14.868 3.73902 14.868 3.73902 14.326V11.868C3.73902 11.736 3.80002 11.531 3.56102 11.531C3.32302 11.531 3.39802 11.703 3.38102 11.824C3.33623 12.3001 3.17442 12.7576 2.91002 13.156C2.36702 13.941 1.54402 13.941 1.00202 13.156C0.673336 12.6147 0.500944 11.9929 0.503945 11.3596C0.506945 10.7263 0.685221 10.1062 1.01902 9.56803C1.56502 8.81703 2.36002 8.82003 2.89902 9.56803C3.09102 9.85603 3.22902 10.174 3.30902 10.509C3.34602 10.654 3.30902 10.883 3.58202 10.846C3.85502 10.809 3.73202 10.59 3.73902 10.442V9.26503C3.73902 9.11703 3.67102 8.89503 3.93002 8.89503C4.13802 8.89503 4.41802 8.76603 4.50302 9.11003C4.51253 9.15009 4.53227 9.187 4.56032 9.21715C4.58836 9.24729 4.62375 9.26965 4.66302 9.28203V9.48803C4.34002 9.53103 4.47602 9.78803 4.47302 9.94603C4.46902 11.605 4.46302 13.236 4.45602 14.868ZM2.68102 11.382C2.68246 10.9561 2.5867 10.5354 2.40102 10.152C2.13802 9.67603 1.74602 9.65203 1.52402 10.135C1.33309 10.5267 1.23386 10.9568 1.23386 11.3925C1.23386 11.8283 1.33309 12.2583 1.52402 12.65C1.55629 12.7431 1.6152 12.8247 1.69342 12.8846C1.77164 12.9445 1.86573 12.9801 1.96402 12.987C2.21402 12.987 2.34402 12.802 2.43902 12.61C2.60502 12.222 2.68702 11.804 2.68102 11.382Z" fill="#1956A6"/>
<path d="M57.3064 5.47852C58.7984 5.47852 59.7954 6.41852 59.8084 7.83852C59.8224 9.25852 58.7844 10.2225 57.3204 10.2255C55.8564 10.2285 54.7884 9.25152 54.7984 7.82852C54.8084 6.40552 55.8084 5.47852 57.3064 5.47852ZM58.7304 7.83852C58.7397 7.64951 58.7101 7.46061 58.6435 7.28347C58.577 7.10632 58.4748 6.94469 58.3434 6.80852C58.2117 6.67039 58.0535 6.56023 57.8782 6.48463C57.703 6.40904 57.5143 6.36954 57.3234 6.36852C56.9308 6.37423 56.5562 6.53406 56.2804 6.81352C56.1454 6.95156 56.039 7.11497 55.9675 7.29433C55.8959 7.47368 55.8605 7.66543 55.8634 7.85852C55.8559 8.05152 55.888 8.24402 55.9579 8.42411C56.0277 8.6042 56.1338 8.76805 56.2694 8.90552C56.4059 9.04463 56.5691 9.1547 56.7492 9.22911C56.9293 9.30352 57.1226 9.34074 57.3174 9.33852C57.5137 9.34168 57.7085 9.30382 57.8893 9.22736C58.0701 9.15091 58.233 9.03754 58.3674 8.89452C58.5002 8.75198 58.6012 8.58291 58.6637 8.39846C58.7263 8.21402 58.749 8.01839 58.7304 7.82452V7.83852ZM27.6484 10.1145C27.7504 9.96952 27.9214 9.92851 28.0614 9.84752C28.6316 9.5427 29.1462 9.14376 29.5834 8.66752C29.7896 8.45951 29.9502 8.21094 30.0552 7.93758C30.1602 7.66422 30.2073 7.37202 30.1934 7.07952V6.09552C30.1934 5.76852 30.3004 5.68052 30.5974 5.72152C30.6454 5.72452 30.6954 5.72452 30.7434 5.72152C31.3274 5.72152 31.3824 5.77552 31.3884 6.33152V7.06952C31.3778 7.36677 31.4336 7.66265 31.5518 7.93562C31.6699 8.20859 31.8475 8.45179 32.0714 8.64752C32.5034 9.03252 32.9844 9.36152 33.5014 9.62552C33.6414 9.70252 33.8154 9.73652 33.9114 9.88552C33.2284 10.7815 33.3814 10.6165 32.6074 10.1955C31.9449 9.82574 31.341 9.35966 30.8154 8.81252C30.4744 9.16652 30.1674 9.52452 29.8224 9.84752C29.4824 10.1365 29.1134 10.3915 28.7224 10.6095C28.677 10.6506 28.6232 10.6813 28.5647 10.6994C28.5061 10.7175 28.4444 10.7226 28.3837 10.7143C28.323 10.706 28.2648 10.6846 28.2133 10.6514C28.1618 10.6183 28.1182 10.5743 28.0854 10.5225C27.9214 10.3775 27.7334 10.2825 27.6484 10.1145Z" fill="#1553A5"/>
<path d="M26.5074 6.55734V7.29234C26.5074 7.53434 26.5724 7.66234 26.8484 7.56534C27.1374 7.48534 27.4384 7.46334 27.7354 7.50134C27.8707 7.49455 28.0032 7.54125 28.1044 7.63134C28.2044 7.72134 28.2644 7.84634 28.2714 7.98034C28.2817 8.08595 28.2594 8.19219 28.2076 8.28479C28.1557 8.37738 28.0768 8.4519 27.9814 8.49834C27.9177 8.52997 27.8483 8.54867 27.7774 8.55334C27.6635 8.56168 27.5492 8.56168 27.4354 8.55334C27.3103 8.54327 27.1845 8.5605 27.0668 8.60384C26.949 8.64718 26.8421 8.71559 26.7534 8.80434C26.6657 8.893 26.5988 8.99993 26.5573 9.11749C26.5158 9.23504 26.5008 9.36031 26.5134 9.48434V10.9543C26.4934 11.5203 26.3034 11.6783 25.7634 11.7083C25.4224 11.7283 25.3604 11.5773 25.3634 11.2803V5.83234C25.3634 5.59934 25.4044 5.49534 25.7054 5.47234C26.5414 5.43434 26.5384 5.42134 26.5384 6.25034L26.5074 6.55734Z" fill="#1151A3"/>
<path d="M23.7584 14.9708H21.3694C20.6874 14.9708 20.3974 14.6808 20.3894 14.0058C20.3834 13.3318 20.3894 12.7288 20.3894 12.0878C20.3894 11.8778 20.4554 11.8078 20.6694 11.7948C21.5784 11.7268 21.5784 11.7198 21.5784 12.6038V13.4898C21.5784 14.0098 21.5784 14.0098 22.0904 14.0128H26.2874C26.5234 14.0128 26.7964 13.9288 26.7754 14.3498C26.7554 14.7718 26.6764 14.9598 26.2674 14.9668C25.4144 14.9808 24.5914 14.9708 23.7584 14.9708Z" fill="#1956A6"/>
<path d="M61.211 0.000268628C62.5017 -0.0123663 63.7571 0.421059 64.765 1.22727C65.065 1.46027 65.123 1.76027 64.932 1.98927C64.741 2.21927 64.492 2.22527 64.185 1.98927C63.4993 1.43423 62.6709 1.08382 61.795 0.978269C60.7257 0.863299 59.6515 1.14671 58.778 1.77427C58.642 1.86427 58.519 1.97627 58.376 2.06427C58.3262 2.10234 58.2692 2.13005 58.2085 2.14576C58.1477 2.16146 58.0844 2.16485 58.0224 2.15572C57.9603 2.14658 57.9007 2.12512 57.8471 2.09258C57.7934 2.06004 57.7468 2.01709 57.71 1.96627C57.6712 1.91457 57.6436 1.85531 57.6291 1.7923C57.6145 1.72929 57.6133 1.66393 57.6256 1.60044C57.6378 1.53694 57.6632 1.47671 57.7002 1.42364C57.7371 1.37056 57.7848 1.32581 57.84 1.29227C58.3929 0.842336 59.0247 0.499167 59.703 0.280269C60.189 0.110269 60.696 0.0162686 61.211 0.000268628Z" fill="#EE5E2F"/>
<path d="M34.5742 8.23333V5.87333C34.5742 5.56333 34.6742 5.48633 34.9702 5.48633C35.7382 5.48633 35.7382 5.48633 35.7382 6.23833V10.2633C35.7382 10.8773 35.5372 11.0353 34.9152 11.0283C34.6492 11.0283 34.5752 10.9313 34.5752 10.6913C34.5812 9.87233 34.5742 9.05333 34.5742 8.23333Z" fill="#1C58A7"/>
<path d="M8.94163 11.4269C8.47378 12.0772 7.83963 12.5898 7.10563 12.9109C6.81563 13.0489 6.73363 12.9109 6.61463 12.6949C6.49463 12.4789 6.63863 12.3979 6.80463 12.3039C7.92163 11.6669 8.59063 10.7559 8.53263 9.44086C8.51563 9.12086 8.64163 9.05686 8.93463 9.07086C9.22863 9.08386 9.38263 9.07086 9.36163 9.40786C9.28963 10.7559 9.96963 11.6729 11.1126 12.3099C11.3066 12.4179 11.3996 12.4959 11.2596 12.7149C11.1196 12.9349 11.0746 13.0519 10.8056 12.9139C10.0611 12.5961 9.41686 12.0822 8.94163 11.4269ZM60.7546 7.94386V5.83386C60.7546 5.56786 60.8466 5.49686 61.0946 5.49686C61.8396 5.47986 61.8396 5.46986 61.8396 6.21786V9.80186C61.8396 10.3889 61.6796 10.5139 61.0886 10.5029C60.8186 10.5029 60.7476 10.4029 60.7476 10.1659C60.7646 9.41786 60.7546 8.67886 60.7546 7.94386Z" fill="#1755A6"/>
<path d="M61.3251 1.71301C62.2161 1.73601 63.0751 2.04901 63.7691 2.60301C64.0421 2.82501 64.0891 3.06501 63.9191 3.27701C63.7491 3.49001 63.5161 3.51001 63.2361 3.27701C62.8164 2.93294 62.3107 2.70994 61.7736 2.63205C61.2365 2.55417 60.6883 2.62434 60.1881 2.83501C59.9461 2.94234 59.7172 3.07724 59.5061 3.23701C59.1341 3.49001 58.9021 3.49001 58.7281 3.23701C58.5541 2.98401 58.6381 2.77801 58.9941 2.50501C59.6701 2.00632 60.4852 1.7296 61.3251 1.71301Z" fill="#EE3F2E"/>
<path d="M4.68359 9.51727V9.31127C4.82359 9.21127 4.75559 8.97427 4.99759 8.91127C5.41759 8.81927 5.57059 8.91027 5.57059 9.35527V14.2243C5.57059 14.9553 5.57059 14.9553 4.83359 14.8673C4.83359 13.2393 4.83359 11.6143 4.81659 9.98627C4.79959 9.83027 4.91859 9.62627 4.68359 9.51727Z" fill="#2861AC"/>
<path d="M13.8131 11.4621C13.5759 11.4804 13.3385 11.429 13.1301 11.3141C12.6221 11.0641 12.2531 10.7171 12.2701 10.1141C12.295 9.84266 12.4053 9.58605 12.5851 9.38114C12.7651 9.17514 13.0051 9.03114 13.2731 8.96714C13.5328 8.87804 13.8091 8.84797 14.0819 8.8791C14.3547 8.91024 14.6171 9.00181 14.8501 9.14714C15.0272 9.24129 15.1768 9.37982 15.2842 9.54915C15.3917 9.71849 15.4533 9.91283 15.4631 10.1131C15.4717 10.3136 15.4272 10.5127 15.3341 10.6904C15.2411 10.8681 15.1027 11.0181 14.9331 11.1251C14.6041 11.3521 14.2131 11.4701 13.8131 11.4621ZM13.8911 10.8591C13.9908 10.8653 14.0907 10.8517 14.1851 10.8191C14.2795 10.7865 14.3665 10.7355 14.4411 10.6691C14.5148 10.603 14.5744 10.5227 14.6165 10.433C14.6586 10.3433 14.6823 10.2461 14.6861 10.1471C14.6531 9.9538 14.5512 9.77899 14.3991 9.65514C14.246 9.53033 14.0534 9.46427 13.856 9.46886C13.6585 9.47344 13.4692 9.54836 13.3221 9.68014C13.1758 9.81088 13.0819 9.99036 13.0581 10.1851C13.0835 10.3823 13.1855 10.5616 13.3421 10.6841C13.4997 10.8076 13.6989 10.8653 13.8981 10.8451L13.8911 10.8591Z" fill="#1956A6"/>
<path d="M16.5857 11.3358V13.4458C16.5857 13.7358 16.4807 13.8108 16.2107 13.7838C15.9407 13.7568 15.7227 13.8038 15.7807 13.4468C15.8247 13.1628 15.6887 13.0658 15.4157 13.1098H15.1157C14.8657 13.1368 14.7197 13.0898 14.7227 12.7718C14.7257 12.4548 14.8897 12.4348 15.1287 12.4348H15.3787C15.7187 12.4888 15.7907 12.3268 15.7877 12.0208C15.7707 11.1028 15.7877 10.1898 15.7877 9.27285C15.7877 8.96285 15.8867 8.88185 16.1867 8.88485C16.4867 8.88785 16.6137 8.92485 16.5997 9.25885C16.5697 9.96385 16.5857 10.6518 16.5857 11.3358Z" fill="#1956A6"/>
<path d="M14.6397 14.885H12.8957C12.6667 14.885 12.5547 14.828 12.5547 14.585V12.964C12.5547 12.674 12.7347 12.701 12.9167 12.714C13.0967 12.728 13.3497 12.616 13.3427 12.954C13.3357 13.291 13.3427 13.577 13.3427 13.887C13.3427 14.197 13.4487 14.248 13.7217 14.245H16.3117C16.6087 14.245 16.6807 14.345 16.6707 14.615C16.6707 14.828 16.5847 14.899 16.3737 14.895C15.8037 14.879 15.2237 14.885 14.6397 14.885Z" fill="#1755A5"/>
<path d="M61.3159 3.39844C61.8311 3.40037 62.3331 3.56176 62.7529 3.86044C63.0359 4.07544 63.0929 4.31144 62.9299 4.53444C62.8948 4.58665 62.8486 4.63054 62.7947 4.66302C62.7408 4.6955 62.6805 4.71578 62.6179 4.72244C62.5552 4.72946 62.4918 4.72291 62.432 4.70324C62.3721 4.68357 62.3171 4.65123 62.2709 4.60844C61.9957 4.40226 61.6612 4.29081 61.3174 4.29081C60.9736 4.29081 60.639 4.40226 60.3639 4.60844C60.3176 4.6513 60.2625 4.68348 60.2024 4.70272C60.1424 4.72195 60.0788 4.72777 60.0163 4.71976C59.9537 4.71175 59.8936 4.6901 59.8404 4.65635C59.7871 4.62261 59.7419 4.57757 59.7079 4.52444C59.6737 4.47298 59.6505 4.41502 59.6397 4.35417C59.6289 4.29333 59.6308 4.23092 59.6453 4.17084C59.6597 4.11077 59.6864 4.05433 59.7237 4.00504C59.761 3.95576 59.808 3.9147 59.8619 3.88444C60.2829 3.57544 60.7919 3.40644 61.3159 3.39844Z" fill="#E42A31"/>
<path d="M13.8498 11.6211H15.2998C15.5178 11.6211 15.5858 11.7011 15.5828 11.9111C15.5798 12.1201 15.5558 12.2141 15.3168 12.2241C15.0098 12.2241 14.6138 12.0721 14.4118 12.3051C14.2108 12.5381 14.3578 12.8721 14.3678 13.1651C14.3678 13.5191 14.1358 13.4451 13.9308 13.4621C13.7258 13.4791 13.5688 13.4281 13.5688 13.1451C13.5688 12.8611 13.7368 12.4301 13.4838 12.2651C13.2308 12.1001 12.8738 12.2281 12.5588 12.2151C12.3818 12.2151 12.1388 12.3021 12.1328 11.9711C12.1328 11.7391 12.1628 11.6041 12.4528 11.6341C12.9168 11.6341 13.3848 11.6211 13.8488 11.6211H13.8498Z" fill="#1755A5"/>
<path d="M8.95385 14.592H6.90585C6.66385 14.592 6.54385 14.545 6.56485 14.272C6.58485 13.999 6.65685 13.965 6.88885 13.965H11.0839C11.3669 13.965 11.4039 14.083 11.4249 14.302C11.4449 14.522 11.2819 14.579 11.0839 14.579C10.3539 14.589 9.65385 14.592 8.95385 14.592Z" fill="#1352A4"/>
</g>
<defs>
<clipPath id="clip0_1064_10452">
<rect width="65" height="20" fill="white" transform="translate(0.5)"/>
</clipPath>
</defs>
</svg>
