<svg width="56" height="20" viewBox="0 0 56 20" fill="none" xmlns="http://www.w3.org/2000/svg">
<g clip-path="url(#clip0_160_778)">
<path d="M56.0423 4.84594C56.0423 2.16965 53.4888 0 50.338 0C47.1873 0 44.6337 2.16965 44.6337 4.84594C44.6337 7.12288 46.4815 9.03145 48.973 9.55121C48.8085 10.0126 48.4914 10.3785 47.7523 10.6992C48.464 10.9186 49.1161 10.8399 49.5798 10.679C49.9804 10.5395 50.5323 10.1353 50.89 9.66923C53.7808 9.43319 56.0423 7.36368 56.0423 4.84594Z" fill="#14B3E3"/>
<path d="M47.2588 4.213C47.3923 3.36779 47.1253 3.04473 47.1253 2.77889C47.1253 2.51305 47.3243 2.31396 47.5902 2.31396C47.676 2.31396 47.8083 2.3235 47.9418 2.45702C48.0754 2.59053 48.16 2.85638 48.2077 3.12222C48.5498 2.70378 49.072 2.25793 49.7372 2.25793C50.2975 2.25793 50.8291 2.42841 51.0008 3.07453C51.3429 2.66564 51.8556 2.25793 52.4921 2.25793C53.2801 2.25793 54.0026 2.59053 53.7749 4.04372L53.3195 6.90241C53.2718 7.2064 53.0536 7.33038 52.845 7.33038C52.541 7.33038 52.3038 7.09315 52.3515 6.77962L52.7794 4.06279C52.8939 3.30342 52.6185 3.13175 52.305 3.13175C51.6684 3.13175 51.07 3.78742 50.9567 4.48957L50.5669 6.90241C50.5192 7.2064 50.301 7.33038 50.0924 7.33038C49.7884 7.33038 49.5512 7.09315 49.5989 6.77962L50.0269 4.06279C50.1413 3.30342 49.8647 3.13175 49.5524 3.13175C48.9158 3.13175 48.3174 3.78742 48.2041 4.48957L47.8143 6.90241C47.7666 7.2064 47.5485 7.33038 47.3398 7.33038C47.0358 7.33038 46.7891 7.10268 46.8463 6.77962L47.2647 4.21538L47.2588 4.213Z" fill="white"/>
<path d="M2.23861 19.0618H1V12.4205H2.23861V19.0618ZM2.35901 15.501C3.04686 14.5544 3.98505 13.4541 4.6729 12.4217H5.99734C5.33452 13.4887 4.36295 14.7356 3.74305 15.5188L6.40147 19.063H5.01623L2.35782 15.5021L2.35901 15.501Z" fill="#7C7366"/>
<path d="M10.5226 15.4234C11.1938 15.5951 11.6921 16.2066 11.6921 17.0411C11.6921 18.2022 10.823 19.1059 8.94783 19.1059C8.53535 19.1059 7.58882 19.0451 6.97845 18.9425V12.7066C7.59835 12.4574 8.39826 12.2762 8.9824 12.2762C10.4105 12.2762 11.3821 12.9724 11.3821 14.0656C11.3821 14.7022 11.0042 15.2267 10.5214 15.4246L10.5226 15.4234ZM8.89656 15.0443C9.58441 15.0443 10.1352 14.6831 10.1352 14.0978C10.1352 13.4696 9.6023 13.2121 9.00028 13.2121C8.63072 13.2121 8.37204 13.2812 8.21706 13.3241V15.0443H8.89656ZM10.4451 17.0149C10.4451 16.3008 9.76562 15.9658 9.05988 15.9658H8.21706V18.0997C8.53535 18.1426 8.73325 18.1593 9.07777 18.1593C9.87767 18.1593 10.4451 17.8494 10.4451 17.0149Z" fill="#7C7366"/>
<path d="M17.7087 15.4665C17.7087 15.6131 17.6395 15.6644 17.4941 15.6644H15.2493V16.5501C15.2493 16.9972 15.3614 17.2034 15.9801 17.2034C16.7979 17.2034 18.2427 16.9793 19.2227 16.773V11.9819H20.41V19.6031H19.2227V17.4955C18.2594 17.8221 16.625 18.1154 15.6964 18.1154C14.484 18.1154 14.0453 17.6254 14.0453 16.7301V14.7608H16.5058V13.4017H14.0799V12.4898H17.3057C17.5728 12.4898 17.7099 12.6364 17.7099 12.8856V15.4665H17.7087Z" fill="#FAC319"/>
<path d="M28.5986 17.6863V18.6066H21.3816V17.6863H28.5986ZM27.5841 12.3611V16.3523C26.1643 16.4989 24.754 16.5073 23.7396 16.5073C22.8014 16.5073 22.3198 16.0602 22.3198 15.1649V12.3611H23.5238V13.4709H26.3801V12.3611H27.5841ZM23.5238 14.4258V15.0016C23.5238 15.4236 23.6704 15.5953 24.0996 15.5953C24.7099 15.5953 25.3728 15.5869 26.3789 15.5524V14.4258H23.5226H23.5238Z" fill="#FAC319"/>
<path d="M36.3402 17.772V18.6923H29.1232V17.772H32.1165V16.3784H31.48C30.5418 16.3784 30.0602 15.8789 30.0602 14.9848V12.4897H34.9466C35.2137 12.4897 35.3245 12.5935 35.3245 12.8426V16.2234C34.6534 16.2926 33.9822 16.3355 33.3552 16.3522V17.772H36.3402ZM31.2654 14.8132C31.2654 15.3031 31.4978 15.4665 31.9282 15.4665C32.5386 15.4665 33.1155 15.4581 34.1217 15.4235V13.4017H31.2654V14.812V14.8132Z" fill="#FAC319"/>
<path d="M36.8814 12.4897H38.0688V14.279H39.7294V12.4897H40.9167V17.3762C39.9535 17.6682 39.007 17.8315 38.1558 17.8315C37.2176 17.8315 36.8826 17.4191 36.8826 16.6096V12.4897H36.8814ZM38.0688 15.191V16.4558C38.0688 16.7908 38.1629 16.9291 38.5158 16.9208C38.8854 16.9124 39.3503 16.8695 39.7282 16.7837V15.1922H38.0676L38.0688 15.191ZM41.9312 11.983H43.1186V14.676H44.2451V15.6047H43.1186V19.6042H41.9312V11.983Z" fill="#FAC319"/>
<path d="M46.8511 15.7847C45.4837 15.7847 44.7172 14.9848 44.7172 13.9095C44.7172 12.8342 45.4825 12.0343 46.8511 12.0343C48.2196 12.0343 48.9933 12.8342 48.9933 13.9095C48.9933 14.9848 48.2196 15.7847 46.8511 15.7847ZM46.8511 14.924C47.4876 14.924 47.8322 14.4686 47.8322 13.9095C47.8322 13.3504 47.4876 12.895 46.8511 12.895C46.2145 12.895 45.8795 13.3504 45.8795 13.9095C45.8795 14.4686 46.2145 14.924 46.8511 14.924ZM51.4526 19.1309V20H46.7736C46.3611 20 46.1799 19.8283 46.1799 19.4409V17.6778H50.102V17.1187H46.2228V16.2496H50.9543C51.2035 16.2496 51.3322 16.3867 51.3322 16.637V18.3489C51.3322 18.461 51.2631 18.5385 51.1427 18.5385H47.409V18.9426C47.409 19.063 47.4519 19.1321 47.5723 19.1321H51.4514L51.4526 19.1309ZM51.3322 15.8884H50.1532V11.983H51.3322V15.8884Z" fill="#FAC319"/>
</g>
<defs>
<clipPath id="clip0_160_778">
<rect width="56" height="20" fill="white"/>
</clipPath>
</defs>
</svg>
