<svg width="47" height="20" fill="none" xmlns="http://www.w3.org/2000/svg"><g clip-path="url(#a)"><path d="M2.795 14.61H.065a1.467 1.467 0 0 1-.057-.646v-4.89a5.016 5.016 0 0 1 .337-2.026A3.976 3.976 0 0 1 1.41 5.61a3.943 3.943 0 0 1 3.365-.858 3.94 3.94 0 0 1 1.616.754c.154.12.302.246.456.375.122-.09.234-.171.34-.255a3.83 3.83 0 0 1 4.174-.582c.69.27 1.285.735 1.716 1.34.431.605.678 1.323.711 2.066.138 2.036.032 4.079.052 6.14h-2.71c-.135-.17-.074-.374-.074-.565V8.783c-.042-.999-.543-1.577-1.361-1.58-.819-.004-1.397.646-1.403 1.616v5.798H5.588c-.15-.175-.074-.401-.074-.605V8.651a1.299 1.299 0 0 0-.246-.835 1.284 1.284 0 0 0-.717-.487 1.375 1.375 0 0 0-1.467.465 1.445 1.445 0 0 0-.28.992v5.126l-.01.698Z" fill="#FE4F04"/><path d="M40.553 15.263h.908c.495-.02.909-.042 1.117.61.18.57.749.757 1.349.708.256-.016.499-.116.694-.283.195-.167.331-.393.388-.644.132-.425.165-.876.096-1.316a.234.234 0 0 0-.244 0c-1.197.78-2.95.278-3.817-.85a3.294 3.294 0 0 1-.039-4.04 3.343 3.343 0 0 1 1.63-1.152 3.321 3.321 0 0 1 1.992-.014 3.21 3.21 0 0 1 1.652 1.109c.42.535.661 1.192.688 1.874.045 1.332.042 2.67 0 4.001a2.96 2.96 0 0 1-.575 1.766c-.376.51-.906.886-1.512 1.068-1.342.482-2.533.155-3.531-.85a2.768 2.768 0 0 1-.796-1.987Zm4.562-3.765a1.463 1.463 0 0 0-.369-1.082 1.446 1.446 0 0 0-1.03-.48 1.472 1.472 0 0 0-1.09.414 1.49 1.49 0 0 0-.455 1.077c-.007.397.14.78.41 1.07.27.29.64.464 1.034.484a1.477 1.477 0 0 0 1.055-.429 1.499 1.499 0 0 0 .445-1.054Z" fill="#FEAD04"/><path d="M22.826 4.704a14.507 14.507 0 0 1 1.766 0V8.48a.45.45 0 0 0 .395-.061c1.667-.744 3.705.213 4.267 2.123a3.342 3.342 0 0 1-.378 2.584 3.31 3.31 0 0 1-2.117 1.508 3.275 3.275 0 0 1-2.547-.5 3.309 3.309 0 0 1-1.398-2.199 6.935 6.935 0 0 1-.065-.999v-5.59a1.213 1.213 0 0 1 .077-.64Zm3.262 5.233a1.472 1.472 0 0 0-1.07.446 1.49 1.49 0 0 0-.422 1.086 1.49 1.49 0 0 0 .893 1.381 1.467 1.467 0 0 0 1.935-.78c.076-.179.117-.371.119-.566a1.493 1.493 0 0 0-.395-1.096 1.473 1.473 0 0 0-1.06-.471Z" fill="#FEAD05"/><path d="M21.805 11.504a3.411 3.411 0 0 1-1.002 2.376 3.367 3.367 0 0 1-2.372.982 3.417 3.417 0 0 1-2.4-.995 3.462 3.462 0 0 1-1.02-2.402c.01-.912.38-1.784 1.028-2.423a3.414 3.414 0 0 1 2.427-.986 3.373 3.373 0 0 1 2.379 1.028c.626.647.972 1.517.96 2.42Zm-4.934-.032c-.007.416.15.818.434 1.12.284.302.674.48 1.087.496a1.648 1.648 0 0 0 1.122-.487c.299-.3.472-.704.484-1.13a1.683 1.683 0 0 0-.468-1.108 1.662 1.662 0 0 0-1.086-.507 1.6 1.6 0 0 0-1.115.485 1.621 1.621 0 0 0-.458 1.13ZM39.355 14.636h-1.843V10.86a1.006 1.006 0 0 0-.269-.757.993.993 0 0 0-.736-.313 1.018 1.018 0 0 0-.973.625 1.036 1.036 0 0 0-.083.4c-.084.843-.026 1.687-.035 2.53v1.274h-1.792c0-1.367-.087-2.722.038-4.066.087-.676.41-1.3.912-1.758a2.838 2.838 0 0 1 3.695-.112 2.87 2.87 0 0 1 1.015 1.699c.05.25.078.504.084.76-.007 1.153-.013 2.303-.013 3.493Z" fill="#FEAD04"/><path d="M29.267 6.54a1.984 1.984 0 0 1 .57-1.46 1.958 1.958 0 0 1 1.446-.58 2.005 2.005 0 0 1 1.455.569 2.03 2.03 0 0 1 .616 1.442 2.147 2.147 0 0 1-.616 1.447c-.38.386-.892.612-1.432.631a2.024 2.024 0 0 1-1.442-.599 2.05 2.05 0 0 1-.597-1.45Zm2.032 1.034c.264-.013.513-.122.703-.306.19-.184.306-.431.328-.696a1.083 1.083 0 0 0-.279-.751 1.07 1.07 0 0 0-.716-.35 1.133 1.133 0 0 0-.73.313c-.199.189-.322.444-.35.717.019.275.134.534.326.731.19.197.446.318.718.342Z" fill="#FEAB04"/><path d="M30.5 9.232a3.264 3.264 0 0 0 1.727 0v5.397a12.28 12.28 0 0 1-1.727.023v-5.42Z" fill="#FEAC00"/><path d="M31.3 7.574a1.143 1.143 0 0 1-.718-.34 1.157 1.157 0 0 1-.326-.726c.025-.275.148-.531.346-.722.199-.19.459-.303.733-.316.273.02.529.145.714.349.185.203.286.47.281.747-.02.265-.137.514-.326.7-.19.185-.44.295-.705.308Z" fill="#FE5000"/></g><defs><clipPath id="a"><path fill="#fff" d="M0 0h47v20H0z"/></clipPath></defs></svg>