<svg width="72" height="20" viewBox="0 0 72 20" fill="none" xmlns="http://www.w3.org/2000/svg">
<g clip-path="url(#clip0_1064_10467)">
<mask id="mask0_1064_10467" style="mask-type:luminance" maskUnits="userSpaceOnUse" x="0" y="0" width="72" height="20">
<path d="M72 0H0V20H72V0Z" fill="white"/>
</mask>
<g mask="url(#mask0_1064_10467)">
<path d="M5.48137 8.79039C4.44713 8.35949 3.59653 8.01023 3.59653 7.30902C3.59653 6.77374 4.07979 6.37898 5.03576 6.37898C5.35028 6.3804 5.66389 6.40908 5.97215 6.46462C6.12123 6.48943 6.2722 6.50419 6.42378 6.50878C7.25932 6.50878 7.73053 6.06584 8.04517 5.22546L8.17463 4.88289C7.1364 4.50376 6.02568 4.30611 4.90328 4.30078C2.07 4.30078 0.578096 5.91463 0.578096 7.5887C0.551109 8.29773 0.823968 8.99003 1.34287 9.52906C1.94505 10.1487 2.79714 10.5541 3.60106 10.9007C4.76477 11.4159 5.81708 11.7853 5.81708 12.54C5.81708 13.2091 5.04027 13.5891 4.0015 13.5891C2.57434 13.5891 1.33083 12.8665 1.17125 12.7862L0 14.7279C0.209259 14.8323 1.71622 15.6807 4.19571 15.6807C6.83778 15.6794 8.84456 14.3345 8.84456 12.2616C8.84456 10.1888 6.98533 9.43673 5.48137 8.79039Z" fill="#EA002C"/>
<path d="M15.8158 9.75223L20.6076 4.53331H17.1933L13.3709 9.0363H13.3122V4.5293H10.5V15.5934H10.6686C11.8851 15.5934 13.3333 15.0929 13.3333 13.2864V10.7465H13.3904L17.2881 15.4569H20.8695L15.8158 9.75223Z" fill="#EA002C"/>
<path d="M69.7317 9.33543C69.2787 9.33177 68.8309 9.41974 68.4219 9.5927C68.0129 9.76566 67.6536 10.019 67.3711 10.3337C66.9977 9.70611 66.3098 9.33543 65.414 9.33543C65.0122 9.33141 64.6135 9.39843 64.241 9.53259C63.8686 9.66676 63.5299 9.86539 63.2446 10.1169C63.1905 9.93628 62.9254 9.44784 62.0825 9.44784C61.8706 9.45664 61.66 9.48171 61.4531 9.52278C61.5869 10.1057 61.652 10.6995 61.6473 11.2945V15.4563H63.3575V11.2102C63.3922 11.1834 64.0334 10.6067 64.8043 10.6067C65.575 10.6067 65.959 11.1192 65.959 11.8111V15.4563H67.6797V11.2089C67.7158 11.1794 68.3451 10.6067 69.1264 10.6067C69.9077 10.6067 70.2705 11.1192 70.2705 11.8111V15.4563H72.0003V11.5755C72.0003 10.2146 71.1272 9.33008 69.7317 9.33008" fill="#FF7A00"/>
<path d="M50.9285 14.3595C49.7648 14.3595 48.9323 13.5405 48.9323 12.4713C48.9323 11.2804 49.8778 10.5698 50.9285 10.5698C51.4946 10.5698 51.734 10.7237 52.1089 10.7237C52.5108 10.7237 52.7231 10.551 52.9218 10.2085C53.0301 10.0171 53.0949 9.90868 53.0949 9.90868C53.0106 9.85917 52.142 9.33594 50.6697 9.33594C48.5078 9.33594 47.207 10.713 47.207 12.4713C47.207 14.389 48.687 15.5933 50.6697 15.5933C52.1013 15.5933 52.97 15.0741 53.1235 14.9764L52.5213 13.9326C52.0466 14.2061 51.4943 14.3541 50.9285 14.3595Z" fill="#FF7A00"/>
<path d="M30.797 11.8009C30.797 11.1171 31.336 10.4815 32.0947 10.4815C32.9408 10.4815 33.4089 11.1358 33.4226 11.8009H30.797ZM32.1204 9.33594C30.4779 9.33594 29.0898 10.5243 29.0898 12.47C29.0898 14.4612 30.4357 15.5906 32.444 15.5906C34.0397 15.5906 34.8693 14.9711 34.9686 14.9135L34.77 14.6272C34.5441 14.3006 34.2897 14.1963 34.0067 14.1963C33.4421 14.1963 33.3698 14.4037 32.6036 14.4037C31.2878 14.4037 30.8331 13.491 30.797 12.8848H35.1989V12.4299C35.1989 10.5644 33.9946 9.33594 32.1158 9.33594" fill="#FF7A00"/>
<path d="M38.1363 13.7716V7.53563C38.1363 6.83175 37.6079 6.28711 36.7814 6.28711H36.4141V14.3845C36.4141 15.1298 36.9319 15.5888 37.8352 15.5888C38.9507 15.5888 39.2835 14.885 39.2835 14.2226C39.1198 14.2893 38.9426 14.3257 38.7625 14.3296C38.6776 14.3371 38.5918 14.3277 38.5114 14.3022C38.431 14.2767 38.3578 14.2356 38.2974 14.182C38.2369 14.1284 38.1906 14.0636 38.1618 13.9921C38.1328 13.9207 38.122 13.8445 38.1303 13.7689" fill="#FF7A00"/>
<path d="M26.6634 13.5564V10.595H28.0967L28.5965 9.44685H26.6634V7.65234H26.5039C25.7406 7.65234 24.9487 7.94273 24.9487 9.43346V9.44685H23.6797V10.595H24.9517V14.0916C24.9517 15.0819 25.6082 15.5958 26.5415 15.5958C27.2942 15.5958 28.2713 15.3924 28.2713 14.0635C28.0245 14.2063 27.7402 14.2893 27.4463 14.3044C26.8877 14.3044 26.6664 14.002 26.6664 13.5644" fill="#FF7A00"/>
<path d="M41.5627 11.8009C41.5627 11.1171 42.1015 10.4815 42.8588 10.4815C43.7063 10.4815 44.1715 11.1358 44.1866 11.8009H41.5627ZM42.8828 9.33594C41.2405 9.33594 39.8555 10.5243 39.8555 12.47C39.8555 14.4612 41.1997 15.5906 43.2095 15.5906C44.8054 15.5906 45.6303 14.9711 45.7327 14.9135C45.7327 14.9135 45.5822 14.6874 45.534 14.6258C45.3097 14.2993 45.0538 14.1949 44.7707 14.1949C44.2047 14.1949 44.134 14.4023 43.3661 14.4023C42.0534 14.4023 41.5957 13.4897 41.5672 12.8835H45.966V12.4299C45.966 10.5644 44.7617 9.33594 42.8828 9.33594Z" fill="#FF7A00"/>
<path d="M57.0492 14.4177C58.103 14.4177 58.7052 13.6148 58.7052 12.4667C58.7052 11.3185 58.1136 10.5076 57.0492 10.5076C56.0149 10.5076 55.3932 11.3105 55.3932 12.4667C55.3932 13.5854 55.9849 14.4177 57.0492 14.4177ZM57.0492 15.5913C54.9505 15.5913 53.6875 14.3589 53.6875 12.4667C53.6875 10.5745 54.934 9.33398 57.0492 9.33398C59.1643 9.33398 60.4153 10.5798 60.4153 12.4667C60.4153 14.2478 59.2637 15.5913 57.0492 15.5913Z" fill="#FF7A00"/>
</g>
</g>
<defs>
<clipPath id="clip0_1064_10467">
<rect width="72" height="20" fill="white"/>
</clipPath>
</defs>
</svg>
