<svg width="16" height="20" viewBox="0 0 16 20" fill="none" xmlns="http://www.w3.org/2000/svg">
<g clip-path="url(#clip0_1064_10454)">
<path d="M7.662 14.22L5.288 11.297L8.738 7.049H6.855C6.011 7.049 5.432 7.306 4.919 7.908L3.1 10.143V4H1.276C1.07001 4.00053 0.872634 4.08273 0.727163 4.22858C0.581692 4.37442 0.499999 4.57201 0.5 4.778V16.24H2.324C2.52999 16.2395 2.72737 16.1573 2.87284 16.0114C3.01831 15.8656 3.1 15.668 3.1 15.462V12.412L4.575 14.223L5.832 15.771C5.94068 15.9149 6.08118 16.0318 6.24251 16.1125C6.40384 16.1932 6.58163 16.2354 6.762 16.236H9.31L7.662 14.22Z" fill="url(#paint0_linear_1064_10454)"/>
<path d="M8.66847 15.8564C8.51947 15.6944 7.93147 14.9224 7.20047 14.0554C6.22947 12.9094 5.23647 11.5954 4.98747 11.3054C5.36747 10.8364 7.84247 7.79242 8.13947 7.43142L8.26947 7.27942H6.75647C6.44597 7.28594 6.14007 7.35583 5.85754 7.4848C5.57502 7.61377 5.32181 7.7991 5.11347 8.02942L2.94547 10.6964C2.94173 10.7008 2.93715 10.7044 2.932 10.707C2.92684 10.7095 2.92122 10.7111 2.91547 10.7114C2.90993 10.7115 2.90442 10.7105 2.89927 10.7084C2.89412 10.7064 2.88943 10.7033 2.88547 10.6994C2.88136 10.6956 2.87809 10.6909 2.87585 10.6858C2.87362 10.6806 2.87247 10.675 2.87247 10.6694V4.23242H1.27747C1.13178 4.23322 0.992349 4.29179 0.889795 4.39528C0.787241 4.49877 0.72994 4.63873 0.730472 4.78442V16.0144H2.32547C2.3977 16.0142 2.46917 15.9997 2.5358 15.9718C2.60243 15.9439 2.66291 15.9032 2.7138 15.8519C2.76468 15.8007 2.80498 15.7399 2.83237 15.673C2.85977 15.6062 2.87374 15.5346 2.87347 15.4624V11.8304C2.87301 11.8219 2.87522 11.8134 2.87982 11.8062C2.88441 11.799 2.89115 11.7934 2.89909 11.7902C2.90703 11.787 2.91577 11.7863 2.92409 11.7883C2.93241 11.7904 2.93989 11.7949 2.94547 11.8014L4.77547 14.0584L6.04847 15.6234C6.26547 15.8684 6.55047 16.0154 6.81147 16.0154H8.81547L8.66847 15.8564Z" fill="url(#paint1_linear_1064_10454)"/>
<path d="M12.3418 16.24C10.9338 16.24 9.96484 15.271 9.96484 13.866V4.777C9.96564 4.57065 10.0482 4.37303 10.1944 4.2274C10.3406 4.08176 10.5385 4 10.7448 4H12.5688V13.378C12.5688 13.5631 12.6422 13.7407 12.7728 13.8719C12.9034 14.0031 13.0807 14.0772 13.2658 14.078H15.1238V15.466C15.1233 15.6725 15.0409 15.8704 14.8947 16.0163C14.7485 16.1621 14.5504 16.244 14.3438 16.244L12.3418 16.24Z" fill="url(#paint2_linear_1064_10454)"/>
<path d="M12.3414 16.0146C11.0594 16.0146 10.1914 15.1476 10.1914 13.8686V4.77856C10.1914 4.63216 10.2496 4.49176 10.3531 4.38824C10.4566 4.28472 10.597 4.22656 10.7434 4.22656H12.3404V13.3786C12.3407 13.624 12.4381 13.8593 12.6115 14.0331C12.7849 14.2068 13.02 14.3048 13.2654 14.3056H14.8954V15.4656C14.8954 15.612 14.8372 15.7524 14.7337 15.8559C14.6302 15.9594 14.4898 16.0176 14.3434 16.0176L12.3414 16.0146Z" fill="url(#paint3_linear_1064_10454)"/>
<path style="mix-blend-mode:screen" opacity="0.5" d="M0.760469 7.97266H0.730469V16.0017H0.760469V7.97266Z" fill="url(#paint4_radial_1064_10454)"/>
<path style="mix-blend-mode:screen" opacity="0.25" d="M0.925781 16.0143H2.34978C2.60478 16.0143 2.87378 15.7863 2.87378 15.4393V11.8633H2.84178V15.4393C2.84178 15.7493 2.58778 15.9813 2.35078 15.9813H0.925781V16.0143Z" fill="url(#paint5_radial_1064_10454)"/>
<path style="mix-blend-mode:screen" opacity="0.25" d="M10.2244 7.90756V4.74056C10.2244 4.50256 10.4714 4.25856 10.7084 4.25856H12.3064L12.3394 4.22656H10.7084C10.4534 4.22656 10.1914 4.48656 10.1914 4.74156V7.90756H10.2244Z" fill="url(#paint6_radial_1064_10454)"/>
<path style="mix-blend-mode:screen" opacity="0.25" d="M10.2244 13.9166V7.93164H10.1914V13.9166H10.2244Z" fill="url(#paint7_radial_1064_10454)"/>
<path style="mix-blend-mode:screen" opacity="0.5" d="M12.3049 13.2696C12.3029 13.3806 12.3139 13.4916 12.3359 13.5996C12.3799 13.7935 12.4851 13.9681 12.6359 14.0976C12.8079 14.2476 13.0379 14.3376 13.3459 14.3376H14.8889V14.3046H13.3239C12.9629 14.3046 12.7279 14.1746 12.5619 13.9796C12.4633 13.8679 12.3939 13.7336 12.3599 13.5886C12.3395 13.4829 12.3311 13.3752 12.3349 13.2676L12.3049 13.2696Z" fill="url(#paint8_radial_1064_10454)"/>
<path style="mix-blend-mode:screen" opacity="0.25" d="M14.3191 15.981H12.3071C11.0771 15.981 10.2371 15.145 10.2371 13.918H10.2031C10.2031 15.163 11.0601 16.014 12.3071 16.014H14.3191V15.981Z" fill="url(#paint9_radial_1064_10454)"/>
<path style="mix-blend-mode:multiply" d="M10.1924 9.98147H12.3384V8.60547H10.1914L10.1924 9.98147Z" fill="url(#paint10_linear_1064_10454)"/>
<path style="mix-blend-mode:screen" opacity="0.25" d="M4.97241 11.309C4.97241 11.309 7.85141 7.76505 8.17141 7.37305H8.12841L4.94141 11.293L4.97241 11.309Z" fill="url(#paint11_radial_1064_10454)"/>
<path style="mix-blend-mode:multiply" d="M6.74038 7.25781C6.43994 7.26453 6.14402 7.33236 5.87066 7.45718C5.5973 7.582 5.35222 7.76118 5.15037 7.98381L2.98438 10.6468L4.99038 11.2888C4.99038 11.2888 7.90838 7.69681 8.23238 7.30081C7.84438 7.30081 6.74038 7.25781 6.74038 7.25781Z" fill="url(#paint12_linear_1064_10454)"/>
<path style="mix-blend-mode:screen" opacity="0.25" d="M6.08203 15.6514C6.27103 15.8644 6.55803 16.0114 6.80403 16.0114H8.56303L8.53303 15.9804H6.80303C6.60803 15.9804 6.27903 15.8514 6.08303 15.6504L6.08203 15.6514Z" fill="url(#paint13_radial_1064_10454)"/>
<path style="mix-blend-mode:screen" opacity="0.25" d="M2.67847 4.22852H1.25447C0.999469 4.22852 0.730469 4.45652 0.730469 4.80252V8.45752H0.761469V4.80452C0.761469 4.49452 1.01647 4.26252 1.25347 4.26252H2.67747L2.67847 4.22852Z" fill="url(#paint14_radial_1064_10454)"/>
<path d="M13.4416 7.35341H6.63156C5.70856 7.35341 5.10056 7.67941 4.67156 8.20341L3.35156 9.83341C3.82956 9.46941 4.48756 9.25341 5.16156 9.25341H13.4416C14.4916 9.25341 15.5016 8.93141 15.5016 8.10441C15.5016 7.27741 15.4066 6.81641 15.4066 6.81641C15.4066 6.81641 14.9126 7.35341 13.4416 7.35341Z" fill="url(#paint15_linear_1064_10454)"/>
<path d="M3.36819 9.80714L4.89219 7.93014C5.26819 7.46914 5.76319 7.04214 6.80719 7.04214H13.4412C14.8442 7.04214 15.3322 6.54414 15.3382 6.53914L15.4982 6.36914V8.09914C15.4982 8.09914 15.5192 8.34714 15.2912 8.59814C14.9712 8.94814 14.3482 9.12614 13.4412 9.12614H5.14419C4.08719 9.12614 3.36719 9.80814 3.36719 9.80814L3.36819 9.80714Z" fill="url(#paint16_linear_1064_10454)"/>
<path style="mix-blend-mode:screen" opacity="0.7" d="M15.4864 8.1875C15.4784 8.3535 15.2584 9.0875 13.4394 9.0875H5.27237C4.51737 9.0875 3.93238 9.3015 3.37438 9.7935L3.35938 9.8105C3.79737 9.4585 4.33937 9.1235 5.27237 9.1235H13.4404C15.4904 9.1235 15.4874 8.1885 15.4874 8.1885L15.4864 8.1875Z" fill="url(#paint17_radial_1064_10454)"/>
</g>
<defs>
<linearGradient id="paint0_linear_1064_10454" x1="4.905" y1="19.693" x2="4.905" y2="0.894" gradientUnits="userSpaceOnUse">
<stop stop-color="#414041"/>
<stop offset="1" stop-color="#252B2B"/>
</linearGradient>
<linearGradient id="paint1_linear_1064_10454" x1="4.77147" y1="1.58742" x2="4.77147" y2="18.6844" gradientUnits="userSpaceOnUse">
<stop stop-color="#333333"/>
<stop offset="1"/>
</linearGradient>
<linearGradient id="paint2_linear_1064_10454" x1="12.5438" y1="16.451" x2="12.5438" y2="3.956" gradientUnits="userSpaceOnUse">
<stop stop-color="#414041"/>
<stop offset="1" stop-color="#252B2B"/>
</linearGradient>
<linearGradient id="paint3_linear_1064_10454" x1="12.5434" y1="4.22656" x2="12.5434" y2="15.7976" gradientUnits="userSpaceOnUse">
<stop stop-color="#333333"/>
<stop offset="1"/>
</linearGradient>
<radialGradient id="paint4_radial_1064_10454" cx="0" cy="0" r="1" gradientUnits="userSpaceOnUse" gradientTransform="translate(0.740469 11.7277) scale(3.23971 3.23971)">
<stop stop-color="white"/>
<stop offset="1" stop-color="#221E1F"/>
</radialGradient>
<radialGradient id="paint5_radial_1064_10454" cx="0" cy="0" r="1" gradientUnits="userSpaceOnUse" gradientTransform="translate(2.67178 15.8333) scale(1.67209)">
<stop stop-color="white"/>
<stop offset="1" stop-color="#221E1F"/>
</radialGradient>
<radialGradient id="paint6_radial_1064_10454" cx="0" cy="0" r="1" gradientUnits="userSpaceOnUse" gradientTransform="translate(10.2504 4.33556) scale(2.48042)">
<stop stop-color="white"/>
<stop offset="1" stop-color="#221E1F"/>
</radialGradient>
<radialGradient id="paint7_radial_1064_10454" cx="0" cy="0" r="1" gradientUnits="userSpaceOnUse" gradientTransform="translate(10.1904 10.7206) scale(2.41548 2.41545)">
<stop stop-color="white"/>
<stop offset="1" stop-color="#221E1F"/>
</radialGradient>
<radialGradient id="paint8_radial_1064_10454" cx="0" cy="0" r="1" gradientUnits="userSpaceOnUse" gradientTransform="translate(13.0429 14.2356) scale(1.21792)">
<stop stop-color="white"/>
<stop offset="1" stop-color="#221E1F"/>
</radialGradient>
<radialGradient id="paint9_radial_1064_10454" cx="0" cy="0" r="1" gradientUnits="userSpaceOnUse" gradientTransform="translate(11.9721 15.864) scale(2.24155)">
<stop stop-color="white"/>
<stop offset="1" stop-color="#221E1F"/>
</radialGradient>
<linearGradient id="paint10_linear_1064_10454" x1="11.2664" y1="9.97747" x2="11.2664" y2="9.47047" gradientUnits="userSpaceOnUse">
<stop stop-color="white"/>
<stop offset="1" stop-color="#221D1E"/>
</linearGradient>
<radialGradient id="paint11_radial_1064_10454" cx="0" cy="0" r="1" gradientUnits="userSpaceOnUse" gradientTransform="translate(5.69441 10.334) scale(1.14211)">
<stop stop-color="white"/>
<stop offset="1" stop-color="#221E1F"/>
</radialGradient>
<linearGradient id="paint12_linear_1064_10454" x1="5.60938" y1="10.0438" x2="5.60938" y2="8.80781" gradientUnits="userSpaceOnUse">
<stop stop-color="white"/>
<stop offset="0.53" stop-color="#221D1E"/>
<stop offset="1" stop-color="white"/>
</linearGradient>
<radialGradient id="paint13_radial_1064_10454" cx="0" cy="0" r="1" gradientUnits="userSpaceOnUse" gradientTransform="translate(6.61703 15.9604) scale(1.51794 1.51793)">
<stop stop-color="white"/>
<stop offset="1" stop-color="#221E1F"/>
</radialGradient>
<radialGradient id="paint14_radial_1064_10454" cx="0" cy="0" r="1" gradientUnits="userSpaceOnUse" gradientTransform="translate(1.53747 4.91352) rotate(180) scale(1.68355)">
<stop stop-color="white"/>
<stop offset="1" stop-color="#221E1F"/>
</radialGradient>
<linearGradient id="paint15_linear_1064_10454" x1="15.4306" y1="6.90841" x2="3.32956" y2="10.0754" gradientUnits="userSpaceOnUse">
<stop stop-color="#CF1F27"/>
<stop offset="0.48" stop-color="#A11D20"/>
<stop offset="0.59" stop-color="#A41D21"/>
<stop offset="0.68" stop-color="#AF1E22"/>
<stop offset="0.77" stop-color="#C01E25"/>
<stop offset="0.83" stop-color="#CF1F27"/>
<stop offset="0.93" stop-color="#991B1E"/>
<stop offset="0.95" stop-color="#961B1E"/>
<stop offset="0.96" stop-color="#8D1A1C"/>
<stop offset="0.97" stop-color="#7D181A"/>
<stop offset="0.98" stop-color="#671617"/>
<stop offset="0.99" stop-color="#4A1313"/>
<stop offset="1" stop-color="#321010"/>
</linearGradient>
<linearGradient id="paint16_linear_1064_10454" x1="6.67119" y1="5.77014" x2="13.0662" y2="11.1371" gradientUnits="userSpaceOnUse">
<stop stop-color="#B81F24"/>
<stop offset="0.02" stop-color="#D71F26"/>
<stop offset="0.03" stop-color="#DD3130"/>
<stop offset="0.07" stop-color="#E95544"/>
<stop offset="0.09" stop-color="#F06B51"/>
<stop offset="0.11" stop-color="#F37355"/>
<stop offset="0.28" stop-color="#F05041"/>
<stop offset="0.48" stop-color="#ED2126"/>
<stop offset="0.71" stop-color="#ED2126"/>
<stop offset="1" stop-color="#D71F26"/>
</linearGradient>
<radialGradient id="paint17_radial_1064_10454" cx="0" cy="0" r="1" gradientUnits="userSpaceOnUse" gradientTransform="translate(3.76438 9.2975) scale(11.5759 11.5759)">
<stop stop-color="#000101"/>
<stop offset="0.24" stop-color="white"/>
<stop offset="0.76" stop-color="white"/>
<stop offset="0.78" stop-color="#FAFAFA"/>
<stop offset="0.81" stop-color="#ECECEC"/>
<stop offset="0.85" stop-color="#D4D5D5"/>
<stop offset="0.88" stop-color="#B3B4B4"/>
<stop offset="0.91" stop-color="#898989"/>
<stop offset="0.95" stop-color="#555656"/>
<stop offset="0.99" stop-color="#191A1A"/>
<stop offset="1" stop-color="#000101"/>
</radialGradient>
<clipPath id="clip0_1064_10454">
<rect width="15" height="20" fill="white" transform="translate(0.5)"/>
</clipPath>
</defs>
</svg>
