<svg width="65" height="20" fill="none" xmlns="http://www.w3.org/2000/svg"><path d="M40.339 13.702h-3.693c-.365 0-.4-.155-.389-.438 0-.466 0-.472.396-.476h2.73c.454 0 .454 0 .458-.468.003-.469 0-.951 0-1.423 0-.287-.096-.368-.372-.357-.43.02-.864 0-1.297 0-.714 0-1.096-.354-1.106-1.049-.02-1.116 0-2.229 0-3.345 0-.27.11-.337.341-.337h5.888c.266 0 .34.088.34.337v3.035c0 .826-.504 1.298-1.347 1.328h-1.096c-.218 0-.293.074-.29.283v1.686c0 .253.12.293.341.293h2.843c.137 0 .342-.077.39.112.07.237.061.49-.028.721-.065.132-.242.064-.368.064-1.243.037-2.492.034-3.741.034Zm.055-6.959h-1.942c-.243 0-.318.074-.314.31v2.209c0 .26.081.398.372.398h3.539c.41 0 .546-.139.556-.536v-2.06c0-.24-.095-.314-.341-.31-.608-.01-1.24-.01-1.87-.01Z" fill="#1352A4"/><path d="M58.55 14.963h-2.245c-.751 0-1.082-.32-1.113-1.079V12.85c-.017-.276.082-.364.369-.36H59.953c.201 0 .304-.122.31-.338.008-.216-.119-.293-.34-.29h-4.345c-.154 0-.38.091-.454-.088a1.1 1.1 0 0 1 0-.724c.054-.172.263-.095.4-.095h5.542c.218 0 .293.081.286.29v1.18c-.017.675-.34.988-1.023 1.012h-3.645c-.342 0-.407.114-.342.414.048.236.229.203.386.203h4.331c.201 0 .393-.034.396.28 0 .441-.051.606-.358.64a7.879 7.879 0 0 1-.8 0l-1.746-.01Z" fill="#1755A6"/><path d="M45.24 8.83V6.227c0-.293.072-.435.389-.39a.75.75 0 0 0 .246 0c.341-.058.423.104.413.41v1.818c0 .303.133.337.389.337h1.942c.276 0 .379-.074.368-.357-.017-.587 0-1.177 0-1.767 0-.438 0-.445.424-.445.737 0 .628-.064.628.634v4.025c.008.164.008.328 0 .492-.11.968-.557 1.406-1.55 1.45-.73.034-1.464.024-2.194 0a.95.95 0 0 1-.754-.267.925.925 0 0 1-.27-.744V8.82l-.031.01Zm2.389.502H46.53c-.177 0-.276.054-.273.253v1.619c0 .215.092.337.341.337h1.748c.416-.02.577-.179.6-.577.031-.455 0-.913.024-1.372 0-.209-.109-.243-.283-.24a21.59 21.59 0 0 0-1.044-.02h-.014Z" fill="#1755A5"/><path d="M32.025 11.393h2.795c.31 0 .403.09.393.39-.02.62 0 1.245 0 1.868-.024.988-.413 1.349-1.41 1.349H29.96c-.775 0-1.092-.307-1.099-1.069-.007-.762 0-1.443 0-2.164 0-.3.079-.395.39-.388.91.024 1.842.014 2.774.014Zm.02.92H30.25c-.211 0-.3.067-.293.283v1.18a.283.283 0 0 0 .079.259.292.292 0 0 0 .262.078h3.345c.31 0 .454-.155.44-.465a8.557 8.557 0 0 1 0-.934c.02-.293-.068-.408-.386-.394-.553.01-1.102-.007-1.652-.007Z" fill="#1151A3"/><path d="M21.114 10.846c-1.024-.043-1.891-.374-2.369-1.348a2.56 2.56 0 0 1 .133-2.674c.737-1.13 2.6-1.44 3.853-.674 1.103.674 1.461 2.336.738 3.496-.533.873-1.366 1.173-2.355 1.2Zm1.566-2.559a1.464 1.464 0 0 0-.409-1.117 1.498 1.498 0 0 0-1.11-.46 1.583 1.583 0 0 0-1.11.479 1.544 1.544 0 0 0-.432 1.119 1.496 1.496 0 0 0 .432 1.109 1.534 1.534 0 0 0 1.11.458c.908.004 1.52-.637 1.52-1.588Z" fill="#1553A5"/><path d="M52.366 8.314c.322-.069.65-.1.98-.09.396.036.597.218.59.529-.007.31-.215.495-.594.532h-.15c-.662.037-.884.257-.894.917v4.03c0 .573-.423.876-1.024.704a.168.168 0 0 1-.105-.055.164.164 0 0 1-.042-.11V6.032c0-.55-.068-.52.492-.513.768 0 .662-.09.682.641v1.686a.717.717 0 0 0 .065.468Z" fill="#1150A3"/><path d="M3.957 14.868h-.15c-.567 0-.567 0-.567-.542v-2.458c0-.132.061-.337-.178-.337-.238 0-.163.172-.18.293a2.9 2.9 0 0 1-.471 1.332c-.543.785-1.366.785-1.908 0A3.43 3.43 0 0 1 .52 9.568c.546-.751 1.341-.748 1.88 0 .192.288.33.606.41.941.037.145 0 .374.273.337.273-.037.15-.256.157-.404V9.265c0-.148-.068-.37.191-.37.208 0 .488-.129.573.215a.238.238 0 0 0 .16.172v.206c-.323.043-.187.3-.19.458-.004 1.659-.01 3.29-.017 4.922Zm-1.775-3.486a2.8 2.8 0 0 0-.28-1.23c-.263-.476-.655-.5-.877-.017a2.87 2.87 0 0 0 0 2.515.503.503 0 0 0 .44.337c.25 0 .38-.185.475-.377.166-.388.248-.806.242-1.228Z" fill="#1956A6"/><path d="M56.806 5.479c1.492 0 2.489.94 2.502 2.36.014 1.42-1.024 2.384-2.488 2.387-1.464.003-2.532-.974-2.522-2.397.01-1.423 1.01-2.35 2.508-2.35Zm1.424 2.36a1.386 1.386 0 0 0-.387-1.03 1.42 1.42 0 0 0-1.02-.44 1.496 1.496 0 0 0-1.043.445 1.463 1.463 0 0 0-.417 1.045 1.412 1.412 0 0 0 .406 1.047 1.445 1.445 0 0 0 1.048.433 1.41 1.41 0 0 0 1.05-.444 1.377 1.377 0 0 0 .363-1.07v.014ZM27.148 10.115c.102-.145.273-.186.413-.267a5.74 5.74 0 0 0 1.522-1.18 2.114 2.114 0 0 0 .61-1.588v-.984c0-.327.107-.415.404-.374.048.003.098.003.146 0 .584 0 .639.054.645.61v.738a2.001 2.001 0 0 0 .683 1.578c.432.385.913.714 1.43.978.14.077.314.111.41.26-.683.896-.53.731-1.304.31a7.665 7.665 0 0 1-1.792-1.383c-.341.354-.648.712-.993 1.035-.34.289-.709.544-1.1.762a.42.42 0 0 1-.637-.087c-.164-.145-.352-.24-.437-.408Z" fill="#1553A5"/><path d="M26.008 6.558v.735c0 .242.065.37.341.273.289-.08.59-.102.887-.064a.516.516 0 0 1 .369.13c.1.09.16.215.167.349a.52.52 0 0 1-.29.518.538.538 0 0 1-.204.055 2.34 2.34 0 0 1-.342 0 .866.866 0 0 0-.682.251.846.846 0 0 0-.24.68v1.47c-.02.566-.21.724-.75.754-.341.02-.403-.131-.4-.428V5.833c0-.233.041-.337.342-.36.836-.038.833-.051.833.778l-.031.307Z" fill="#1151A3"/><path d="M23.26 14.97h-2.389c-.682 0-.972-.29-.98-.965-.006-.674 0-1.277 0-1.918 0-.21.066-.28.28-.293.909-.068.909-.075.909.809v.886c0 .52 0 .52.512.523h4.197c.236 0 .509-.084.488.337-.02.422-.099.61-.508.617-.853.014-1.676.004-2.509.004Z" fill="#1956A6"/><path d="M60.71 0a5.602 5.602 0 0 1 3.554 1.227c.3.233.358.533.167.762-.191.23-.44.236-.747 0a4.691 4.691 0 0 0-2.39-1.011 4.37 4.37 0 0 0-3.017.796c-.136.09-.259.202-.402.29a.47.47 0 0 1-.666-.098.463.463 0 0 1 .13-.674A5.748 5.748 0 0 1 59.202.28c.486-.17.994-.264 1.509-.28Z" fill="#EE5E2F"/><path d="M34.076 8.233v-2.36c0-.31.1-.387.396-.387.768 0 .768 0 .768.752v4.025c0 .614-.201.772-.823.765-.266 0-.34-.097-.34-.337.006-.819 0-1.638 0-2.458Z" fill="#1C58A7"/><path d="M8.441 11.426a4.467 4.467 0 0 1-1.836 1.484c-.29.138-.372 0-.491-.216-.12-.216.024-.297.19-.391 1.117-.637 1.786-1.548 1.728-2.863-.017-.32.109-.384.402-.37.294.013.448 0 .427.337-.072 1.348.608 2.265 1.751 2.902.194.108.287.186.147.405-.14.22-.185.337-.454.199a4.47 4.47 0 0 1-1.864-1.487ZM60.254 7.943v-2.11c0-.266.092-.337.34-.337.745-.017.745-.027.745.721v3.584c0 .587-.16.712-.751.701-.27 0-.341-.1-.341-.337.017-.748.007-1.487.007-2.222Z" fill="#1755A6"/><path d="M60.827 1.713c.891.023 1.75.336 2.444.89.273.222.32.462.15.674-.17.213-.403.233-.683 0a2.982 2.982 0 0 0-3.048-.442 3.443 3.443 0 0 0-.682.402c-.372.253-.604.253-.778 0-.174-.253-.09-.459.266-.732a4.06 4.06 0 0 1 2.33-.792Z" fill="#EE3F2E"/><path d="M4.182 9.518v-.206c.14-.1.072-.337.314-.4.42-.092.573-.001.573.444v4.869c0 .731 0 .731-.737.643 0-1.628 0-3.253-.017-4.881-.017-.156.102-.361-.133-.47Z" fill="#2861AC"/><path d="M13.312 11.463a1.221 1.221 0 0 1-.683-.148c-.508-.25-.877-.597-.86-1.2a1.29 1.29 0 0 1 .315-.733c.18-.206.42-.35.688-.414a1.847 1.847 0 0 1 1.577.18 1.158 1.158 0 0 1 .613.966 1.139 1.139 0 0 1-.53 1.012c-.329.227-.72.345-1.12.337Zm.078-.603a.757.757 0 0 0 .55-.19.74.74 0 0 0 .245-.522.81.81 0 0 0-.287-.492.829.829 0 0 0-1.077.025.809.809 0 0 0-.264.505.756.756 0 0 0 .284.499.775.775 0 0 0 .556.161l-.007.014Z" fill="#1956A6"/><path d="M16.086 11.335v2.11c0 .29-.105.365-.375.338-.27-.027-.488.02-.43-.337.044-.284-.092-.381-.365-.337h-.3c-.25.027-.396-.02-.393-.338.003-.317.167-.337.406-.337h.25c.34.054.412-.108.409-.414-.017-.918 0-1.831 0-2.748 0-.31.099-.391.399-.388.3.003.427.04.413.374-.03.705-.014 1.393-.014 2.077Z" fill="#1956A6"/><path d="M14.141 14.885h-1.744c-.229 0-.341-.057-.341-.3v-1.621c0-.29.18-.263.362-.25.18.014.433-.098.426.24-.007.337 0 .623 0 .933 0 .31.106.361.379.358h2.59c.297 0 .369.1.359.37 0 .213-.086.284-.297.28-.57-.016-1.15-.01-1.734-.01Z" fill="#1755A5"/><path d="M60.817 3.399a2.495 2.495 0 0 1 1.437.462c.283.215.34.451.177.674a.431.431 0 0 1-.312.188.439.439 0 0 1-.347-.114 1.59 1.59 0 0 0-1.907 0 .431.431 0 0 1-.656-.084.449.449 0 0 1 .154-.64c.421-.309.93-.478 1.454-.486Z" fill="#E42A31"/><path d="M13.35 11.622h1.45c.218 0 .286.08.283.29-.003.209-.027.303-.266.313-.307 0-.703-.152-.905.081-.201.233-.054.567-.044.86 0 .354-.232.28-.437.297-.205.017-.362-.034-.362-.317 0-.284.168-.715-.085-.88-.253-.165-.61-.037-.925-.05-.177 0-.42.087-.426-.244 0-.232.03-.367.32-.337.464 0 .932-.013 1.396-.013Z" fill="#1755A5"/><path d="M8.455 14.592H6.407c-.242 0-.362-.047-.341-.32.02-.273.092-.307.324-.307h4.195c.283 0 .32.118.341.337.02.22-.143.277-.341.277-.73.01-1.43.013-2.13.013Z" fill="#1352A4"/></svg>