<svg width="158" height="29" viewBox="0 0 158 29" fill="none" xmlns="http://www.w3.org/2000/svg">
<path fill-rule="evenodd" clip-rule="evenodd" d="M134.15 3.87443C133.38 3.87443 132.667 4.06012 132.071 4.32835V0.366864C132.071 0.160537 131.974 0.057373 131.782 0.057373H130.127C129.934 0.057373 129.838 0.160537 129.838 0.366864V13.9638C129.838 14.1495 129.896 14.2527 130.069 14.3146C131.205 14.7685 132.687 15.0574 133.938 15.0574C136.479 15.0574 138.365 13.6543 138.365 10.5182V8.24857C138.365 5.56631 136.575 3.87443 134.15 3.87443ZM136.094 10.5388C136.094 12.2926 135.266 12.9116 133.88 12.9116C133.226 12.9116 132.533 12.829 132.071 12.6227V6.53605C132.552 6.20593 133.187 5.9996 133.919 5.9996C135.305 5.9996 136.094 6.68048 136.094 8.24857V10.5388ZM147.593 15.0574C147.977 15.0574 148.361 15.0367 148.688 14.9955C148.842 14.9748 148.899 14.8304 148.899 14.6653V13.1385C148.899 12.9322 148.803 12.829 148.611 12.829C148.361 12.8497 148.112 12.8703 147.881 12.8703C147.017 12.8703 146.613 12.3338 146.613 10.9721V0.366864C146.613 0.160537 146.517 0.057373 146.325 0.057373H144.673C144.481 0.057373 144.385 0.160537 144.385 0.366864V11.0546C144.385 13.5718 145.518 15.0574 147.593 15.0574ZM157.928 10.2677V8.21789C157.928 5.23449 155.835 4.05737 153.703 4.05737C151.552 4.05737 149.4 5.23449 149.4 8.21789V11.0998C149.4 13.7991 151.474 15.0574 153.684 15.0574C155.346 15.0574 156.617 14.5094 157.654 13.657C157.81 13.5352 157.83 13.3729 157.712 13.2308L156.911 12.1146C156.813 11.9725 156.656 11.9522 156.519 12.0537C155.796 12.5611 154.974 12.9873 153.762 12.9873C152.51 12.9873 151.689 12.3581 151.689 11.1201V10.5518H157.634C157.83 10.5518 157.928 10.4504 157.928 10.2677ZM153.703 6.12748C154.798 6.12748 155.718 6.71605 155.718 8.1976V8.72527H151.689V8.1976C151.689 6.69575 152.549 6.12748 153.703 6.12748ZM141.96 15.0574H140.294C140.122 15.0574 140.007 14.96 140.007 14.7653V5.24374C140.007 5.06849 140.122 4.97114 140.294 4.97114H141.96C142.132 4.97114 142.228 5.06849 142.228 5.24374V14.7653C142.228 14.96 142.132 15.0574 141.96 15.0574ZM142.381 2.32301C142.381 3.04346 141.864 3.60813 141.137 3.60813C140.428 3.60813 139.873 3.04346 139.873 2.32301C139.873 1.5831 140.428 1.05737 141.137 1.05737C141.864 1.05737 142.381 1.5831 142.381 2.32301ZM128.335 10.9577C128.335 13.4743 126.553 15.0574 123.821 15.0574C121.089 15.0574 119.307 13.4743 119.307 10.9577V8.23818C119.307 5.68099 121.089 4.05737 123.821 4.05737C126.553 4.05737 128.335 5.68099 128.335 8.23818V10.9577ZM121.623 10.9577C121.623 12.2566 122.395 12.9467 123.821 12.9467C125.227 12.9467 126.019 12.2566 126.019 10.9577V8.23818C126.019 6.8987 125.227 6.16807 123.821 6.16807C122.395 6.16807 121.623 6.8987 121.623 8.23818V10.9577ZM113.667 4.05738C112.551 4.05738 111.724 4.3687 110.762 5.0121C110.05 4.41021 109.108 4.05738 107.973 4.05738C106.761 4.05738 105.549 4.3687 104.491 4.86681C104.317 4.94983 104.26 5.07436 104.26 5.2404V14.7461C104.26 14.9536 104.356 15.0574 104.548 15.0574H106.203C106.395 15.0574 106.491 14.9536 106.491 14.7461V6.44417C106.876 6.31964 107.376 6.21587 108.03 6.21587C109.281 6.21587 109.935 6.88002 109.935 8.39512V14.7461C109.935 14.9536 110.05 15.0574 110.223 15.0574H111.878C112.07 15.0574 112.166 14.9536 112.166 14.7461V8.43663C112.166 7.81398 112.07 7.25361 111.916 6.75549C112.416 6.40266 112.974 6.23663 113.609 6.23663C114.994 6.23663 115.591 7.04606 115.591 8.39512V14.7461C115.591 14.9536 115.687 15.0574 115.86 15.0574H117.534C117.707 15.0574 117.803 14.9536 117.803 14.7461V8.47814C117.803 5.57248 116.072 4.05738 113.667 4.05738Z" fill="#046241"/>
<g clip-path="url(#clip0_1409_2896)">
<path d="M8.61932 14.2347C7.7774 13.1386 7.04013 12.0378 6.4408 10.9609C6.03173 10.2333 5.6845 9.51061 5.40386 8.8118C4.54768 6.68189 4.41925 4.88223 5.0709 4.22171C5.34678 3.94411 5.8272 3.8053 6.45031 3.8053C7.29699 3.8053 8.41003 4.05898 9.62772 4.55676C10.3127 4.83436 11.0166 5.17898 11.7301 5.58103C12.8004 4.68599 13.8896 3.88189 14.9789 3.1783C13.6423 2.31676 12.3104 1.60359 11.0262 1.08189C7.30174 -0.43538 4.25277 -0.263072 2.43575 1.57009C0.613975 3.39847 0.442738 6.4665 1.94582 10.2142C2.4738 11.5304 3.20156 12.8993 4.08153 14.2682C4.79026 15.3691 5.59413 16.4699 6.49312 17.5516C7.21612 18.4227 7.99621 19.2843 8.82385 20.1171C9.74663 21.0457 10.698 21.9072 11.6635 22.7017C12.7052 22.1417 13.823 21.4238 14.9741 20.5574C13.785 19.6528 12.6006 18.6142 11.459 17.4655C10.4173 16.4173 9.46124 15.3308 8.61932 14.2347Z" fill="#88D38B"/>
<path d="M27.7405 17.9011C27.2648 16.7189 26.6322 15.4936 25.8759 14.2683C25.1671 15.3692 24.3633 16.47 23.4643 17.5517C23.783 18.1452 24.0588 18.734 24.2872 19.3083C25.1434 21.4382 25.2718 23.2379 24.6201 23.8984C23.9685 24.5541 22.1752 24.4249 20.0586 23.5634C19.4783 23.3288 18.8789 23.0416 18.2796 22.7162C17.1903 23.6112 16.082 24.4201 14.9785 25.1141C16.2247 25.8991 17.4662 26.55 18.6649 27.0382C20.3392 27.7227 21.8803 28.0625 23.236 28.0625C24.8865 28.0625 26.2564 27.5551 27.2553 26.55C29.0723 24.7216 29.2483 21.6488 27.7405 17.9059V17.9011Z" fill="#88D38B"/>
<path d="M11.7257 10.6495C12.8197 9.54867 13.9185 8.5914 14.984 7.76337C16.1113 6.89226 17.2101 6.16952 18.2375 5.59038C19.8738 4.6714 21.3436 4.11619 22.5042 3.90081L20.9773 0.397217C20.3209 0.564738 19.6359 0.789695 18.9272 1.07687C17.6429 1.59858 16.3111 2.31175 14.9745 3.17328C13.8852 3.87687 12.796 4.68098 11.7257 5.57602C10.8267 6.32747 9.942 7.13158 9.08582 7.9979C8.1345 8.95516 7.24502 9.95072 6.43164 10.9558C7.03573 12.0376 7.76824 13.1384 8.61016 14.2297C9.51867 13.014 10.5604 11.8078 11.7162 10.6447L11.7257 10.6495Z" fill="#046241"/>
<path d="M25.2103 6.5907C25.0961 7.256 24.8773 8.00745 24.5587 8.80677C24.278 9.50557 23.9308 10.2283 23.5217 10.9558C22.9176 12.0375 22.1851 13.1384 21.3432 14.2297C20.5013 15.3257 19.5452 16.4122 18.5035 17.4604C17.3191 18.6522 16.13 19.6813 14.9789 20.5524C13.8278 21.4235 12.71 22.1367 11.6683 22.6967C8.58126 24.3575 6.14588 24.7022 5.34202 23.8933C4.69037 23.2375 4.8188 21.4331 5.67498 19.3032C5.90805 18.7288 6.18394 18.1401 6.49787 17.5466C5.59888 16.4649 4.79501 15.364 4.08628 14.2632C3.32523 15.4933 2.69735 16.7138 2.2217 17.896C0.709099 21.6437 0.885093 24.7165 2.70211 26.5449C3.701 27.55 5.07089 28.0574 6.72143 28.0574C8.0723 28.0574 9.61344 27.7175 11.2925 27.0331C12.4912 26.5449 13.7326 25.8939 14.9789 25.109C16.0824 24.4102 17.1907 23.6061 18.28 22.711C19.2503 21.9117 20.2064 21.0454 21.1339 20.1169C21.9616 19.284 22.7416 18.4225 23.4646 17.5514C24.3636 16.4697 25.1675 15.3688 25.8762 14.268C26.7562 12.8991 27.4792 11.5302 28.0119 10.2139C28.3021 9.49121 28.5304 8.79719 28.6921 8.12711L25.2103 6.5907Z" fill="#046241"/>
<path d="M42.5999 22.4579C40.4309 22.4579 38.1335 21.8501 36.1262 20.3711C35.8408 20.2083 35.8408 19.9882 35.9978 19.7297L37.2107 17.6429C37.3725 17.3557 37.5627 17.3222 37.8481 17.5136C39.2846 18.5714 41.0065 19.1506 42.6665 19.1506C44.3266 19.1506 45.6347 18.5092 45.6347 17.2887C45.6347 16.0059 44.103 15.6518 42.6665 15.3933C40.274 14.9434 36.2261 13.9478 36.2261 10.0661C36.2261 6.5051 39.5748 5.02612 42.99 5.02612C44.807 5.02612 46.6573 5.47604 48.5409 6.50031C48.7978 6.62954 48.8596 6.88322 48.7027 7.14168L47.4897 9.19501C47.328 9.41997 47.1092 9.48219 46.8523 9.35775C45.6727 8.71638 44.2362 8.29997 42.7997 8.29997C40.9161 8.29997 39.8982 9.00356 39.8982 10.0661C39.8982 11.3824 41.3347 11.703 43.4371 12.1195C46.0532 12.6029 49.3686 13.4357 49.3686 17.1259C49.3686 20.8162 46.4338 22.4531 42.6047 22.4531L42.5999 22.4579Z" fill="#323C29"/>
<path d="M58.5117 6.14526C62.4596 6.14526 65.3897 8.19381 65.3897 12.736V16.0482C65.3897 19.9921 62.5785 22.4571 58.778 22.4571C57.5794 22.4571 56.5044 22.1842 55.6101 21.7965V27.363C55.6101 27.6646 55.4627 27.813 55.163 27.813H52.5897C52.29 27.813 52.1426 27.6646 52.1426 27.363V7.71039C52.1426 7.47108 52.233 7.31791 52.4708 7.22697C54.2355 6.53296 56.5662 6.14526 58.5117 6.14526ZM61.8603 16.0769V12.7073C61.8603 10.1179 60.576 9.21808 58.4213 9.21808C57.4034 9.21808 56.3284 9.33774 55.6101 9.63928V18.5466C56.3569 19.0588 57.3463 19.389 58.4831 19.389C60.6378 19.389 61.8651 18.336 61.8651 16.0769H61.8603Z" fill="#323C29"/>
<path d="M74.36 19.2647C74.6312 19.2647 75.1068 19.236 75.5872 19.2025C75.8869 19.2025 76.0676 19.3509 76.0676 19.6237V21.9116C76.0676 22.1509 75.9487 22.3615 75.6491 22.395C75.1401 22.4237 74.5122 22.4572 74.0651 22.4572C70.9543 22.4572 68.5332 20.8634 68.5332 16.8907V3.13482C68.5332 2.862 68.6807 2.71362 68.9803 2.71362H71.254C71.4918 2.71362 71.6726 2.862 71.7011 3.1061L71.9722 6.71978H75.1734C75.4445 6.71978 75.6205 6.86815 75.6205 7.14097V9.3379C75.6205 9.61072 75.4398 9.75909 75.1734 9.75909H72.0008V16.6514C72.0008 18.3075 72.8379 19.2695 74.3648 19.2695L74.36 19.2647Z" fill="#323C29"/>
<path d="M80.3431 4.39779C79.2348 4.39779 78.3691 3.52668 78.3691 2.41146C78.3691 1.29625 79.2348 0.453857 80.3431 0.453857C81.4514 0.453857 82.2886 1.26753 82.2886 2.41146C82.2886 3.5554 81.4799 4.39779 80.3431 4.39779ZM79.0255 22.4566C78.7544 22.4566 78.5784 22.3034 78.5784 21.9923V6.93454C78.5784 6.65693 78.7592 6.50377 79.0255 6.50377H81.6274C81.8985 6.50377 82.046 6.65693 82.046 6.93454V21.9923C82.046 22.2986 81.8985 22.4566 81.6274 22.4566H79.0255Z" fill="#323C29"/>
<path d="M85.3045 22.4575C85.0049 22.4575 84.8574 22.3043 84.8574 21.9932V20.6674C84.8574 20.452 84.9193 20.2653 85.0382 20.1122L92.3348 9.64447H85.7564C85.4568 9.64447 85.3093 9.4913 85.3093 9.2137V6.93541C85.3093 6.6578 85.4568 6.50464 85.7564 6.50464H96.6728C96.9725 6.50464 97.1199 6.6578 97.1199 6.93541V8.16549C97.1199 8.38088 97.0581 8.59626 96.9392 8.74942L89.6093 19.2793H96.8155C97.0866 19.2793 97.2341 19.4325 97.2341 19.7436V21.9932C97.2341 22.2995 97.0866 22.4575 96.8155 22.4575H85.2998H85.3045Z" fill="#323C29"/>
</g>
<defs>
<clipPath id="clip0_1409_2896">
<rect width="96.3067" height="28" fill="white" transform="translate(0.931641 0.057373)"/>
</clipPath>
</defs>
</svg>
