<svg width="68" height="20" viewBox="0 0 68 20" fill="none" xmlns="http://www.w3.org/2000/svg">
<path d="M21.3053 10.5544L16.4017 3.54589C15.8511 2.76402 15.0272 2.24308 14.0822 2.07925C13.1373 1.91517 12.1859 2.12834 11.4042 2.67928C10.622 3.22996 10.1011 4.0538 9.93715 4.99884C9.77333 5.94375 9.9865 6.89484 10.5374 7.67697L14.561 13.3882C15.1187 14.2013 14.9164 15.3249 14.1102 15.8932C13.714 16.1719 13.2332 16.2798 12.7573 16.1976C12.2805 16.1151 11.8643 15.8516 11.5855 15.456L5.3654 6.63061C5.08723 6.23586 4.97946 5.75545 5.0621 5.27806C5.14486 4.80054 5.40777 4.38421 5.80278 4.10591C6.13464 3.87196 6.52005 3.75708 6.92756 3.77682C6.93427 3.77695 6.94072 3.77695 6.94743 3.77695C7.42469 3.77695 7.82602 3.39996 7.84641 2.92771C7.8672 2.43901 7.48627 2.02425 6.99651 2.00333C6.19517 1.96925 5.43 2.19742 4.78011 2.65533C3.1636 3.79498 2.77543 6.03704 3.91468 7.65342L10.1347 16.4786C10.6865 17.2615 11.5104 17.783 12.4546 17.9464C12.6604 17.982 12.8686 18 13.0733 18C13.8112 18 14.5234 17.7731 15.1325 17.3441C16.7286 16.2191 17.1255 13.9896 16.0151 12.371L11.9883 6.65509C11.413 5.83835 11.6093 4.70567 12.4258 4.13052C12.8209 3.85235 13.3012 3.74432 13.779 3.8263C14.2557 3.90893 14.6714 4.17184 14.9488 4.56593L19.8511 11.5725C20.1312 11.9729 20.6859 12.0707 21.0871 11.7908C21.4877 11.5101 21.5856 10.9556 21.3053 10.5547V10.5544Z" fill="black"/>
<path d="M24.6504 15.1925L23.0623 12.9228C22.7815 12.5223 22.227 12.4244 21.8263 12.7047C21.4258 12.9852 21.3279 13.5396 21.608 13.9405L23.1958 16.2102C23.3618 16.4472 23.6337 16.5886 23.9236 16.5886C24.106 16.5886 24.2817 16.5332 24.4322 16.4284C24.8327 16.1478 24.9306 15.5935 24.6504 15.1925Z" fill="#D1171A"/>
<path d="M5.89477 14.9282L4.64643 15.8541C4.25405 16.1374 3.77482 16.2512 3.29006 16.1723C2.81518 16.0937 2.39858 15.8356 2.11699 15.4449C1.53236 14.6351 1.71553 13.5005 2.52517 12.916L3.86522 11.9511C4.05759 11.8127 4.18444 11.6075 4.2226 11.3736C4.26063 11.1396 4.20523 10.9047 4.0668 10.7126C3.92864 10.5202 3.7235 10.3933 3.48954 10.3551C3.25506 10.3171 3.02045 10.3723 2.82807 10.511L1.4871 11.4765C0.711543 12.0363 0.200076 12.8661 0.0469122 13.8127C-0.10612 14.7595 0.118099 15.7082 0.677858 16.4839C1.23577 17.2567 2.06041 17.7679 3.00018 17.9235L3.0136 17.9256C3.20638 17.9568 3.39928 17.9722 3.59113 17.9722C4.3401 17.9722 5.07013 17.737 5.69423 17.2865L6.95165 16.3539C7.34456 16.0624 7.42733 15.5057 7.13613 15.1125C6.84494 14.7199 6.2882 14.6368 5.89464 14.9283L5.89477 14.9282Z" fill="#D1171A"/>
<path d="M29.0555 8.05966C29.0555 8.83442 29.2686 9.32826 29.8011 9.91881C30.1497 10.2965 30.5273 10.674 30.8178 10.9356C31.0598 11.1486 30.9727 11.5068 30.7792 11.7101C30.5952 11.894 30.2466 11.9813 30.0237 11.7684C29.7721 11.5358 29.4525 11.2162 29.1426 10.887C28.6295 10.3447 28.4745 10.1125 28.4358 9.91867H28.4262C28.3777 10.1511 28.2229 10.3738 27.7096 10.9161C27.3997 11.2453 27.0803 11.5648 26.6931 11.9231C26.4508 12.1457 26.0928 12.0103 25.9183 11.8165C25.7247 11.5939 25.6957 11.2646 25.928 11.042C26.3249 10.6738 26.7025 10.2963 27.0511 9.91867C27.5839 9.32813 27.7967 8.83429 27.7967 8.05952V6.70395C27.7967 6.33577 28.0969 6.17116 28.4262 6.17116C28.7554 6.17116 29.0554 6.33577 29.0554 6.70395V8.05952L29.0555 8.05966ZM32.9869 13.6662C32.9869 14.0244 32.6866 14.189 32.3574 14.189C32.0379 14.189 31.7376 14.0244 31.7376 13.6662V6.24893C31.7376 5.89062 32.0379 5.72601 32.3574 5.72601C32.6866 5.72601 32.9869 5.89062 32.9869 6.24893V13.6662Z" fill="#D1171A"/>
<path d="M39.3695 9.04744C39.6697 9.00876 39.8246 9.21205 39.844 9.46377C39.8633 9.73497 39.757 9.96735 39.4664 10.006C38.9048 10.0834 38.1978 10.1414 37.4427 10.1802V10.9163C37.4427 11.2456 37.1715 11.3908 36.8229 11.3908C36.484 11.3908 36.2128 11.2456 36.2128 10.9163V10.2288C35.6029 10.2481 34.9734 10.2481 34.3828 10.2481C34.1019 10.2481 33.9665 10.0255 33.9665 9.75431C33.9665 9.49299 34.1019 9.27008 34.3828 9.27008C35.9514 9.27008 37.7428 9.24113 39.3695 9.04744ZM34.5669 7.45936C34.5669 6.56853 35.3512 6.04575 36.9199 6.04575C38.4886 6.04575 39.2729 6.56853 39.2729 7.45936C39.2729 8.35018 38.4886 8.87309 36.9199 8.87309C35.3512 8.87309 34.5669 8.35018 34.5669 7.45936ZM35.7384 12.6496C35.4672 12.6496 35.3414 12.4269 35.3414 12.1847C35.3414 11.9524 35.4673 11.7295 35.7384 11.7295H40.6282C41.248 11.7295 41.4514 11.9232 41.4514 12.5334V13.0368C41.4514 13.647 41.2478 13.8405 40.6282 13.8405H36.6679C36.5905 13.8405 36.5519 13.8792 36.5519 13.9568V14.0536C36.5519 14.1309 36.5905 14.1696 36.6679 14.1696H41.248C41.5192 14.1696 41.6449 14.3925 41.6449 14.6248C41.6449 14.867 41.519 15.0896 41.248 15.0896H36.1837C35.5639 15.0896 35.3606 14.896 35.3606 14.2859V13.7824C35.3606 13.1725 35.5639 12.9786 36.1837 12.9786H40.1441C40.2215 12.9786 40.2603 12.94 40.2603 12.8626V12.7656C40.2603 12.6882 40.2216 12.6496 40.1441 12.6496H35.7383H35.7384ZM38.1107 7.45936C38.1107 7.12053 37.7428 6.96552 36.9198 6.96552C36.0967 6.96552 35.7288 7.12053 35.7288 7.45936C35.7288 7.79818 36.0967 7.95319 36.9198 7.95319C37.7428 7.95319 38.1107 7.79832 38.1107 7.45936ZM41.4515 11.0324C41.4515 11.3616 41.1803 11.5069 40.8318 11.5069C40.5702 11.5069 40.3571 11.4295 40.2702 11.2456H38.8758C38.6239 11.2456 38.4981 11.0324 38.4981 10.8C38.4981 10.5484 38.624 10.3449 38.8758 10.3449H40.2217V6.55893C40.2217 6.20062 40.5219 6.03601 40.8415 6.03601C41.1514 6.03601 41.4516 6.20062 41.4516 6.55893V11.0324H41.4515Z" fill="#D1171A"/>
<path d="M42.8659 13.705C42.5656 13.705 42.4301 13.4627 42.4301 13.182C42.4301 12.9014 42.5656 12.6591 42.8659 12.6591H45.9064V11.0035H44.2991C43.6793 11.0035 43.4759 10.8098 43.4759 10.1997V7.38208C43.4759 6.77193 43.6795 6.57837 44.2991 6.57837H48.7532C49.373 6.57837 49.5763 6.77193 49.5763 7.38208V10.1997C49.5763 10.8098 49.373 11.0035 48.7532 11.0035H47.1459V12.6591H50.1864C50.4864 12.6591 50.622 12.9014 50.622 13.182C50.622 13.4627 50.4864 13.705 50.1864 13.705H42.866H42.8659ZM48.1044 9.95758C48.269 9.95758 48.3273 9.89955 48.3273 9.73494V7.84671C48.3273 7.6821 48.269 7.62407 48.1044 7.62407H44.9478C44.7832 7.62407 44.7252 7.6821 44.7252 7.84671V9.73494C44.7252 9.89955 44.7832 9.95758 44.9478 9.95758H48.1044Z" fill="black"/>
<path d="M52.5014 8.62136H54.3606V7.12052C54.3606 6.77182 54.6608 6.60721 54.9707 6.60721C55.2806 6.60721 55.5806 6.77182 55.5806 7.12052V11.4779C55.5806 12.0878 55.3773 12.2816 54.7576 12.2816H52.1046C51.4848 12.2816 51.2814 12.0879 51.2814 11.4779V7.12052C51.2814 6.77182 51.5816 6.60721 51.8915 6.60721C52.2014 6.60721 52.5014 6.77182 52.5014 7.12052V8.62136ZM54.1379 11.2455C54.3025 11.2455 54.3606 11.1875 54.3606 11.0229V9.65759H52.5014V11.0229C52.5014 11.1875 52.5597 11.2455 52.7243 11.2455H54.1379ZM58.9117 8.89256C59.2215 8.89256 59.3569 9.13454 59.3569 9.42508C59.3569 9.72509 59.2214 9.96734 58.9117 9.96734H58.0015V13.9762C58.0015 14.3343 57.7015 14.499 57.3819 14.499C57.0623 14.499 56.7621 14.3343 56.7621 13.9762V6.55905C56.7621 6.20074 57.0624 6.03613 57.3819 6.03613C57.7014 6.03613 58.0015 6.20074 58.0015 6.55905V8.89269L58.9117 8.89256Z" fill="black"/>
<path d="M62.1852 6.29747C63.6958 6.29747 64.5093 7.14961 64.5093 8.34057C64.5093 9.53154 63.6958 10.3839 62.1852 10.3839C60.6746 10.3839 59.8615 9.5318 59.8615 8.34057C59.8615 7.14934 60.6749 6.29747 62.1852 6.29747ZM62.1852 7.29488C61.372 7.29488 61.0428 7.7791 61.0428 8.34057C61.0428 8.90204 61.372 9.38653 62.1852 9.38653C62.9984 9.38653 63.3279 8.90231 63.3279 8.34057C63.3279 7.77884 62.9987 7.29488 62.1852 7.29488ZM65.555 12.5722C65.7196 12.5722 65.7779 12.5139 65.7779 12.3493V12.2137C65.7779 12.0491 65.7196 11.9911 65.555 11.9911H61.5656C61.2849 11.9911 61.159 11.7586 61.159 11.4973C61.159 11.2454 61.2849 11.013 61.5656 11.013H66.1651C66.7849 11.013 66.9882 11.2067 66.9882 11.8168V12.7076C66.9882 13.3177 66.7849 13.5113 66.1651 13.5113H62.6114C62.4468 13.5113 62.3888 13.5693 62.3888 13.7339V13.8696C62.3888 14.0342 62.4468 14.0922 62.6114 14.0922H66.775C67.0559 14.0922 67.1819 14.3248 67.1819 14.5861C67.1819 14.8379 67.0559 15.0703 66.775 15.0703H62.0013C61.3815 15.0703 61.1782 14.8766 61.1782 14.2666V13.3758C61.1782 12.7656 61.3815 12.5721 62.0013 12.5721L65.555 12.5722ZM66.9882 10.132C66.9882 10.4901 66.6879 10.6547 66.3684 10.6547C66.0489 10.6547 65.7486 10.4901 65.7486 10.132V6.55893C65.7486 6.20062 66.0487 6.03601 66.3684 6.03601C66.6882 6.03601 66.9882 6.20062 66.9882 6.55893V10.132Z" fill="black"/>
</svg>
