<svg width="33" height="20" fill="none" xmlns="http://www.w3.org/2000/svg"><path d="m32.823 11.87-4.728-8.11a1.483 1.483 0 0 0-2.07-.488 1.462 1.462 0 0 0-.52.579l-1.474 2.54a.487.487 0 0 1-.431.252.486.486 0 0 1-.4-.21l-.031-.041-.031-.04L23 6.12a5.514 5.514 0 0 0-1.775-2.058 5.603 5.603 0 0 0-5.26-.617 5.55 5.55 0 0 0-2.212 1.59.172.172 0 0 0-.051.075.512.512 0 0 1-.343.146.503.503 0 0 1-.434-.25l-.739-1.271a1.435 1.435 0 0 0-.41-.447s-.021 0-.031-.02a.474.474 0 0 0-.086-.052h-.02s-.031 0-.041-.023l-.065-.041a.388.388 0 0 1-.086-.04h-.041l-.116-.041c0-.024 0-.024-.02-.024a.37.37 0 0 0-.107-.02.038.038 0 0 1-.03 0H10.691a.038.038 0 0 0-.03 0c-.035 0-.076 0-.107.02-.03.02-.02 0-.03 0l-.107.034h-.04a.2.2 0 0 0-.086.04l-.052.051s-.034 0-.044.02h-.02l-.096.052s-.02 0-.031.02a1.445 1.445 0 0 0-.41.447L6.616 8.919a.484.484 0 0 1-.42.24.483.483 0 0 1-.421-.24L2.738 3.726a1.473 1.473 0 0 0-.893-.676A1.462 1.462 0 0 0 .05 4.076c-.101.37-.05.766.142 1.1l4.676 8.019c.13.266.342.486.606.626.19.11.403.173.622.187h.21c.219-.012.432-.076.622-.187.252-.15.456-.367.588-.626l2.96-5.082v-.02a.138.138 0 0 1 .03-.041.494.494 0 0 1 .4-.21.52.52 0 0 1 .445.27l1.738 2.982a5.56 5.56 0 0 0 3.284 2.714 5.787 5.787 0 0 0 1.653.247c.677.002 1.349-.12 1.98-.362l.103-.044c.307-.136.557-.372.709-.669a1.434 1.434 0 0 0-.392-1.784 1.47 1.47 0 0 0-.926-.315 1.634 1.634 0 0 0-.547.101h-.03a2.715 2.715 0 0 1-2.16-.15 2.618 2.618 0 0 1-.947-.852l-.168-.292a2.487 2.487 0 0 1-.273-1.158c0-.558.18-1.101.515-1.55a2.63 2.63 0 0 1 1.344-.942 2.655 2.655 0 0 1 1.647.034c.531.186.988.535 1.303.997l.031.065.182.301 1.789 3.076c.016.024.03.049.04.075.125.286.34.524.613.678.337.19.736.24 1.11.14.374-.1.693-.341.888-.672l1.54-2.63a.487.487 0 0 1 .42-.23.517.517 0 0 1 .421.23l3.031 5.214c.196.332.516.574.89.673a1.48 1.48 0 0 0 1.802-1.015c.107-.37.064-.765-.119-1.104Z" fill="url(#a)"/><path d="m4.106 15.959.496 1.396.507-1.396h.24l-.65 1.694h-.223l-.633-1.694h.263ZM7.945 17.646h-.243l-.175-.501h-.656l-.182.501h-.24l.63-1.694h.233l.633 1.694Zm-1.026-.698h.506l-.123-.393-.031-.095a.195.195 0 0 1-.024-.07.202.202 0 0 1-.02-.075l-.042-.099c-.008.036-.018.071-.03.105a.736.736 0 0 1-.02.075.188.188 0 0 0-.021.071.336.336 0 0 0-.035.095l-.16.386ZM9.608 15.959v1.49h.81v.197H9.365v-1.694l.243.007ZM13.094 15.959v1.016a.882.882 0 0 1-.045.34.579.579 0 0 1-.126.22.552.552 0 0 1-.199.125c-.089.026-.18.04-.274.04a.764.764 0 0 1-.273-.04.397.397 0 0 1-.202-.126.59.59 0 0 1-.127-.22 1.009 1.009 0 0 1-.04-.339V15.96h.232v.98c0 .08.007.16.02.24a.29.29 0 0 0 .076.155.28.28 0 0 0 .123.092.42.42 0 0 0 .181.034.438.438 0 0 0 .178-.034.292.292 0 0 0 .127-.091.743.743 0 0 0 .075-.156c.013-.08.02-.16.02-.24v-.98h.254ZM15.704 15.959v.197h-.831v.521h.776v.197h-.776v.566h.841v.196H14.64v-1.694h1.064v.017ZM20.21 17.46a.708.708 0 0 1-.274.166c-.102.03-.209.043-.315.04a.762.762 0 0 1-.274-.04.565.565 0 0 1-.342-.366 1.01 1.01 0 0 1-.051-.322v-.25a.888.888 0 0 1 .051-.312.554.554 0 0 1 .35-.366.762.762 0 0 1 .273-.04.918.918 0 0 1 .304.04.92.92 0 0 1 .254.135l-.117.187a.686.686 0 0 0-.226-.116.761.761 0 0 0-.218-.03.404.404 0 0 0-.319.125.435.435 0 0 0-.092.166.875.875 0 0 0-.034.251v.166c0 .084.011.167.034.247a.386.386 0 0 0 .092.17.438.438 0 0 0 .319.125.627.627 0 0 0 .242-.044.565.565 0 0 0 .22-.135l.122.203ZM22.283 17.666a.787.787 0 0 1-.274-.04.496.496 0 0 1-.209-.136.542.542 0 0 1-.137-.23.985.985 0 0 1-.054-.322v-.25a.88.88 0 0 1 .054-.312.64.64 0 0 1 .137-.23.613.613 0 0 1 .209-.136.824.824 0 0 1 .274-.04.797.797 0 0 1 .273.04.459.459 0 0 1 .212.135c.064.065.111.144.137.23.034.101.051.206.052.312v.251c0 .11-.017.218-.052.322a.727.727 0 0 1-.137.23.684.684 0 0 1-.212.136.797.797 0 0 1-.273.04Zm0-1.5c-.061-.001-.121.01-.178.03a.343.343 0 0 0-.137.095.493.493 0 0 0-.096.166.935.935 0 0 0-.03.25v.187a.909.909 0 0 0 .03.247.427.427 0 0 0 .096.17.437.437 0 0 0 .315.125.456.456 0 0 0 .181-.034c.052-.019.1-.05.137-.091a.451.451 0 0 0 .092-.17.788.788 0 0 0 .034-.247v-.2a.809.809 0 0 0-.034-.25.371.371 0 0 0-.092-.166.452.452 0 0 0-.137-.095.521.521 0 0 0-.181-.017ZM24.75 16.447a.343.343 0 0 1-.025-.051c0-.02 0-.03-.02-.054a.407.407 0 0 1-.02-.061.148.148 0 0 1-.021-.075v1.44h-.212V15.99h.342l.462 1.085.455-1.085h.342v1.657h-.223v-1.43a.627.627 0 0 1-.02.072c0 .02 0 .04-.02.05-.021.01 0 .034-.021.055-.02.02 0 .03-.02.05l-.401.919h-.188l-.41-.915ZM27.886 16.447c0-.02 0-.03-.02-.051a.257.257 0 0 1-.024-.054.42.42 0 0 1-.02-.061.149.149 0 0 1-.021-.075v1.44h-.223V15.99h.343l.475 1.085.455-1.085h.342v1.657h-.219v-1.43c0 .031 0 .051-.024.072-.024.02 0 .04-.02.05-.02.01 0 .034-.02.055-.021.02 0 .03-.021.05l-.424.932h-.189l-.39-.928Z" fill="#515151"/><defs><linearGradient id="a" x1="4.329" y1="8.536" x2="28.064" y2="8.536" gradientUnits="userSpaceOnUse"><stop stop-color="#7C56F6"/><stop offset="1" stop-color="#FF4593"/></linearGradient></defs></svg>