<svg width="65" height="20" fill="none" xmlns="http://www.w3.org/2000/svg"><path d="m7.578 8.426-1.524 2.765H5.2L6.72 8.426h.858ZM9.48 10.547l1.168-2.12h.844l-1.419 2.581a.343.343 0 0 1-.278.183H8.709l-.091-2.122-1.164 2.122h-.848l1.423-2.592a.456.456 0 0 1 .119-.123.324.324 0 0 1 .16-.05h1.08l.092 2.121ZM12.915 11.19h-2.454l.534-.497a.945.945 0 0 1 .155-.114.373.373 0 0 1 .146-.022h1.824c.07-.001.14-.024.197-.064a.456.456 0 0 0 .155-.16.174.174 0 0 0 .023-.164.123.123 0 0 0-.124-.064h-1.405a1.039 1.039 0 0 1-.356-.055.457.457 0 0 1-.219-.164.397.397 0 0 1-.063-.265.821.821 0 0 1 .114-.356c.073-.13.165-.248.273-.35.106-.105.226-.194.356-.265a1.49 1.49 0 0 1 .397-.165c.136-.039.278-.059.42-.059h2.002l-.529.497a.714.714 0 0 1-.15.11.356.356 0 0 1-.146.023h-1.497a.36.36 0 0 0-.191.059.456.456 0 0 0-.142.15.177.177 0 0 0-.022.156.114.114 0 0 0 .114.059h1.537a.73.73 0 0 1 .297.06c.077.035.14.098.173.177a.5.5 0 0 1 .036.265 1.05 1.05 0 0 1-.123.351c-.07.13-.16.248-.264.351-.1.101-.21.191-.329.27a1.439 1.439 0 0 1-.37.173c-.115.04-.237.062-.36.064h-.009Z" fill="#004DA0"/><path d="m12.263 16.88-.22-.146-7.814-3.938h-.036a.698.698 0 0 0-.913.995l.233.219 6.026 5.72a.976.976 0 0 0 1.369-.031l1.41-1.45a.967.967 0 0 0-.055-1.37Z" fill="#717071"/><path d="m3.134 12.318.146-.215 3.937-7.828v-.032a.698.698 0 0 0-.994-.913l-.224.233L.27 9.58a.972.972 0 0 0 .032 1.369l1.46 1.369a.972.972 0 0 0 1.373 0Z" fill="#004DA0"/><path d="m7.755 3.13.22.15 7.81 3.923h.032a.698.698 0 0 0 .912-.994l-.228-.219L10.493.27A.972.972 0 0 0 9.124.3L7.755 1.756a.976.976 0 0 0 0 1.374Z" fill="#C8C9CA"/><path d="M16.88 7.687s-.05.082-.146.219l-3.924 7.82v.027a.693.693 0 0 0 .128.848.703.703 0 0 0 .867.078l.219-.233 5.711-6.03a.972.972 0 0 0-.032-1.37l-1.46-1.368a.972.972 0 0 0-1.363.01Z" fill="#9E9E9F"/><path d="M23.403 7.413v4.8h-1.309v-4.8h1.31ZM28.111 11.104v-3.69h1.3v4.488c0 .08-.029.159-.082.22a.26.26 0 0 1-.196.09h-1.66l-1.926-3.686v3.687h-1.304V7.71a.31.31 0 0 1 .082-.21.256.256 0 0 1 .196-.087h1.66l1.93 3.691ZM34.32 12.213h-4.165l.41-.858a.644.644 0 0 1 .142-.205.429.429 0 0 1 .21-.032h3.193a.324.324 0 0 0 .247-.114.41.41 0 0 0 .105-.283.415.415 0 0 0-.105-.283.319.319 0 0 0-.247-.11h-2.559c-.201 0-.402-.032-.593-.095a1.477 1.477 0 0 1-.483-.288 1.37 1.37 0 0 1-.32-.456 1.524 1.524 0 0 1-.114-.611 1.57 1.57 0 0 1 .114-.62 1.37 1.37 0 0 1 .32-.457c.14-.127.304-.225.483-.287.19-.066.391-.098.593-.096h3.458l-.388.862a.759.759 0 0 1-.132.192.456.456 0 0 1-.214.036h-2.701a.283.283 0 0 0-.228.105.424.424 0 0 0 0 .525.283.283 0 0 0 .228.105h2.737a1.26 1.26 0 0 1 .922.415c.116.137.21.29.278.456.072.193.107.397.105.602.002.209-.034.416-.105.612-.07.165-.164.318-.278.456a1.228 1.228 0 0 1-.913.41v.019Z" fill="#004DA0"/><path d="M41.734 10.274c0-.566-.05-1.246-.05-1.94a26.728 26.728 0 0 1-.612 1.826l-.661 1.824h-.968l-.579-1.824a21.662 21.662 0 0 1-.493-1.848c-.027.639-.059 1.369-.09 1.953l-.106 1.792H37.03l.342-4.717h1.633l.534 1.579c.174.543.338 1.131.456 1.683h.032c.146-.547.329-1.163.516-1.692l.57-1.57h1.61l.288 4.717h-1.19l-.087-1.783ZM46.255 12.158c-1.602 0-2.55-1.058-2.55-2.4 0-1.414 1.049-2.472 2.64-2.472 1.666 0 2.574 1.085 2.574 2.386 0 1.555-1.072 2.486-2.655 2.486h-.01Zm.059-.849c.826 0 1.3-.68 1.3-1.601 0-.849-.456-1.574-1.3-1.574-.844 0-1.319.712-1.319 1.597s.489 1.578 1.31 1.578h.009ZM49.726 7.432a11.05 11.05 0 0 1 1.583-.105 3.417 3.417 0 0 1 1.602.264 1.022 1.022 0 0 1 .643.935 1.104 1.104 0 0 1-.885 1 1.227 1.227 0 0 1 1.076 1.163 1.181 1.181 0 0 1-.56.999c-.398.274-1.055.429-2.136.429-.442.004-.884-.02-1.323-.073V7.432Zm1.214 1.797h.401c.653 0 .99-.228.99-.58 0-.35-.315-.547-.871-.547a2.775 2.775 0 0 0-.52.037v1.09Zm0 2.094c.151.02.304.028.456.023.552 0 1.045-.187 1.045-.69 0-.501-.493-.66-1.104-.66h-.415l.018 1.327ZM55.812 7.363v4.717h-1.223V7.363h1.223ZM56.884 7.363h1.223v3.823h2.153v.913h-3.376V7.363ZM64.21 10.087h-1.993v1.117h2.231v.876h-3.453V7.363h3.33v.876h-2.117v.976h1.994l.009.872Z" fill="#656464" stroke="#656464" stroke-width=".383" stroke-miterlimit="10"/></svg>