<svg width="34" height="20" viewBox="0 0 34 20" fill="none" xmlns="http://www.w3.org/2000/svg">
<mask id="mask0_1064_10464" style="mask-type:luminance" maskUnits="userSpaceOnUse" x="0" y="0" width="33" height="20">
<path d="M33 0H0V20H33V0Z" fill="white"/>
</mask>
<g mask="url(#mask0_1064_10464)">
<path d="M29.413 3.46752C29.4559 3.56712 29.4684 3.67726 29.4489 3.784C29.4294 3.89073 29.3789 3.98927 29.3037 4.06711C29.2285 4.14496 29.132 4.19862 29.0264 4.2213C28.9209 4.24398 28.811 4.23465 28.7107 4.19451C28.6104 4.15436 28.5242 4.08519 28.4631 3.99577C28.4019 3.90635 28.3685 3.8007 28.3672 3.69219C28.3658 3.58369 28.3965 3.47721 28.4553 3.38625C28.5142 3.29528 28.5986 3.22393 28.6978 3.18122C28.8305 3.12413 28.9802 3.1222 29.1142 3.17586C29.2483 3.22953 29.3557 3.3344 29.413 3.46752Z" fill="#03328D"/>
<path d="M28.0786 2.40809C28.0219 2.60014 27.9098 2.77097 27.7565 2.89897C27.6032 3.02697 27.4156 3.10638 27.2174 3.12718C27.0192 3.14797 26.8193 3.1092 26.643 3.01577C26.4667 2.92234 26.322 2.77846 26.2271 2.60231C26.1321 2.42617 26.0913 2.22569 26.1098 2.02622C26.1282 1.82676 26.2051 1.63727 26.3307 1.48174C26.4563 1.32621 26.625 1.21162 26.8154 1.15246C27.0058 1.0933 27.2093 1.09224 27.4003 1.14941C27.5272 1.18709 27.6454 1.24958 27.7482 1.33329C27.851 1.417 27.9364 1.52028 27.9994 1.63721C28.0624 1.75414 28.1018 1.88243 28.1154 2.01472C28.129 2.147 28.1165 2.28068 28.0786 2.40809Z" fill="#03328D"/>
<path d="M29.43 10.5023C29.4722 10.602 29.484 10.7121 29.464 10.8186C29.444 10.9251 29.3931 11.0233 29.3176 11.1006C29.2421 11.178 29.1455 11.2312 29.04 11.2534C28.9344 11.2757 28.8247 11.266 28.7247 11.2255C28.6247 11.1851 28.5388 11.1158 28.4779 11.0263C28.4171 10.9368 28.384 10.8312 28.3828 10.7228C28.3816 10.6145 28.4124 10.5082 28.4713 10.4174C28.5302 10.3266 28.6146 10.2554 28.7137 10.2128C28.7796 10.1842 28.8505 10.169 28.9223 10.168C28.9941 10.1671 29.0653 10.1805 29.1319 10.2074C29.1985 10.2343 29.2591 10.2742 29.3103 10.3249C29.3615 10.3755 29.4021 10.4358 29.43 10.5023Z" fill="#03328D"/>
<path d="M28.2348 12.5056C28.2576 12.5591 28.2641 12.6183 28.2534 12.6755C28.2427 12.7328 28.2155 12.7856 28.175 12.8273C28.1345 12.8689 28.0827 12.8976 28.026 12.9097C27.9693 12.9218 27.9103 12.9167 27.8565 12.8951C27.8027 12.8736 27.7564 12.8364 27.7236 12.7884C27.6907 12.7405 27.6728 12.6838 27.6719 12.6255C27.6711 12.5673 27.6875 12.5101 27.7189 12.4612C27.7504 12.4123 27.7956 12.3739 27.8488 12.3508C27.8842 12.3352 27.9223 12.3269 27.961 12.3262C27.9997 12.3256 28.0381 12.3327 28.074 12.3471C28.1099 12.3615 28.1426 12.3829 28.1702 12.4101C28.1978 12.4373 28.2198 12.4698 28.2348 12.5056Z" fill="#03328D"/>
<path d="M27.3356 4.77112C27.4068 4.93851 27.427 5.12338 27.3937 5.30233C27.3604 5.48128 27.275 5.64628 27.1484 5.77645C27.0218 5.90663 26.8596 5.99613 26.6824 6.03365C26.5052 6.07116 26.3208 6.055 26.1528 5.9872C25.9847 5.91941 25.8404 5.80303 25.7381 5.65278C25.6358 5.50254 25.5802 5.32517 25.5782 5.14312C25.5762 4.96108 25.6279 4.78252 25.7269 4.63004C25.8258 4.47757 25.9676 4.35802 26.1341 4.28652C26.3574 4.19097 26.6093 4.18832 26.8345 4.27916C27.0597 4.37 27.2399 4.54692 27.3356 4.77112Z" fill="#03328D"/>
<path d="M32.8817 4.57078C32.9955 4.83926 33.0276 5.13565 32.9739 5.42247C32.9203 5.7093 32.7832 5.97369 32.5801 6.18222C32.377 6.39076 32.1169 6.53409 31.8328 6.59409C31.5486 6.65409 31.2532 6.62807 30.9838 6.51932C30.7143 6.41057 30.483 6.22397 30.3191 5.98311C30.1551 5.74224 30.0659 5.45792 30.0626 5.16609C30.0594 4.87425 30.1423 4.58799 30.3008 4.3435C30.4594 4.099 30.6865 3.90724 30.9534 3.79245C31.3118 3.63865 31.7163 3.63424 32.0779 3.7802C32.4395 3.92617 32.7286 4.21054 32.8817 4.57078Z" fill="#03328D"/>
<path d="M29.483 6.11039C29.5436 6.2531 29.5606 6.41065 29.5321 6.56313C29.5036 6.7156 29.4308 6.85616 29.3228 6.96704C29.2149 7.07791 29.0767 7.15413 28.9256 7.18606C28.7746 7.21799 28.6175 7.2042 28.4743 7.14642C28.3311 7.08865 28.2081 6.98949 28.1209 6.86148C28.0337 6.73346 27.9862 6.58234 27.9844 6.4272C27.9827 6.27207 28.0267 6.11989 28.1109 5.98989C28.1951 5.85989 28.3158 5.75791 28.4577 5.69684C28.552 5.65594 28.6534 5.63421 28.7561 5.63288C28.8588 5.63155 28.9607 5.65066 29.056 5.6891C29.1513 5.72754 29.2381 5.78455 29.3114 5.85685C29.3847 5.92916 29.443 6.01532 29.483 6.11039Z" fill="#03328D"/>
<path d="M31.7494 0.922501C31.8668 1.19888 31.9 1.50404 31.8449 1.79941C31.7897 2.09477 31.6487 2.36707 31.4397 2.58188C31.2306 2.79668 30.9629 2.94435 30.6703 3.00621C30.3778 3.06806 30.0735 3.04133 29.7961 2.92939C29.5187 2.81745 29.2805 2.62533 29.1117 2.37731C28.9429 2.1293 28.851 1.83654 28.8477 1.53604C28.8444 1.23554 28.9298 0.940799 29.0931 0.689088C29.2564 0.437377 29.4903 0.239998 29.7652 0.121907C30.1339 -0.0361963 30.55 -0.0406833 30.9221 0.109432C31.2941 0.259547 31.5917 0.551986 31.7494 0.922501Z" fill="#03328D"/>
<path d="M31.5316 8.23738C31.6132 8.42872 31.6365 8.64008 31.5985 8.84473C31.5606 9.04938 31.4631 9.2381 31.3183 9.38699C31.1736 9.53589 30.9882 9.63827 30.7855 9.68118C30.5829 9.72408 30.3721 9.70557 30.18 9.628C29.9878 9.55043 29.8228 9.41728 29.706 9.24542C29.5891 9.07355 29.5256 8.87069 29.5235 8.66253C29.5214 8.45436 29.5808 8.25025 29.6942 8.07604C29.8075 7.90182 29.9698 7.76533 30.1603 7.68386C30.4152 7.57458 30.7028 7.5715 30.96 7.67529C31.2171 7.77909 31.4227 7.98126 31.5316 8.23738Z" fill="#03328D"/>
<path d="M1.07813 12.9375C1.518 12.8145 2.08762 13.0276 1.74796 11.1751C1.4083 9.32265 1.25323 6.93359 3.31125 6.95162C3.31125 6.95162 4.81653 6.8021 4.04121 9.46792C2.94311 13.2354 -0.172924 18.7601 3.5507 19.8809C3.5507 19.8809 5.07391 20.3613 6.15724 18.6021C7.28277 16.7718 7.26167 17.3678 7.24058 18.284C7.21737 19.3019 8.03699 19.8427 8.42412 19.9201C8.79121 19.9933 10.9031 20.6571 13.3567 16.3053C13.7427 15.6203 17.69 6.84028 14.3851 6.53276C13.3925 6.43945 12.9853 7.0778 13.3071 8.92712C14.2353 14.2555 11.1109 16.986 10.0117 16.5799C9.31125 16.3201 9.05176 15.7942 9.47475 13.4804C9.89775 11.1666 11.2343 6.4299 9.00429 6.41505C7.88931 6.41081 7.29332 7.35455 8.01695 9.20493C9.75113 13.6373 6.28488 17.0433 4.75851 16.5799C4.75851 16.5799 3.54859 16.5545 4.48847 13.4295C5.45893 10.2027 6.83868 6.36309 3.31336 6.28568C1.70577 6.24963 0.139312 8.05971 7.14525e-05 11.1263C-0.0800974 13.052 1.07813 12.9375 1.07813 12.9375Z" fill="#E60012"/>
<path d="M16.5716 16.5065C16.4809 18.0567 17.3585 18.3749 18.6476 18.3749C19.4621 18.3593 20.2672 18.1962 21.0241 17.8934V19.343C20.2179 19.6911 19.3509 19.8746 18.4735 19.8827C16.3163 19.8827 15.0273 18.4427 15.0273 16.3188C15.0273 14.1948 16.272 12.5332 18.3132 12.5332C20.6159 12.5332 21.2087 14.5416 21.2087 15.8373C21.2094 16.0616 21.1907 16.2855 21.1528 16.5065H16.5716ZM19.5136 15.27C19.5241 14.6677 19.2594 13.7855 18.1803 13.7855C17.2003 13.7855 16.791 14.5988 16.7151 15.27H19.5136Z" fill="#03328D"/>
<path d="M25.3242 9.41797H26.9877V19.7239H25.3242V9.41797Z" fill="#03328D"/>
<path d="M22.5977 9.41797H24.2612V19.7239H22.5977V9.41797Z" fill="#03328D"/>
<path d="M17.4141 7.43488C17.4134 7.35568 17.4255 7.27689 17.45 7.2016C17.4724 7.13036 17.511 7.06537 17.5628 7.01179C17.6118 6.95641 17.6719 6.91198 17.739 6.88136C17.8822 6.82197 18.043 6.82197 18.1863 6.88136C18.254 6.91253 18.3149 6.95686 18.3656 7.01179C18.416 7.06626 18.4541 7.131 18.4774 7.2016C18.5266 7.3539 18.5266 7.51798 18.4774 7.67029C18.4534 7.74184 18.4154 7.80783 18.3656 7.86434C18.3142 7.91702 18.2533 7.95947 18.1863 7.98946C18.043 8.04885 17.8822 8.04885 17.739 7.98946C17.6726 7.95994 17.6127 7.9174 17.5628 7.86434C17.5116 7.80869 17.4731 7.74246 17.45 7.67029C17.4253 7.59432 17.4132 7.51479 17.4141 7.43488ZM17.6251 7.43488C17.6244 7.48823 17.6311 7.54141 17.6451 7.59288C17.6572 7.63746 17.6796 7.67853 17.7105 7.7127C17.7395 7.74635 17.7755 7.77314 17.816 7.79117C17.861 7.81061 17.9095 7.82037 17.9584 7.8198C18.006 7.82006 18.053 7.8103 18.0966 7.79117C18.1396 7.77332 18.1784 7.74659 18.2105 7.7127C18.2404 7.67812 18.2621 7.63714 18.2738 7.59288C18.3038 7.48898 18.3038 7.37866 18.2738 7.27476C18.2621 7.2305 18.2404 7.18952 18.2105 7.15494C18.1781 7.1214 18.1394 7.09471 18.0966 7.07647C18.0531 7.057 18.006 7.04689 17.9584 7.04678C17.9094 7.04658 17.8609 7.05669 17.816 7.07647C17.7758 7.09493 17.7398 7.12166 17.7105 7.15494C17.6796 7.18911 17.6572 7.23018 17.6451 7.27476C17.6313 7.32696 17.6239 7.38087 17.6251 7.43488ZM19.0449 8.15807C19.0513 8.20476 19.044 8.25232 19.0238 8.29486C18.9574 8.38499 18.8308 8.44013 18.642 8.45922C18.5481 8.4783 18.5017 8.51012 18.5017 8.55571C18.5079 8.58179 18.5237 8.60452 18.546 8.61934C18.5794 8.63273 18.6155 8.63852 18.6514 8.6363C18.725 8.63811 18.7977 8.62057 18.8624 8.5854C18.91 8.55395 18.9497 8.51185 18.9784 8.4624C18.9812 8.44933 18.9865 8.43695 18.9941 8.42602C19.0017 8.41508 19.0115 8.40581 19.0228 8.39877C19.0345 8.39126 19.0477 8.38617 19.0615 8.3838C19.0752 8.38144 19.0893 8.38184 19.1029 8.38499C19.1165 8.38873 19.1292 8.39517 19.1402 8.40391C19.1513 8.41265 19.1605 8.42352 19.1673 8.43589C19.1749 8.44729 19.18 8.46016 19.1824 8.47367C19.1847 8.48718 19.1842 8.50104 19.181 8.51436C19.167 8.55352 19.1455 8.58955 19.1177 8.6204C19.0924 8.65434 19.0642 8.68593 19.0333 8.71477C18.9858 8.76182 18.9263 8.79484 18.8614 8.81021C18.7994 8.8277 18.7357 8.83801 18.6715 8.84096C18.6245 8.84508 18.5772 8.84508 18.5301 8.84096C18.4919 8.8338 18.4558 8.81783 18.4247 8.7943C18.3918 8.7725 18.3629 8.74525 18.3392 8.71371C18.3156 8.6827 18.3 8.64625 18.2938 8.60767C18.2881 8.57256 18.2881 8.53674 18.2938 8.50163C18.3002 8.46274 18.3166 8.4262 18.3413 8.39559C18.3698 8.36013 18.4059 8.33151 18.4468 8.31182C18.4973 8.28564 18.5513 8.26706 18.6071 8.25668C18.6662 8.24396 18.7126 8.23229 18.7453 8.22381C18.7717 8.21682 18.7969 8.20611 18.8202 8.192C18.8311 8.18534 18.8391 8.1747 18.8424 8.16231C18.8431 8.15499 18.8423 8.14761 18.8399 8.14065C18.8375 8.13369 18.8337 8.12734 18.8287 8.12201C18.8099 8.11245 18.7895 8.10669 18.7685 8.10505C18.7373 8.10341 18.7059 8.10341 18.6747 8.10505C18.6402 8.10929 18.605 8.11459 18.5692 8.12095L18.4901 8.13898C18.4776 8.14575 18.4636 8.1493 18.4494 8.1493C18.4353 8.1493 18.4213 8.14575 18.4088 8.13898C18.3856 8.12452 18.3681 8.10241 18.3592 8.07642C18.3522 8.06358 18.3486 8.04918 18.3486 8.03453C18.3486 8.01989 18.3522 8.00548 18.3592 7.99265C18.366 7.97956 18.3752 7.96795 18.3865 7.95849C18.3977 7.94902 18.4107 7.94189 18.4247 7.93751C18.4352 7.93751 18.4595 7.93008 18.4985 7.92054C18.5439 7.90984 18.5901 7.90275 18.6367 7.89933C18.6903 7.8935 18.7444 7.8935 18.7981 7.89933C18.8534 7.90429 18.9063 7.92447 18.951 7.95765C18.9738 7.98098 18.9946 8.00616 19.0133 8.03294C19.0308 8.07262 19.0418 8.11487 19.046 8.15807H19.0449ZM18.623 6.81031C18.6495 6.80021 18.6787 6.80021 18.7052 6.81031C18.7188 6.81421 18.7313 6.82095 18.742 6.83009C18.7528 6.83923 18.7614 6.85056 18.7675 6.86333C18.7675 6.86969 18.7822 6.90151 18.8065 6.95771C18.8335 7.03013 18.8533 7.10508 18.8656 7.18145C18.881 7.28246 18.886 7.3848 18.8803 7.48684C18.8777 7.58251 18.8558 7.67666 18.816 7.7636C18.8042 7.78751 18.7839 7.80606 18.759 7.81556C18.7472 7.82079 18.7345 7.82349 18.7216 7.82349C18.7087 7.82349 18.6959 7.82079 18.6841 7.81556C18.6702 7.81116 18.6574 7.80362 18.6468 7.79351C18.6362 7.78341 18.6281 7.771 18.623 7.75724C18.6124 7.73142 18.6124 7.70247 18.623 7.67665C18.6409 7.62502 18.6553 7.57223 18.6662 7.51865C18.6707 7.47423 18.6707 7.42946 18.6662 7.38504C18.6655 7.32775 18.6599 7.27063 18.6493 7.21432C18.6398 7.16342 18.6293 7.11888 18.6187 7.08071C18.6082 7.04254 18.5903 7.00542 18.5713 6.96407C18.5619 6.93731 18.5619 6.90812 18.5713 6.88136C18.5739 6.8662 18.5801 6.85188 18.5893 6.83954C18.5984 6.8272 18.6093 6.81719 18.623 6.81031ZM18.7084 7.14009C18.718 7.13001 18.7294 7.12191 18.7421 7.11627C18.7547 7.11063 18.7684 7.10756 18.7822 7.10722C18.8102 7.10707 18.8372 7.11726 18.8582 7.13585C18.8699 7.14716 18.8852 7.15393 18.9014 7.15494C18.927 7.15784 18.9529 7.15531 18.9774 7.14752C19.0015 7.14313 19.0249 7.13564 19.047 7.12525L19.1124 7.09238C19.125 7.08491 19.139 7.08016 19.1535 7.07842C19.1681 7.07669 19.1828 7.07801 19.1968 7.08229C19.2107 7.08658 19.2237 7.09375 19.2348 7.10333C19.2459 7.11291 19.2548 7.12471 19.2611 7.13797C19.269 7.15167 19.2732 7.16722 19.2732 7.18304C19.2732 7.19886 19.269 7.2144 19.2611 7.2281C19.2486 7.25934 19.2264 7.28572 19.1979 7.30339C19.1798 7.31279 19.1611 7.32094 19.142 7.32778C19.123 7.33414 19.0871 7.34369 19.0365 7.35641C18.9813 7.37057 18.9239 7.37309 18.8677 7.36383C18.8118 7.35634 18.7596 7.33193 18.7179 7.29385C18.6983 7.27196 18.6871 7.24377 18.6863 7.21432C18.6844 7.18752 18.6926 7.16098 18.7095 7.14009H18.7084Z" fill="#03328D"/>
<path d="M20.8269 7.70043C20.8407 7.69804 20.8549 7.6988 20.8684 7.70265C20.882 7.7065 20.8944 7.71336 20.905 7.7227C20.927 7.74084 20.9416 7.76651 20.946 7.79481C20.9502 7.82246 20.9435 7.85066 20.9271 7.87328C20.9091 7.89553 20.8835 7.91026 20.8553 7.91463C20.7994 7.92099 20.7299 7.92523 20.6444 7.92842C20.559 7.9316 20.4704 7.92842 20.3775 7.92842C20.2847 7.92842 20.1856 7.92842 20.0896 7.92842C19.9936 7.92842 19.906 7.92842 19.8269 7.92099H19.6296H19.543C19.5283 7.92082 19.5137 7.91753 19.5003 7.91132C19.4869 7.9051 19.4749 7.89612 19.4651 7.88494C19.446 7.863 19.4361 7.83449 19.4376 7.80541C19.4399 7.77794 19.4528 7.75246 19.4735 7.73437C19.4837 7.72447 19.4958 7.71674 19.509 7.71164C19.5223 7.70654 19.5364 7.70417 19.5505 7.70467L19.8194 7.71528C19.8964 7.71528 19.982 7.71528 20.0769 7.72164H20.3628C20.4577 7.72164 20.5463 7.72164 20.6296 7.72164C20.6957 7.71797 20.7616 7.71089 20.8269 7.70043ZM19.7309 6.80546C19.7742 6.76869 19.8249 6.74193 19.8796 6.72708C19.9343 6.71224 19.9916 6.70967 20.0474 6.71957C20.0617 6.72627 20.0745 6.73584 20.085 6.74769C20.0956 6.75954 20.1036 6.77343 20.1085 6.7885C20.1192 6.8165 20.1192 6.84745 20.1085 6.87545C20.103 6.8885 20.094 6.89987 20.0827 6.90843C20.0714 6.91698 20.0582 6.92243 20.0442 6.92423C20.0191 6.92836 19.9936 6.93049 19.9682 6.93059C19.918 6.94376 19.8741 6.974 19.8437 7.01616C19.8133 7.05832 19.7984 7.10978 19.8016 7.16175C19.7962 7.1986 19.8014 7.23621 19.8166 7.2702C19.8317 7.30419 19.8561 7.33314 19.887 7.35369C19.9355 7.37802 19.9894 7.38907 20.0435 7.38572C20.0976 7.38236 20.1499 7.36473 20.195 7.3346C20.2216 7.32505 20.2506 7.32505 20.2772 7.3346C20.2903 7.33782 20.3026 7.34398 20.3131 7.35261C20.3235 7.36124 20.3318 7.37212 20.3375 7.38444C20.3452 7.39658 20.3501 7.41034 20.3518 7.42468C20.3534 7.43902 20.3518 7.45355 20.3469 7.46715C20.343 7.48067 20.3364 7.49327 20.3275 7.50419C20.3186 7.51512 20.3076 7.52415 20.2953 7.53077C20.0843 7.62055 19.9113 7.62444 19.7763 7.54243C19.7131 7.50212 19.6622 7.44503 19.6293 7.37748C19.5963 7.30993 19.5826 7.23454 19.5896 7.15963C19.5959 7.029 19.6457 6.90429 19.7309 6.80546ZM20.617 8.2635C20.625 8.30778 20.6176 8.35348 20.5959 8.39287C20.5337 8.48194 20.4071 8.53602 20.2193 8.55617C20.1233 8.57631 20.0748 8.61131 20.0748 8.66221C20.0775 8.67597 20.0828 8.68906 20.0906 8.70071C20.0984 8.71236 20.1085 8.72234 20.1202 8.73007C20.1558 8.74377 20.1938 8.74991 20.2319 8.7481C20.3058 8.74982 20.3786 8.7315 20.4429 8.69508C20.4946 8.66338 20.5379 8.61976 20.5694 8.56783C20.5717 8.55523 20.5767 8.54324 20.5839 8.53265C20.5911 8.52205 20.6004 8.51308 20.6112 8.50629C20.622 8.49951 20.634 8.49507 20.6466 8.49325C20.6593 8.49143 20.6722 8.49227 20.6845 8.49572C20.7106 8.50302 20.7327 8.5201 20.7466 8.54344C20.7603 8.566 20.7645 8.59308 20.7583 8.61873C20.7452 8.65805 20.7239 8.69416 20.696 8.72477C20.6711 8.75866 20.6433 8.79024 20.6128 8.81914C20.5645 8.86417 20.5056 8.89626 20.4418 8.91246C20.3812 8.92946 20.319 8.93977 20.2562 8.94321C20.209 8.94532 20.1617 8.94319 20.1149 8.93685C20.0767 8.93047 20.0406 8.91522 20.0094 8.89231C19.9772 8.87093 19.9487 8.84443 19.925 8.81384C19.9038 8.78471 19.8887 8.75151 19.8807 8.71628C19.8755 8.68113 19.8755 8.6454 19.8807 8.61025C19.8863 8.57151 19.9019 8.53493 19.9261 8.50421C19.9533 8.47086 19.987 8.44344 20.0251 8.42362C20.075 8.39788 20.1284 8.37932 20.1834 8.36848C20.2436 8.35575 20.2888 8.34409 20.3236 8.33455C20.3493 8.32791 20.3739 8.31755 20.3965 8.30379C20.4035 8.30026 20.4095 8.29518 20.4143 8.28894C20.419 8.28269 20.4224 8.27544 20.4239 8.26774C20.4251 8.25951 20.4244 8.25111 20.4219 8.24321C20.4193 8.2353 20.415 8.22809 20.4092 8.22214C20.3896 8.21068 20.3675 8.20414 20.3448 8.20306C20.3132 8.2004 20.2815 8.2004 20.2499 8.20306C20.213 8.20306 20.1771 8.21154 20.1444 8.2179L20.0652 8.23593C20.0535 8.24272 20.0402 8.2463 20.0267 8.2463C20.0132 8.2463 19.9999 8.24272 19.9882 8.23593C19.9664 8.22234 19.9504 8.20123 19.9429 8.17655C19.9362 8.16478 19.9325 8.15143 19.9325 8.13784C19.9325 8.12426 19.9362 8.11091 19.9429 8.09914C19.9564 8.07522 19.9782 8.05711 20.0041 8.04824L20.0757 8.03127C20.1213 8.02087 20.1675 8.01343 20.214 8.00901C20.2674 8.00425 20.321 8.00425 20.3744 8.00901C20.4281 8.01373 20.4795 8.03317 20.523 8.06521C20.5449 8.08836 20.5651 8.11318 20.5832 8.13943C20.6013 8.1786 20.6127 8.22054 20.617 8.2635ZM20.234 6.69518C20.2758 6.66538 20.3245 6.64677 20.3754 6.6411C20.4217 6.63526 20.4683 6.63526 20.5146 6.6411C20.5535 6.64775 20.5921 6.65732 20.6296 6.66973L20.6792 6.68882C20.6921 6.69498 20.7036 6.7037 20.713 6.71445C20.7225 6.72521 20.7296 6.73777 20.7341 6.75138C20.7401 6.76396 20.7431 6.77773 20.7431 6.79168C20.7431 6.80563 20.7401 6.81939 20.7341 6.83197C20.7224 6.85874 20.7014 6.88025 20.675 6.89242C20.6628 6.89891 20.6492 6.90231 20.6354 6.90231C20.6217 6.90231 20.6081 6.89891 20.5959 6.89242C20.5619 6.8784 20.5266 6.86809 20.4904 6.86166C20.4662 6.85866 20.4418 6.85866 20.4176 6.86166C20.3935 6.86434 20.3704 6.8727 20.3501 6.88605C20.3111 6.91468 20.2868 6.99209 20.2784 7.12252C20.2736 7.16265 20.2775 7.20334 20.2899 7.24179C20.3023 7.28024 20.3228 7.31553 20.3501 7.3452C20.3972 7.36947 20.4502 7.37949 20.5029 7.37403C20.5555 7.36857 20.6054 7.34787 20.6465 7.31445C20.6597 7.30876 20.6738 7.30583 20.6881 7.30583C20.7024 7.30583 20.7167 7.30876 20.7299 7.31445C20.7435 7.31881 20.756 7.32622 20.7665 7.33614C20.7769 7.34606 20.7849 7.35822 20.79 7.37171C20.7954 7.38388 20.7982 7.39707 20.7982 7.41042C20.7982 7.42376 20.7954 7.43695 20.79 7.44912C20.7854 7.46058 20.7784 7.471 20.7697 7.47974C20.761 7.48848 20.7508 7.49538 20.7393 7.50002C20.666 7.55112 20.5799 7.58092 20.4908 7.58615C20.4016 7.59139 20.3128 7.57186 20.234 7.52971C20.1752 7.48151 20.1292 7.41958 20.0997 7.34934C20.0703 7.2791 20.0585 7.20268 20.0652 7.12676C20.0768 6.89242 20.1338 6.75669 20.234 6.69518Z" fill="#03328D"/>
<path d="M22.2719 6.82394C22.3332 6.8127 22.3953 6.80632 22.4576 6.80485C22.5224 6.8025 22.5856 6.82571 22.6337 6.86954C22.6892 6.92379 22.7261 6.99433 22.7392 7.07101C22.7616 7.18763 22.7691 7.30666 22.7614 7.42518C22.7569 7.52503 22.7442 7.62434 22.7234 7.72209C22.7065 7.79716 22.6667 7.86502 22.6095 7.91614C22.5722 7.9512 22.528 7.97794 22.4797 7.99461C22.4234 8.01398 22.365 8.0261 22.3057 8.03066C22.2331 8.03859 22.1602 8.04249 22.0873 8.04233C22.0071 8.04233 21.9101 8.04233 21.7941 8.03066C21.7523 8.03022 21.7111 8.02048 21.6736 8.00215C21.636 7.98381 21.6029 7.95734 21.5768 7.92462C21.5399 7.87795 21.5113 7.82521 21.4924 7.76875C21.4718 7.70429 21.458 7.63782 21.4512 7.57045C21.4418 7.50016 21.4373 7.4293 21.4375 7.35838C21.4375 7.29263 21.4375 7.22795 21.446 7.16538C21.4544 7.10282 21.4565 7.04874 21.4628 6.99678C21.4692 6.94482 21.4734 6.91301 21.4744 6.90029C21.4762 6.88602 21.4809 6.87227 21.4882 6.85987C21.4954 6.84748 21.5051 6.8367 21.5166 6.82818C21.5273 6.81961 21.5398 6.81346 21.5531 6.81017C21.5663 6.80687 21.5802 6.80651 21.5936 6.80909C21.6548 6.81652 21.7097 6.82288 21.7603 6.82606L21.8869 6.83878C21.9382 6.84163 21.9896 6.84163 22.0409 6.83878C22.0652 6.83878 22.1021 6.83878 22.1527 6.83878C22.1928 6.83697 22.2326 6.832 22.2719 6.82394ZM22.7719 8.18442C22.7845 8.17736 22.7986 8.17366 22.813 8.17366C22.8274 8.17366 22.8416 8.17736 22.8542 8.18442C22.8786 8.19775 22.8968 8.22024 22.9048 8.24698C22.9098 8.26005 22.9118 8.27405 22.9107 8.28799C22.9096 8.30193 22.9054 8.31545 22.8985 8.32757C22.8921 8.34012 22.8834 8.35127 22.8727 8.36037C22.862 8.36948 22.8496 8.37635 22.8363 8.38059C22.7401 8.41097 22.6417 8.43366 22.5419 8.44846C22.4428 8.46189 22.3489 8.47143 22.2603 8.47709C22.1685 8.47709 22.081 8.47709 21.9987 8.47709C21.9164 8.47709 21.8468 8.46966 21.7877 8.46436C21.7287 8.45906 21.6749 8.45164 21.639 8.44527C21.6031 8.43891 21.581 8.43467 21.5757 8.43361C21.562 8.43163 21.549 8.4266 21.5375 8.41889C21.526 8.41119 21.5163 8.401 21.5092 8.38907C21.5011 8.37774 21.4953 8.3649 21.4921 8.35129C21.4889 8.33768 21.4884 8.32357 21.4907 8.30977C21.4929 8.29597 21.4979 8.28276 21.5052 8.27089C21.5126 8.25903 21.5222 8.24874 21.5335 8.24062C21.5563 8.2249 21.5843 8.21881 21.6116 8.22365L21.6654 8.23002C21.7002 8.23002 21.7445 8.23956 21.8004 8.2438C21.8563 8.24804 21.9238 8.25546 22.0008 8.25971C22.0778 8.26395 22.1569 8.25971 22.2424 8.25971C22.3317 8.25622 22.4208 8.24808 22.5092 8.23532C22.5979 8.22487 22.6857 8.20785 22.7719 8.18442ZM22.3152 7.03496C22.2814 7.04132 22.236 7.04662 22.1801 7.05192C22.1242 7.05722 22.0746 7.05935 22.0451 7.05935C21.9645 7.06066 21.8838 7.05712 21.8036 7.04874L21.677 7.03496C21.677 7.05935 21.6696 7.10282 21.6654 7.16644C21.6611 7.23007 21.658 7.29581 21.658 7.36368C21.6569 7.44675 21.6629 7.52976 21.6759 7.61181C21.6831 7.67471 21.7072 7.73445 21.7455 7.78465C21.7534 7.79431 21.7632 7.80223 21.7743 7.80788C21.7853 7.81354 21.7975 7.81683 21.8099 7.81752C21.9154 7.82389 22.005 7.82813 22.0736 7.83025C22.1373 7.83178 22.2011 7.8293 22.2645 7.82283C22.3078 7.81956 22.3505 7.81174 22.3922 7.7995C22.4204 7.79165 22.4471 7.7791 22.4713 7.76238C22.4977 7.73225 22.5159 7.6957 22.524 7.65634C22.5418 7.57732 22.5513 7.49665 22.5525 7.41564C22.5563 7.35738 22.5563 7.29893 22.5525 7.24067C22.5498 7.20154 22.5448 7.1626 22.5377 7.12403C22.5331 7.10174 22.526 7.08005 22.5166 7.05935C22.5126 7.04816 22.5057 7.03826 22.4966 7.03071C22.4866 7.0241 22.4754 7.01956 22.4636 7.01738C22.4518 7.01519 22.4397 7.0154 22.428 7.01799L22.3152 7.03496ZM22.0124 8.019C22.0135 8.00608 22.0171 7.99351 22.0231 7.98204C22.029 7.97056 22.0373 7.96041 22.0472 7.95219C22.0675 7.93415 22.094 7.92465 22.1211 7.92568C22.1351 7.92629 22.1488 7.9297 22.1615 7.93571C22.1742 7.94172 22.1855 7.9502 22.1949 7.96068C22.2049 7.97037 22.2127 7.98211 22.2178 7.9951C22.2229 8.00808 22.2252 8.02202 22.2244 8.03596C22.2244 8.0699 22.2223 8.09535 22.2181 8.11231C22.2181 8.13034 22.2181 8.15473 22.2181 8.18442C22.2301 8.23019 22.2449 8.27517 22.2624 8.31909C22.2724 8.34793 22.2724 8.37932 22.2624 8.40816C22.2505 8.43328 22.2293 8.4527 22.2033 8.46224C22.1922 8.46837 22.1797 8.47158 22.1669 8.47158C22.1542 8.47158 22.1417 8.46837 22.1306 8.46224C22.1022 8.4525 22.0765 8.43615 22.0557 8.41452C22.049 8.40543 22.043 8.39586 22.0377 8.38589C22.0279 8.36463 22.0208 8.34217 22.0166 8.31909C22.0101 8.28408 22.0062 8.24864 22.005 8.21305C22.0042 8.14828 22.0067 8.08351 22.0124 8.019Z" fill="#03328D"/>
<path d="M24.0098 7.00612C24.0221 6.99903 24.0358 6.99453 24.0499 6.99289C24.0641 6.99125 24.0784 6.99251 24.0921 6.99658C24.1054 6.9998 24.1179 7.00593 24.1287 7.01454C24.1394 7.02315 24.1482 7.03403 24.1543 7.04642C24.1627 7.06073 24.1701 7.07561 24.1764 7.09095C24.1922 7.12824 24.2056 7.16649 24.2165 7.20547C24.2346 7.26211 24.249 7.31984 24.2598 7.37832C24.273 7.45071 24.2794 7.52421 24.2788 7.59782C24.2788 7.64978 24.2788 7.70386 24.2788 7.75794C24.2761 7.8111 24.269 7.86395 24.2577 7.91594C24.2454 7.96724 24.2285 8.01728 24.207 8.06544C24.184 8.11384 24.153 8.15796 24.1153 8.19588C24.0609 8.24865 23.996 8.28932 23.925 8.31527C23.8539 8.34121 23.7782 8.35183 23.7028 8.34645C23.3958 8.34645 23.226 8.13438 23.1965 7.73143C23.1872 7.64232 23.1851 7.5526 23.1902 7.46315C23.1902 7.38362 23.2039 7.31682 23.2123 7.26274C23.2181 7.2187 23.2269 7.17511 23.2387 7.13231C23.2482 7.1005 23.2545 7.08353 23.2556 7.08035C23.26 7.06674 23.2672 7.05417 23.2766 7.04342C23.286 7.03267 23.2975 7.02395 23.3104 7.01779C23.3231 7.01054 23.3375 7.00672 23.3521 7.00672C23.3667 7.00672 23.381 7.01054 23.3937 7.01779C23.4187 7.02954 23.4392 7.04931 23.4518 7.07399C23.458 7.08613 23.4612 7.09957 23.4612 7.11322C23.4612 7.12687 23.458 7.14032 23.4518 7.15246C23.438 7.20335 23.4285 7.25849 23.4201 7.30091C23.4107 7.36064 23.4044 7.4208 23.4011 7.48118C23.3955 7.55954 23.3955 7.63822 23.4011 7.71658C23.404 7.79338 23.4174 7.8694 23.4412 7.94245C23.4566 7.98778 23.4802 8.02986 23.5108 8.06651C23.5339 8.09247 23.5639 8.11124 23.5973 8.12059C23.6297 8.12925 23.663 8.13353 23.6965 8.13332C23.7439 8.13747 23.7916 8.13128 23.8364 8.11518C23.8812 8.09907 23.922 8.07343 23.956 8.04C23.9808 8.01737 24.0009 7.98997 24.015 7.95941C24.0302 7.92561 24.0408 7.88996 24.0467 7.85337C24.053 7.81414 24.0583 7.77278 24.0615 7.72931C24.0646 7.68583 24.0615 7.64236 24.0615 7.59782C24.0615 7.53632 24.0562 7.47494 24.0456 7.41437C24.0344 7.35923 24.0238 7.31257 24.014 7.2744C24.0003 7.23623 23.9845 7.19593 23.9644 7.15246C23.9565 7.14081 23.9513 7.12749 23.9493 7.11352C23.9473 7.09955 23.9485 7.0853 23.9528 7.07187C23.963 7.04359 23.9833 7.02015 24.0098 7.00612ZM23.206 7.61585C23.208 7.58906 23.2201 7.56405 23.2397 7.54586C23.2502 7.53621 23.2625 7.5288 23.276 7.52406C23.2894 7.51932 23.3036 7.51736 23.3178 7.51829L23.5551 7.5342C23.6255 7.53844 23.7003 7.54056 23.7798 7.54056C24.034 7.52783 24.1754 7.54056 24.2018 7.57767C24.2085 7.58947 24.2126 7.60257 24.2139 7.6161C24.2152 7.62964 24.2135 7.64329 24.2091 7.65614C24.2058 7.66925 24.1996 7.68147 24.191 7.69191C24.1825 7.70236 24.1717 7.71078 24.1596 7.71658C24.1329 7.73249 24.1029 7.74193 24.072 7.74415C24.0309 7.74415 23.9866 7.75158 23.9359 7.75264C23.8853 7.7537 23.8378 7.75264 23.7946 7.75264C23.7513 7.75264 23.7007 7.75264 23.6406 7.75264H23.4612L23.2977 7.74097C23.2698 7.73705 23.2441 7.72357 23.225 7.7028C23.2142 7.69143 23.2067 7.67732 23.2034 7.66199C23.2 7.64666 23.2009 7.6307 23.206 7.61585ZM24.4823 7.00294C24.4959 7.00054 24.5099 7.0014 24.5231 7.00545C24.5363 7.0095 24.5484 7.01664 24.5583 7.02627C24.5786 7.0438 24.5923 7.06772 24.5973 7.09413C24.5973 7.09413 24.5973 7.1217 24.6058 7.16306C24.6142 7.20441 24.6131 7.25319 24.6184 7.31257C24.6237 7.37196 24.6248 7.43982 24.6279 7.51193C24.6311 7.58403 24.6279 7.65614 24.6279 7.72401C24.6279 7.79187 24.6279 7.8661 24.6195 7.93608C24.616 7.99235 24.6053 8.04794 24.5878 8.1015C24.5801 8.12749 24.5627 8.14949 24.5393 8.163C24.5136 8.1736 24.4848 8.1736 24.4591 8.163C24.4452 8.15981 24.4321 8.15362 24.4208 8.14482C24.4095 8.13603 24.4003 8.12487 24.3937 8.11211C24.3874 8.0996 24.3835 8.08594 24.3824 8.07192C24.3813 8.0579 24.383 8.04381 24.3874 8.03046C24.3965 7.99284 24.4025 7.95454 24.4053 7.91594C24.4106 7.86822 24.4127 7.81626 24.4148 7.76112C24.4169 7.70598 24.4148 7.64448 24.4148 7.58191C24.4148 7.51935 24.4148 7.46103 24.4075 7.40165C24.4001 7.34226 24.4001 7.29561 24.3969 7.24153C24.3937 7.18745 24.3895 7.1514 24.3864 7.11958C24.3836 7.10525 24.384 7.09048 24.3877 7.07635C24.3913 7.06222 24.3981 7.04909 24.4075 7.03793C24.4171 7.02721 24.4288 7.01857 24.4418 7.01256C24.4549 7.00654 24.469 7.00327 24.4834 7.00294H24.4823ZM24.4444 7.4271C24.4522 7.41558 24.4621 7.40572 24.4737 7.39808C24.4853 7.39044 24.4983 7.38516 24.5119 7.38256C24.5252 7.37884 24.5391 7.37824 24.5526 7.38082C24.5662 7.38339 24.5789 7.38907 24.5899 7.39741C24.5997 7.40352 24.6113 7.40579 24.6226 7.40377C24.6457 7.40183 24.6686 7.39829 24.6912 7.39316C24.7223 7.38669 24.7527 7.3771 24.7819 7.36453C24.8115 7.35181 24.8389 7.33802 24.8653 7.32424C24.8916 7.31288 24.921 7.31101 24.9486 7.31894C24.9625 7.32275 24.9753 7.32998 24.9858 7.33997C24.9963 7.34996 25.0042 7.36241 25.0087 7.3762C25.0193 7.40201 25.0193 7.43097 25.0087 7.45679C25.0051 7.4708 24.9984 7.48381 24.9891 7.49483C24.9798 7.50585 24.9681 7.5146 24.9549 7.52041L24.879 7.5554C24.8369 7.57417 24.7931 7.58873 24.7482 7.59888C24.7003 7.60998 24.6516 7.61672 24.6026 7.61903C24.5548 7.61944 24.5078 7.6058 24.4676 7.57979C24.4451 7.56238 24.4295 7.53762 24.4233 7.50981C24.4193 7.49445 24.4193 7.47833 24.4231 7.46295C24.427 7.44756 24.4347 7.43341 24.4454 7.42179L24.4444 7.4271Z" fill="#03328D"/>
<path d="M25.0664 7.43475C25.0659 7.35564 25.0776 7.27693 25.1012 7.20146C25.1236 7.13114 25.1606 7.06642 25.2099 7.01165C25.2593 6.95632 25.3197 6.91191 25.3871 6.88122C25.4584 6.85072 25.5353 6.83555 25.6128 6.83669C25.6886 6.83607 25.7637 6.85123 25.8333 6.88122C25.9013 6.91187 25.9624 6.95626 26.0126 7.01165C26.0633 7.06607 26.1018 7.1308 26.1255 7.20146C26.1747 7.35377 26.1747 7.51784 26.1255 7.67015C26.0892 7.77743 26.02 7.8704 25.9279 7.93574C25.8359 8.00107 25.7255 8.03542 25.6128 8.03387C25.5354 8.03449 25.4586 8.01934 25.3871 7.98933C25.3204 7.95982 25.2601 7.91729 25.2099 7.8642C25.1623 7.80715 25.1265 7.7412 25.1044 7.67015C25.0795 7.59418 25.0667 7.51473 25.0664 7.43475ZM25.2774 7.43475C25.2767 7.4881 25.2834 7.54128 25.2974 7.59274C25.3095 7.63733 25.3319 7.6784 25.3628 7.71257C25.3937 7.74646 25.4315 7.77323 25.4736 7.79104C25.5186 7.81036 25.5671 7.82011 25.616 7.81967C25.663 7.81994 25.7095 7.81069 25.7528 7.79247C25.7961 7.77425 25.8353 7.74744 25.8681 7.71363C25.8979 7.67882 25.9199 7.63795 25.9325 7.59381C25.961 7.4897 25.961 7.37979 25.9325 7.27569C25.9199 7.23155 25.8979 7.19067 25.8681 7.15586C25.8357 7.12279 25.7974 7.09615 25.7552 7.07739C25.7113 7.05804 25.6639 7.04795 25.616 7.0477C25.567 7.0476 25.5185 7.0577 25.4736 7.07739C25.4317 7.09567 25.394 7.12238 25.3628 7.15586C25.3319 7.19003 25.3095 7.2311 25.2974 7.27569C25.2833 7.3275 25.2766 7.38104 25.2774 7.43475ZM26.6972 8.15793C26.7039 8.20473 26.6962 8.25248 26.6751 8.29472C26.6107 8.38486 26.4831 8.44 26.2943 8.45908C26.2004 8.47817 26.154 8.50997 26.154 8.55557C26.1599 8.58148 26.1754 8.6042 26.1972 8.6192C26.2308 8.6324 26.2667 8.63818 26.3027 8.63617C26.3762 8.63798 26.449 8.62043 26.5137 8.58527C26.5613 8.55381 26.601 8.51171 26.6297 8.46226C26.6324 8.4492 26.6378 8.43682 26.6454 8.42588C26.653 8.41495 26.6627 8.40568 26.674 8.39864C26.6975 8.38374 26.726 8.37878 26.7531 8.38485C26.7669 8.38846 26.7798 8.39485 26.791 8.40358C26.8022 8.41233 26.8116 8.42327 26.8185 8.43574C26.8261 8.44715 26.8313 8.46002 26.8336 8.47353C26.836 8.48705 26.8355 8.5009 26.8322 8.51421C26.8183 8.55339 26.7967 8.58941 26.769 8.62025C26.744 8.65412 26.7161 8.68571 26.6856 8.71464C26.6375 8.76151 26.5778 8.79447 26.5126 8.81006C26.4507 8.82762 26.387 8.83793 26.3228 8.84082C26.2757 8.84494 26.2284 8.84494 26.1814 8.84082C26.1432 8.83348 26.1071 8.81753 26.0759 8.79417C26.0431 8.77236 26.0142 8.7451 25.9905 8.71357C25.9664 8.68282 25.9507 8.64625 25.9451 8.60753C25.9394 8.57242 25.9394 8.5366 25.9451 8.50149C25.9505 8.4625 25.9666 8.42578 25.9915 8.39545C26.0199 8.35983 26.056 8.33119 26.097 8.31169C26.1474 8.28535 26.2015 8.26676 26.2573 8.25655C26.3154 8.24382 26.3628 8.23216 26.3955 8.22368C26.4212 8.21675 26.4458 8.20603 26.4683 8.19185C26.474 8.18875 26.479 8.18453 26.483 8.17942C26.487 8.17432 26.4899 8.16845 26.4915 8.16217C26.4925 8.15494 26.4918 8.14757 26.4897 8.14061C26.4875 8.13365 26.4838 8.12725 26.4789 8.12188C26.4597 8.1125 26.4389 8.10675 26.4177 8.10491C26.3861 8.10327 26.3544 8.10327 26.3228 8.10491C26.289 8.10491 26.2531 8.11445 26.2173 8.12081L26.1382 8.13884C26.1259 8.14561 26.1121 8.14917 26.0981 8.14917C26.0841 8.14917 26.0703 8.14561 26.058 8.13884C26.0339 8.12483 26.0156 8.10265 26.0063 8.07628C26.0003 8.06294 25.9977 8.04833 25.9986 8.03373C25.9996 8.01914 26.004 8.005 26.0116 7.99251C26.018 7.97925 26.0272 7.96749 26.0385 7.95799C26.0497 7.9485 26.0628 7.94147 26.077 7.93737L26.1498 7.9204C26.1949 7.90987 26.2407 7.90278 26.2869 7.8992C26.3409 7.89337 26.3953 7.89337 26.4493 7.8992C26.5047 7.90416 26.5576 7.92434 26.6023 7.95752C26.6254 7.98056 26.6462 8.00576 26.6645 8.0328C26.6825 8.0723 26.6936 8.11464 26.6972 8.15793ZM26.3871 6.67975C26.3991 6.67456 26.412 6.67188 26.4251 6.67188C26.4381 6.67188 26.4511 6.67456 26.463 6.67975C26.489 6.69285 26.5093 6.71512 26.52 6.74231C26.52 6.74867 26.5295 6.77625 26.5432 6.82502C26.5603 6.89048 26.5727 6.9571 26.5801 7.02437C26.5896 7.11132 26.5949 7.211 26.597 7.32659C26.5973 7.45157 26.5878 7.57637 26.5685 7.69984C26.5634 7.72783 26.548 7.75284 26.5253 7.76982C26.5146 7.7788 26.502 7.78534 26.4886 7.789C26.4751 7.79265 26.461 7.79335 26.4472 7.79104C26.4332 7.7887 26.4199 7.78355 26.4079 7.7759C26.3959 7.76824 26.3856 7.75825 26.3776 7.7465C26.3693 7.73561 26.3633 7.7231 26.3601 7.70978C26.3568 7.69647 26.3563 7.68261 26.3586 7.66909C26.3766 7.55619 26.3855 7.44199 26.385 7.32765C26.3839 7.23693 26.3783 7.14633 26.3681 7.05619C26.3569 6.98125 26.3453 6.92081 26.3333 6.87486C26.3217 6.82926 26.3164 6.80488 26.3164 6.80488C26.312 6.79242 26.3103 6.77918 26.3114 6.76602C26.3125 6.75286 26.3164 6.74008 26.3228 6.72853C26.329 6.71596 26.3381 6.70502 26.3492 6.69656C26.3604 6.6881 26.3734 6.68235 26.3871 6.67975Z" fill="#03328D"/>
</g>
</svg>
