<svg width="62" height="20" fill="none" xmlns="http://www.w3.org/2000/svg"><g clip-path="url(#a)"><path d="M17.442 4.074a1.064 1.064 0 0 1 .766-.285c.284-.009.56.094.767.285a.937.937 0 0 1 .3.715.904.904 0 0 1-.3.706c-.21.185-.483.281-.763.27a1.106 1.106 0 0 1-.774-.27.905.905 0 0 1-.3-.702.927.927 0 0 1 .304-.719Zm.766.056a.648.648 0 0 0-.473.186.643.643 0 0 0-.18.469.622.622 0 0 0 .18.464.655.655 0 0 0 .477.179.649.649 0 0 0 .47-.175.626.626 0 0 0 .172-.464.648.648 0 0 0-.18-.473.622.622 0 0 0-.466-.186Zm2.09 3.203h-2.647V6.09h.4v.917h2.247v.326Zm.47-2.338h-.602v1.381h-.401v-2.87h.4v1.168h.603v.321ZM23.23 5.253l.061.314a7.893 7.893 0 0 1-1.605.162h-.517V3.745h.401v1.651a7.702 7.702 0 0 0 1.66-.143Zm.683.885a.623.623 0 0 1 .353.56.606.606 0 0 1-.353.555c-.313.15-.66.218-1.007.199a2.106 2.106 0 0 1-.999-.199.62.62 0 0 1-.355-.555.61.61 0 0 1 .355-.556c.31-.15.654-.22.999-.202.347-.018.693.05 1.007.198Zm-.305.881a.337.337 0 0 0 .248-.321.33.33 0 0 0-.248-.322 1.685 1.685 0 0 0-.702-.115 1.62 1.62 0 0 0-.69.115.338.338 0 0 0-.248.322.33.33 0 0 0 .248.321c.22.086.454.125.69.115.24.01.479-.029.702-.115Zm-.975-2.036v-.31h1.204v-.345h-1.204v-.317h1.204v-.504h.4V5.92h-.4v-.937h-1.204ZM25.125 6.233l-.053-2.464h.442l-.049 2.464h-.34Zm-.049.794v-.436h.446v.436h-.446ZM28.238 3.654c.27-.009.534.081.742.254a.795.795 0 0 1 .305.643.786.786 0 0 1-.297.643 1.265 1.265 0 0 1-1.489 0 .795.795 0 0 1-.3-.64.814.814 0 0 1 .296-.642 1.11 1.11 0 0 1 .743-.258Zm0 .345a.634.634 0 0 0-.58.336.48.48 0 0 0-.042.22.5.5 0 0 0 .172.396c.125.106.285.16.45.155a.646.646 0 0 0 .457-.159.504.504 0 0 0 .176-.396.519.519 0 0 0-.172-.397.675.675 0 0 0-.461-.155ZM30.38 7.42h-2.7V6.416h2.158v-.35H27.68v-.32h2.572v.972h-2.17v.377h2.298v.325Zm.453-2.746h-.594v.825h-.4V3.507h.4v.853h.594v.314ZM34.644 5.507h-3.61v-.325h3.61v.325Zm-1.873-.718c-.46.091-.93.133-1.4.123V3.677h1.287v.326h-.886v.563c.318.01.635-.025.943-.103l.056.326Zm1.576 2.663h-2.892v-.98h2.339V6.15h-2.367v-.325h2.768v.944h-2.339v.334h2.491v.349Zm-.02-2.54h-1.404V3.677h1.364v.326h-.954v.563h.994v.346ZM38.512 6.011h-3.61v-.33h1.604v-.428h-1.248V4.92h.63l-.116-.719.4-.06.09.795h.902l.1-.794.401.06-.136.722h.642v.333h-1.264v.429h1.605v.325Zm-.345-2.008H35.25V3.68h2.933l-.016.322ZM38.11 7.34h-2.72V6.293h.4v.726h2.32v.322Z" fill="#000"/><path d="M7.352 17.418c-1.28 1.552-3.153 1.19-4.011.178a2.992 2.992 0 0 1-.594-2.187c.024-.46-.028-.674-.618-.686a2.215 2.215 0 0 1-1.57-.715 2.166 2.166 0 0 1-.56-1.619 6.95 6.95 0 0 1 2.058-4.73 3.792 3.792 0 0 0 1.071-2.315 4.07 4.07 0 0 1 1.31-2.75 4.157 4.157 0 0 1 2.866-1.095 4.145 4.145 0 0 1 2.843 1.083A4.058 4.058 0 0 1 11.46 5.3c.105.868.5 1.677 1.124 2.298a7.112 7.112 0 0 1 2.09 4.421c.152 1.64-.722 2.66-2.375 2.719-.289 0-.37.087-.361.349a9.67 9.67 0 0 1-.02 1.095 2.327 2.327 0 0 1-.483 1.345 2.368 2.368 0 0 1-1.182.818c-.47.177-.985.204-1.471.076a2.41 2.41 0 0 1-1.241-.786l-.189-.218ZM5.56 8.107H3.553a.693.693 0 0 0-.53.139 5.632 5.632 0 0 0-1.443 1.951 5.576 5.576 0 0 0-.482 2.37 1.182 1.182 0 0 0 .572.926 1.213 1.213 0 0 0 1.093.083c.32-.135.457-.294.269-.64a3.445 3.445 0 0 1-.333-1.118c-.02-.143 0-.27.184-.306.097 0 .229 0 .241.1.092.77.762 1.345.73 2.166a30.595 30.595 0 0 0 0 2.27c.014.343.151.67.387.92.237.25.556.409.9.446.348.028.693-.073.969-.283.276-.21.463-.514.524-.852.046-.317.063-.637.052-.957 0-.127-.032-.298.169-.301a2.185 2.185 0 0 1 1.067.051c.205.111.056.453.084.69.017.188.044.375.08.56.063.318.238.604.495.805.257.201.578.304.906.29.327-.02.638-.148.882-.364a1.44 1.44 0 0 0 .466-.826 2.973 2.973 0 0 0 0-.568c-.049-1.321-.077-2.635.657-3.83.085-.138.08-.36.313-.317.233.044.197.302.16.46a4.904 4.904 0 0 1-.332 1.036c-.14.282-.044.397.18.54a1.214 1.214 0 0 0 1.6-.432 1.18 1.18 0 0 0 .174-.572 5.611 5.611 0 0 0-.48-2.313 5.666 5.666 0 0 0-1.39-1.918.752.752 0 0 0-.57-.194c-1.023 0-1.03-.02-1.11.956-.029.345-.201.572-.538.508-.514-.095-1.184.37-1.517-.397a.71.71 0 0 1 0-.278 2.178 2.178 0 0 1 0-.396c.044-.33-.092-.421-.4-.397-.683.008-1.353-.008-2.023-.008Zm3.53-2.274h.233c1.204 0 1.288-.116.87-1.263a3.074 3.074 0 0 0-1.287-1.574 3.128 3.128 0 0 0-1.998-.438 3.177 3.177 0 0 0-1.866.965 3.115 3.115 0 0 0-.842 1.909c0 .278.028.42.357.397.63-.024 1.264 0 1.894 0a.405.405 0 0 0 .4-.199.457.457 0 0 1 .411-.28.465.465 0 0 1 .428.252.524.524 0 0 0 .526.227l.875.004Z" fill="#FE0349"/><path d="M5.56 8.107h2.005c.321 0 .457.08.401.397a2.18 2.18 0 0 0 0 .396.711.711 0 0 0 0 .278c.333.754 1.003.29 1.517.397.337.064.51-.163.537-.508.08-.976.088-.968 1.112-.956a.758.758 0 0 1 .57.194 5.667 5.667 0 0 1 1.403 1.911 5.61 5.61 0 0 1 .494 2.312 1.181 1.181 0 0 1-.605.99 1.214 1.214 0 0 1-1.168.014c-.225-.13-.321-.258-.181-.54.148-.327.26-.669.333-1.02.036-.158.12-.396-.16-.46-.281-.064-.23.179-.313.317-.735 1.191-.707 2.509-.658 3.83a2.99 2.99 0 0 1 0 .568c-.057.32-.221.61-.466.826a1.468 1.468 0 0 1-.882.365 1.378 1.378 0 0 1-.906-.291 1.351 1.351 0 0 1-.494-.805 5.223 5.223 0 0 1-.08-.56c-.029-.238.12-.579-.085-.69a2.186 2.186 0 0 0-1.067-.052c-.2 0-.16.175-.168.302.01.32-.007.64-.053.957a1.383 1.383 0 0 1-.524.852c-.276.21-.621.31-.968.283a1.45 1.45 0 0 1-.9-.446 1.42 1.42 0 0 1-.388-.92 30.595 30.595 0 0 1 0-2.27c.032-.821-.638-1.397-.73-2.167 0-.099-.144-.119-.24-.099-.165.036-.205.163-.185.306.045.393.158.775.333 1.13.188.346.052.505-.269.64a1.215 1.215 0 0 1-1.492-.478c-.099-.16-.158-.342-.173-.53a5.576 5.576 0 0 1 .474-2.376 5.63 5.63 0 0 1 1.44-1.958.689.689 0 0 1 .525-.151l2.01.012Z" fill="#FEFCFD"/><path d="M9.09 5.833H8.23a.53.53 0 0 1-.526-.227.458.458 0 0 0-.428-.252.465.465 0 0 0-.41.28.4.4 0 0 1-.401.199H4.572c-.329 0-.373-.131-.357-.397.052-.713.35-1.387.842-1.91a3.176 3.176 0 0 1 1.866-.964A3.128 3.128 0 0 1 8.921 3c.597.366 1.051.92 1.288 1.574.401 1.147.337 1.263-.87 1.263l-.25-.004Zm-.317-.739a.37.37 0 0 0-.1-.254.379.379 0 0 0-.25-.119.365.365 0 0 0-.375.222.354.354 0 0 0-.026.151.35.35 0 0 0 .246.359.36.36 0 0 0 .156.014.379.379 0 0 0 .248-.118.37.37 0 0 0 .1-.255Zm-2.19.056a.37.37 0 0 0-.065-.269.377.377 0 0 0-.233-.152.36.36 0 0 0-.411.164.35.35 0 0 0-.046.15.35.35 0 0 0 .193.389.36.36 0 0 0 .152.035c.22.028.345-.119.41-.317Z" fill="#FDFBFB"/><path d="M8.773 5.094a.37.37 0 0 1-.1.255.379.379 0 0 1-.25.118.36.36 0 0 1-.376-.22.35.35 0 0 1-.025-.153.354.354 0 0 1 .247-.357.365.365 0 0 1 .155-.016c.095.007.184.05.248.119.065.07.1.16.1.254Z" fill="#1C1C1C"/><path d="M6.582 5.15c-.064.198-.188.345-.401.321a.36.36 0 0 1-.276-.133.352.352 0 0 1-.069-.295.35.35 0 0 1 .153-.265.36.36 0 0 1 .304-.049.37.37 0 0 1 .289.42Z" fill="#1E1E1E"/><path d="M45.528 10.428a2.287 2.287 0 0 1 1.244-.85 2.31 2.31 0 0 1 1.508.104c.46.188.847.514 1.11.93.262.418.386.906.355 1.396v3.536c0 .576-.157.727-.714.73-.558.005-.775-.142-.779-.718v-3.488a.982.982 0 0 0-.217-.813 1.003 1.003 0 0 0-.77-.356 1.012 1.012 0 0 0-.77.356.99.99 0 0 0-.217.813v3.492c0 .568-.14.699-.726.703-.585.004-.734-.123-.734-.699V11.98c.003-.272-.099-.536-.285-.737a1.091 1.091 0 0 0-.718-.346 1.08 1.08 0 0 0-.72.354 1.057 1.057 0 0 0-.27.75v2.047c.02.46-.108.914-.364 1.297a2.2 2.2 0 0 1-1.065.838 2.195 2.195 0 0 1-2.584-.5c-.14-.143-.192-.174-.344 0a2.184 2.184 0 0 1-2.575.5 2.223 2.223 0 0 1-1.074-.842 2.186 2.186 0 0 1-.371-1.305c-.04-1.286 0-2.572 0-3.861 0-.493.18-.632.762-.628.582.004.71.143.714.624v3.722c-.006.27.093.53.276.73.182.2.436.322.707.342.277-.018.536-.144.72-.35.184-.206.278-.475.263-.75v-3.571c0-.624.12-.747.726-.747s.734.116.738.739v3.306a2.86 2.86 0 0 0 .044.555c.03.219.135.42.299.57a.968.968 0 0 0 1.587-.455c.057-.194.083-.396.076-.599 0-.635-.028-1.27 0-1.905.016-.453.167-.891.433-1.26a2.333 2.333 0 0 1 1.063-.815 2.359 2.359 0 0 1 2.516.551c.057.061.109.126.156.194Z" fill="#050505"/><path d="M55.867 12.921c.024.418.024.836 0 1.254-.197 1.695-1.77 2.596-3.543 2.056a2.16 2.16 0 0 1-1.23-.847 2.118 2.118 0 0 1-.375-1.435c.073-.929.839-1.64 1.91-1.81a7.6 7.6 0 0 1 1.408-.051c.269 0 .317-.088.273-.33a1.036 1.036 0 0 0-.34-.645 1.058 1.058 0 0 0-.683-.268 4.3 4.3 0 0 0-1.204.143c-.501.115-.674-.028-.838-.607-.124-.44.136-.591.49-.683a5.497 5.497 0 0 1 2.005-.166c.581.062 1.12.332 1.515.758.395.427.62.981.631 1.56v1.071h-.02Zm-2.219.397a4.55 4.55 0 0 0-.654.055.766.766 0 0 0-.443.195.751.751 0 0 0-.235.42.786.786 0 0 0 .401.87 1.021 1.021 0 0 0 1.415-.22.999.999 0 0 0 .19-.483c.128-.75.076-.83-.674-.845v.008ZM33.485 13.044c.014.424-.005.849-.056 1.27a2.428 2.428 0 0 1-.94 1.558 2.479 2.479 0 0 1-1.768.482 2.42 2.42 0 0 1-1.627-.68 2.37 2.37 0 0 1-.72-1.594 13.617 13.617 0 0 1 0-2.18 2.397 2.397 0 0 1 .814-1.697 2.45 2.45 0 0 1 1.798-.608 2.527 2.527 0 0 1 1.773.732 2.473 2.473 0 0 1 .726 1.76c.008.298 0 .592 0 .957Zm-3.719-.06v.882a1.125 1.125 0 0 0 .31.845 1.148 1.148 0 0 0 .835.357 1.158 1.158 0 0 0 .835-.357 1.132 1.132 0 0 0 .31-.845c.028-.588.028-1.175 0-1.763a1.122 1.122 0 0 0-.338-.816 1.144 1.144 0 0 0-1.272-.226 1.156 1.156 0 0 0-.61.645 1.132 1.132 0 0 0-.07.445c-.012.274 0 .556 0 .833ZM27.38 13.774v1.814c0 .524-.165.667-.723.67-.558.005-.75-.126-.754-.678v-3.306c0-.647-.265-1.071-.73-1.234-.75-.266-1.46.266-1.473 1.13v3.35c0 .6-.144.739-.746.739s-.754-.155-.746-.746c0-1.258-.1-2.517.06-3.767.1-.62.429-1.181.922-1.576a2.59 2.59 0 0 1 3.433.176c.45.443.717 1.035.752 1.662.028.588 0 1.19 0 1.766h.004Z" fill="#060606"/><path d="M61.996 13.85v1.857c0 .512-.172.659-.734.659-.561 0-.738-.139-.742-.647v-3.532c0-.794-.425-1.246-1.083-1.25a1.086 1.086 0 0 0-.823.336 1.062 1.062 0 0 0-.284.834v3.441c.024.854-.43.885-1.103.794a.47.47 0 0 1-.305-.174.46.46 0 0 1-.097-.334c0-1.333-.044-2.667.02-3.996.065-1.394 1.232-2.322 2.736-2.283.64.025 1.247.29 1.695.744.448.454.703 1.06.712 1.693.02.62.008 1.238.008 1.858ZM19.223 9.535c.46-.005.919.058 1.36.187.482.15.333.496.257.794-.076.297-.2.61-.634.496a2.583 2.583 0 0 0-1.203-.14c-.281.06-.558.14-.606.493-.02.14.008.283.081.405a.627.627 0 0 0 .32.266c.401.206.802.397 1.228.571.802.377 1.323.929 1.203 1.882a2.04 2.04 0 0 1-.549 1.101c-.293.303-.672.51-1.088.593-.81.207-1.667.131-2.427-.214-.401-.163-.401-.397-.209-.988.129-.35.362-.326.642-.235.407.164.847.23 1.284.191.341-.048.674-.15.75-.524.077-.373-.248-.532-.53-.667-.28-.135-.605-.254-.898-.396a2.078 2.078 0 0 1-1.036-.907 2.045 2.045 0 0 1-.235-1.348c.172-.885.974-1.492 2.073-1.556l.217-.004Z" fill="#050505"/></g><defs><clipPath id="a"><path fill="#fff" d="M0 0h62v20H0z"/></clipPath></defs></svg>