<svg width="72" height="20" viewBox="0 0 72 20" fill="none" xmlns="http://www.w3.org/2000/svg">
<g clip-path="url(#clip0_11_23)">
<path d="M19.6761 10.1192L23.8506 10.3617V12.1234C23.8506 13.0426 23.4335 13.7617 22.5995 14.2809C21.7739 14.8 20.6207 15.0596 19.1399 15.0596C18.2803 15.0596 17.5186 14.9447 16.8548 14.7149C16.191 14.4852 15.659 14.1532 15.259 13.7192C14.859 13.2766 14.6207 12.7447 14.5442 12.1234C14.5186 11.8937 14.4974 11.5915 14.4804 11.2171C14.4633 10.8341 14.4548 10.4171 14.4548 9.966C14.4548 9.51494 14.4633 9.10217 14.4804 8.7277C14.4974 8.35324 14.5186 8.05111 14.5442 7.82132C14.6207 7.19153 14.859 6.65962 15.259 6.22558C15.659 5.78302 16.191 5.44685 16.8548 5.21707C17.5186 4.97877 18.2803 4.85962 19.1399 4.85962C20.1101 4.85962 20.9442 4.97877 21.642 5.21707C22.3484 5.45536 22.8931 5.79579 23.2761 6.23834C23.659 6.67239 23.8506 7.20004 23.8506 7.82132V8.98302L19.6761 9.42983V8.39579C19.6761 8.166 19.5612 8.05111 19.3314 8.05111C19.1016 8.05111 18.9867 8.166 18.9867 8.39579V11.4979C18.9867 11.7277 19.1016 11.8426 19.3314 11.8426C19.5612 11.8426 19.6761 11.7277 19.6761 11.4979V10.1192ZM29.4352 7.82132V5.06387H33.5713V14.8937H29.4352V11.7277H28.4011V14.8937H24.2649V5.06387H28.4011V7.82132H29.4352ZM44.1073 14.8937H39.9711L39.8435 13.7192H38.0307L37.903 14.8937H33.7669L36.2945 5.06387H41.5796L44.1073 14.8937ZM38.5924 8.70217L38.452 9.9277H39.4222L39.2818 8.70217H38.5924ZM48.0345 14.8937H44.243V5.06387H48.7239L49.5792 8.63834H49.6941L49.643 5.06387H53.4345V14.8937H49.2983L48.0856 10.2979H47.9707L48.0345 14.8937ZM59.0341 10.1192L63.2085 10.3617V12.1234C63.2085 13.0426 62.7915 13.7617 61.9575 14.2809C61.1319 14.8 59.9787 15.0596 58.4979 15.0596C57.6383 15.0596 56.8766 14.9447 56.2128 14.7149C55.549 14.4852 55.017 14.1532 54.617 13.7192C54.217 13.2766 53.9787 12.7447 53.9022 12.1234C53.8766 11.8937 53.8553 11.5915 53.8383 11.2171C53.8213 10.8341 53.8128 10.4171 53.8128 9.966C53.8128 9.51494 53.8213 9.10217 53.8383 8.7277C53.8553 8.35324 53.8766 8.05111 53.9022 7.82132C53.9787 7.19153 54.217 6.65962 54.617 6.22558C55.017 5.78302 55.549 5.44685 56.2128 5.21707C56.8766 4.97877 57.6383 4.85962 58.4979 4.85962C59.4681 4.85962 60.3022 4.97877 61 5.21707C61.7064 5.45536 62.2511 5.79579 62.6341 6.23834C63.017 6.67239 63.2085 7.20004 63.2085 7.82132V8.98302L59.0341 9.42983V8.39579C59.0341 8.166 58.9192 8.05111 58.6894 8.05111C58.4596 8.05111 58.3447 8.166 58.3447 8.39579V11.4979C58.3447 11.7277 58.4596 11.8426 58.6894 11.8426C58.9192 11.8426 59.0341 11.7277 59.0341 11.4979V10.1192ZM67.6443 11.0383V11.5617H71.5507V14.8937H63.623V5.06387H71.3209V7.93622H67.6443V8.45962H70.9762V11.0383H67.6443Z" fill="#FF5C00"/>
<path fill-rule="evenodd" clip-rule="evenodd" d="M4.19453 5.10645C1.87795 5.10645 0 6.9844 0 9.30096V14.8937H5.59272C7.90928 14.8937 9.78723 13.0157 9.78723 10.6992V5.10645H4.19453ZM2.55319 10.0001C2.55319 11.1533 3.40947 11.915 4.72651 11.915C5.86966 11.915 6.61728 11.3448 6.80851 10.4483L5.36979 10.1089C5.32196 10.3743 5.1003 10.6093 4.72651 10.6093C4.30485 10.6093 4.0745 10.309 4.07885 10.0001C4.0832 9.69108 4.30485 9.39079 4.72651 9.39079C5.09596 9.39079 5.31762 9.62142 5.36545 9.88257L6.80851 9.54308C6.61289 8.65091 5.86966 8.08517 4.72651 8.08517C3.40947 8.08517 2.55319 8.84679 2.55319 10.0001Z" fill="#FF5C00"/>
<path d="M48.9047 17.0874V17.4103H47.2936V18.2854H48.7834V18.6083H47.2936V19.5458H48.9362V19.8687H46.929V17.0874H48.9047Z" fill="black" fill-opacity="0.4"/>
<path d="M45.0264 19.5388H46.5541V19.8687H44.6617V17.0874H45.0264V19.5388Z" fill="black" fill-opacity="0.4"/>
<path d="M44.097 19.8687H43.7323V17.0874H44.097V19.8687Z" fill="black" fill-opacity="0.4"/>
<path d="M42.2043 17.0874C42.5099 17.0874 42.746 17.1557 42.9128 17.2923C43.0817 17.4288 43.166 17.6175 43.166 17.8583C43.166 17.9902 43.1243 18.1117 43.0413 18.2228C42.96 18.3317 42.8583 18.4011 42.7358 18.4312C42.8975 18.4636 43.032 18.5388 43.1383 18.6569C43.2447 18.7749 43.2979 18.9173 43.2979 19.084C43.2979 19.3247 43.2102 19.5157 43.0341 19.6569C42.8605 19.7981 42.6188 19.8687 42.3085 19.8687H41.0688V17.0874H42.2043ZM42.1939 18.3131C42.3883 18.3131 42.5377 18.2738 42.6417 18.1951C42.746 18.1164 42.7979 18.0041 42.7979 17.8583C42.7979 17.7124 42.746 17.6001 42.6417 17.5214C42.5377 17.4427 42.3883 17.4034 42.1939 17.4034H41.4334V18.3131H42.1939ZM42.2981 19.5528C42.4948 19.5528 42.649 19.5123 42.76 19.4312C42.8732 19.3502 42.9298 19.2345 42.9298 19.084C42.9298 18.9335 42.8732 18.8178 42.76 18.7368C42.649 18.6557 42.4948 18.6152 42.2981 18.6152H41.4334V19.5528H42.2981Z" fill="black" fill-opacity="0.4"/>
<path d="M39.1575 19.9311C38.8797 19.9311 38.6286 19.8686 38.404 19.7435C38.1818 19.6186 38.007 19.4449 37.8797 19.2227C37.7524 19.0005 37.6887 18.7516 37.6887 18.4761C37.6887 18.2007 37.7512 17.9518 37.8762 17.7296C38.0035 17.5074 38.1783 17.3338 38.4006 17.2087C38.6251 17.0838 38.8763 17.0212 39.154 17.0212C39.4318 17.0212 39.6818 17.0838 39.904 17.2087C40.1286 17.3338 40.3046 17.5074 40.4319 17.7296C40.5592 17.9518 40.6228 18.2007 40.6228 18.4761C40.6228 18.7516 40.5592 19.0005 40.4319 19.2227C40.3068 19.4449 40.1321 19.6186 39.9075 19.7435C39.6853 19.8686 39.4353 19.9311 39.1575 19.9311ZM39.1575 19.5977C39.3658 19.5977 39.5534 19.5503 39.72 19.4554C39.889 19.3581 40.021 19.225 40.1159 19.056C40.2108 18.8847 40.2583 18.6915 40.2583 18.4761C40.2583 18.2609 40.2108 18.0687 40.1159 17.8998C40.021 17.7284 39.889 17.5953 39.72 17.5004C39.5534 17.4032 39.3647 17.3546 39.154 17.3546C38.9434 17.3546 38.7547 17.4032 38.588 17.5004C38.4214 17.5953 38.2906 17.7284 38.1957 17.8998C38.1008 18.0687 38.0533 18.2609 38.0533 18.4761C38.0533 18.6915 38.1008 18.8847 38.1957 19.056C38.2906 19.225 38.4225 19.3581 38.5915 19.4554C38.7605 19.5503 38.9491 19.5977 39.1575 19.5977Z" fill="black" fill-opacity="0.4"/>
<path d="M34.7876 17.0874L35.8606 18.9763L36.9335 17.0874H37.2529V19.8687H36.8884V17.8166L35.9925 19.4H35.7286L34.8327 17.8166V19.8687H34.4681V17.0874H34.7876Z" fill="black" fill-opacity="0.4"/>
</g>
<defs>
<clipPath id="clip0_11_23">
<rect width="71.9149" height="20" fill="white"/>
</clipPath>
</defs>
</svg>
