<svg width="71" height="20" fill="none" xmlns="http://www.w3.org/2000/svg"><path d="m36.9 4-4.784 15.908S32.85 13.151 36.9 4Z" fill="#E78821"/><path d="M0 14.663h69.997S33.13 12.74 0 14.663Z" fill="#E78821"/><path d="M44.47 8.812c-.905 1.281-1.802 2.57-2.714 3.84-.136.19-.194.536-.557.44a.768.768 0 0 1-.571-.694c-.22-1.163-.462-2.323-.696-3.487-.022-.114 0-.25-.194-.32-.337 1.224-.673 2.43-1.008 3.62-.26.95-.256.95-1.336.859.285-1.042.567-2.078.846-3.113.322-1.178.655-2.356.956-3.538.07-.272.179-.367.45-.367h.366c.974 0 1.205.205 1.381 1.19.19 1.067.403 2.132.608 3.226.219-.178.399-.4.527-.65.733-1.02 1.432-2.041 2.132-3.072a1.349 1.349 0 0 1 1.355-.698c.398.02.796.02 1.194 0-.15.87-.44 1.656-.656 2.456-.366 1.376-.798 2.734-1.16 4.107-.103.386-.268.521-.656.492-.388-.03-.839 0-1.322 0l1.194-4.2c.044-.09.077-.205 0-.26-.077-.055-.11.103-.14.17ZM0 13.213c.494-1.556.982-3.076 1.465-4.599.238-.734.49-1.468.707-2.228a.537.537 0 0 1 .622-.466c1.165.03 2.33 0 3.494 0 1.744 0 2.66 1.13 2.352 2.848a8.76 8.76 0 0 1-.678 2.11 3.783 3.783 0 0 1-3.344 2.299c-1.52.113-3.05.036-4.618.036Zm2.597-.848h.805a2.3 2.3 0 0 0 2.322-1.644 36.16 36.16 0 0 0 .627-1.938c.116-.322.17-.663.16-1.006a.845.845 0 0 0-.732-.87 9.773 9.773 0 0 0-1.098-.073c-.326-.037-.447.099-.535.404-.366 1.248-.773 2.484-1.157 3.725a7.232 7.232 0 0 0-.392 1.402ZM30.614 13.239c.367-1.19.685-2.316 1.015-3.443.077-.275.311-.584 0-.819a.896.896 0 0 0-.974.03 1.436 1.436 0 0 0-.71.932c-.28.962-.616 1.912-.861 2.87-.11.445-.367.46-.704.412-.461-.06-.652-.232-.659-.62.004-.18.035-.356.092-.526l.732-2.415c.183-.617-.12-.932-.732-.767a1.377 1.377 0 0 0-1.004 1.024c-.286.958-.582 1.916-.85 2.878-.087.315-.205.492-.567.444a9.601 9.601 0 0 1-1.099-.052c.51-1.677 1.01-3.343 1.52-5.01.03-.106 0-.29.165-.279.48.033.989-.183 1.428.125.147.1.22 0 .304-.022a4.247 4.247 0 0 1 1.55-.121c.164 0 .366 0 .453.125.323.43.63.235.997.055a2.745 2.745 0 0 1 1.714-.136 1.035 1.035 0 0 1 .927.928 1.04 1.04 0 0 1-.06.467c-.336 1.215-.732 2.415-1.098 3.626a.342.342 0 0 1-.366.294c-.4-.015-.78 0-1.213 0ZM55.79 8.302a5.544 5.544 0 0 1 2.088-.095 1.205 1.205 0 0 1 .978 1.376 4.34 4.34 0 0 1-.949 2.43 3.037 3.037 0 0 1-3.505.969c-.059-.022-.146-.092-.154-.08-.505.535-1.139.084-1.655.267-.176-.183-.033-.3 0-.422a2243.94 2243.94 0 0 1 1.908-6.2c.14-.444.575-.605 1.143-.43.388.122.494.368.366.864-.106.407-.224.81-.337 1.214-.026.048-.055.103 0 .144.055.04.084.007.117-.037Zm1.733 1.38a.735.735 0 0 0-.733-.826 2.599 2.599 0 0 0-1.007.074.648.648 0 0 0-.49.466c-.243.778-.47 1.567-.752 2.33-.143.386.048.53.319.628a1.558 1.558 0 0 0 1.707-.407 3.454 3.454 0 0 0 .956-2.265ZM21.682 12.81a3.4 3.4 0 0 1-2.666.3c-.704-.22-.898-.668-.704-1.361a1.95 1.95 0 0 1 1.169-1.296 4.84 4.84 0 0 1 1.688-.367 2.34 2.34 0 0 0 1.414-.43c.19-.154.366-.337.304-.613a.591.591 0 0 0-.597-.418 3.758 3.758 0 0 0-2.051.33c-.201.134-.42.237-.652.305.165-.734.3-.903.915-1.101a5.588 5.588 0 0 1 3.143-.129c.75.191 1.029.672.82 1.414-.333 1.178-.732 2.338-1.055 3.512-.066.224-.164.29-.366.283a7.038 7.038 0 0 0-.963 0c-.34.026-.447-.125-.4-.43Zm.626-2.09a5.238 5.238 0 0 1-1.38.339c-.43.084-.876.165-1.143.583-.268.419-.158.665.322.778 1.212.276 2.033-.345 2.201-1.714v.015ZM50.542 7.884c.378-.018.757.028 1.12.135a1.23 1.23 0 0 1 .95 1.296c.009.952-.3 1.88-.876 2.636-.92 1.226-2.234 1.365-3.626 1.21-.08 0-.157-.036-.234-.05-.916-.206-1.315-.709-1.238-1.627.16-1.717 1.186-3.696 3.904-3.6Zm-1.428 4.489a1.258 1.258 0 0 0 1.098-.61 5.492 5.492 0 0 0 .791-2.312c.063-.485-.142-.734-.626-.771a1.316 1.316 0 0 0-1.275.518 5.013 5.013 0 0 0-.842 2.286c-.066.61.238.896.854.889ZM17.605 12.075c-.205.874-.732 1.102-1.465 1.171a9.306 9.306 0 0 1-1.864 0c-1.172-.143-1.7-.87-1.44-2.015.09-.393.212-.777.367-1.149a3.397 3.397 0 0 1 3.45-2.202c.341-.008.681.033 1.011.12a1.216 1.216 0 0 1 1.007 1.256c.006.08.006.162 0 .243-.11 1.259-.212 1.35-1.465 1.35-.732 0-1.49.026-2.23 0-.334 0-.418.15-.473.4-.18.826.235 1.336 1.073 1.34a4.494 4.494 0 0 0 2.03-.514Zm-2.728-2.011H17.1a.365.365 0 0 0 .33-.1c.307-.366.022-1.203-.458-1.34-1.004-.296-1.846.273-2.095 1.425v.015ZM68.997 12.02c-.18.804-.703 1.057-1.406 1.138-.718.1-1.447.077-2.158-.066-.897-.202-1.263-.734-1.157-1.674.078-.66.291-1.295.626-1.868a3.143 3.143 0 0 1 2.754-1.66c.481-.05.967-.01 1.432.122a1.16 1.16 0 0 1 .905 1.193c.01.142.01.284 0 .426-.102 1.053-.227 1.167-1.263 1.167h-2.355c-.227 0-.341.04-.407.294-.22.848.172 1.39 1.044 1.405a4.939 4.939 0 0 0 1.985-.477Zm-2.707-1.982h2.15c.136 0 .268.022.367-.132a.857.857 0 0 0-.58-1.3c-.977-.15-1.614.302-1.937 1.432ZM8.13 13.22c.367-1.167.711-2.272 1.063-3.373.176-.554.366-1.1.53-1.655.067-.246.173-.327.411-.316.341.02.684.02 1.025 0 .367-.033.535.074.26.562a3.941 3.941 0 0 1 2.627-.522 1.216 1.216 0 0 0 0 .191c.033.452-.176.577-.608.514a2.332 2.332 0 0 0-1.282.235 2.146 2.146 0 0 0-1.29 1.413c-.252.863-.553 1.71-.802 2.57-.08.279-.19.393-.487.367-.468-.004-.926.014-1.446.014ZM61.028 13.15c.659-2.23 1.285-4.356 1.915-6.481.14-.47.454-.606 1.062-.467.366.085.538.367.414.856-.216.792-.469 1.57-.7 2.356-.318 1.101-.659 2.18-.937 3.304-.1.385-.264.48-.62.455-.354-.026-.71-.022-1.134-.022ZM61.606 7.89c-.49 1.715-.952 3.352-1.425 4.99-.029.102-.062.256-.212.26-.441.027-.884.027-1.326 0-.245-.026-.102-.254-.062-.39.388-1.368.762-2.741 1.18-4.1.281-.91.025-.733.988-.733.26-.034.517-.026.857-.026ZM60.969 7.461c-.854 0-.86 0-.575-.818.058-.165 0-.459.304-.444.392 0 .828-.154 1.157.158.268.253.055.561 0 .847-.055.287-.249.272-.461.257-.143-.007-.282 0-.425 0Z" fill="#221E1F"/><path d="M44.47 8.812c.029-.066.073-.187.124-.154.051.033.051.169 0 .26l-.125-.106ZM55.79 8.302c-.033.044-.073.08-.124.037-.052-.044-.019-.096 0-.144l.124.107Z" fill="#221E1F"/></svg>