<svg width="62" height="20" viewBox="0 0 62 20" fill="none" xmlns="http://www.w3.org/2000/svg">
<path d="M8.45928 18.9046C13.1269 18.9046 16.9186 15.1234 16.9186 10.454C16.9186 5.78469 13.1269 2 8.45928 2C3.79167 2 0 5.78469 0 10.454C0 15.1234 3.78295 18.9046 8.45928 18.9046Z" fill="#C00C3F"/>
<path d="M8.11902 6.74438V14.1602H10.4764V13.4937H8.79778V6.74438H8.11902Z" fill="white"/>
<path d="M5.75817 8.76846C6.32003 8.76846 6.77196 8.31129 6.77196 7.75467C6.77196 7.19804 6.32003 6.73914 5.75817 6.73914C5.19631 6.73914 4.74438 7.1963 4.74438 7.75467C4.74438 8.31304 5.19631 8.76846 5.75817 8.76846Z" fill="white"/>
<path d="M8.7978 3.38022C8.70881 3.37499 8.5413 3.36975 8.46103 3.36975C4.55594 3.36975 1.37848 6.54896 1.37848 10.4506C1.37848 12.3455 2.11483 14.1218 3.44968 15.4584C4.78976 16.7915 6.56607 17.5279 8.46103 17.5279C10.356 17.5279 12.1253 16.7915 13.4619 15.4584C14.7985 14.1218 15.5401 12.3455 15.5401 10.4506V10.1365H10.4834V10.7873H14.8648C14.8648 10.8013 14.8648 10.8711 14.8613 10.8885C14.638 14.2248 11.8531 16.8666 8.45929 16.8666C6.74231 16.8666 5.13176 16.1983 3.9208 14.9856C2.7046 13.7781 2.03631 12.1693 2.03631 10.4488C2.03631 8.72834 2.70635 7.12303 3.9208 5.91207C5.13176 4.70111 6.74231 4.03281 8.45929 4.03281C8.53257 4.03281 8.71404 4.03281 8.79605 4.0363V3.37673L8.7978 3.38022Z" fill="white"/>
<path d="M58.2779 4.9733V2.20239H56.2312V4.9733H53.5283V6.92933H56.2312V9.66883H58.2779V6.92933H61V4.9733H58.2779Z" fill="#6D6E71"/>
<path d="M49.2882 4.95239V11.2253C49.2882 12.9824 48.4158 13.8462 46.9396 13.8462C45.4634 13.8462 44.5909 12.9824 44.5909 11.2253V4.95239H42.0975V11.2637C42.0975 14.7326 43.9436 16.036 46.8506 16.036H47.0286C49.9356 16.036 51.7817 14.7326 51.7817 11.2637V4.95239H49.2865H49.2882Z" fill="#6D6E71"/>
<path d="M23.8005 15.8754H28.4314V13.7484H23.2037V4.95062H20.6788V15.8754H23.8005Z" fill="#6D6E71"/>
<path d="M33.9854 11.7121H36.0409V13.6228C35.6623 13.7676 34.9224 13.9124 34.221 13.9124C31.9491 13.9124 31.1918 12.7573 31.1918 10.4157C31.1918 8.074 31.9125 6.86304 34.1844 6.86304C35.4477 6.86304 36.1683 7.25914 36.7633 8.01642L38.332 6.57513C37.3758 5.20539 35.6989 4.7901 34.1303 4.7901C30.5968 4.7901 28.7403 6.71822 28.7403 10.3965C28.7403 14.0747 30.4154 16.0395 34.1128 16.0395C35.8071 16.0395 37.4665 15.6067 38.3686 14.9751V9.67582H33.9872V11.7139L33.9854 11.7121Z" fill="#6D6E71"/>
</svg>
