<svg width="56" height="20" fill="none" xmlns="http://www.w3.org/2000/svg"><path d="M55.31 11.934c-.31.192-.261.552-.375.832-.644 1.822-2.835 2.388-4.548 1.9-3.667-1.068-2.003-5.646-2.343-8.505a5.543 5.543 0 0 1 1.88-.06c.36 1.935-1.156 6.355 1.718 6.493 2.708-.177 1.285-4.583 1.62-6.433a3.41 3.41 0 0 1 2.048.078v5.696ZM26.593 14.194v2.978a8.58 8.58 0 0 1-1.777 0V8.779c.47-.07.948-.084 1.422-.04.3.129.128.404.32.493 5.853-3.382 6.09 8.107.035 4.962Zm.187-2.53c-.182 1.934 2.894 1.89 2.752 0 .083-1.826-2.83-1.905-2.752 0ZM40.144 8.765v5.783a7.924 7.924 0 0 1-1.536.05c-.32-.138-.108-.4-.216-.493-4.317 2.56-3.983-2.402-3.874-5.301a6.162 6.162 0 0 1 1.62-.035c.403 1.197-.71 3.766 1.067 3.938 1.846-.118.896-2.673 1.123-3.938a7.231 7.231 0 0 1 1.816-.004ZM45.524 10.541H43.89c-.31-.196-.625-.762-1.206-.26.187.408.561.418.881.492 1.826.123 3.11 2.303 1.28 3.446-1.477.93-3.805.196-3.85-1.517a8.37 8.37 0 0 1 1.576-.059c.354.241.694.665 1.235.315 0-.398-.325-.393-.57-.492-1.886-.167-3.58-2.146-1.59-3.53 1.422-.816 3.819-.304 3.878 1.605ZM19.81 6.082c.599-.042 1.2-.033 1.797.03v8.397a5.856 5.856 0 0 1-1.797.079V6.082Z" fill="#6C6A6A"/><path d="M31.924 6.111a9.505 9.505 0 0 1 1.762-.03v8.477h-1.762V6.111Z" fill="#6C6A6A"/><path d="M8 18A8 8 0 1 0 8 2a8 8 0 0 0 0 16Z" fill="#F3A902"/><path d="M4.932 6.578H3.714v3.001h1.218V6.578ZM10.204 7.441h.923v-.863h1.137v.863h.89v1.163h-.89v.975h-1.085v-.945h-.975V7.44Z" fill="#fff"/><path d="M7.937 14.858c-.56 0-1.137.082-1.635-.325a2.293 2.293 0 0 1-.687-1.978c.118-.421.469-.207.72-.248.251-.04.336.037.37.3.136 1.162.143 1.159 1.295 1.159h.284c.975 0 .982 0 1.045-.979.033-.48.06-.472.639-.495.417-.018.45.174.457.51.03 1.45-.539 2.053-1.982 2.056h-.506Z" fill="#FCFAF6"/></svg>