<svg width="40" height="20" viewBox="0 0 40 20" fill="none" xmlns="http://www.w3.org/2000/svg">
<path d="M8.72797 11.0809C9.43922 11.9516 10.8033 12.5322 12.066 12.5322C12.6611 12.5322 12.8786 12.3 12.8786 12.0533C12.8786 11.7049 12.414 11.4874 11.6595 11.2407C10.2955 10.8054 8.32149 10.1085 8.32149 8.07689C8.32149 6.78495 9.64227 5 12.3996 5C13.9815 5 15.5634 5.55146 16.6231 6.61113L14.9106 8.59952C14.1849 7.81578 12.9222 7.4241 12.0804 7.4241C11.5434 7.4241 11.3259 7.65638 11.3259 7.91749C11.3259 8.23668 11.8337 8.45454 12.5594 8.68682C13.9382 9.12214 15.9262 9.86223 15.9262 11.7056C15.9262 13.549 14.3732 15 11.877 15C9.81609 15 7.98749 14.2599 7.02954 13.1133L8.72758 11.0817L8.72797 11.0809Z" fill="#E6000E"/>
<path d="M24.75 14.8254L26.0271 9.00559L22.5874 14.8254H21.281L20.3956 9.00559L19.1184 14.8254H16.1869L18.3206 5.14496H22.2682L22.9358 9.78933L25.6643 5.14496H29.8149L27.6815 14.825H24.75V14.8254Z" fill="#E6000E"/>
<path d="M31.3243 14.8254L32.8918 7.69966H30.2939L30.8598 5.14539H38.9727L38.4068 7.69966H35.8233L34.2558 14.8254H31.3243Z" fill="#E6000E"/>
<path d="M8.55521 10.994L2.37415 7.02307L4.72654 7.4736L8.55521 10.994Z" fill="#E6000E"/>
<path d="M8.37562 11.181L0.9599 8.94905L3.62368 8.54529L8.37562 11.181Z" fill="#E6000E"/>
<path d="M8.22246 11.4402L0 10.8038L2.31186 9.8197L8.22246 11.4402Z" fill="#E6000E"/>
</svg>
