<svg width="53" height="20" fill="none" xmlns="http://www.w3.org/2000/svg"><path d="M6.365 5.054c.03-.15.03-.303 0-.453-.051-.5.017-1.003.198-1.472a1.92 1.92 0 0 1 .453-.613 1.957 1.957 0 0 1 1.421-.503c.26.013.513.077.746.188.263.15.485.362.646.616.161.254.257.543.279.842.05.31.066.625.045.939.127-.159.247-.324.374-.475a1.862 1.862 0 0 1 2.426-.335c.35.23.594.586.677.991.084.406 0 .828-.232 1.173-.134.203-.28.402-.422.6.078.056.145 0 .217 0a1.711 1.711 0 0 1 1.778.346c.18.156.308.36.367.589.06.227.048.468-.034.689-.121.42-.352.8-.67 1.104a8.732 8.732 0 0 0-1.606 2.184.299.299 0 0 1-.053.062.786.786 0 0 0-.409-.343.802.802 0 0 0-.538-.007c-.048-.066 0-.106.027-.147a9.065 9.065 0 0 1 1.602-2.242c.222-.203.407-.442.546-.707.169-.368 0-.626-.419-.607a.862.862 0 0 0-.43.158 2.865 2.865 0 0 0-.75.736c-.175.243-.325.501-.523.737a1.407 1.407 0 0 1-.52.412.672.672 0 0 1-.881-.268.644.644 0 0 1-.082-.321c.007-.345.104-.682.281-.98.42-.819.914-1.6 1.475-2.333l.079-.115a.594.594 0 0 0-.049-.843.688.688 0 0 0-.913 0 1.602 1.602 0 0 0-.46.66c-.192.49-.42.968-.633 1.45-.136.3-.29.592-.465.872a1.033 1.033 0 0 1-.329.369.613.613 0 0 1-.84-.141.59.59 0 0 1-.11-.286 2.098 2.098 0 0 1 .07-.792c.176-.768.29-1.548.34-2.334a2.507 2.507 0 0 0-.059-.91c-.105-.345-.284-.507-.565-.526a.847.847 0 0 0-.51.089.827.827 0 0 0-.359.368c-.129.336-.174.699-.13 1.056.06.876.115 1.753.168 2.629v.32a.64.64 0 0 1-.116.38.657.657 0 0 1-.318.242.703.703 0 0 1-.798-.147 1.434 1.434 0 0 1-.374-.633 15.827 15.827 0 0 0-.565-1.638 2.78 2.78 0 0 0-.674-.958.627.627 0 0 0-.634-.168.627.627 0 0 0-.437.481.884.884 0 0 0 0 .582c.156.48.368.941.633 1.373.27.42.501.862.748 1.303.246.515.312 1.095.188 1.65a.927.927 0 0 1-.068.195.753.753 0 0 1-.945.47.75.75 0 0 1-.324-.209c-.41-.388-.87-.72-1.37-.986a1.516 1.516 0 0 0-.771-.229.756.756 0 0 0-.606.435.523.523 0 0 0 .056.6c.181.254.42.464.696.615.281.158.546.343.79.552-.034.074-.097.051-.146.063a1.375 1.375 0 0 0-.592.257c-.277.199-.273.192-.576 0a3.542 3.542 0 0 1-.891-.696 1.514 1.514 0 0 1-.277-1.892c.18-.33.46-.595.8-.76.342-.164.727-.22 1.102-.157a3.69 3.69 0 0 1 1.381.582c.228.144.445.298.692.464a1.007 1.007 0 0 0-.172-.622c-.224-.42-.456-.832-.703-1.24a5.414 5.414 0 0 1-.75-1.772 1.732 1.732 0 0 1 .403-1.502 1.816 1.816 0 0 1 1.455-.604 1.7 1.7 0 0 1 .954.387 3.5 3.5 0 0 1 .827.983c.038.063.053.147.128.184 0 0 0 .044.026.03.026-.015.004-.034.004-.041Z" fill="#FB0458"/><path d="M7.817 14.482v1.584c.002.175-.031.349-.097.511a.338.338 0 0 1-.3.254.38.38 0 0 1-.374-.195 1.487 1.487 0 0 1-.172-.589 4.304 4.304 0 0 0-.199-.869c-.112-.294-.243-.368-.486-.368a.45.45 0 0 0-.416.317 3.089 3.089 0 0 0-.19.707c-.034.21-.095.416-.184.61a.602.602 0 0 1-.237.29.618.618 0 0 1-.366.097.626.626 0 0 1-.362-.09.61.61 0 0 1-.244-.278 3.073 3.073 0 0 1-.21-.773 2.882 2.882 0 0 0-.142-.504.478.478 0 0 0-.176-.268.492.492 0 0 0-.307-.1c-.243 0-.352.154-.43.368-.114.34-.191.69-.233 1.045-.018.137-.06.27-.123.394a.38.38 0 0 1-.374.236c-.18 0-.251-.133-.307-.273-.075-.209-.11-.43-.105-.651-.026-.976 0-1.955 0-2.946v-.25c.06-.755.936-.976 1.404-.762a.742.742 0 0 1 .351.368c.134.276.226.57.274.873.091.418.249.82.468 1.189.288.497.748.5 1.044 0 .246-.422.414-.883.498-1.362.043-.225.11-.444.198-.656a.76.76 0 0 1 .32-.4.782.782 0 0 1 .504-.111.94.94 0 0 1 .676.236.91.91 0 0 1 .3.64v1.715l-.003.011Z" fill="#FB0358"/><path d="M8.891 18.065a.353.353 0 0 1-.303-.166c-.067-.129 0-.236.083-.335.146-.195.28-.401.408-.611a2.183 2.183 0 0 0 .123-2.043 13.283 13.283 0 0 0-.913-1.775 4.196 4.196 0 0 1-.352-.696.363.363 0 0 1 .064-.423.378.378 0 0 1 .415-.037.87.87 0 0 1 .48.475c.174.359.375.705.602 1.034.104.15.24.277.4.369a.688.688 0 0 0 .977-.221c.205-.325.392-.66.558-1.005.12-.221.244-.442.348-.674.165-.368.749-.284.932-.048a.364.364 0 0 1 .015.401c-.134.302-.273.6-.408.899-.408.902-.786 1.815-1.257 2.684a7.087 7.087 0 0 1-1.273 1.715 2.16 2.16 0 0 1-.434.343.82.82 0 0 1-.465.114Z" fill="#FB0458"/><path d="M16.966 8.176c.298-.03.598-.04.898-.03.266-.018.255.196.3.347.408 1.336.808 2.676 1.213 4.016.35 1.156.7 2.312 1.052 3.468.18-.044.153-.191.183-.302.709-2.393 1.414-4.787 2.115-7.182.071-.24.154-.405.45-.347.11.019.222.019.332 0 .304-.047.405.096.483.369.682 2.352 1.382 4.697 2.078 7.046.041.14.093.28.146.43.176-.12.165-.297.21-.437a606.307 606.307 0 0 0 2.115-6.995c.097-.335.235-.468.584-.424.203.015.407.015.61 0 .093.155 0 .265-.034.369-.876 2.919-1.778 5.813-2.654 8.714a.491.491 0 0 1-.204.34.51.51 0 0 1-.391.087c-.921-.026-.914 0-1.16-.862l-1.809-6.192c-.03-.103-.022-.225-.183-.294-.191.662-.375 1.321-.577 1.98-.479 1.675-.965 3.35-1.433 5.03-.075.264-.195.367-.465.33-.333-.036-.722.118-.984-.062s-.229-.563-.318-.862c-.834-2.717-1.665-5.436-2.493-8.158a.64.64 0 0 1-.064-.38Z" fill="#272324"/><path d="M52.494 17.402c.042.1.03.21-.09.217-.27.015-.541.015-.812 0-.153 0-.146-.14-.146-.25v-.707a.143.143 0 0 0-.163.002.142.142 0 0 0-.039.042c-1.475 1.775-5.113 1.418-6.364-1.05a3.528 3.528 0 0 1 .76-4.127 3.645 3.645 0 0 1 1.28-.783c1.561-.575 3.044-.45 4.354.662a.3.3 0 0 0 .079.056s.026 0 .105-.03V8.471c0-.24.063-.369.322-.324.258.044.497-.089.718.088-.146.103-.183.199 0 .287a.182.182 0 0 1 0 .203c-.198.07-.123.235-.123.368v7.897c-.004.14-.064.313.12.412Zm-3.941-6.056a2.918 2.918 0 0 0-2.052.758 2.823 2.823 0 0 0-.92 1.955c.015.757.33 1.477.875 2.01a2.99 2.99 0 0 0 2.051.846c.77.01 1.512-.276 2.072-.795s.892-1.232.927-1.987a2.808 2.808 0 0 0-.89-1.995 2.9 2.9 0 0 0-.951-.598 2.938 2.938 0 0 0-1.112-.194Z" fill="#2B2728"/><path d="M33.927 17.792a3.948 3.948 0 0 1-2.624-.914 3.827 3.827 0 0 1-1.34-2.4 3.576 3.576 0 0 1 .434-2.066 3.66 3.66 0 0 1 1.531-1.479 4.217 4.217 0 0 1 2.967-.386 4.156 4.156 0 0 1 2.461 1.675 3.5 3.5 0 0 1 .478 2.707c-.108.46-.309.894-.59 1.276a3.57 3.57 0 0 1-1.048.95 4.145 4.145 0 0 1-2.269.637Zm0-.91a2.83 2.83 0 0 0 2.16-.694c.292-.255.526-.569.687-.92a2.732 2.732 0 0 0 .024-2.234 2.773 2.773 0 0 0-.666-.935 2.862 2.862 0 0 0-2.145-.739 2.934 2.934 0 0 0-2.076.76 2.843 2.843 0 0 0-.66.902c-.158.34-.246.708-.259 1.081.008.373.09.74.243 1.082.152.341.371.65.645.908s.596.461.95.596c.352.136.73.202 1.108.194h-.01Z" fill="#282325"/><path d="M39.613 17.6c-.902.1-.902.1-.902-.736v-5.89c0-.306.075-.398.375-.387.67.019.67 0 .703.66.154.062.184-.085.251-.152a2.683 2.683 0 0 1 1.707-.651c.101 0 .206 0 .21.125.017.265.017.53 0 .795 0 .147-.172.118-.273.14a3.33 3.33 0 0 0-.775.225c-.289.132-.54.33-.736.577a1.959 1.959 0 0 0-.387.844c-.236.048-.169.235-.169.368-.011 1.37-.007 2.724-.004 4.083Z" fill="#282425"/><path d="M42.507 12.863V8.529c0-.301.064-.405.374-.397.708.022.708 0 .708.7v8.242c0 .645.071.56-.599.567h-.097c-.319.048-.408-.084-.405-.394.03-1.461.02-2.923.02-4.384Z" fill="#343032"/><path d="M41.62 3.64c-.221.287-.427.501-.618.737a1.233 1.233 0 0 1-.973.43c-1.217.022-2.43 0-3.646 0h-.049c-.15 0-.243-.055-.243-.22 0-.166.112-.2.255-.2h1.246c.12 0 .296.037.307-.136.011-.173-.187-.15-.315-.173-.277-.044-.643.148-.808-.106-.124-.192-.049-.516-.049-.78 0-.792 0-.792.809-.792h1.68c.15 0 .405-.11.416.162.011.272-.24.191-.4.195h-1.823c-.102 0-.199.018-.199.147s.097.147.199.147h1.92c.097 0 .206 0 .213.13.008.128-.1.18-.217.19-.116.012-.224 0-.337 0h-1.344c-.153 0-.411-.095-.423.159-.01.254.255.162.401.166h1.677c.142 0 .374-.081.374.162s-.24.184-.374.195h-.674a.148.148 0 0 0-.148.074.14.14 0 0 0-.016.055c0 .07.022.15.082.15.625 0 1.291.207 1.871-.125.287-.147.53-.365.704-.632a1.82 1.82 0 0 0 .296-.892c0-.29.183-.272.374-.228.116.022.161.077.139.195-.139.696.303 1.104.748 1.517.098.084.345.121.147.342-.199.221-.3.096-.442-.03a4.13 4.13 0 0 1-.76-.839ZM30.768 3.61c.112-.607.374-.86.895-.816.374.036.625.29.748.762.03.136 0 .29.116.4.116.111.27.078.408.067.139-.01.161-.162.165-.287v-.99c0-.17.052-.265.247-.262.195.004.225.118.225.28v3.107c0 .18-.03.306-.259.299-.228-.008-.21-.148-.21-.295V4.793c0-.151.03-.328-.216-.335-.248-.008-.375 0-.457.28-.161.64-.438.872-.91.831-.471-.04-.741-.342-.823-.96a4.714 4.714 0 0 1 0-.516c.146-.14.056-.32.07-.482Zm.374.645c.006.199.025.397.056.593a.367.367 0 0 0 .13.22.378.378 0 0 0 .245.085.352.352 0 0 0 .243-.07.341.341 0 0 0 .131-.213 2.574 2.574 0 0 0 0-1.388c-.049-.18-.153-.317-.374-.306-.221.011-.296.144-.375.324-.05.249-.072.502-.067.755h.011Z" fill="#86888A"/><path d="M21.75 4.377v1.697c0 .154.071.368-.217.368s-.247-.225-.25-.394c0-.368-.02-.736 0-1.082 0-.299-.132-.335-.375-.328-.244.007-.423 0-.4.306.022.305 0 .596 0 .894 0 .151.033.32-.222.328-.254.007-.25-.125-.25-.302V2.709c0-.162 0-.32.24-.317.239.004.239.155.235.32v1.179c0 .298.146.327.374.324.229-.004.408 0 .393-.313-.018-.457 0-.91 0-1.366 0-.188.042-.302.262-.291.221.011.218.14.214.29v1.842h-.004Z" fill="#888B8D"/><path d="M38.184 4.947c.34-.018.68.017 1.01.103.151.02.29.092.393.202.103.11.164.253.172.402a.656.656 0 0 1-.16.433.677.677 0 0 1-.409.226 4.565 4.565 0 0 1-2.036 0 .642.642 0 0 1-.377-.221.623.623 0 0 1-.143-.408.568.568 0 0 1 .122-.4.586.586 0 0 1 .364-.212 3.13 3.13 0 0 1 1.064-.125Zm.022 1.105c.294.019.588-.023.865-.122a.293.293 0 0 0 .159-.085c.042-.045.069-.101.077-.161a.23.23 0 0 0-.048-.156.236.236 0 0 0-.14-.087 3.443 3.443 0 0 0-1.793-.019.277.277 0 0 0-.158.102.277.277 0 0 0 .014.35c.042.049.1.081.163.093.28.087.575.122.868.103l-.007-.018ZM50.784 6.295a3.335 3.335 0 0 1-.936-.173.638.638 0 0 1-.364-.215.62.62 0 0 1-.145-.393.583.583 0 0 1 .144-.37.601.601 0 0 1 .35-.197 3.72 3.72 0 0 1 2.16 0 .612.612 0 0 1 .349.197c.09.102.143.231.149.367a.6.6 0 0 1-.13.394.619.619 0 0 1-.357.22 4.296 4.296 0 0 1-1.22.17Zm.224-.394c.284.017.567-.027.831-.13.101-.054.199-.117.203-.238a.233.233 0 0 0-.053-.155.24.24 0 0 0-.142-.085 2.924 2.924 0 0 0-1.827 0c-.109.037-.213.096-.213.225a.274.274 0 0 0 .202.24c.319.117.66.166 1 .143ZM27.702 4.601c-.779-.022-1.25-.427-1.232-1.012a.804.804 0 0 1 .435-.737 1.484 1.484 0 0 1 1.235-.147c.22.046.417.17.55.35.133.18.195.401.172.622a.912.912 0 0 1-.233.577.94.94 0 0 1-.553.3c-.134.025-.28.025-.374.047Zm.696-.998c0-.335-.307-.555-.748-.552-.442.004-.75.247-.75.608 0 .36.349.552.802.526.453-.026.715-.235.704-.582h-.008Z" fill="#848588"/><path d="M47.456 4.318V5.87c0 .177-.023.306-.255.302-.232-.003-.262-.121-.258-.302V4.645c0-.261-.049-.427-.374-.394-.169 0-.326 0-.319-.243.008-.243.173-.202.311-.184.307.034.397-.106.374-.368-.022-.261 0-.442 0-.659 0-.217-.033-.39.274-.368.307.022.236.195.236.368.015.483.01 1.002.01 1.52ZM48.388 4.384v1.738c0 .195 0 .338-.277.331-.277-.007-.236-.158-.236-.32V2.558c0-.17 0-.313.243-.306.244.008.27.107.27.295-.004.611 0 1.226 0 1.837ZM24.333 4.734h-1.756c-.168 0-.374.04-.374-.229 0-.268.202-.198.374-.198h1.146c.262 0 .374-.07.374-.343 0-.173-.03-.368.247-.346.277.022.27.188.255.368-.023.291.138.335.374.328h1.1c.158 0 .345 0 .352.21.008.21-.175.217-.34.217l-1.752-.007Z" fill="#888B8D"/><path d="M45.708 4.58a2.47 2.47 0 0 0-.375.489c-.108.132-.217.269-.337.394-.12.125-.258.066-.374 0-.116-.067-.045-.218.03-.306.175-.181.338-.375.487-.578.259-.45.399-.956.408-1.472 0-.148-.045-.369.254-.347.3.023.255.192.229.369-.072.347-.052.707.059 1.044.11.337.308.64.573.881.127.118.083.21-.022.317-.105.106-.232.129-.375 0-.213-.245-.4-.51-.557-.792ZM26.265 3.574c-.094.243-.184.368-.49.283-.47-.109-.9-.34-1.247-.67-.165-.184-.27-.143-.416 0-.28.283-.617.505-.988.656-.33.162-.333.15-.663-.177.281-.15.584-.243.85-.401a1.45 1.45 0 0 0 .73-.832c.034-.122.071-.206.217-.195.146.01.243-.019.285.114.24.736.872.95 1.53 1.137.066.025.13.053.192.085Z" fill="#848588"/><path d="M42.6 6.335h-1.242c-.28 0-.374-.1-.374-.368V5.12c0-.191.022-.338.276-.338.255 0 .229.147.236.312.03.8.034.8.843.8h1.527c.172 0 .326 0 .314.235-.01.236-.164.191-.307.191l-1.272.015Z" fill="#888B8D"/><path d="M50.106 3.537c-.21.348-.48.656-.8.91-.143.11-.27.147-.42 0-.15-.148-.169-.173 0-.28.283-.162.523-.39.697-.663.174-.273.278-.584.302-.906 0-.169.109-.206.259-.191.15.015.27.055.258.214-.056.684.348 1.104.857 1.472.116.081.213.144.071.284-.142.14-.213.176-.374.051a4.645 4.645 0 0 1-.85-.89Z" fill="#848588"/><path d="M34.44 4.38v1.738c0 .155.03.331-.22.324-.252-.007-.233-.17-.233-.328V2.587c0-.147 0-.283.21-.298.21-.014.25.133.25.306-.007.593-.007 1.189-.007 1.785Z" fill="#7F8080"/><path d="M24.4 6.346h-1.242c-.277 0-.375-.096-.352-.368.022-.272 0-.5 0-.736 0-.155.026-.276.228-.276s.243.08.255.254c.01.173-.124.515.093.659.217.143.468.04.704.044h1.497c.15 0 .375-.089.393.199.019.287-.213.213-.374.217-.404.01-.805.007-1.202.007ZM30.768 3.61c0 .163.075.343-.079.483-.689-.051-.689-.051-.689.6v.516c0 .158-.086.213-.24.213-.153 0-.235-.062-.235-.22V2.483c0-.154.064-.228.225-.232.16-.003.258.074.254.254v.737c0 .235.075.442.397.397.116-.007.247.037.367-.03Z" fill="#888B8D"/><path d="M44.004 3.843v1.259c0 .158.023.32-.224.324-.247.004-.28-.107-.28-.291V2.558c0-.173.048-.306.269-.306.22 0 .235.155.232.32 0 .42.003.844.003 1.27Z" fill="#86888A"/><path d="M18.022 4.071v-.85c0-.218.108-.262.299-.258.191.004.202.129.195.287 0 .394 0 .784-.019 1.178 0 .276.086.416.393.368.307-.048.51-.07.749-.11.157-.022.243.022.262.188.018.165-.06.232-.21.246-.464.04-.92.114-1.385.114-.24 0-.307-.095-.3-.309.023-.29.016-.574.016-.854Z" fill="#888B8D"/><path d="M28.65 6.35h-1.195c-.236 0-.374-.052-.345-.313.03-.261 0-.593 0-.89 0-.14 0-.251.199-.255.198-.004.27.07.262.25v.045c.03.246-.116.57.075.717.19.148.52.052.79.056h1.497c.12 0 .266-.06.277.147.011.206-.079.247-.258.243-.442-.004-.873 0-1.303 0Z" fill="#848588"/><path d="M52.494 17.402c-.183-.1-.123-.273-.123-.42V9.085c0-.125-.075-.29.123-.368 0 .265.023.53.023.795v7.227c0 .225-.015.446-.023.663Z" fill="#0B090A"/><path d="M51.888 3.497V2.76c.019-.18-.154-.49.24-.485.393.003.183.294.217.463a1.37 1.37 0 0 1 0 .328c0 .335-.068.692.483.593.108 0 .168.07.172.18.004.11-.045.24-.18.225-.412-.07-.509.147-.472.515 0 .166-.1.199-.247.199-.146 0-.213-.096-.21-.24V3.498h-.003Z" fill="#86888A"/><path d="M39.613 17.6v-4.079c0-.143-.067-.33.169-.368v4.105c-.015.114.109.324-.169.343ZM52.494 8.522c-.194-.088-.157-.184 0-.287a.323.323 0 0 1 0 .287Z" fill="#0B090A"/></svg>