<svg width="57" height="20" viewBox="0 0 57 20" fill="none" xmlns="http://www.w3.org/2000/svg">
<path d="M22.8394 4.18588L22.2973 3.78067V2.33655H29.9622V4.22603H25.2642V6.50757H29.6692V8.3569H25.2642V10.8816H29.9622V12.7718H22.8394V4.18588Z" fill="#4D4D4D"/>
<path d="M31.549 4.18587L31.0069 3.78067V2.33655H34.9078C37.5905 2.33655 39.8117 2.74102 39.8117 5.69498V5.841C39.8117 7.36689 39.1882 8.21672 38.2132 8.67595C39.2564 9.87768 39.9714 11.2276 40.4754 12.7645H37.9421C37.5276 11.4393 36.8456 10.2127 35.9378 9.16C35.6939 9.17314 35.425 9.17314 35.1657 9.17314H33.9467V12.7645H31.549V4.18587ZM35.0844 7.372C36.696 7.372 37.4008 7.02083 37.4008 5.83297V5.68695C37.4008 4.71519 36.696 4.20194 35.0844 4.20194H33.9467V7.372H35.0844Z" fill="#4D4D4D"/>
<path d="M41.3962 4.18588L40.8541 3.78067V2.33655H48.5212V4.22603H43.8203V6.50757H48.223V8.3569H43.8203V10.8816H48.5212V12.7718H41.3962V4.18588Z" fill="#4D4D4D"/>
<path d="M50.2406 4.18588L49.6992 3.78067V2.33655H52.6654V10.8275H57V12.7718H50.2406V4.18588Z" fill="#4D4D4D"/>
<path d="M24.2408 15.1146L24.0635 14.9825V14.5087H25.0401L25.9243 16.1463L26.8165 14.5087H27.618V17.9292H26.8744V15.7878C26.8012 15.9513 26.7455 16.066 26.177 17.0881H25.6752C25.3954 16.5887 25.24 16.2967 25.147 16.1149C25.0738 15.9776 25.0225 15.8718 24.9829 15.7878V17.9292H24.2408V15.1146Z" fill="#4D4D4D"/>
<path d="M31.4559 16.7654V16.4777C31.4559 15.6104 31.9175 15.2366 32.7167 15.2366C33.5159 15.2366 33.987 15.6016 33.987 16.4777V16.7654C33.987 17.6327 33.5247 18 32.7167 18C31.9087 18 31.4559 17.6284 31.4559 16.7654ZM32.7167 17.3984C33.05 17.3984 33.2295 17.1991 33.2295 16.7209V16.5223C33.2295 16.0484 33.0522 15.8447 32.7167 15.8447C32.3812 15.8447 32.2105 16.0484 32.2105 16.5223V16.7209C32.2105 17.1991 32.3929 17.3984 32.7167 17.3984Z" fill="#4D4D4D"/>
<path d="M38.4842 17.7919V17.9248H37.7561V14.9511L37.581 14.8183V14.3452H38.5223V15.3673C38.6601 15.2943 38.9846 15.2344 39.1816 15.2344C39.9098 15.2344 40.2431 15.6104 40.2431 16.4288V16.7523C40.2431 17.6773 39.8036 18 39.2263 18C38.9685 18 38.6264 17.8941 38.4842 17.7919ZM38.9238 17.4072C39.3414 17.4072 39.4879 17.1414 39.4879 16.7501V16.4267C39.4879 16.0244 39.3501 15.8426 38.9904 15.8426C38.8252 15.8475 38.6623 15.8837 38.5106 15.9492V17.3254C38.642 17.3778 38.7822 17.4048 38.9238 17.405V17.4072Z" fill="#4D4D4D"/>
<path d="M44.0562 15.9112L43.8811 15.7783V15.3052H44.8129V17.9291H44.0584L44.0562 15.9112ZM44.043 14.3385H44.829V14.9445H44.043V14.3385Z" fill="#4D4D4D"/>
<path d="M48.7622 14.9467L48.5849 14.8138V14.3385H49.5175V17.9269H48.7622V14.9467Z" fill="#4D4D4D"/>
<path d="M53.3313 16.7033V16.5573C53.3313 15.6418 53.7481 15.2387 54.5832 15.2387C55.5158 15.2387 55.8037 15.8586 55.8037 16.6193V16.8537H54.0814V16.8939C54.0814 17.1859 54.1832 17.4334 54.7407 17.4334C55.0478 17.4353 55.3537 17.3968 55.6506 17.3188V17.8758C55.3445 17.9682 55.0253 18.0101 54.7056 18C53.7481 18 53.3313 17.6546 53.3313 16.7033ZM55.0579 16.3762V16.3404C55.0579 16.1017 54.9781 15.7564 54.5788 15.7564C54.1393 15.7564 54.0858 16.1105 54.0858 16.3404V16.3762H55.0579Z" fill="#4D4D4D"/>
<path d="M0 2H15.8529C16.9465 2 17.9954 2.43298 18.7687 3.2037C19.5421 3.97442 19.9765 5.01974 19.9765 6.1097V6.97705H4.12365C3.02999 6.97705 1.98112 6.54406 1.20779 5.77335C0.434455 5.00263 0 3.95731 0 2.86735L0 2Z" fill="url(#paint0_linear_2448_6585)"/>
<path d="M4.08629 7.36108H19.9765V12.3381H8.20994C7.11628 12.3381 6.06741 11.9051 5.29408 11.1344C4.52074 10.3637 4.08629 9.31839 4.08629 8.22843V7.36108Z" fill="url(#paint1_linear_2448_6585)"/>
<path d="M8.58649 12.7221H19.9765V17.697H12.7109C11.6172 17.697 10.5683 17.264 9.79501 16.4933C9.02167 15.7225 8.58722 14.6772 8.58722 13.5873V12.7221H8.58649Z" fill="url(#paint2_linear_2448_6585)"/>
<defs>
<linearGradient id="paint0_linear_2448_6585" x1="0" y1="4.48889" x2="19.9765" y2="4.48889" gradientUnits="userSpaceOnUse">
<stop stop-color="#CCE0F4"/>
<stop offset="0.06" stop-color="#C3DCF2"/>
<stop offset="0.17" stop-color="#A9D2EE"/>
<stop offset="0.31" stop-color="#80C2E7"/>
<stop offset="0.46" stop-color="#47ACDE"/>
<stop offset="0.57" stop-color="#1E9CD7"/>
<stop offset="0.87" stop-color="#0075BE"/>
<stop offset="0.99" stop-color="#005B97"/>
</linearGradient>
<linearGradient id="paint1_linear_2448_6585" x1="4.08629" y1="9.84924" x2="19.9765" y2="9.84924" gradientUnits="userSpaceOnUse">
<stop stop-color="#CCE0F4"/>
<stop offset="0.06" stop-color="#C3DCF2"/>
<stop offset="0.17" stop-color="#A9D2EE"/>
<stop offset="0.31" stop-color="#80C2E7"/>
<stop offset="0.46" stop-color="#47ACDE"/>
<stop offset="0.57" stop-color="#1E9CD7"/>
<stop offset="0.87" stop-color="#0075BE"/>
<stop offset="0.99" stop-color="#005B97"/>
</linearGradient>
<linearGradient id="paint2_linear_2448_6585" x1="8.58649" y1="15.2103" x2="19.9765" y2="15.2103" gradientUnits="userSpaceOnUse">
<stop stop-color="#CCE0F4"/>
<stop offset="0.06" stop-color="#C3DCF2"/>
<stop offset="0.17" stop-color="#A9D2EE"/>
<stop offset="0.31" stop-color="#80C2E7"/>
<stop offset="0.46" stop-color="#47ACDE"/>
<stop offset="0.57" stop-color="#1E9CD7"/>
<stop offset="0.87" stop-color="#0075BE"/>
<stop offset="0.99" stop-color="#005B97"/>
</linearGradient>
</defs>
</svg>
