<svg width="68" height="20" fill="none" xmlns="http://www.w3.org/2000/svg"><path d="M0 10.16V5.981c0-.359.09-.527.48-.491.348.021.696.021 1.043 0 .309 0 .427.118.42.426 0 .996 0 1.992-.036 2.988 0 .359.13.502.502.495.918 0 1.835-.025 2.753 0 .416 0 .512-.158.505-.534-.018-.967 0-1.931 0-2.899 0-.358.111-.494.466-.48.355.014.76 0 1.14 0 .273 0 .402.097.402.39v8.55c0 .283-.119.401-.398.397h-1.14c-.38 0-.47-.132-.466-.48.018-.964 0-1.931.018-2.895 0-.43-.144-.544-.552-.534-.868.025-1.742 0-2.613 0-.578 0-.592 0-.592.577 0 .932-.021 1.867 0 2.802 0 .43-.136.566-.548.523-.266-.025-.538 0-.807 0C0 14.831 0 14.831 0 14.29v-4.13Z" fill="#FC0B50"/><path d="M40.793 12.298v2.15c0 .305-.1.434-.412.42a9.276 9.276 0 0 0-1.047 0c-.358.024-.466-.123-.459-.47V10.79c0-.989-.358-1.25-1.3-1.046a.552.552 0 0 0-.503.63c.029 1.344 0 2.691 0 4.035 0 .33-.1.462-.437.444a9.213 9.213 0 0 0-1.043 0c-.337.021-.445-.118-.441-.444v-3.322c.01-.266.003-.533-.022-.799a.715.715 0 0 0-.86-.63c-.746.071-.892.193-.892.752v3.895c0 .419-.144.577-.553.544-.333-.025-.666 0-1 0-.333 0-.405-.107-.398-.43a43.011 43.011 0 0 0-.11-5.686c-.03-.247.05-.415.315-.423H32.864c.412.51.82.076 1.212-.028a2.74 2.74 0 0 1 2.365.283.402.402 0 0 0 .48 0 3.539 3.539 0 0 1 1.503-.409c1.304-.078 2.3.409 2.351 2.057.025.699 0 1.394 0 2.089l.018-.004Z" fill="#737476"/><path d="M48.79 10.034v-4.27c0-.424.126-.614.563-.62.299-.02.596-.06.89-.123.422-.064.512 0 .515.434v2.608c0 .326.054.384.359.283a3.339 3.339 0 0 1 1.677-.175 2.427 2.427 0 0 1 2.094 1.931 5.111 5.111 0 0 1-.251 3.382 2.483 2.483 0 0 1-2.025 1.459 3.375 3.375 0 0 1-1.915-.18c-.11-.05-.225-.14-.358-.046-.358.269-.796.104-1.197.129-.334.021-.359-.24-.359-.495.011-1.44.007-2.88.007-4.317Zm1.918 1.594v1.52a.4.4 0 0 0 .265.451 1.434 1.434 0 0 0 1.879-.717 3.42 3.42 0 0 0 .018-2.594 1.322 1.322 0 0 0-1.918-.584.487.487 0 0 0-.247.473c.01.47.003.96.003 1.451Z" fill="#747577"/><path d="M12.65 12.037h-1.66c-.265 0-.358.09-.358.358a1.197 1.197 0 0 0 .893 1.15c.761.188 1.565.1 2.269-.247.38-.172.548-.136.68.283.223.735.223.781-.53 1.04a5.85 5.85 0 0 1-3.549.16 1.995 1.995 0 0 1-1.29-1.05 4.63 4.63 0 0 1-.09-4.073c.48-1.054 1.452-1.394 2.531-1.487a3.992 3.992 0 0 1 1.592.179c1.025.322 1.434 1.118 1.577 2.107.05.358.043.756.075 1.135.032.38-.136.477-.477.47-.552-.018-1.107 0-1.663 0v-.025Zm-.971-1.2h.867a.286.286 0 0 0 .33-.312 1.073 1.073 0 0 0-1.047-1.14 1.155 1.155 0 0 0-1.272 1.115c0 .207.086.333.304.336h.818Z" fill="#FC0C51"/><path d="M24.69 14.982c-.268-.018-.537 0-.802-.05a2.381 2.381 0 0 1-2.15-1.752 5.504 5.504 0 0 1-.08-2.867c.312-1.34 1.352-2.067 2.933-2.15.474-.023.95.014 1.415.112a2.391 2.391 0 0 1 1.915 1.83 5.243 5.243 0 0 1 0 2.946c-.359 1.164-1.215 1.727-2.38 1.877-.276.036-.563.036-.85.054Zm1.524-3.443a4.124 4.124 0 0 0-.129-1.222 1.17 1.17 0 0 0-1.434-.867 1.323 1.323 0 0 0-1.132 1.225 5.836 5.836 0 0 0 0 1.885c.104.68.47 1.096 1.007 1.14.807.067 1.326-.244 1.549-.943.108-.396.156-.807.14-1.218Z" fill="#FD0B50"/><path d="M65.914 12.033h-1.71c-.312 0-.426.111-.358.437.161.767.548 1.107 1.398 1.15.65.037 1.3-.094 1.885-.38.294-.143.423-.064.516.237.287.896.294.896-.627 1.204a5.738 5.738 0 0 1-3.269.161 2.18 2.18 0 0 1-1.62-1.458 4.974 4.974 0 0 1-.068-3.393c.523-1.498 1.982-1.953 3.452-1.813.49.019.97.158 1.394.405.774.501 1.014 1.293 1.05 2.128.069 1.612.23 1.283-1.19 1.315-.283.014-.57.01-.853.007Zm-1.032-1.204h.717c.408 0 .498-.118.433-.52a.977.977 0 0 0-1.15-.91 1.162 1.162 0 0 0-1.097 1.097c0 .219.082.33.297.333h.8ZM44.632 14.957a3.808 3.808 0 0 1-1.315-.13 2.15 2.15 0 0 1-1.517-1.325 4.868 4.868 0 0 1 .076-3.873 2.244 2.244 0 0 1 1.304-1.182 4.58 4.58 0 0 1 3.252-.033 2.337 2.337 0 0 1 1.451 1.652 5.399 5.399 0 0 1 0 2.952 2.709 2.709 0 0 1-2.509 1.935c-.233.022-.487.004-.742.004Zm-1.222-3.225c-.008.301.014.603.064.9.176.763.53 1.075 1.216 1.075a1.287 1.287 0 0 0 1.373-1.115 5.266 5.266 0 0 0 0-2.117 1.19 1.19 0 0 0-1.076-1.04 1.33 1.33 0 0 0-1.37.81 3.523 3.523 0 0 0-.207 1.477v.01Z" fill="#737476"/><path d="M17.672 10.16v4.177c0 .405-.132.538-.52.505a4.766 4.766 0 0 0-.903 0c-.434.043-.527-.14-.523-.548.014-2.768.014-5.538 0-8.309 0-.412.132-.534.52-.501.331.021.664.021.996 0 .33-.018.437.11.434.444v4.228l-.004.003Z" fill="#FD1155"/><path d="M20.54 10.156v4.178c0 .4-.122.54-.513.505a6 6 0 0 0-.95 0c-.33.018-.448-.111-.44-.445V5.946c0-.326.1-.47.43-.455.348.018.698.018 1.046 0 .359-.022.434.114.43.444v4.22h-.003Z" fill="#FC094F"/><path d="M58.938 10.11V5.981c0-.359.108-.53.484-.51.3.022.6.022.9 0 .42-.031.549.133.545.549v7.832c0 1.107.108 1-.986.996-1.093-.003-.921.122-.925-.942V10.11h-.018Z" fill="#727374"/><path d="M55.734 11.589V8.744c0-.33.114-.459.444-.44.33.017.76 0 1.14 0 .276 0 .398.089.398.383v5.732c0 .305-.125.434-.427.427h-1.14c-.311 0-.412-.122-.408-.423v-2.848l-.007.014Z" fill="#767778"/><path d="M56.755 5.47c1.097.014.957-.14.957.963 0 .649 0 .649-.648.649h-.993c-.237 0-.359-.104-.359-.34V6.49c.018-1.02.018-1.02 1.043-1.02Z" fill="#7B7B7D"/></svg>