<svg width="52" height="20" viewBox="0 0 52 20" fill="none" xmlns="http://www.w3.org/2000/svg">
<g clip-path="url(#clip0_1064_10471)">
<path d="M25.2381 5.01V7.334H29.5281V14.992H32.6521V7.449H36.9781V5.01H25.2381ZM40.5131 5.01H37.3531L42.5081 14.992H46.3471L51.5011 5.01H48.1911L44.4271 12.438L40.5131 5.01ZM11.9961 7.457V12.592C11.9961 12.592 12.2961 14.572 14.6301 14.992H22.4481C22.4481 14.992 24.2161 15.145 24.8581 13.124V11.214H21.8521C21.8521 11.214 22.1921 12.305 21.0621 12.546H15.9831C15.7095 12.4608 15.4759 12.2797 15.3251 12.036C15.1727 11.7909 15.1124 11.4995 15.1551 11.214V8.59C15.1551 8.59 15.2691 7.637 16.4711 7.457H21.1011C21.1011 7.457 21.7781 7.61 21.7781 8.637H24.8641V7.218C24.8641 7.218 24.6371 5 21.9281 5H14.8911C14.8911 5 11.9961 5.085 11.9961 7.457Z" fill="#0093DE"/>
<path d="M0.5 5H3.546V9.087L8.118 5H12.181L7.102 9.657L12.831 14.858H8.485L3.576 10.572L3.546 15H0.5V5Z" fill="#0093DE"/>
</g>
<defs>
<clipPath id="clip0_1064_10471">
<rect width="51" height="20" fill="white" transform="translate(0.5)"/>
</clipPath>
</defs>
</svg>
