<svg width="64" height="20" viewBox="0 0 64 20" fill="none" xmlns="http://www.w3.org/2000/svg">
<path d="M11.1353 4.67407C14.2968 4.67407 16.6219 6.87464 16.6219 9.61824C16.6219 12.7645 13.7081 15.4147 10.4228 15.4147C7.13749 15.4147 5.01373 13.2141 5.01373 10.4394C5.01373 7.32429 7.85004 4.67407 11.1353 4.67407ZM10.4228 13.1512C12.236 13.1512 13.7862 11.5394 13.7862 9.61758C13.7862 8.16068 12.624 6.95212 11.136 6.95212C9.33806 6.95212 7.83481 8.53285 7.83481 10.4394C7.83481 11.9115 8.95066 13.1519 10.4228 13.1519V13.1512Z" fill="url(#paint0_linear_1448_3874)"/>
<path d="M18.343 9.60228C18.4669 9.04403 18.5755 8.48644 18.6066 7.4633H20.9933V8.20698C21.582 7.69574 22.28 7.21497 23.1938 7.21497C25.0845 7.21497 26.2162 8.84205 26.2162 10.6863C26.2162 12.9339 24.4958 15.3047 22.0005 15.3047C21.1482 15.3047 20.5284 14.9948 19.8774 14.2975L19.0251 18.3112H16.4835L18.343 9.60162V9.60228ZM20.2648 12.6399C20.6211 12.9498 21.1794 13.2286 21.7217 13.2286C22.8064 13.2286 23.5197 12.0505 23.5197 10.842C23.5197 10.1135 23.1945 9.30759 22.4197 9.30759C21.9085 9.30759 21.2727 9.60228 20.7767 10.1135L20.2655 12.6399H20.2648Z" fill="url(#paint1_linear_1448_3874)"/>
<path d="M31.904 14.3755C31.2841 14.9026 30.6643 15.3053 29.7498 15.3053C28.3703 15.3053 26.9446 14.4066 26.9446 12.7325C26.9446 11.0584 28.479 10.1287 30.1219 10.1287C30.8193 10.1287 31.6252 10.2836 32.4934 10.9968L32.6172 10.4233C32.6947 10.0823 32.7099 9.95847 32.7099 9.86509C32.7099 9.24525 32.0901 9.12141 31.3457 9.12141C30.6948 9.12141 29.5789 9.21413 28.9591 9.32273L28.5253 7.47844C29.2074 7.3546 30.5557 7.2301 31.6093 7.2301C33.6549 7.2301 35.2515 7.69498 35.2515 9.39955C35.2515 9.69424 35.2052 10.1432 35.0502 10.8717L34.5231 13.3206C34.3992 13.9093 34.3681 14.4212 34.3681 15.1033H31.904V14.3748V14.3755ZM32.0589 13.0431L32.1828 12.4074C31.6404 11.8491 31.0828 11.7716 30.6173 11.7716C29.92 11.7716 29.4239 12.0975 29.4239 12.7014C29.4239 13.3835 30.0438 13.6159 30.5087 13.6159C31.0974 13.6159 31.7484 13.2901 32.0583 13.0424L32.0589 13.0431Z" fill="url(#paint2_linear_1448_3874)"/>
<path d="M43.1095 9.9275C42.3347 9.49375 41.2189 9.02887 40.3196 9.02887C40.0096 9.02887 39.56 9.12158 39.4984 9.58712C39.4521 10.0209 39.9322 10.0984 40.5057 10.1911C41.7453 10.4083 43.7141 10.7798 43.7141 12.6711C43.7141 14.4068 42.2109 15.3677 40.1341 15.3677C38.5534 15.3677 37.0806 14.8253 35.8409 13.7869L36.9879 12.1599C37.7786 12.8572 39.0183 13.5393 40.1964 13.5393C40.5527 13.5393 41.1262 13.3843 41.1262 12.8572C41.1262 12.3923 40.5215 12.2526 40.0567 12.1751C38.5686 11.8963 36.9416 11.6327 36.9416 9.92817C36.9416 8.2236 38.3051 7.18457 40.2739 7.18457C41.6533 7.18457 43.1102 7.61833 44.2572 8.31631L43.1102 9.92817L43.1095 9.9275Z" fill="url(#paint3_linear_1448_3874)"/>
<path d="M50.1244 15.1738V12.7692H50.0973L48.9218 14.7513H48.8245L47.649 12.7692H47.6219V15.1738H47.0424V11.6368H47.6649L48.8947 13.7222H48.9053L50.135 11.6368H50.731V15.1738H50.1244Z" fill="url(#paint4_linear_1448_3874)"/>
<path d="M52.919 12.4711C53.7528 12.4711 54.3163 13.0883 54.3163 13.8578C54.3163 14.6273 53.7528 15.2551 52.919 15.2551C52.0853 15.2551 51.5323 14.6432 51.5323 13.8578C51.5323 13.0724 52.0899 12.4711 52.919 12.4711ZM52.919 14.7895C53.4389 14.7895 53.7422 14.3617 53.7422 13.8578C53.7422 13.3538 53.4389 12.9373 52.919 12.9373C52.3992 12.9373 52.1118 13.3704 52.1118 13.8578C52.1118 14.3452 52.4098 14.7895 52.919 14.7895Z" fill="url(#paint5_linear_1448_3874)"/>
<path d="M55.0202 15.1736C55.0692 14.9246 55.0692 14.6809 55.0692 14.4531V11.3823H55.6268V12.877C55.8599 12.6174 56.1413 12.471 56.434 12.471C57.1327 12.471 57.7174 13.0233 57.7174 13.8577C57.7174 14.6921 57.138 15.255 56.434 15.255C56.0116 15.255 55.6864 14.9842 55.5732 14.8107C55.5732 14.9246 55.5626 15.0597 55.5354 15.1736H55.0209H55.0202ZM55.6268 13.3266V14.3988C55.7135 14.5074 55.9791 14.767 56.3797 14.767C56.7804 14.767 57.1002 14.4094 57.1002 13.8571C57.1002 13.3048 56.7804 12.9637 56.3797 12.9637C56.1089 12.9637 55.8433 13.1048 55.6268 13.3266Z" fill="url(#paint6_linear_1448_3874)"/>
<path d="M58.7466 11.3823C58.9472 11.3823 59.1042 11.534 59.1042 11.7075C59.1042 11.881 58.9472 12.0273 58.7466 12.0273C58.5459 12.0273 58.3943 11.8863 58.3943 11.7075C58.3943 11.5287 58.5459 11.3823 58.7466 11.3823ZM58.4704 15.1736V12.5578H59.028V15.1736H58.4704Z" fill="url(#paint7_linear_1448_3874)"/>
<path d="M59.9862 15.1736V11.3823H60.5438V15.1736H59.9862Z" fill="url(#paint8_linear_1448_3874)"/>
<path d="M63.9238 14.7677C63.6371 15.0438 63.1603 15.2551 62.6351 15.2551C61.7954 15.2551 61.3193 14.6326 61.3193 13.8849C61.3193 13.0995 61.8769 12.4711 62.6841 12.4711C63.3126 12.4711 64 12.8558 64 13.8306C64 13.8796 64 13.9333 63.9947 13.9876H61.8822C61.9199 14.4154 62.1855 14.7624 62.6947 14.7624C63.0199 14.7624 63.3444 14.6213 63.5503 14.4048L63.9238 14.7677ZM61.9146 13.5492H63.3821C63.3768 13.132 63.0026 12.9373 62.6563 12.9373C62.2557 12.9373 62.0067 13.2081 61.9146 13.5492Z" fill="url(#paint9_linear_1448_3874)"/>
<path d="M2.71247 1.5L0 4.21247L2.71247 6.92494L5.42494 4.21247L2.71247 1.5ZM1.36484 5.56076V2.86484H4.06142V5.56142H1.36484V5.56076Z" fill="url(#paint10_linear_1448_3874)"/>
<defs>
<linearGradient id="paint0_linear_1448_3874" x1="5.01373" y1="10.044" x2="16.6219" y2="10.044" gradientUnits="userSpaceOnUse">
<stop stop-color="#009FFF"/>
<stop offset="0.15" stop-color="#1084E4"/>
<stop offset="0.41" stop-color="#285ABB"/>
<stop offset="0.65" stop-color="#3B3C9E"/>
<stop offset="0.86" stop-color="#46298C"/>
<stop offset="1" stop-color="#4A2386"/>
</linearGradient>
<linearGradient id="paint1_linear_1448_3874" x1="16.4829" y1="12.7637" x2="26.2162" y2="12.7637" gradientUnits="userSpaceOnUse">
<stop stop-color="#009FFF"/>
<stop offset="0.15" stop-color="#1084E4"/>
<stop offset="0.41" stop-color="#285ABB"/>
<stop offset="0.65" stop-color="#3B3C9E"/>
<stop offset="0.86" stop-color="#46298C"/>
<stop offset="1" stop-color="#4A2386"/>
</linearGradient>
<linearGradient id="paint2_linear_1448_3874" x1="26.9446" y1="11.2683" x2="35.2515" y2="11.2683" gradientUnits="userSpaceOnUse">
<stop stop-color="#009FFF"/>
<stop offset="0.15" stop-color="#1084E4"/>
<stop offset="0.41" stop-color="#285ABB"/>
<stop offset="0.65" stop-color="#3B3C9E"/>
<stop offset="0.86" stop-color="#46298C"/>
<stop offset="1" stop-color="#4A2386"/>
</linearGradient>
<linearGradient id="paint3_linear_1448_3874" x1="35.8409" y1="11.2758" x2="44.2565" y2="11.2758" gradientUnits="userSpaceOnUse">
<stop stop-color="#009FFF"/>
<stop offset="0.15" stop-color="#1084E4"/>
<stop offset="0.41" stop-color="#285ABB"/>
<stop offset="0.65" stop-color="#3B3C9E"/>
<stop offset="0.86" stop-color="#46298C"/>
<stop offset="1" stop-color="#4A2386"/>
</linearGradient>
<linearGradient id="paint4_linear_1448_3874" x1="47.0431" y1="13.4056" x2="50.731" y2="13.4056" gradientUnits="userSpaceOnUse">
<stop stop-color="#009FFF"/>
<stop offset="0.15" stop-color="#1084E4"/>
<stop offset="0.41" stop-color="#285ABB"/>
<stop offset="0.65" stop-color="#3B3C9E"/>
<stop offset="0.86" stop-color="#46298C"/>
<stop offset="1" stop-color="#4A2386"/>
</linearGradient>
<linearGradient id="paint5_linear_1448_3874" x1="51.5323" y1="13.8631" x2="54.3163" y2="13.8631" gradientUnits="userSpaceOnUse">
<stop stop-color="#009FFF"/>
<stop offset="0.15" stop-color="#1084E4"/>
<stop offset="0.41" stop-color="#285ABB"/>
<stop offset="0.65" stop-color="#3B3C9E"/>
<stop offset="0.86" stop-color="#46298C"/>
<stop offset="1" stop-color="#4A2386"/>
</linearGradient>
<linearGradient id="paint6_linear_1448_3874" x1="55.0202" y1="13.3187" x2="57.7174" y2="13.3187" gradientUnits="userSpaceOnUse">
<stop stop-color="#009FFF"/>
<stop offset="0.15" stop-color="#1084E4"/>
<stop offset="0.41" stop-color="#285ABB"/>
<stop offset="0.65" stop-color="#3B3C9E"/>
<stop offset="0.86" stop-color="#46298C"/>
<stop offset="1" stop-color="#4A2386"/>
</linearGradient>
<linearGradient id="paint7_linear_1448_3874" x1="58.3943" y1="13.2783" x2="59.1042" y2="13.2783" gradientUnits="userSpaceOnUse">
<stop stop-color="#009FFF"/>
<stop offset="0.15" stop-color="#1084E4"/>
<stop offset="0.41" stop-color="#285ABB"/>
<stop offset="0.65" stop-color="#3B3C9E"/>
<stop offset="0.86" stop-color="#46298C"/>
<stop offset="1" stop-color="#4A2386"/>
</linearGradient>
<linearGradient id="paint8_linear_1448_3874" x1="59.9862" y1="13.2783" x2="60.5445" y2="13.2783" gradientUnits="userSpaceOnUse">
<stop stop-color="#009FFF"/>
<stop offset="0.15" stop-color="#1084E4"/>
<stop offset="0.41" stop-color="#285ABB"/>
<stop offset="0.65" stop-color="#3B3C9E"/>
<stop offset="0.86" stop-color="#46298C"/>
<stop offset="1" stop-color="#4A2386"/>
</linearGradient>
<linearGradient id="paint9_linear_1448_3874" x1="61.3186" y1="13.8631" x2="64" y2="13.8631" gradientUnits="userSpaceOnUse">
<stop stop-color="#009FFF"/>
<stop offset="0.15" stop-color="#1084E4"/>
<stop offset="0.41" stop-color="#285ABB"/>
<stop offset="0.65" stop-color="#3B3C9E"/>
<stop offset="0.86" stop-color="#46298C"/>
<stop offset="1" stop-color="#4A2386"/>
</linearGradient>
<linearGradient id="paint10_linear_1448_3874" x1="0" y1="4.21247" x2="5.4256" y2="4.21247" gradientUnits="userSpaceOnUse">
<stop stop-color="#009FFF"/>
<stop offset="0.07" stop-color="#0595F5"/>
<stop offset="0.51" stop-color="#2A57B9"/>
<stop offset="0.83" stop-color="#413194"/>
<stop offset="1" stop-color="#4A2386"/>
</linearGradient>
</defs>
</svg>
