<svg width="60" height="20" fill="none" xmlns="http://www.w3.org/2000/svg"><path d="M52.11 14.888c-.72-.08-.972-.245-.975-.841a40.803 40.803 0 0 1 .054-4.326 2.53 2.53 0 0 1 2.705-2.234c.431.032.848.175 1.209.414a.674.674 0 0 0 .848 0c1.595-.998 3.452-.21 3.905 1.641l-.02 5.452h-.89a1.747 1.747 0 0 1-.558-1.499 56.507 56.507 0 0 0 0-3.449 1.01 1.01 0 0 0-1.046-1.087 1.098 1.098 0 0 0-1.072 1.09V14.085a.684.684 0 0 1-.698.778c-.476.032-.744-.233-.785-.765-.016-.172 0-.345 0-.513v-3.507a1.068 1.068 0 0 0-.903-1.09 1.018 1.018 0 0 0-1.154.704 2.744 2.744 0 0 0-.064.727v3.446c0 .45-.109.813-.555 1.023Z" fill="#717375"/><path d="M30.56 15c-.775-.35-1.572-.638-2.168-1.307a3.824 3.824 0 0 1 .165-5.149 3.51 3.51 0 0 1 4.833-.194 3.614 3.614 0 0 1 1.209 2.133c.15.829-.099 1.154-.935 1.157h-4.086c-.587 0-.638.118-.38.637.639 1.206 2.205 1.505 3.468.638.185-.121.338-.29.517-.417.338-.236.698-.294 1.001.038a.683.683 0 0 1 0 .991 4.08 4.08 0 0 1-2.344 1.307c-.137.029-.32-.028-.383.15L30.56 15Zm2.552-4.438c-.443-1.131-1.244-1.673-2.233-1.594a1.895 1.895 0 0 0-1.748 1.594h3.981Z" fill="#6F7173"/><path d="M19.265 15c-.117-.24-.38-.194-.574-.265a3.687 3.687 0 0 1-2.42-3.283 3.693 3.693 0 0 1 2.296-3.733c2.191-.82 4.51.596 4.836 3.006.083.609-.204.905-.855.912-1.385.016-2.769 0-4.147 0-.683 0-.743.105-.418.685.673 1.19 2.255 1.454 3.48.58.179-.127.338-.29.523-.408a.667.667 0 0 1 .938.035.679.679 0 0 1 0 .992 4.073 4.073 0 0 1-2.182 1.3c-.153.042-.363-.05-.446.173l-1.03.006Zm2.552-4.431a2.018 2.018 0 0 0-2.016-1.594 2.055 2.055 0 0 0-1.958 1.594h3.974Z" fill="#6E7072"/><path d="M46.015 15c-.14-.258-.427-.198-.638-.284a3.744 3.744 0 0 1-2.341-3.803 3.58 3.58 0 0 1 3.492-3.394 3.583 3.583 0 0 1 3.65 3.225c.172 2.075-.9 3.558-2.97 4.11-.057 0-.102.089-.15.137L46.015 15Zm2.727-3.768a2.132 2.132 0 0 0-2.918-2.097 2.134 2.134 0 0 0-1.346 2.001c-.026 1.276.867 2.254 2.08 2.267a2.116 2.116 0 0 0 2.184-2.171Z" fill="#6F7173"/><path d="M38.28 15c-.137-.258-.428-.207-.638-.296a3.748 3.748 0 0 1-2.329-3.826 3.7 3.7 0 0 1 2.648-3.268 3.51 3.51 0 0 1 3.828 1.346c.319.424.319.838-.023 1.112-.341.274-.743.24-1.097-.175-.673-.79-1.467-1.141-2.494-.771-.887.318-1.407 1.163-1.375 2.209a2.21 2.21 0 0 0 1.48 1.998 2.09 2.09 0 0 0 2.357-.812c.057-.08.105-.166.163-.246.319-.446.689-.558 1.062-.335.373.224.427.638.172 1.103a3.556 3.556 0 0 1-2.319 1.802c-.134.035-.319-.026-.376.159h-1.06Z" fill="#707273"/><path d="M13.916 15c-1.47-.354-1.754-1.396-1.668-2.71.06-.902 0-1.807 0-2.713 0-.318-.073-.51-.45-.481a1.187 1.187 0 0 1-.504-.08.638.638 0 0 1-.446-.74.675.675 0 0 1 .711-.637c.699.07.769-.293.711-.829a4.832 4.832 0 0 1 0-.803.976.976 0 0 1 .928-.956.919.919 0 0 1 .871.934c.023.39.023.782 0 1.173 0 .319.086.51.456.475.172-.018.345-.018.517 0a.661.661 0 0 1 .664.657.695.695 0 0 1-.565.755l-.143.035c-.284.054-.657-.13-.842.115-.186.245-.07.66-.077.998 0 .758-.02 1.514 0 2.273.02.71.121.797.823.81.198-.012.396-.012.593 0 .32.044.578.175.638.522a.752.752 0 0 1-.405.79c-.376.253-.87.093-1.225.387l-.587.025Z" fill="#6E7072"/><path d="M24.915 15a1.571 1.571 0 0 1-.479-1.243c.023-2.496 0-4.99 0-7.482a3.056 3.056 0 0 1 .016-.514.81.81 0 0 1 .855-.755.833.833 0 0 1 .919.679c.045.24.06.486.044.73v7.186A1.747 1.747 0 0 1 25.795 15h-.88Z" fill="#6C6E70"/><path d="M2.844 9.992c-.092 1.1-.031 2.2-.05 3.3 0 .889-.492 1.479-1.248 1.536C.79 14.885.14 14.343.028 13.45a7.856 7.856 0 0 1-.022-.957V6.488c.063-.577.283-1.048.877-1.252a1.34 1.34 0 0 1 1.544.408c.957 1.109 1.913 2.231 2.87 3.35l.99 1.141c.102-.434.134-.882.095-1.326V6.606a1.415 1.415 0 0 1 1.375-1.45 1.34 1.34 0 0 1 1.41 1.383c.025 2.299 0 4.597 0 6.896a1.316 1.316 0 0 1-.9 1.3 1.277 1.277 0 0 1-1.534-.41c-.9-1.037-1.764-2.108-2.648-3.163-.319-.396-.673-.778-1.008-1.164-.019-.089-.063-.146-.162-.143l-.083-.1c0 .023-.026.046-.023.065 0 .067.039.083.096.044l-.06.128Z" fill="#9BCE05"/><path d="M2.921 9.855c.099 0 .144.054.163.143h-.24l.067-.127.01-.016Z" fill="#9BCE05"/><path d="M2.911 9.864c-.057.039-.092.023-.095-.044 0-.02 0-.042.022-.064l.083.099-.01.01Z" fill="#9BCE05"/></svg>