<svg width="40" height="20" viewBox="0 0 40 20" fill="none" xmlns="http://www.w3.org/2000/svg">
<path d="M39.9282 19.7322C39.9282 14.4989 37.8493 9.47991 34.1488 5.77942C30.4483 2.07892 25.4293 3.99759e-07 20.196 4.65672e-09C14.9627 -3.90446e-07 9.94378 2.07892 6.24328 5.77941C2.54279 9.47991 0.463868 14.4989 0.463867 19.7322H5.39691C5.39691 15.8072 6.95609 12.043 9.73147 9.2676C12.5068 6.49223 16.2711 4.93304 20.196 4.93304C24.121 4.93304 27.8852 6.49223 30.6606 9.2676C33.436 12.043 34.9951 15.8072 34.9951 19.7322H39.9282Z" fill="#7C5FE5"/>
<path d="M10.6394 2.46865C7.5475 4.18024 4.97204 6.69078 3.18209 9.73796C1.39214 12.7851 0.453397 16.2571 0.463955 19.7911L5.39697 19.7764C5.38905 17.1259 6.09311 14.5219 7.43557 12.2365C8.77803 9.95112 10.7096 8.06822 13.0285 6.78453L10.6394 2.46865Z" fill="#CDC2F5"/>
<path d="M30.0621 2.64361C27.0699 0.916066 23.6766 0.00447464 20.2215 1.64313e-05C16.7664 -0.00444177 13.3707 0.898389 10.3741 2.6182L12.8296 6.89669C15.077 5.60683 17.6238 4.92971 20.2151 4.93305C22.8064 4.93639 25.3514 5.62009 27.5956 6.91574L30.0621 2.64361Z" fill="#A692ED"/>
<path d="M20.6606 2.604L21.6737 19.2661H19.6475L20.6606 2.604Z" fill="#542FDD"/>
<path d="M21.7616 18.8991C21.7616 19.5072 21.2687 20.0001 20.6606 20.0001C20.0525 20.0001 19.5596 19.5072 19.5596 18.8991C19.5596 18.291 20.0525 17.7981 20.6606 17.7981C21.2687 17.7981 21.7616 18.291 21.7616 18.8991Z" fill="#542FDD"/>
</svg>
