<svg width="41" height="20" viewBox="0 0 41 20" fill="none" xmlns="http://www.w3.org/2000/svg">
<path d="M40.392 19.7322C40.392 14.4989 38.3131 9.47991 34.6126 5.77942C30.9121 2.07892 25.8932 3.99759e-07 20.6599 4.65672e-09C15.4266 -3.90446e-07 10.4076 2.07892 6.70715 5.77941C3.00665 9.47991 0.927735 14.4989 0.927734 19.7322H5.86077C5.86077 15.8072 7.41996 12.043 10.1953 9.2676C12.9707 6.49223 16.7349 4.93304 20.6599 4.93304C24.5849 4.93304 28.3491 6.49223 31.1244 9.2676C33.8998 12.043 35.459 15.8072 35.459 19.7322H40.392Z" fill="#7C5FE5"/>
<path d="M11.1032 2.46865C8.01137 4.18024 5.43591 6.69078 3.64595 9.73796C1.856 12.7851 0.917264 16.2571 0.927822 19.7911L5.86084 19.7764C5.85292 17.1259 6.55698 14.5219 7.89944 12.2365C9.2419 9.95112 11.1735 8.06822 13.4924 6.78453L11.1032 2.46865Z" fill="#CDC2F5"/>
<path d="M30.526 2.64361C27.5338 0.916066 24.1404 0.00447464 20.6854 1.64313e-05C17.2303 -0.00444177 13.8346 0.898389 10.8379 2.6182L13.2934 6.89669C15.5409 5.60683 18.0877 4.92971 20.679 4.93305C23.2703 4.93639 25.8153 5.62009 28.0594 6.91574L30.526 2.64361Z" fill="#A692ED"/>
<path d="M34.8053 11.3535L20.3742 19.5982L19.4816 17.789L34.8053 11.3535Z" fill="#542FDD"/>
<path d="M20.7406 19.515C20.1977 19.7829 19.5404 19.5599 19.2725 19.0169C19.0046 18.474 19.2276 17.8167 19.7706 17.5488C20.3135 17.2809 20.9708 17.5039 21.2387 18.0469C21.5066 18.5898 21.2836 19.2471 20.7406 19.515Z" fill="#542FDD"/>
</svg>
