<svg width="14" height="15" viewBox="0 0 14 15" fill="none" xmlns="http://www.w3.org/2000/svg">
<g clip-path="url(#clip0_575_2641)">
<path d="M10.8784 2.16234L11.2343 4.41401L13.2818 5.45818L12.2493 7.49984L13.2876 9.54151L11.2226 10.5857L10.8668 12.8373L8.5976 12.4815L6.98177 14.0915L5.3601 12.4582L3.10844 12.8315L2.74677 10.5623L0.710938 9.52401L1.74927 7.48234L0.716771 5.45818L2.76427 4.40234L3.1201 2.16818L5.3776 2.54151L6.99927 0.902344L8.6151 2.51818L10.8784 2.16234ZM5.54094 4.58318C5.30887 4.58318 5.08631 4.67536 4.92222 4.83946C4.75812 5.00355 4.66594 5.22611 4.66594 5.45818C4.66594 5.69024 4.75812 5.9128 4.92222 6.0769C5.08631 6.24099 5.30887 6.33318 5.54094 6.33318C5.773 6.33318 5.99556 6.24099 6.15966 6.0769C6.32375 5.9128 6.41594 5.69024 6.41594 5.45818C6.41594 5.22611 6.32375 5.00355 6.15966 4.83946C5.99556 4.67536 5.773 4.58318 5.54094 4.58318ZM8.4576 8.66651C8.22554 8.66651 8.00298 8.7587 7.83889 8.92279C7.67479 9.08689 7.5826 9.30945 7.5826 9.54151C7.5826 9.77358 7.67479 9.99613 7.83889 10.1602C8.00298 10.3243 8.22554 10.4165 8.4576 10.4165C8.68967 10.4165 8.91223 10.3243 9.07632 10.1602C9.24042 9.99613 9.3326 9.77358 9.3326 9.54151C9.3326 9.30945 9.24042 9.08689 9.07632 8.92279C8.91223 8.7587 8.68967 8.66651 8.4576 8.66651ZM4.9051 10.4165L9.91594 5.40568L9.09344 4.58318L4.0826 9.59401L4.9051 10.4165Z" fill="#542FDD"/>
</g>
<defs>
<clipPath id="clip0_575_2641">
<rect width="14" height="14" fill="white" transform="translate(0 0.5)"/>
</clipPath>
</defs>
</svg>
