<svg width="14" height="14" viewBox="0 0 14 14" fill="none" xmlns="http://www.w3.org/2000/svg">
<path d="M6.10326 1.31689C6.47008 0.573647 7.52992 0.573649 7.89674 1.31689L9.11847 3.7924C9.26413 4.08754 9.5457 4.29211 9.87141 4.33944L12.6033 4.73641C13.4235 4.85559 13.751 5.86356 13.1575 6.4421L11.1807 8.36901C10.945 8.59875 10.8375 8.92975 10.8931 9.25414L11.3598 11.975C11.4999 12.7919 10.6424 13.4149 9.90881 13.0292L7.46534 11.7446C7.17402 11.5914 6.82598 11.5914 6.53466 11.7446L4.09119 13.0292C3.35756 13.4149 2.50013 12.7919 2.64024 11.975L3.1069 9.25414C3.16254 8.92975 3.05499 8.59875 2.81931 8.36901L0.842496 6.4421C0.248979 5.86356 0.576491 4.85559 1.39671 4.73641L4.12859 4.33944C4.4543 4.29211 4.73587 4.08754 4.88153 3.7924L6.10326 1.31689Z" fill="#0D173F"/>
</svg>
