<svg width="33" height="32" viewBox="0 0 33 32" fill="none" xmlns="http://www.w3.org/2000/svg">
<path d="M7.66797 14.1919C7.66797 13.1414 7.87489 12.1011 8.27693 11.1305C8.67897 10.1599 9.26825 9.27795 10.0111 8.53508C10.4016 8.14456 11.0348 8.14456 11.4253 8.53508C11.8159 8.9256 11.8159 9.55877 11.4253 9.94929C10.8682 10.5064 10.4262 11.1679 10.1247 11.8958C9.82316 12.6238 9.66797 13.404 9.66797 14.1919C9.66797 14.9799 9.82316 15.7601 10.1247 16.488C10.4262 17.216 10.8682 17.8774 11.4253 18.4346C11.8159 18.8251 11.8159 19.4583 11.4253 19.8488C11.0348 20.2393 10.4016 20.2393 10.0111 19.8488C9.26825 19.1059 8.67897 18.224 8.27693 17.2534C7.8749 16.2828 7.66797 15.2425 7.66797 14.1919Z" fill="#1A71FF"/>
<path d="M25.668 14.1919C25.668 13.1414 25.461 12.1011 25.059 11.1305C24.657 10.1599 24.0677 9.27795 23.3248 8.53508C22.9343 8.14456 22.3011 8.14456 21.9106 8.53508C21.5201 8.9256 21.5201 9.55877 21.9106 9.94929C22.4678 10.5064 22.9097 11.1679 23.2112 11.8958C23.5128 12.6238 23.668 13.404 23.668 14.1919C23.668 14.9799 23.5128 15.7601 23.2112 16.488C22.9097 17.216 22.4678 17.8774 21.9106 18.4346C21.5201 18.8251 21.5201 19.4583 21.9106 19.8488C22.3011 20.2393 22.9343 20.2393 23.3248 19.8488C24.0677 19.1059 24.657 18.224 25.059 17.2534C25.461 16.2828 25.668 15.2425 25.668 14.1919Z" fill="#1A71FF"/>
<g opacity="0.15">
<path d="M2.66797 14.1924C2.66797 12.3539 3.03009 10.5334 3.73365 8.83482C4.43722 7.13626 5.46845 5.59291 6.76847 4.29289C7.159 3.90237 7.79216 3.90237 8.18269 4.29289C8.57321 4.68342 8.57321 5.31658 8.18269 5.70711C7.06838 6.82141 6.18447 8.14428 5.58141 9.60019C4.97836 11.0561 4.66797 12.6165 4.66797 14.1924C4.66797 15.7683 4.97836 17.3287 5.58142 18.7846C6.18447 20.2405 7.06839 21.5634 8.18269 22.6777C8.57322 23.0682 8.57322 23.7014 8.18269 24.0919C7.79217 24.4824 7.159 24.4824 6.76848 24.0919C5.46846 22.7919 4.43722 21.2485 3.73366 19.55C3.03009 17.8514 2.66797 16.0309 2.66797 14.1924Z" fill="#1A71FF"/>
<path d="M30.668 14.1924C30.668 12.3539 30.3058 10.5334 29.6023 8.83482C28.8987 7.13626 27.8675 5.59291 26.5675 4.29289C26.1769 3.90237 25.5438 3.90237 25.1533 4.29289C24.7627 4.68342 24.7627 5.31658 25.1533 5.70711C26.2676 6.82141 27.1515 8.14428 27.7545 9.60019C28.3576 11.0561 28.668 12.6165 28.668 14.1924C28.668 15.7683 28.3576 17.3287 27.7545 18.7846C27.1515 20.2405 26.2675 21.5634 25.1532 22.6777C24.7627 23.0682 24.7627 23.7014 25.1532 24.0919C25.5438 24.4824 26.1769 24.4824 26.5675 24.0919C27.8675 22.7919 28.8987 21.2485 29.6023 19.55C30.3058 17.8514 30.668 16.0309 30.668 14.1924Z" fill="#1A71FF"/>
</g>
<path fill-rule="evenodd" clip-rule="evenodd" d="M16.668 10.1924C14.4588 10.1924 12.668 11.9832 12.668 14.1924C12.668 15.9722 13.8303 17.4804 15.4374 17.9995L13.0661 25.7059C12.8683 26.349 13.3491 27 14.0219 27H19.314C19.9868 27 20.4677 26.349 20.2698 25.7059L17.8986 17.9995C19.5056 17.4804 20.668 15.9722 20.668 14.1924C20.668 11.9832 18.8771 10.1924 16.668 10.1924ZM14.668 14.1924C14.668 13.0878 15.5634 12.1924 16.668 12.1924C17.7725 12.1924 18.668 13.0878 18.668 14.1924C18.668 15.297 17.7725 16.1924 16.668 16.1924C15.5634 16.1924 14.668 15.297 14.668 14.1924Z" fill="#1A71FF"/>
</svg>
