<svg width="32" height="32" viewBox="0 0 32 32" fill="none" xmlns="http://www.w3.org/2000/svg">
<g clip-path="url(#clip0_386_310)">
<path d="M8.91016 15.2125H11.2727C11.6904 15.2125 12.091 15.3784 12.3863 15.6738C12.6817 15.9692 12.8477 16.3698 12.8477 16.7875V19.15C12.8477 19.5677 12.6817 19.9683 12.3863 20.2637C12.091 20.5591 11.6904 20.725 11.2727 20.725H10.4852C10.0674 20.725 9.66683 20.5591 9.37146 20.2637C9.07609 19.9683 8.91016 19.5677 8.91016 19.15V15.2125ZM8.91016 15.2125C8.91016 14.2818 9.09348 13.3601 9.44966 12.5002C9.80584 11.6403 10.3279 10.859 10.986 10.2009C11.6442 9.54275 12.4255 9.02068 13.2854 8.6645C14.1453 8.30832 15.0669 8.125 15.9977 8.125C16.9284 8.125 17.85 8.30832 18.7099 8.6645C19.5698 9.02068 20.3511 9.54275 21.0093 10.2009C21.6674 10.859 22.1895 11.6403 22.5457 12.5002C22.9018 13.3601 23.0852 14.2818 23.0852 15.2125M23.0852 15.2125V19.15M23.0852 15.2125H20.7227C20.3049 15.2125 19.9043 15.3784 19.609 15.6738C19.3136 15.9692 19.1477 16.3698 19.1477 16.7875V19.15C19.1477 19.5677 19.3136 19.9683 19.609 20.2637C19.9043 20.5591 20.3049 20.725 20.7227 20.725H21.5102C21.9279 20.725 22.3285 20.5591 22.6238 20.2637C22.9192 19.9683 23.0852 19.5677 23.0852 19.15M23.0852 19.15V20.725C23.0852 21.5604 22.7533 22.3616 22.1625 22.9524C21.5718 23.5431 20.7706 23.875 19.9352 23.875H15.9977" stroke="#2A2B2D" stroke-width="1.5" stroke-linecap="round" stroke-linejoin="round"/>
<rect x="19.1484" y="15.2129" width="3.9375" height="5.5125" fill="#2A2B2D"/>
<rect x="8.91016" y="15.2129" width="3.9375" height="5.5125" fill="#2A2B2D"/>
</g>
<defs>
<clipPath id="clip0_386_310">
<rect width="32" height="32" fill="white"/>
</clipPath>
</defs>
</svg>
