<svg width="24" height="24" viewBox="0 0 24 24" fill="none" xmlns="http://www.w3.org/2000/svg">
<g clip-path="url(#clip0_1_691)">
<path d="M3 10.5648C3 9.99045 3 9.70327 3.07403 9.43881C3.1396 9.20454 3.24737 8.9842 3.39203 8.78861C3.55534 8.56781 3.78202 8.3915 4.23539 8.03888L11.0177 2.76375C11.369 2.4905 11.5447 2.35388 11.7387 2.30136C11.9098 2.25502 12.0902 2.25502 12.2613 2.30136C12.4553 2.35388 12.631 2.4905 12.9823 2.76376L19.7646 8.03888C20.218 8.3915 20.4447 8.56781 20.608 8.78861C20.7526 8.9842 20.8604 9.20454 20.926 9.43881C21 9.70327 21 9.99045 21 10.5648V17.7997C21 18.9198 21 19.4799 20.782 19.9077C20.5903 20.284 20.2843 20.59 19.908 20.7818C19.4802 20.9997 18.9201 20.9997 17.8 20.9997H6.2C5.0799 20.9997 4.51984 20.9997 4.09202 20.7818C3.71569 20.59 3.40973 20.284 3.21799 19.9077C3 19.4799 3 18.9198 3 17.7997V10.5648Z" fill="#B7B9BA"/>
<rect x="9" y="13" width="6" height="10" rx="1.5" fill="white"/>
</g>
<defs>
<clipPath id="clip0_1_691">
<rect width="24" height="24" fill="white"/>
</clipPath>
</defs>
</svg>
