<svg width="52" height="24" viewBox="0 0 52 24" fill="none" xmlns="http://www.w3.org/2000/svg">
<g clip-path="url(#clip0_368_3183)">
<path d="M2 9.08061V6.40039H12.4V9.08061H2Z" fill="#B7B9BA"/>
<path d="M5.69705 17.7458V9.92031L8.69243 11.4703V17.7458H5.69705Z" fill="#B7B9BA"/>
<path d="M22.5746 15.8398L20.3953 13.1566L23.5624 9.25695H21.8338C21.059 9.25695 20.5275 9.49287 20.0566 10.0455L18.3868 12.0972V6.45801H16.7124C16.5233 6.45849 16.3421 6.53395 16.2085 6.66784C16.075 6.80172 16 6.9831 16 7.1722V17.6942H17.6744C17.8635 17.6937 18.0447 17.6182 18.1782 17.4843C18.3118 17.3505 18.3868 17.1691 18.3868 16.98V14.1801L19.7408 15.8426L20.8947 17.2636C20.9945 17.3958 21.1235 17.5031 21.2715 17.5771C21.4196 17.6512 21.5829 17.69 21.7484 17.6905H24.0875L22.5746 15.8398Z" fill="#B7B9BA"/>
<path d="M23.4979 17.3426C23.3611 17.1938 22.8214 16.4852 22.1503 15.6893C21.259 14.6373 20.3474 13.431 20.1188 13.1648C20.4676 12.7343 22.7397 9.93991 23.0123 9.60852L23.1316 9.46898H21.7427C21.4577 9.47497 21.1769 9.53912 20.9175 9.65752C20.6582 9.77591 20.4257 9.94604 20.2345 10.1575L18.2443 12.6057C18.2408 12.6098 18.2366 12.6131 18.2319 12.6154C18.2272 12.6178 18.222 12.6192 18.2167 12.6195C18.2117 12.6196 18.2066 12.6187 18.2019 12.6168C18.1971 12.6149 18.1928 12.6121 18.1892 12.6085C18.1854 12.605 18.1824 12.6007 18.1804 12.596C18.1783 12.5912 18.1773 12.5861 18.1773 12.581V6.67188H16.7131C16.5793 6.6726 16.4513 6.72637 16.3572 6.82138C16.2631 6.91638 16.2105 7.04486 16.2109 7.1786V17.4876H17.6751C17.7414 17.4874 17.807 17.4741 17.8682 17.4485C17.9294 17.4229 17.9849 17.3855 18.0316 17.3384C18.0783 17.2914 18.1153 17.2356 18.1405 17.1742C18.1656 17.1129 18.1784 17.0472 18.1782 16.9809V13.6467C18.1778 13.6389 18.1798 13.6311 18.184 13.6245C18.1882 13.6179 18.1944 13.6127 18.2017 13.6098C18.209 13.6068 18.217 13.6063 18.2247 13.6081C18.2323 13.61 18.2392 13.6142 18.2443 13.6201L19.9242 15.692L21.0928 17.1287C21.292 17.3536 21.5536 17.4885 21.7932 17.4885H23.6329L23.4979 17.3426Z" fill="#B7B9BA"/>
<path d="M26.8696 17.6942C25.577 17.6942 24.6875 16.8046 24.6875 15.5149V7.17128C24.6882 6.98186 24.764 6.80044 24.8982 6.66675C25.0324 6.53307 25.2141 6.45801 25.4035 6.45801H27.0779V15.0669C27.0779 15.2368 27.1453 15.3999 27.2652 15.5203C27.3851 15.6407 27.5478 15.7088 27.7178 15.7095H29.4234V16.9837C29.4229 17.1732 29.3473 17.3549 29.213 17.4888C29.0788 17.6227 28.897 17.6978 28.7074 17.6978L26.8696 17.6942Z" fill="#B7B9BA"/>
<path d="M26.8721 17.4873C25.6953 17.4873 24.8984 16.6914 24.8984 15.5173V7.17274C24.8984 7.03835 24.9518 6.90946 25.0469 6.81443C25.1419 6.7194 25.2708 6.66602 25.4052 6.66602H26.8712V15.0674C26.8714 15.2927 26.9609 15.5088 27.1201 15.6683C27.2792 15.8277 27.495 15.9177 27.7203 15.9184H29.2166V16.9833C29.2166 17.1177 29.1633 17.2466 29.0682 17.3416C28.9732 17.4366 28.8443 17.49 28.7099 17.49L26.8721 17.4873Z" fill="#B7B9BA"/>
<path d="M27.8797 9.53593H21.6282C20.7809 9.53593 20.2227 9.83519 19.8289 10.3162L18.6172 11.8125C19.056 11.4784 19.66 11.2801 20.2787 11.2801H27.8797C28.8436 11.2801 29.7707 10.9845 29.7707 10.2253C29.7707 9.46616 29.6835 9.04297 29.6835 9.04297C29.6835 9.04297 29.23 9.53593 27.8797 9.53593Z" fill="#B7B9BA"/>
<path d="M18.6337 11.7889L20.0327 10.0658C20.3779 9.6426 20.8323 9.25062 21.7907 9.25062H27.8806C29.1686 9.25062 29.6165 8.79346 29.622 8.78887L29.7689 8.63281V10.2209C29.7689 10.2209 29.7882 10.4486 29.5789 10.679C29.2851 11.0003 28.7132 11.1637 27.8806 11.1637H20.2641C19.2938 11.1637 18.6328 11.7898 18.6328 11.7898L18.6337 11.7889Z" fill="#B7B9BA"/>
<path d="M40.5658 6.18422V13.4882C40.5658 13.4882 40.5329 14.8616 40.0071 15.3298C39.4648 15.798 39.0047 16.0009 38.2817 16.0009C37.5587 16.0009 37.0986 15.798 36.5563 15.3298C36.014 14.8616 35.9976 13.4882 35.9976 13.4882V6.18422H33.582V13.4414C33.582 14.8148 33.8121 16.0165 34.9295 16.9373C35.9812 17.7956 38.2981 17.7956 38.2981 17.7956C38.2981 17.7956 40.6151 17.7956 41.6668 16.9373C42.7677 16.0321 43.0142 14.8148 43.0142 13.4414V6.18422H40.5658ZM52.0684 6.18422H49.1106V3.375H47.2045V6.18422H44.2466V7.9946H47.2045V10.8038H49.1106V7.9946H52.0684V6.18422Z" fill="#B7B9BA"/>
</g>
<defs>
<clipPath id="clip0_368_3183">
<rect width="52" height="24" fill="white"/>
</clipPath>
</defs>
</svg>
