<svg width="14" height="14" viewBox="0 0 14 14" fill="none" xmlns="http://www.w3.org/2000/svg">
<circle cx="7" cy="7" r="7" fill="#D9D9D9"/>
<path d="M7.74863 7.97968C7.74179 8.28926 7.48886 8.53665 7.1792 8.53665C6.8697 8.53665 6.61684 8.28949 6.60978 7.98007L6.52289 4.1701C6.51451 3.80251 6.8102 3.5 7.17788 3.5C7.54539 3.5 7.84101 3.80223 7.83289 4.16965L7.74863 7.97968ZM6.41711 9.94288C6.41479 9.80597 6.44727 9.6795 6.51457 9.56347C6.58418 9.44745 6.677 9.35579 6.79303 9.2885C6.91138 9.2212 7.04016 9.18755 7.17939 9.18755C7.31398 9.18755 7.43929 9.2212 7.55532 9.2885C7.67366 9.35579 7.76764 9.44745 7.83726 9.56347C7.90687 9.6795 7.94168 9.80597 7.94168 9.94288C7.94168 10.0798 7.90687 10.2074 7.83726 10.3258C7.76764 10.4418 7.67366 10.5346 7.55532 10.6042C7.43929 10.6715 7.31398 10.7052 7.17939 10.7052C7.04016 10.7052 6.91138 10.6715 6.79303 10.6042C6.677 10.5346 6.58418 10.4418 6.51457 10.3258C6.44727 10.2074 6.41479 10.0798 6.41711 9.94288Z" fill="#63666A"/>
</svg>
