<svg width="47" height="16" viewBox="0 0 47 16" fill="none" xmlns="http://www.w3.org/2000/svg">
<path d="M43.5161 3.20394V0L41.1473 0V3.20394H38.019V5.46565H41.1473V8.63327H43.5161V5.46565H46.6666V3.20394H43.5161Z" fill="#B7B9BA"/>
<path d="M33.1114 3.17969V10.4329C33.1114 12.4646 32.1017 13.4634 30.3932 13.4634C28.6847 13.4634 27.6749 12.4646 27.6749 10.4329V3.17969H24.7891V10.4773C24.7891 14.4883 26.9257 15.9954 30.2902 15.9954H30.4962C33.8607 15.9954 35.9974 14.4883 35.9974 10.4773V3.17969H33.1095H33.1114Z" fill="#B7B9BA"/>
<path d="M3.61299 15.8098H8.9727V13.3504H2.92227V3.17773H0L0 15.8098H3.61299Z" fill="#B7B9BA"/>
<path d="M15.4007 10.9959H17.7796V13.2052C17.3415 13.3727 16.4851 13.5401 15.6733 13.5401C13.0439 13.5401 12.1674 12.2045 12.1674 9.49694C12.1674 6.78928 13.0015 5.38908 15.631 5.38908C17.0931 5.38908 17.9271 5.84708 18.6157 6.72271L20.4313 5.05618C19.3246 3.47238 17.3838 2.99219 15.5684 2.99219C11.4788 2.99219 9.33008 5.22163 9.33008 9.47474C9.33008 13.7278 11.2688 15.9996 15.5481 15.9996C17.5091 15.9996 19.4296 15.4992 20.4737 14.7689V8.64143H15.4027V10.998L15.4007 10.9959Z" fill="#B7B9BA"/>
</svg>
