<svg width="24" height="24" viewBox="0 0 24 24" fill="none" xmlns="http://www.w3.org/2000/svg">
<path d="M14.2326 4.67751L15.781 3.12906C16.5621 2.34801 17.8284 2.34801 18.6095 3.12906L20.9667 5.48635C21.7478 6.26739 21.7478 7.53372 20.9667 8.31477L19.4183 9.86322M14.2326 4.67751L8.35857 10.5515C8.16209 10.7479 8.05168 11.0144 8.05162 11.2922V15.0442C8.05162 15.5965 8.49933 16.0442 9.05162 16.0442H12.8036C13.0814 16.0441 13.3479 15.9337 13.5443 15.7372L19.4183 9.86322M14.2326 4.67751L19.4183 9.86322M20.8571 15.4291V18.2863C20.8571 20.4954 19.0663 22.2863 16.8571 22.2863H6C3.79086 22.2863 2 20.4954 2 18.2863V7.42913C2 5.21999 3.79086 3.42913 6 3.42913H8" stroke="#555555" stroke-width="1.6" stroke-linecap="round" stroke-linejoin="round"/>
</svg>
