<svg width="64" height="64" viewBox="0 0 64 64" fill="none" xmlns="http://www.w3.org/2000/svg">
<path d="M20 24C20 22.8954 20.8954 22 22 22H31.9995C32.5019 22 32.9616 22.1853 33.3129 22.4912C33.4381 22.5999 33.5508 22.7252 33.6472 22.8653C33.7434 23.0047 33.8224 23.157 33.8811 23.3191L36 28.7231L38.1381 23.2704C38.5413 22.2421 39.7018 21.7353 40.7301 22.1386C41.7585 22.5418 42.2652 23.7023 41.862 24.7306L37.941 34.7306C37.6217 35.545 36.8274 36.0322 36 35.9995C35.1726 36.0322 34.3784 35.545 34.0591 34.7306L30.6358 26H28V34C28 35.1046 27.1046 36 26 36C24.8954 36 24 35.1046 24 34V26H22C20.8954 26 20 25.1046 20 24Z" fill="black"/>
<path fill-rule="evenodd" clip-rule="evenodd" d="M12 10C8.68629 10 6 12.6863 6 16V40C6 43.3137 8.68629 46 12 46H26L26 50H22C20.8954 50 20 50.8954 20 52C20 53.1046 20.8954 54 22 54H42C43.1046 54 44 53.1046 44 52C44 50.8954 43.1046 50 42 50H38V46H52C55.3137 46 58 43.3137 58 40V16C58 12.6863 55.3137 10 52 10H12ZM30 50H34L34 46H30L30 50ZM52 42C53.1046 42 54 41.1046 54 40V16C54 14.8954 53.1046 14 52 14H12C10.8954 14 10 14.8954 10 16V40C10 41.1046 10.8954 42 12 42H52Z" fill="black"/>
<path d="M20 24C20 22.8954 20.8954 22 22 22H31.9995C32.5019 22 32.9616 22.1853 33.3129 22.4912C33.4381 22.5999 33.5508 22.7252 33.6472 22.8653C33.7434 23.0047 33.8224 23.157 33.8811 23.3191L36 28.7231L38.1381 23.2704C38.5413 22.2421 39.7018 21.7353 40.7301 22.1386C41.7585 22.5418 42.2652 23.7023 41.862 24.7306L37.941 34.7306C37.6217 35.545 36.8274 36.0322 36 35.9995C35.1726 36.0322 34.3784 35.545 34.0591 34.7306L30.6358 26H28V34C28 35.1046 27.1046 36 26 36C24.8954 36 24 35.1046 24 34V26H22C20.8954 26 20 25.1046 20 24Z" stroke="white" stroke-width="3" stroke-linecap="round"/>
<path fill-rule="evenodd" clip-rule="evenodd" d="M12 10C8.68629 10 6 12.6863 6 16V40C6 43.3137 8.68629 46 12 46H26L26 50H22C20.8954 50 20 50.8954 20 52C20 53.1046 20.8954 54 22 54H42C43.1046 54 44 53.1046 44 52C44 50.8954 43.1046 50 42 50H38V46H52C55.3137 46 58 43.3137 58 40V16C58 12.6863 55.3137 10 52 10H12ZM30 50H34L34 46H30L30 50ZM52 42C53.1046 42 54 41.1046 54 40V16C54 14.8954 53.1046 14 52 14H12C10.8954 14 10 14.8954 10 16V40C10 41.1046 10.8954 42 12 42H52Z" stroke="white" stroke-width="3" stroke-linecap="round"/>
</svg>
