<svg width="17" height="16" viewBox="0 0 17 16" fill="none" xmlns="http://www.w3.org/2000/svg">
<path d="M8.33398 3C8.88627 3 9.33398 3.44772 9.33398 4L9.33398 7L12.334 7C12.8863 7 13.334 7.44772 13.334 8C13.334 8.55228 12.8863 9 12.334 9L9.33398 9L9.33398 12C9.33398 12.5523 8.88627 13 8.33398 13C7.7817 13 7.33398 12.5523 7.33398 12L7.33398 9L4.33398 9C3.7817 9 3.33398 8.55228 3.33398 8C3.33398 7.44771 3.7817 7 4.33398 7L7.33398 7L7.33398 4C7.33398 3.44772 7.7817 3 8.33398 3Z" fill="#CFD0D1"/>
</svg>
