<svg width="20" height="20" viewBox="0 0 20 20" fill="none" xmlns="http://www.w3.org/2000/svg">
<g clip-path="url(#clip0_449_2624)">
<path d="M16.815 15.9347L13.2089 12.3286C14.1027 11.2388 14.6415 9.84286 14.6415 8.32143C14.6415 4.83163 11.8099 2 8.32009 2C4.82723 2 1.99866 4.83163 1.99866 8.32143C1.99866 11.8112 4.82723 14.6429 8.32009 14.6429C9.84151 14.6429 11.2344 14.1071 12.3242 13.2133L15.9303 16.8163C16.1752 17.0612 16.5701 17.0612 16.815 16.8163C17.0599 16.5745 17.0599 16.1765 16.815 15.9347ZM8.32009 13.3847C5.52519 13.3847 3.25376 11.1133 3.25376 8.32143C3.25376 5.52959 5.52519 3.2551 8.32009 3.2551C11.1119 3.2551 13.3864 5.52959 13.3864 8.32143C13.3864 11.1133 11.1119 13.3847 8.32009 13.3847Z" fill="#63666A"/>
</g>
<defs>
<clipPath id="clip0_449_2624">
<rect width="20" height="20" fill="white"/>
</clipPath>
</defs>
</svg>
