<svg width="24" height="24" viewBox="0 0 24 24" fill="none" xmlns="http://www.w3.org/2000/svg">
<path d="M4 12C4 13.5822 4.46919 15.129 5.34824 16.4446C6.22729 17.7602 7.47672 18.7855 8.93853 19.391C10.4003 19.9965 12.0089 20.155 13.5607 19.8463C15.1126 19.5376 16.538 18.7757 17.6568 17.6568C18.7757 16.538 19.5376 15.1126 19.8463 13.5607C20.155 12.0089 19.9965 10.4003 19.391 8.93853C18.7855 7.47672 17.7602 6.22729 16.4446 5.34824C15.129 4.46919 13.5822 4 12 4C9.76351 4.00841 7.61686 4.88109 6.00889 6.43555L4 8.44444M4 8.44444V4M4 8.44444H8.44444" stroke="#828588" stroke-width="2" stroke-linecap="round" stroke-linejoin="round"/>
</svg>
