<svg width="24" height="24" viewBox="0 0 24 24" fill="none" xmlns="http://www.w3.org/2000/svg">
<path d="M4.91016 11.2125H7.27266C7.69037 11.2125 8.09098 11.3784 8.38635 11.6738C8.68172 11.9692 8.84766 12.3698 8.84766 12.7875V15.15C8.84766 15.5677 8.68172 15.9683 8.38635 16.2637C8.09098 16.5591 7.69037 16.725 7.27266 16.725H6.48516C6.06744 16.725 5.66683 16.5591 5.37146 16.2637C5.07609 15.9683 4.91016 15.5677 4.91016 15.15V11.2125ZM4.91016 11.2125C4.91016 10.2818 5.09348 9.36013 5.44966 8.50023C5.80584 7.64034 6.3279 6.85902 6.98604 6.20088C7.64417 5.54275 8.42549 5.02068 9.28539 4.6645C10.1453 4.30832 11.0669 4.125 11.9977 4.125C12.9284 4.125 13.85 4.30832 14.7099 4.6645C15.5698 5.02068 16.3511 5.54275 17.0093 6.20088C17.6674 6.85902 18.1895 7.64034 18.5457 8.50023C18.9018 9.36013 19.0852 10.2818 19.0852 11.2125M19.0852 11.2125V15.15M19.0852 11.2125H16.7227C16.3049 11.2125 15.9043 11.3784 15.609 11.6738C15.3136 11.9692 15.1477 12.3698 15.1477 12.7875V15.15C15.1477 15.5677 15.3136 15.9683 15.609 16.2637C15.9043 16.5591 16.3049 16.725 16.7227 16.725H17.5102C17.9279 16.725 18.3285 16.5591 18.6238 16.2637C18.9192 15.9683 19.0852 15.5677 19.0852 15.15M19.0852 15.15V16.725C19.0852 17.5604 18.7533 18.3616 18.1625 18.9524C17.5718 19.5431 16.7706 19.875 15.9352 19.875H11.9977" stroke="#46484B" stroke-width="1.5" stroke-linecap="round" stroke-linejoin="round"/>
<rect x="15.1484" y="11.2124" width="3.9375" height="5.5125" fill="#46484B"/>
<rect x="4.91016" y="11.2124" width="3.9375" height="5.5125" fill="#46484B"/>
</svg>
