<svg width="20" height="20" viewBox="0 0 20 20" fill="none" xmlns="http://www.w3.org/2000/svg">
<g clip-path="url(#clip0_622_7334)">
<path fill-rule="evenodd" clip-rule="evenodd" d="M3.34043 4.2212C4.14384 3.38596 5.23336 2.91675 6.36939 2.91675C7.50542 2.91675 8.59493 3.38596 9.39835 4.2212C9.55544 4.38396 9.75765 4.58653 10.005 4.8289C10.2518 4.58653 10.4537 4.38396 10.6108 4.2212C11.4108 3.39311 12.4928 2.92683 13.6216 2.92369C14.7504 2.92054 15.8347 3.38079 16.6391 4.20441C17.4434 5.02802 17.9026 6.14845 17.917 7.32221C17.9313 8.49597 17.4997 9.6282 16.7158 10.4729L10.6099 16.8225C10.4492 16.9896 10.2313 17.0834 10.0041 17.0834C9.77693 17.0834 9.55903 16.9896 9.39835 16.8225L3.29244 10.4737C2.50932 9.63383 2.0753 8.5073 2.08412 7.33743C2.09293 6.16756 2.54474 5.04824 3.34043 4.2212Z" fill="#542FDD"/>
</g>
<defs>
<clipPath id="clip0_622_7334">
<rect width="20" height="20" fill="white"/>
</clipPath>
</defs>
</svg>
