<svg width="80" height="80" viewBox="0 0 80 80" fill="none" xmlns="http://www.w3.org/2000/svg">
<circle cx="40" cy="40" r="40" fill="#EFF0F0"/>
<path d="M32.5 31.2044V29.375C32.5 28.8777 32.6975 28.4008 33.0492 28.0492C33.4008 27.6975 33.8777 27.5 34.375 27.5H50.625C51.1223 27.5 51.5992 27.6975 51.9508 28.0492C52.3025 28.4008 52.5 28.8777 52.5 29.375V45.625C52.5 46.1223 52.3025 46.5992 51.9508 46.9508C51.5992 47.3025 51.1223 47.5 50.625 47.5H48.7606" stroke="#63666A" stroke-width="2"/>
<path d="M46.875 31.25H29.375C28.3395 31.25 27.5 32.0895 27.5 33.125V50.625C27.5 51.6605 28.3395 52.5 29.375 52.5H46.875C47.9105 52.5 48.75 51.6605 48.75 50.625V33.125C48.75 32.0895 47.9105 31.25 46.875 31.25Z" stroke="#63666A" stroke-width="2" stroke-linejoin="round"/>
<path d="M36.5269 39.4437L39.8344 36C40.7413 35.0931 42.2325 35.1125 43.1644 36.045C44.0963 36.9775 44.1163 38.4681 43.2094 39.375L42.0157 40.6394M33.4182 42.9669C33.0994 43.2856 32.44 43.9231 32.44 43.9231C31.5325 44.83 31.5075 46.4469 32.44 47.3794C33.3713 48.3106 34.8625 48.3312 35.77 47.4237L38.9975 44.4937" stroke="#63666A" stroke-width="2" stroke-linecap="round" stroke-linejoin="round"/>
<path d="M36.666 42.705C36.2507 42.2926 35.9995 41.7433 35.9591 41.1594C35.9354 40.8319 35.9823 40.5031 36.0966 40.1952C36.2108 39.8874 36.3899 39.6077 36.6216 39.375M38.9522 41.1631C39.8841 42.095 39.9041 43.5863 38.9972 44.4938" stroke="#63666A" stroke-width="2" stroke-linecap="round" stroke-linejoin="round"/>
</svg>
