<svg width="24" height="24" viewBox="0 0 24 24" fill="none" xmlns="http://www.w3.org/2000/svg">
<path fill-rule="evenodd" clip-rule="evenodd" d="M13.5844 10.4L14.3844 7.104C14.4748 6.73771 14.4813 6.35572 14.4034 5.98656C14.3254 5.61741 14.1651 5.27064 13.9343 4.97216C13.7035 4.67369 13.4083 4.43122 13.0706 4.26288C12.733 4.09454 12.3616 4.00467 11.9844 4L9.22438 9.512C9.11914 9.72377 8.96864 9.90888 8.78438 10.0547V20H16.3844C16.7306 20 17.0674 19.8877 17.3444 19.68C17.6213 19.4723 17.8234 19.1803 17.9204 18.848L19.7844 12.448C19.8539 12.2095 19.867 11.9582 19.8226 11.7138C19.7781 11.4694 19.6774 11.2387 19.5284 11.04C19.3793 10.8413 19.1861 10.68 18.9639 10.5689C18.7417 10.4578 18.4968 10.4 18.2484 10.4H13.5844ZM7.18438 20V10.4H5.58438C5.16003 10.4 4.75306 10.5686 4.453 10.8686C4.15295 11.1687 3.98438 11.5757 3.98438 12V18.4C3.98438 18.8243 4.15295 19.2313 4.453 19.5314C4.75306 19.8314 5.16003 20 5.58438 20H7.18438Z" fill="#46484B"/>
</svg>
