<svg width="40" height="40" viewBox="0 0 40 40" fill="none" xmlns="http://www.w3.org/2000/svg">
<path d="M11.664 23.2121C10.7767 22.8025 10.06 22.4613 10.06 21.7901C10.06 21.2782 10.4695 20.9028 11.2886 20.9028C11.5843 20.9028 11.8346 20.937 12.0849 20.9825C12.2214 21.0052 12.3579 21.028 12.4716 21.028C13.1883 21.028 13.5864 20.6071 13.8481 19.7994L13.9618 19.4695C13.8481 19.424 12.6878 18.9121 11.1748 18.9121C8.76321 18.9121 7.48915 20.4592 7.48915 22.0631C7.48915 22.8708 7.73941 23.4623 8.13755 23.9173C8.64945 24.5089 9.37748 24.8956 10.06 25.2369C11.0497 25.726 11.9483 26.0901 11.9483 26.8067C11.9483 27.4437 11.2886 27.8078 10.4013 27.8078C9.1841 27.8078 8.12618 27.1139 7.98967 27.0342L7 28.8998C7.18201 29.0022 8.45607 29.8099 10.5719 29.8099C12.8243 29.8099 14.5192 28.5244 14.5192 26.5337C14.5192 24.5657 12.938 23.8377 11.664 23.2121Z" fill="white"/>
<path d="M20.4575 24.1341L24.5413 19.1289H21.6405L18.3758 23.4516H18.3303V19.1403H15.9414V29.7309H16.0779C17.1131 29.7309 18.3416 29.2531 18.3416 27.524V25.0897H18.3871L21.7088 29.6058H24.7574L20.4575 24.1341Z" fill="white"/>
<path d="M30.2284 15.1346L30.6834 15.146C30.8995 15.1574 31.1384 15.1688 31.4569 15.1688C33.6752 15.1574 35.1199 14.3725 35.9162 13.9402C34.0961 12.7913 31.4569 11.631 28.1922 11.5059C27.976 12.1088 26.3038 16.7727 26.1787 17.1481C26.2015 17.1709 26.4858 17.5008 26.8612 18.1378C27.3731 18.9682 27.6575 19.6735 27.8509 20.2081C28.2718 19.5028 28.3401 18.4222 28.3856 17.1822C28.3969 16.1584 28.5789 15.146 30.2284 15.1346Z" fill="white"/>
<path d="M38.6811 16.2731C38.5333 16.0342 37.7938 15.2493 36.5653 14.3848L36.5312 14.4075C35.5642 14.9422 33.9375 15.8408 31.5259 15.8522C31.2074 15.8522 31.0254 15.8408 30.8662 15.8295L30.4225 15.8067C29.285 15.8067 29.0575 16.2959 29.0233 17.24L29.0119 17.4903L29.0006 17.9681C28.9551 19.0032 28.8186 20.1863 28.1474 20.9939L28.1133 21.0281C28.136 21.0963 28.1702 21.1532 28.1929 21.1987C28.2498 21.3011 28.3294 21.3466 28.4318 21.3466C28.4887 21.3466 28.5683 21.3238 28.6479 21.2897C28.8527 21.1987 36.7587 17.513 37.9531 16.967C38.1237 16.8874 38.4536 16.7395 38.5674 16.6712C38.6811 16.603 38.7266 16.512 38.7266 16.421C38.7266 16.3755 38.7039 16.3186 38.6811 16.2731Z" fill="white"/>
<path d="M24.7681 7.84375L24.6999 7.85513C23.9149 8.00301 22.675 8.73104 22.675 10.0506C22.675 10.608 22.8911 11.063 23.1187 11.5522C23.3803 12.1209 23.6761 12.758 23.6874 13.6339C23.6874 14.9648 22.9253 15.727 22.3906 16.1024C22.6409 16.091 22.9025 16.0796 23.1869 16.0796C23.9263 16.0796 24.37 16.1479 24.4041 16.1479L28.1921 11.4953C27.157 9.97097 25.9625 8.77654 24.7681 7.84375Z" fill="white"/>
<path d="M21.6294 15.8864C22.3233 15.4882 23.0058 14.7943 22.9944 13.634C22.9944 12.9401 22.7442 12.4055 22.4825 11.8481C22.2323 11.2907 21.9593 10.7219 21.9593 9.99385C21.9479 8.40128 23.2447 7.58224 24.0524 7.33198C21.4929 5.5574 19.104 5 18.6604 5C18.5011 5 18.376 5.10238 18.376 5.30714C18.376 5.43227 18.4215 5.78491 18.4442 5.97829C18.5807 7.28648 19.5363 15.9546 19.559 16.1708C19.5818 16.3869 19.6842 16.5234 19.8775 16.5234C19.9117 16.5234 19.9458 16.5234 19.9799 16.512C20.1164 16.5006 20.3894 16.4551 20.708 16.3414C21.0833 16.1935 21.3222 16.057 21.6294 15.8864Z" fill="white"/>
</svg>
