<svg width="64" height="64" viewBox="0 0 64 64" fill="none" xmlns="http://www.w3.org/2000/svg">
<path d="M32 10C30.1615 10 28.341 10.3621 26.6424 11.0657C24.9439 11.7693 23.4005 12.8005 22.1005 14.1005C21.3195 14.8816 21.3195 16.1479 22.1005 16.9289C22.8816 17.71 24.1479 17.71 24.9289 16.9289C25.8575 16.0003 26.9599 15.2638 28.1732 14.7612C29.3864 14.2587 30.6868 14 32 14C33.3132 14 34.6136 14.2587 35.8268 14.7612C37.0401 15.2638 38.1425 16.0003 39.0711 16.9289C39.8521 17.71 41.1184 17.71 41.8995 16.9289C42.6805 16.1479 42.6805 14.8816 41.8995 14.1005C40.5995 12.8005 39.0561 11.7693 37.3576 11.0657C35.659 10.3621 33.8385 10 32 10Z" fill="black"/>
<path d="M26.6056 18.0924C28.1082 16.7203 30.0771 15.9724 32.1117 16.0008C34.1463 16.0292 36.0936 16.8318 37.5573 18.2453C38.3518 19.0126 38.3739 20.2787 37.6066 21.0733C36.8393 21.8678 35.5732 21.8899 34.7786 21.1226C34.0468 20.4159 33.0731 20.0146 32.0558 20.0004C31.0386 19.9862 30.0541 20.3602 29.3028 21.0462C28.4871 21.791 27.2221 21.7336 26.4773 20.9179C25.7325 20.1022 25.7899 18.8372 26.6056 18.0924Z" fill="black"/>
<path d="M36 44C36 42.8954 36.8954 42 38 42H46C47.1046 42 48 42.8954 48 44C48 45.1046 47.1046 46 46 46H38C36.8954 46 36 45.1046 36 44Z" fill="black"/>
<path fill-rule="evenodd" clip-rule="evenodd" d="M13.5149 18.0597C14.5865 17.7918 15.6724 18.4433 15.9403 19.5149L19.5616 34H44.4384L48.0597 19.5149C48.3276 18.4433 49.4135 17.7918 50.4851 18.0597C51.5567 18.3276 52.2082 19.4135 51.9403 20.4851L48.5616 34H50C53.3137 34 56 36.6863 56 40V48C56 51.3137 53.3137 54 50 54H14C10.6863 54 8 51.3137 8 48V40C8 36.6863 10.6863 34 14 34H15.4384L12.0597 20.4851C11.7918 19.4135 12.4433 18.3276 13.5149 18.0597ZM45.9581 38L45.9885 38.0004C46.0074 38.0006 46.0262 38.0004 46.0449 38H50C51.1046 38 52 38.8954 52 40V48C52 49.1046 51.1046 50 50 50H14C12.8954 50 12 49.1046 12 48V40C12 38.8954 12.8954 38 14 38H17.9551C17.9839 38.0006 18.0129 38.0006 18.0419 38H45.9581Z" fill="black"/>
<path d="M32 26C33.1046 26 34 25.1046 34 24C34 22.8954 33.1046 22 32 22C30.8954 22 30 22.8954 30 24C30 25.1046 30.8954 26 32 26Z" fill="black"/>
<path d="M32 10C30.1615 10 28.341 10.3621 26.6424 11.0657C24.9439 11.7693 23.4005 12.8005 22.1005 14.1005C21.3195 14.8816 21.3195 16.1479 22.1005 16.9289C22.8816 17.71 24.1479 17.71 24.9289 16.9289C25.8575 16.0003 26.9599 15.2638 28.1732 14.7612C29.3864 14.2587 30.6868 14 32 14C33.3132 14 34.6136 14.2587 35.8268 14.7612C37.0401 15.2638 38.1425 16.0003 39.0711 16.9289C39.8521 17.71 41.1184 17.71 41.8995 16.9289C42.6805 16.1479 42.6805 14.8816 41.8995 14.1005C40.5995 12.8005 39.0561 11.7693 37.3576 11.0657C35.659 10.3621 33.8385 10 32 10Z" stroke="white" stroke-width="3" stroke-linecap="round"/>
<path d="M26.6056 18.0924C28.1082 16.7203 30.0771 15.9724 32.1117 16.0008C34.1463 16.0292 36.0936 16.8318 37.5573 18.2453C38.3518 19.0126 38.3739 20.2787 37.6066 21.0733C36.8393 21.8678 35.5732 21.8899 34.7786 21.1226C34.0468 20.4159 33.0731 20.0146 32.0558 20.0004C31.0386 19.9862 30.0541 20.3602 29.3028 21.0462C28.4871 21.791 27.2221 21.7336 26.4773 20.9179C25.7325 20.1022 25.7899 18.8372 26.6056 18.0924Z" stroke="white" stroke-width="3" stroke-linecap="round"/>
<path d="M36 44C36 42.8954 36.8954 42 38 42H46C47.1046 42 48 42.8954 48 44C48 45.1046 47.1046 46 46 46H38C36.8954 46 36 45.1046 36 44Z" stroke="white" stroke-width="3" stroke-linecap="round"/>
<path fill-rule="evenodd" clip-rule="evenodd" d="M13.5149 18.0597C14.5865 17.7918 15.6724 18.4433 15.9403 19.5149L19.5616 34H44.4384L48.0597 19.5149C48.3276 18.4433 49.4135 17.7918 50.4851 18.0597C51.5567 18.3276 52.2082 19.4135 51.9403 20.4851L48.5616 34H50C53.3137 34 56 36.6863 56 40V48C56 51.3137 53.3137 54 50 54H14C10.6863 54 8 51.3137 8 48V40C8 36.6863 10.6863 34 14 34H15.4384L12.0597 20.4851C11.7918 19.4135 12.4433 18.3276 13.5149 18.0597ZM45.9581 38L45.9885 38.0004C46.0074 38.0006 46.0262 38.0004 46.0449 38H50C51.1046 38 52 38.8954 52 40V48C52 49.1046 51.1046 50 50 50H14C12.8954 50 12 49.1046 12 48V40C12 38.8954 12.8954 38 14 38H17.9551C17.9839 38.0006 18.0129 38.0006 18.0419 38H45.9581Z" stroke="white" stroke-width="3" stroke-linecap="round"/>
<path d="M32 26C33.1046 26 34 25.1046 34 24C34 22.8954 33.1046 22 32 22C30.8954 22 30 22.8954 30 24C30 25.1046 30.8954 26 32 26Z" stroke="white" stroke-width="3" stroke-linecap="round"/>
</svg>
