<svg width="33" height="32" viewBox="0 0 33 32" fill="none" xmlns="http://www.w3.org/2000/svg">
<path d="M10.334 12C10.334 11.4477 10.7817 11 11.334 11H16.3337C16.585 11 16.8148 11.0926 16.9904 11.2456C17.053 11.3 17.1094 11.3626 17.1576 11.4326C17.2057 11.5024 17.2452 11.5785 17.2745 11.6595L18.334 14.3616L19.403 11.6352C19.6046 11.1211 20.1849 10.8677 20.6991 11.0693C21.2132 11.2709 21.4666 11.8511 21.265 12.3653L19.3045 17.3653C19.1448 17.7725 18.7477 18.0161 18.334 17.9998C17.9203 18.0161 17.5232 17.7725 17.3636 17.3653L15.6519 13H14.334V17C14.334 17.5523 13.8863 18 13.334 18C12.7817 18 12.334 17.5523 12.334 17V13H11.334C10.7817 13 10.334 12.5523 10.334 12Z" fill="#63666A"/>
<path fill-rule="evenodd" clip-rule="evenodd" d="M6.33398 5C4.67713 5 3.33398 6.34315 3.33398 8V20C3.33398 21.6569 4.67713 23 6.33398 23H13.334L13.334 25H11.334C10.7817 25 10.334 25.4477 10.334 26C10.334 26.5523 10.7817 27 11.334 27H21.334C21.8863 27 22.334 26.5523 22.334 26C22.334 25.4477 21.8863 25 21.334 25H19.334V23H26.334C27.9908 23 29.334 21.6569 29.334 20V8C29.334 6.34315 27.9908 5 26.334 5H6.33398ZM15.334 25H17.334L17.334 23H15.334L15.334 25ZM26.334 21C26.8863 21 27.334 20.5523 27.334 20V8C27.334 7.44771 26.8863 7 26.334 7H6.33398C5.7817 7 5.33398 7.44772 5.33398 8V20C5.33398 20.5523 5.7817 21 6.33398 21H26.334Z" fill="#63666A"/>
</svg>
