<svg width="16" height="16" viewBox="0 0 16 16" fill="none" xmlns="http://www.w3.org/2000/svg">
<circle cx="8" cy="8" r="8" fill="#96989B"/>
<path d="M8.76042 10.2251H7.22769L7.07202 4H8.91609L8.76042 10.2251Z" fill="white"/>
<path d="M7.12599 11.497C7.03818 11.6487 6.99627 11.8144 7.00026 11.994C6.99627 12.1776 7.03818 12.3473 7.12599 12.503C7.2178 12.6547 7.34153 12.7764 7.4972 12.8683C7.65287 12.9561 7.82251 13 8.00612 13C8.18174 13 8.34539 12.9561 8.49707 12.8683C8.64875 12.7764 8.77049 12.6547 8.86229 12.503C8.9541 12.3473 9 12.1776 9 11.994C9 11.8144 8.9541 11.6487 8.86229 11.497C8.77049 11.3413 8.64875 11.2196 8.49707 11.1317C8.34539 11.0439 8.18174 11 8.00612 11C7.82251 11 7.65287 11.0439 7.4972 11.1317C7.34153 11.2196 7.2178 11.3413 7.12599 11.497Z" fill="white"/>
</svg>
