<svg width="24" height="24" viewBox="0 0 24 24" fill="none" xmlns="http://www.w3.org/2000/svg">
<path fill-rule="evenodd" clip-rule="evenodd" d="M10.6036 2.59912C6.16064 3.24418 2.71306 6.96116 2.48471 11.5262C2.61264 11.3871 2.79615 11.3 3 11.3H6.7247C6.95146 8.06531 8.70653 5.02245 10.6036 2.59912ZM2.48376 12.4727C2.7036 17.0521 6.16273 20.7822 10.6197 21.4214C8.71651 18.9948 6.9521 15.9438 6.7247 12.7H3C2.79564 12.7 2.61174 12.6124 2.48376 12.4727ZM13.385 21.4154C17.8096 20.7611 21.2412 17.059 21.4779 12.5114C21.3528 12.6284 21.1848 12.7 21 12.7H17.2753C17.0481 15.9411 15.2864 18.9897 13.385 21.4154ZM21.4769 11.4875C21.2318 6.95429 17.8117 3.26528 13.4012 2.60518C15.2964 5.02752 17.0487 8.06801 17.2753 11.3H21C21.1843 11.3 21.3519 11.3712 21.4769 11.4875ZM12 20.9069C10.0743 18.53 8.36825 15.6485 8.12871 12.7H15.8713C15.6318 15.6485 13.9257 18.53 12 20.9069ZM8.12871 11.3H15.8713C15.6318 8.35145 13.9257 5.46997 12 3.09303C10.0743 5.46997 8.36825 8.35145 8.12871 11.3Z" fill="#B7B9BA"/>
</svg>
