<svg width="24" height="24" viewBox="0 0 24 24" fill="none" xmlns="http://www.w3.org/2000/svg">
<path fill-rule="evenodd" clip-rule="evenodd" d="M19.4793 15.4333C19.8127 15.1416 20 14.7459 20 14.3333V6.55556C20 6.143 19.8127 5.74733 19.4793 5.45561C19.1459 5.16389 18.6937 5 18.2222 5H5.77778C5.30628 5 4.8541 5.16389 4.5207 5.45561C4.1873 5.74733 4 6.143 4 6.55556V18.1185C4 18.4622 4.40477 18.6458 4.6634 18.4195L7.55556 15.8889H18.2222C18.6937 15.8889 19.1459 15.725 19.4793 15.4333ZM9 11.5C9.55228 11.5 10 11.0523 10 10.5C10 9.94772 9.55228 9.5 9 9.5C8.44772 9.5 8 9.94772 8 10.5C8 11.0523 8.44772 11.5 9 11.5ZM13 10.5C13 11.0523 12.5523 11.5 12 11.5C11.4477 11.5 11 11.0523 11 10.5C11 9.94772 11.4477 9.5 12 9.5C12.5523 9.5 13 9.94772 13 10.5ZM15 11.5C15.5523 11.5 16 11.0523 16 10.5C16 9.94772 15.5523 9.5 15 9.5C14.4477 9.5 14 9.94772 14 10.5C14 11.0523 14.4477 11.5 15 11.5Z" fill="#46484B"/>
</svg>
