<svg width="14" height="15" viewBox="0 0 14 15" fill="none" xmlns="http://www.w3.org/2000/svg">
<path d="M6.79613 2.98912C6.8605 2.7813 7.1408 2.7813 7.20517 2.98912L8.1594 6.06969C8.18819 6.16263 8.27076 6.22555 8.36392 6.22555H11.4519C11.6602 6.22555 11.7468 6.50518 11.5783 6.63362L9.08007 8.53752C9.00469 8.59496 8.97316 8.69677 9.00195 8.78972L9.95617 11.8703C10.0205 12.0781 9.79378 12.2509 9.62525 12.1225L7.12705 10.2186C7.05168 10.1611 6.94962 10.1611 6.87425 10.2186L4.37606 12.1225C4.20752 12.2509 3.98076 12.0781 4.04513 11.8703L4.99936 8.78972C5.02815 8.69677 4.99661 8.59496 4.92124 8.53752L2.42304 6.63362C2.25451 6.50518 2.34112 6.22555 2.54944 6.22555H5.63738C5.73055 6.22555 5.81311 6.16263 5.8419 6.06969L6.79613 2.98912Z" fill="#542FDD"/>
</svg>
