<svg width="20" height="20" viewBox="0 0 20 20" fill="none" xmlns="http://www.w3.org/2000/svg">
<path fill-rule="evenodd" clip-rule="evenodd" d="M17 12.0548C17 10.6486 16.0298 9.47437 14.7268 9.13976V8.72679C14.7268 6.12021 12.6066 4 10 4C7.39405 4 5.27383 6.12021 5.27383 8.72679V9.13976C3.97024 9.47437 3 10.6486 3 12.0548C3.00082 12.8555 3.3193 13.6232 3.88553 14.1893C4.45177 14.7554 5.21948 15.0737 6.02017 15.0744C6.21811 15.0744 6.40794 14.9957 6.54791 14.8558C6.68787 14.7158 6.7665 14.526 6.7665 14.328V8.72679C6.7665 6.94367 8.21688 5.49267 10 5.49267C11.7831 5.49267 13.2341 6.94367 13.2341 8.72679V14.0189L11.6544 15.5987C11.5852 15.6681 11.503 15.7231 11.4125 15.7606C11.322 15.798 11.2249 15.8172 11.127 15.817H9.93096C9.73302 15.817 9.54319 15.8956 9.40323 16.0356C9.26326 16.1755 9.18463 16.3654 9.18463 16.5633C9.18463 16.7612 9.26326 16.9511 9.40323 17.091C9.54319 17.231 9.73302 17.3096 9.93096 17.3096H11.127C11.7253 17.3096 12.2875 17.077 12.7104 16.6541L14.3244 15.0395C15.8258 14.8666 17 13.6022 17 12.0548Z" fill="#2A2B2D"/>
</svg>
