<svg width="24" height="24" viewBox="0 0 24 24" fill="none" xmlns="http://www.w3.org/2000/svg">
<path fill-rule="evenodd" clip-rule="evenodd" d="M6 22C5.16667 22 4.45833 21.7083 3.875 21.125C3.29167 20.5417 3 19.8333 3 19V17V5V2H6H16H17V18H6C5.71667 18 5.47933 18.096 5.288 18.288C5.09667 18.48 5.00067 18.7173 5 19C4.99933 19.2827 5.09533 19.5203 5.288 19.713C5.48067 19.9057 5.718 20.0013 6 20H19V4H21V22H6ZM9.1735 10.5624C9.07181 10.9056 9.01938 11.3537 9.01621 11.9066V12.0305H10.5939V11.9066C10.5971 11.5697 10.6368 11.2869 10.7131 11.0582C10.7925 10.8262 10.9117 10.6244 11.0705 10.4528C11.2294 10.2812 11.4439 10.1144 11.714 9.95234C12.1748 9.67588 12.5259 9.34859 12.7674 8.97045C13.0121 8.59231 13.1344 8.14109 13.1344 7.61678C13.1344 7.08929 13.0057 6.62854 12.7483 6.23451C12.4909 5.84048 12.1303 5.53702 11.6663 5.32412C11.2024 5.10804 10.6686 5 10.0648 5C9.49921 5 8.98761 5.10486 8.53003 5.31459C8.07245 5.52113 7.70702 5.82936 7.43375 6.23928C7.16047 6.64919 7.01589 7.14649 7 7.73117H8.68732C8.70321 7.44519 8.77629 7.2021 8.90658 7.00191C9.03686 6.80172 9.2021 6.65237 9.40229 6.55386C9.60566 6.45535 9.82332 6.4061 10.0553 6.4061C10.3 6.4061 10.5224 6.45694 10.7226 6.55863C10.926 6.66031 11.0848 6.80489 11.1992 6.99237C11.3168 7.17985 11.3756 7.39752 11.3756 7.64538C11.3756 7.95996 11.285 8.23642 11.1039 8.47474C10.926 8.71306 10.6765 8.93232 10.3556 9.13251C10.041 9.32952 9.78996 9.5313 9.60248 9.73785C9.41818 9.94439 9.27518 10.2193 9.1735 10.5624ZM8.93518 13.4366C8.84303 13.5955 8.79854 13.7687 8.80172 13.9561C8.79854 14.1436 8.84303 14.3184 8.93518 14.4805C9.03051 14.6393 9.15761 14.7664 9.31649 14.8618C9.47855 14.9539 9.65491 15 9.84557 15C10.0299 15 10.2015 14.9539 10.3603 14.8618C10.5224 14.7664 10.6511 14.6393 10.7464 14.4805C10.8418 14.3184 10.8894 14.1436 10.8894 13.9561C10.8894 13.7687 10.8418 13.5955 10.7464 13.4366C10.6511 13.2777 10.5224 13.1522 10.3603 13.0601C10.2015 12.9679 10.0299 12.9218 9.84557 12.9218C9.65491 12.9218 9.47855 12.9679 9.31649 13.0601C9.15761 13.1522 9.03051 13.2777 8.93518 13.4366Z" fill="#36383A"/>
</svg>
