<svg width="16" height="17" viewBox="0 0 16 17" fill="none" xmlns="http://www.w3.org/2000/svg">
<g clip-path="url(#clip0_623_8575)">
<path d="M2.5 14.4688C2.5 14.7453 2.72344 14.9688 3 14.9688H7.46875V9.09375H2.5V14.4688ZM8.53125 14.9688H13C13.2766 14.9688 13.5 14.7453 13.5 14.4688V9.09375H8.53125V14.9688ZM13.75 5.34375H11.4438C11.6562 5.00938 11.7812 4.6125 11.7812 4.1875C11.7812 2.99844 10.8141 2.03125 9.625 2.03125C8.97813 2.03125 8.39531 2.31875 8 2.77187C7.60469 2.31875 7.02187 2.03125 6.375 2.03125C5.18594 2.03125 4.21875 2.99844 4.21875 4.1875C4.21875 4.6125 4.34219 5.00938 4.55625 5.34375H2.25C1.97344 5.34375 1.75 5.56719 1.75 5.84375V8.03125H7.46875V5.34375H8.53125V8.03125H14.25V5.84375C14.25 5.56719 14.0266 5.34375 13.75 5.34375ZM7.46875 5.28125H6.375C5.77187 5.28125 5.28125 4.79063 5.28125 4.1875C5.28125 3.58438 5.77187 3.09375 6.375 3.09375C6.97813 3.09375 7.46875 3.58438 7.46875 4.1875V5.28125ZM9.625 5.28125H8.53125V4.1875C8.53125 3.58438 9.02187 3.09375 9.625 3.09375C10.2281 3.09375 10.7188 3.58438 10.7188 4.1875C10.7188 4.79063 10.2281 5.28125 9.625 5.28125Z" fill="#5A5D60"/>
</g>
<defs>
<clipPath id="clip0_623_8575">
<rect width="16" height="16" fill="white" transform="translate(0 0.5)"/>
</clipPath>
</defs>
</svg>
