<svg width="51" height="16" viewBox="0 0 51 16" fill="none" xmlns="http://www.w3.org/2000/svg">
<path d="M19.9405 14.6621C19.9018 14.6672 19.8625 14.6641 19.8252 14.6531C19.7879 14.642 19.7536 14.6233 19.7248 14.5981C19.6869 14.5461 19.6685 14.4833 19.6725 14.42V13.452C19.6707 13.3999 19.6893 13.3491 19.7248 13.3095C19.7549 13.2867 19.7895 13.27 19.8266 13.2602C19.8636 13.2504 19.9024 13.2479 19.9405 13.2528H22.5297C22.662 13.255 22.7929 13.2264 22.911 13.1693C23.0291 13.1121 23.1308 13.0283 23.2073 12.925C23.3785 12.7132 23.4703 12.4525 23.4678 12.1848V11.3872H21.5181C21.0491 11.3844 20.5865 11.2822 20.1636 11.088C19.395 10.6984 18.7366 10.1363 18.2448 9.44986C18.0313 9.19521 17.879 8.89876 17.7985 8.5815C17.7419 8.33336 17.7119 8.08033 17.709 7.82636V4.06698C17.7062 4.03107 17.7122 3.99502 17.7264 3.96168C17.7406 3.92835 17.7628 3.89863 17.7911 3.87488C17.8431 3.83293 17.9092 3.81025 17.9773 3.81096H19.0486C19.2074 3.81096 19.2867 3.89596 19.2867 4.06698V7.6414C19.2848 7.80826 19.2974 7.97498 19.3243 8.13984C19.3548 8.29553 19.4236 8.44203 19.5251 8.56722C19.6699 8.75829 19.8291 8.93908 20.0012 9.10816C20.2443 9.34658 20.5029 9.57007 20.7755 9.77728C20.8989 9.87535 21.0479 9.93941 21.2065 9.96258C21.3101 9.97775 21.4145 9.98728 21.5192 9.99114H23.4689V4.06698C23.4689 3.89698 23.5531 3.81096 23.7219 3.81096H24.8081C24.8691 3.8115 24.9276 3.83437 24.9715 3.87488C24.9978 3.89984 25.0181 3.92992 25.031 3.96308C25.0439 3.99624 25.0492 4.03168 25.0465 4.06698V11.9706C25.0471 12.308 24.997 12.6438 24.8976 12.9675C24.8046 13.2781 24.6536 13.57 24.4517 13.8291C24.2495 14.083 23.9899 14.2899 23.6924 14.4343C23.3547 14.5926 22.9821 14.6707 22.6061 14.6621H19.9405ZM14.8063 12.1559C14.6374 12.1559 14.553 12.0609 14.553 11.871V10.647C14.555 10.5204 14.5431 10.3939 14.5174 10.2696C14.486 10.1458 14.4333 10.0278 14.3615 9.92042C14.203 9.67495 14.0184 9.44582 13.8107 9.23668C13.5646 8.98304 13.3012 8.74531 13.0222 8.52506C12.9236 8.42579 12.7917 8.36284 12.6495 8.34724C12.526 8.33367 12.4018 8.3264 12.2775 8.32548H10.9528V11.8571C10.9528 11.99 10.9325 12.073 10.8935 12.1059C10.8373 12.1444 10.7686 12.1623 10.6998 12.1563H9.65834C9.58284 12.1607 9.50838 12.1377 9.44976 12.092C9.42131 12.0598 9.40005 12.0224 9.38728 11.982C9.37451 11.9417 9.3705 11.8993 9.37549 11.8574V1.78864C9.37161 1.70952 9.38963 1.63082 9.42773 1.5605C9.45219 1.52932 9.48492 1.50496 9.52253 1.48995C9.56015 1.47495 9.60127 1.46984 9.64163 1.47516H10.6536C10.694 1.46967 10.7352 1.47324 10.7739 1.48559C10.8127 1.49794 10.8478 1.51874 10.8767 1.54634C10.9056 1.57394 10.9274 1.60759 10.9403 1.64462C10.9533 1.68166 10.9571 1.72107 10.9514 1.75974V6.91516H12.276C12.4159 6.91781 12.5557 6.90584 12.6928 6.87946C12.8299 6.84207 12.9568 6.77664 13.0649 6.6877C13.3565 6.47916 13.6299 6.24809 13.8821 5.99682C14.0701 5.80902 14.2348 5.60116 14.3732 5.37734C14.4879 5.19196 14.5492 4.98078 14.5508 4.76534V4.06698C14.5508 3.89585 14.6353 3.8104 14.8042 3.81062H15.8755C15.9849 3.81062 16.0545 3.83907 16.0841 3.89596C16.1152 3.95819 16.1306 4.02657 16.1289 4.09554V4.76466C16.1299 5.05144 16.0874 5.33684 16.0027 5.61194C15.8951 5.92391 15.7313 6.21549 15.5188 6.4735C15.3392 6.71139 15.1264 6.92463 14.8863 7.10726C14.6532 7.28293 14.4424 7.45145 14.2538 7.61284C14.3926 7.73615 14.5786 7.90467 14.8117 8.11842C15.076 8.36456 15.3269 8.62364 15.5632 8.89464C15.7885 9.1192 15.9478 9.3967 16.0251 9.69908C16.0908 9.96283 16.1256 10.2327 16.1289 10.5039V11.8571C16.1384 11.9406 16.1144 12.0245 16.0617 12.0917C16.0344 12.1147 16.0026 12.1322 15.9681 12.1433C15.9336 12.1543 15.8972 12.1586 15.8609 12.1559H14.8063ZM0.533517 12.1559C0.460821 12.1582 0.389692 12.1354 0.333112 12.0917C0.302031 12.0609 0.278506 12.0238 0.264247 11.9833C0.249988 11.9427 0.245352 11.8996 0.250676 11.8571V11.0309C0.250676 10.8409 0.34543 10.7459 0.534938 10.7459H5.28247C5.47134 10.7424 5.65197 10.6713 5.78882 10.5467C5.866 10.4837 5.92747 10.4049 5.96872 10.3162C6.00997 10.2275 6.02997 10.131 6.02724 10.034V9.00854C6.02364 8.92147 6.00127 8.83605 5.96152 8.75764C5.92178 8.67924 5.86552 8.60955 5.79628 8.55294C5.73428 8.48861 5.65961 8.43662 5.57656 8.39998C5.49351 8.36334 5.40371 8.34276 5.31232 8.33942H2.3361C2.08987 8.33979 1.84549 8.29882 1.61407 8.21838C1.39001 8.14231 1.17928 8.03421 0.989047 7.89776C0.813929 7.77376 0.664913 7.61918 0.549862 7.44216C0.443287 7.28013 0.386521 7.09267 0.386056 6.90122V5.27704C0.388954 5.08715 0.448365 4.90198 0.557324 4.74324C0.677416 4.56149 0.83119 4.40225 1.01108 4.27336C1.20583 4.13213 1.42136 4.01927 1.65067 3.93846C1.88851 3.8529 2.14063 3.80946 2.39472 3.81028H6.82957C6.86597 3.80527 6.90309 3.80845 6.93798 3.81957C6.97288 3.83068 7.00458 3.84942 7.03058 3.8743C7.05659 3.89918 7.07617 3.92952 7.08779 3.96291C7.0994 3.99629 7.10272 4.03181 7.09749 4.06664V4.9639C7.10356 5.00095 7.1004 5.03884 7.08826 5.07449C7.07612 5.11015 7.05535 5.14255 7.02764 5.16907C6.99993 5.19558 6.96606 5.21546 6.9288 5.22707C6.89154 5.23869 6.85194 5.24171 6.81323 5.2359H2.69142C2.50794 5.2314 2.32788 5.28401 2.17833 5.38584C2.1061 5.43735 2.04849 5.50534 2.01075 5.58361C1.97302 5.66189 1.95636 5.74795 1.96229 5.83396V6.36096C1.96245 6.44083 1.98287 6.51947 2.0218 6.59013C2.06073 6.66078 2.117 6.72133 2.18579 6.76658C2.35475 6.88176 2.55916 6.93946 2.7664 6.93046H5.65379C5.88956 6.93479 6.12114 6.99086 6.33069 7.09434C6.5639 7.20361 6.77741 7.34776 6.96317 7.52138C7.14775 7.69197 7.30357 7.8889 7.4251 8.10516C7.53693 8.29455 7.59797 8.5075 7.60276 8.72498V9.97788C7.60102 10.2428 7.55075 10.5054 7.45424 10.7538C7.3561 11.0135 7.2069 11.2529 7.0147 11.4589C6.81857 11.6697 6.5811 11.8416 6.31577 11.9648C6.02513 12.0965 5.70668 12.1622 5.38516 12.1569L0.533517 12.1559Z" fill="#B7B9BA"/>
<path d="M46.0645 12.1615C45.6661 12.1679 45.2723 12.0798 44.9182 11.9051C44.6969 11.7992 44.4933 11.6624 44.3141 11.4991C44.1275 11.3301 43.9558 11.1467 43.8007 10.9507C43.6414 10.7534 43.5365 10.521 43.4955 10.2748C43.4589 10.0128 43.4416 9.74863 43.4436 9.48429V7.07709C43.4609 6.64146 43.6227 6.2224 43.9055 5.88063C44.1246 5.58281 44.3764 5.30833 44.6567 5.06191C44.9664 4.78603 45.2919 4.52689 45.6317 4.28569C45.8859 4.09615 46.1806 3.96243 46.4948 3.89401C46.72 3.84772 46.9492 3.82154 47.1795 3.81581H48.6236C48.9236 3.81653 49.2193 3.88491 49.4867 4.01539C49.7565 4.1431 50.0049 4.30869 50.2236 4.50669C50.4264 4.68815 50.5973 4.89975 50.7296 5.13331C50.8421 5.31746 50.906 5.52507 50.9158 5.73817V6.86323C50.9233 7.11287 50.8726 7.36096 50.7673 7.58947C50.6646 7.82235 50.5213 8.03678 50.3433 8.22357C50.1215 8.44825 49.8686 8.64273 49.5915 8.80157C49.4419 8.88084 49.2777 8.93164 49.1079 8.95117C48.9029 8.97568 48.6965 8.98704 48.49 8.98517H45.0372V9.49789C45.02 9.72558 45.0557 9.95409 45.1417 10.167C45.1963 10.2787 45.2748 10.3781 45.372 10.4591C45.4666 10.5433 45.5745 10.6129 45.6918 10.6651C45.7525 10.6878 45.8147 10.7069 45.8779 10.7222C45.9533 10.7414 46.0309 10.751 46.1089 10.7508H49.993C50.1915 10.7508 50.2909 10.8315 50.2911 10.9929V11.8619C50.2922 11.9339 50.2741 12.0049 50.2385 12.0683C50.203 12.1302 50.122 12.1611 49.9934 12.1611L46.0645 12.1615ZM46.95 5.26863C46.7861 5.30581 46.6317 5.37376 46.4955 5.46855C46.2813 5.60592 46.082 5.76332 45.9003 5.93843C45.6786 6.15493 45.4698 6.3832 45.275 6.62217C45.1893 6.72118 45.1237 6.83465 45.0817 6.95673C45.0448 7.05466 45.0296 7.15889 45.0372 7.26273V7.64693H48.5344C48.6413 7.64736 48.7468 7.62377 48.8425 7.57806C48.9381 7.53236 49.0212 7.46581 49.0851 7.38377C49.2246 7.23171 49.3037 7.03758 49.3086 6.83535V5.93809C49.3069 5.84713 49.2785 5.75846 49.2269 5.68207C49.1726 5.59673 49.1049 5.51989 49.0261 5.45427C48.9476 5.38846 48.86 5.33332 48.7657 5.29039C48.68 5.24982 48.5859 5.22799 48.4903 5.22647H47.4336C47.2713 5.22479 47.1093 5.23891 46.95 5.26863ZM37.7448 12.1615C37.5759 12.1615 37.4915 12.076 37.4915 11.9051V5.04083C37.4915 4.8595 37.499 4.69335 37.5139 4.54239C37.5282 4.39133 37.5632 4.24272 37.618 4.10039C37.6781 3.94685 37.7528 3.7989 37.8411 3.65839C37.9554 3.47961 38.0822 3.30843 38.2206 3.14601C38.6266 2.66791 39.1118 2.25673 39.6569 1.92881C40.0833 1.65562 40.5803 1.50043 41.0931 1.48035H41.7483C41.9565 1.48035 42.0605 1.56104 42.0603 1.72243V2.69109C42.0658 2.75992 42.0447 2.82828 42.001 2.88319C41.9289 2.93561 41.8381 2.95859 41.7483 2.94711H41.2718C41.1627 2.94711 41.0434 2.95221 40.9147 2.96139C40.8041 2.96352 40.6982 3.00413 40.6166 3.07563C40.1457 3.35015 39.7382 3.71351 39.4188 4.14357C39.1969 4.45979 39.0753 4.83068 39.0688 5.21151V6.66399H42.0155C42.1243 6.66399 42.1932 6.68507 42.2238 6.72791C42.2568 6.78175 42.2725 6.84373 42.2689 6.90607V7.80367C42.2777 7.87938 42.2564 7.95549 42.2092 8.01685C42.1552 8.05959 42.0857 8.08013 42.0159 8.07397H39.0691V11.8626C39.0734 11.9384 39.058 12.0141 39.0244 12.0829C39.0055 12.1106 38.9787 12.1327 38.9473 12.1466C38.9159 12.1605 38.881 12.1656 38.8467 12.1615H37.7448ZM34.2477 12.1615C34.172 12.1676 34.0962 12.1502 34.0317 12.1118C33.9876 12.0778 33.9649 12.0003 33.9649 11.8769V4.11501C33.9639 4.04315 33.9817 3.97221 34.0167 3.90863C34.0523 3.84675 34.129 3.81615 34.2481 3.81615H35.2451C35.4434 3.81615 35.5426 3.91566 35.5429 4.11467V11.8626C35.5429 12.0618 35.4481 12.1613 35.2586 12.1611L34.2477 12.1615ZM31.6584 12.1615C31.416 12.1569 31.1764 12.1108 30.951 12.0255C30.6798 11.9265 30.4205 11.8001 30.1774 11.6484C29.9035 11.4789 29.6445 11.2882 29.4032 11.0782C29.1465 10.8564 28.9054 10.6185 28.6815 10.3663C28.544 10.2055 28.4173 10.0367 28.302 9.86067C28.2131 9.72424 28.1408 9.57858 28.0863 9.42649C28.0365 9.28318 28.0039 9.13488 27.9893 8.98449C27.9751 8.83319 27.9673 8.66183 27.9673 8.47211V1.76493C27.9673 1.57521 28.0466 1.48024 28.2054 1.48001H29.2621C29.3008 1.4742 29.3404 1.47723 29.3777 1.48884C29.4149 1.50046 29.4488 1.52033 29.4765 1.54685C29.5042 1.57336 29.525 1.60577 29.5371 1.64142C29.5493 1.67707 29.5524 1.71497 29.5464 1.75201V8.47381C29.5452 8.58964 29.5629 8.70493 29.599 8.81551C29.6397 8.93327 29.6919 9.04711 29.7549 9.15551C30.1256 9.72047 30.6303 10.1938 31.2281 10.5369C31.3056 10.6127 31.408 10.6607 31.5181 10.6729C31.6481 10.6964 31.7802 10.7084 31.9125 10.7086H32.2255C32.3542 10.7086 32.4359 10.7297 32.4707 10.7726C32.5083 10.8246 32.5267 10.8872 32.5229 10.9504V11.8623C32.5254 11.9356 32.5102 12.0086 32.4785 12.0754C32.4487 12.1326 32.3641 12.1608 32.2255 12.1608L31.6584 12.1615ZM34.1734 2.87639C34.0885 2.88337 34.0037 2.86053 33.935 2.81213C33.9066 2.77984 33.8855 2.74235 33.8727 2.70195C33.86 2.66156 33.8561 2.6191 33.8611 2.57719V1.66565C33.8594 1.58676 33.8772 1.50859 33.913 1.43751C33.9485 1.36951 34.0342 1.33789 34.1734 1.33789H35.3194C35.5378 1.33789 35.647 1.43762 35.647 1.63709V2.57685C35.6533 2.61996 35.6498 2.66385 35.637 2.70559C35.6241 2.74734 35.6021 2.78598 35.5724 2.81893C35.5018 2.86263 35.4181 2.88272 35.3343 2.87605L34.1734 2.87639Z" fill="#B7B9BA"/>
</svg>
