<svg width="33" height="32" viewBox="0 0 33 32" fill="none" xmlns="http://www.w3.org/2000/svg">
<g opacity="0.3">
<path d="M7.33398 14.1919C7.33398 13.1414 7.54091 12.1011 7.94295 11.1305C8.34499 10.1599 8.93426 9.27795 9.67713 8.53508C10.0677 8.14456 10.7008 8.14456 11.0913 8.53508C11.4819 8.9256 11.4819 9.55877 11.0913 9.94929C10.5342 10.5064 10.0922 11.1679 9.79071 11.8958C9.48918 12.6238 9.33398 13.404 9.33398 14.1919C9.33398 14.9799 9.48918 15.7601 9.79071 16.488C10.0922 17.216 10.5342 17.8774 11.0913 18.4346C11.4819 18.8251 11.4819 19.4583 11.0913 19.8488C10.7008 20.2393 10.0677 20.2393 9.67713 19.8488C8.93426 19.1059 8.34499 18.224 7.94295 17.2534C7.54091 16.2828 7.33398 15.2425 7.33398 14.1919Z" fill="#13BF4D"/>
<path d="M25.334 14.1919C25.334 13.1414 25.1271 12.1011 24.725 11.1305C24.323 10.1599 23.7337 9.27795 22.9908 8.53508C22.6003 8.14456 21.9671 8.14456 21.5766 8.53508C21.1861 8.9256 21.1861 9.55877 21.5766 9.94929C22.1338 10.5064 22.5757 11.1679 22.8773 11.8958C23.1788 12.6238 23.334 13.404 23.334 14.1919C23.334 14.9799 23.1788 15.7601 22.8773 16.488C22.5757 17.216 22.1338 17.8774 21.5766 18.4346C21.1861 18.8251 21.1861 19.4583 21.5766 19.8488C21.9671 20.2393 22.6003 20.2393 22.9908 19.8488C23.7337 19.1059 24.323 18.224 24.725 17.2534C25.1271 16.2828 25.334 15.2425 25.334 14.1919Z" fill="#13BF4D"/>
</g>
<g opacity="0.15">
<path d="M2.33398 14.1924C2.33398 12.3539 2.6961 10.5334 3.39967 8.83482C4.10324 7.13626 5.13447 5.59291 6.43449 4.29289C6.82501 3.90237 7.45818 3.90237 7.8487 4.29289C8.23923 4.68342 8.23923 5.31658 7.8487 5.70711C6.7344 6.82141 5.85049 8.14428 5.24743 9.60019C4.64437 11.0561 4.33398 12.6165 4.33398 14.1924C4.33399 15.7683 4.64438 17.3287 5.24743 18.7846C5.85049 20.2405 6.7344 21.5634 7.84871 22.6777C8.23923 23.0682 8.23923 23.7014 7.84871 24.0919C7.45818 24.4824 6.82502 24.4824 6.43449 24.0919C5.13447 22.7919 4.10324 21.2485 3.39967 19.55C2.69611 17.8514 2.33398 16.0309 2.33398 14.1924Z" fill="#13BF4D"/>
<path d="M30.334 14.1924C30.334 12.3539 29.9719 10.5334 29.2683 8.83482C28.5647 7.13626 27.5335 5.59291 26.2335 4.29289C25.843 3.90237 25.2098 3.90237 24.8193 4.29289C24.4287 4.68342 24.4287 5.31658 24.8193 5.70711C25.9336 6.82141 26.8175 8.14428 27.4205 9.60019C28.0236 11.0561 28.334 12.6165 28.334 14.1924C28.334 15.7683 28.0236 17.3287 27.4205 18.7846C26.8175 20.2405 25.9336 21.5634 24.8193 22.6777C24.4287 23.0682 24.4287 23.7014 24.8193 24.0919C25.2098 24.4824 25.843 24.4824 26.2335 24.0919C27.5335 22.7919 28.5647 21.2485 29.2683 19.55C29.9719 17.8514 30.334 16.0309 30.334 14.1924Z" fill="#13BF4D"/>
</g>
<path fill-rule="evenodd" clip-rule="evenodd" d="M16.334 10.1924C14.1248 10.1924 12.334 11.9832 12.334 14.1924C12.334 15.9722 13.4964 17.4804 15.1034 17.9995L12.7322 25.7059C12.5343 26.349 13.0151 27 13.6879 27H18.98C19.6528 27 20.1337 26.349 19.9358 25.7059L17.5646 17.9995C19.1716 17.4804 20.334 15.9722 20.334 14.1924C20.334 11.9832 18.5431 10.1924 16.334 10.1924ZM14.334 14.1924C14.334 13.0878 15.2294 12.1924 16.334 12.1924C17.4386 12.1924 18.334 13.0878 18.334 14.1924C18.334 15.297 17.4386 16.1924 16.334 16.1924C15.2294 16.1924 14.334 15.297 14.334 14.1924Z" fill="#13BF4D"/>
</svg>
