<svg width="100" height="100" viewBox="0 0 100 100" fill="none" xmlns="http://www.w3.org/2000/svg">
<path fill-rule="evenodd" clip-rule="evenodd" d="M83 48H17V77C17 80.3137 19.6863 83 23 83H77C80.3137 83 83 80.3137 83 77V48ZM39.5 62C38.1193 62 37 63.1193 37 64.5C37 65.8807 38.1193 67 39.5 67H60.5C61.8807 67 63 65.8807 63 64.5C63 63.1193 61.8807 62 60.5 62H39.5Z" fill="#CFD0D1"/>
<path d="M17 48H83L74.7145 33.0861C73.6563 31.1814 71.6486 30 69.4696 30H30.5304C28.3514 30 26.3437 31.1814 25.2855 33.0861L17 48Z" fill="#B7B9BA"/>
<rect x="48" y="8" width="3" height="14" rx="1.5" fill="#D9D9D9"/>
<rect x="61.2012" y="12.0547" width="3" height="12" rx="1.5" transform="rotate(30 61.2012 12.0547)" fill="#D9D9D9"/>
<rect width="3" height="12" rx="1.5" transform="matrix(-0.866025 0.5 0.5 0.866025 37.5977 12.0547)" fill="#D9D9D9"/>
</svg>
