<svg width="40" height="40" viewBox="0 0 40 40" fill="none" xmlns="http://www.w3.org/2000/svg">
<path d="M15.64 24.9956C15.6096 24.9994 15.5788 24.9971 15.5495 24.9888C15.5203 24.9805 15.4934 24.9665 15.4708 24.9476C15.4411 24.9086 15.4267 24.8615 15.4298 24.814V24.088C15.4284 24.049 15.443 24.0108 15.4708 23.9812C15.4944 23.9641 15.5216 23.9515 15.5507 23.9442C15.5797 23.9369 15.6101 23.935 15.64 23.9386H17.6708C17.7745 23.9403 17.8772 23.9188 17.9698 23.876C18.0624 23.8331 18.1422 23.7702 18.2022 23.6928C18.3365 23.534 18.4084 23.3384 18.4065 23.1376V22.5394H16.8773C16.5094 22.5373 16.1466 22.4607 15.815 22.315C15.2122 22.0228 14.6958 21.6012 14.3101 21.0864C14.1426 20.8954 14.0231 20.6731 13.96 20.4351C13.9156 20.249 13.8921 20.0593 13.8898 19.8688V17.0493C13.8876 17.0223 13.8923 16.9953 13.9034 16.9703C13.9146 16.9453 13.932 16.923 13.9542 16.9052C13.995 16.8737 14.0468 16.8567 14.1002 16.8572H14.9404C15.065 16.8572 15.1272 16.921 15.1272 17.0493V19.7301C15.1257 19.8552 15.1356 19.9803 15.1567 20.1039C15.1806 20.2207 15.2346 20.3305 15.3142 20.4244C15.4278 20.5677 15.5526 20.7033 15.6876 20.8301C15.8783 21.009 16.0811 21.1766 16.2949 21.332C16.3917 21.4055 16.5085 21.4536 16.6329 21.471C16.7142 21.4823 16.796 21.4895 16.8782 21.4924H18.4073V17.0493C18.4073 16.9218 18.4734 16.8572 18.6058 16.8572H19.4577C19.5056 16.8576 19.5514 16.8748 19.5859 16.9052C19.6065 16.9239 19.6224 16.9465 19.6325 16.9713C19.6427 16.9962 19.6468 17.0228 19.6447 17.0493V22.977C19.6452 23.23 19.6058 23.4818 19.5279 23.7246C19.455 23.9576 19.3365 24.1765 19.1782 24.3708C19.0196 24.5613 18.816 24.7164 18.5826 24.8247C18.3178 24.9435 18.0255 25.0021 17.7307 24.9956H15.64ZM11.6132 23.116C11.4807 23.116 11.4145 23.0447 11.4145 22.9023V21.9843C11.4161 21.8893 11.4067 21.7944 11.3866 21.7012C11.3619 21.6083 11.3206 21.5199 11.2643 21.4393C11.14 21.2552 10.9952 21.0834 10.8323 20.9265C10.6393 20.7363 10.4327 20.558 10.2139 20.3928C10.1366 20.3184 10.0331 20.2712 9.92155 20.2595C9.82467 20.2493 9.72727 20.2438 9.62976 20.2431H8.59081V22.8918C8.59081 22.9915 8.57493 23.0537 8.54427 23.0785C8.50023 23.1073 8.44632 23.1207 8.39238 23.1162H7.57555C7.51634 23.1195 7.45793 23.1023 7.41196 23.068C7.38965 23.0439 7.37297 23.0158 7.36296 22.9856C7.35294 22.9553 7.34979 22.9235 7.35371 22.8921V15.3405C7.35067 15.2812 7.3648 15.2221 7.39468 15.1694C7.41387 15.146 7.43954 15.1277 7.46904 15.1165C7.49854 15.1052 7.53079 15.1014 7.56245 15.1054H8.35616C8.38785 15.1013 8.42016 15.104 8.45053 15.1132C8.4809 15.1225 8.50849 15.1381 8.53114 15.1588C8.55379 15.1795 8.57087 15.2047 8.58104 15.2325C8.5912 15.2603 8.59416 15.2898 8.5897 15.3188V19.1854H9.62865C9.73835 19.1874 9.84797 19.1784 9.95555 19.1586C10.063 19.1306 10.1626 19.0815 10.2473 19.0148C10.4761 18.8584 10.6905 18.6851 10.8883 18.4966C11.0357 18.3558 11.165 18.1999 11.2735 18.032C11.3634 17.893 11.4115 17.7346 11.4128 17.573V17.0493C11.4128 16.9209 11.479 16.8568 11.6115 16.857H12.4518C12.5376 16.857 12.5921 16.8783 12.6154 16.921C12.6398 16.9677 12.6518 17.019 12.6505 17.0707V17.5725C12.6513 17.7876 12.6179 18.0017 12.5515 18.208C12.4671 18.442 12.3387 18.6606 12.172 18.8541C12.0311 19.0326 11.8642 19.1925 11.6759 19.3295C11.4931 19.4612 11.3277 19.5876 11.1798 19.7087C11.2887 19.8011 11.4345 19.9275 11.6174 20.0878C11.8247 20.2724 12.0214 20.4668 12.2068 20.67C12.3835 20.8384 12.5085 21.0465 12.5691 21.2733C12.6206 21.4711 12.6479 21.6736 12.6505 21.8769V22.8918C12.658 22.9545 12.6391 23.0174 12.5978 23.0678C12.5764 23.085 12.5514 23.0982 12.5244 23.1065C12.4974 23.1147 12.4688 23.118 12.4403 23.116H11.6132ZM0.418828 23.116C0.361811 23.1177 0.306024 23.1006 0.261647 23.0678C0.23727 23.0447 0.218819 23.0169 0.207636 22.9865C0.196452 22.956 0.192816 22.9237 0.196992 22.8918V22.2722C0.196992 22.1297 0.271308 22.0585 0.419942 22.0585H4.1435C4.29163 22.0558 4.4333 22.0025 4.54063 21.909C4.60117 21.8618 4.64938 21.8027 4.68173 21.7362C4.71409 21.6696 4.72977 21.5973 4.72763 21.5245V20.7554C4.72481 20.6901 4.70726 20.6261 4.67609 20.5673C4.64492 20.5085 4.60079 20.4562 4.54648 20.4137C4.49786 20.3655 4.4393 20.3265 4.37416 20.299C4.30902 20.2715 4.23859 20.2561 4.16691 20.2536H1.83261C1.6395 20.2539 1.44783 20.2231 1.26632 20.1628C1.09059 20.1058 0.925307 20.0247 0.776106 19.9223C0.638759 19.8293 0.521884 19.7134 0.431647 19.5806C0.348059 19.4591 0.303537 19.3185 0.303172 19.1749V17.9568C0.305445 17.8144 0.352042 17.6755 0.4375 17.5565C0.53169 17.4201 0.652297 17.3007 0.793385 17.204C0.946129 17.0981 1.11518 17.0135 1.29502 16.9529C1.48156 16.8887 1.67931 16.8561 1.8786 16.8567H5.35691C5.38546 16.853 5.41457 16.8554 5.44194 16.8637C5.46931 16.872 5.49417 16.8861 5.51457 16.9047C5.53496 16.9234 5.55032 16.9462 5.55943 16.9712C5.56854 16.9962 5.57115 17.0229 5.56704 17.049V17.7219C5.5718 17.7497 5.56932 17.7782 5.5598 17.8049C5.55028 17.8316 5.53399 17.8559 5.51226 17.8758C5.49052 17.8957 5.46396 17.9106 5.43474 17.9193C5.40551 17.928 5.37445 17.9303 5.34409 17.9259H2.1113C1.96739 17.9226 1.82617 17.962 1.70888 18.0384C1.65222 18.077 1.60704 18.128 1.57744 18.1867C1.54785 18.2454 1.53478 18.31 1.53943 18.3745V18.7697C1.53956 18.8296 1.55557 18.8886 1.58611 18.9416C1.61664 18.9946 1.66078 19.04 1.71473 19.074C1.84724 19.1603 2.00757 19.2036 2.17011 19.1969H4.43473C4.61965 19.2001 4.80128 19.2422 4.96563 19.3198C5.14854 19.4017 5.316 19.5098 5.4617 19.6401C5.60646 19.768 5.72867 19.9157 5.82399 20.0779C5.9117 20.2199 5.95957 20.3796 5.96334 20.5428V21.4824C5.96197 21.6811 5.92254 21.8781 5.84684 22.0643C5.76987 22.2592 5.65285 22.4387 5.50211 22.5932C5.34828 22.7513 5.16203 22.8802 4.95393 22.9727C4.72598 23.0714 4.47621 23.1207 4.22404 23.1167L0.418828 23.116Z" fill="white"/>
<path d="M36.1285 23.1216C35.816 23.1264 35.5071 23.0604 35.2294 22.9293C35.0558 22.8499 34.8962 22.7473 34.7556 22.6248C34.6093 22.4981 34.4746 22.3605 34.3529 22.2135C34.228 22.0655 34.1457 21.8912 34.1135 21.7066C34.0849 21.5101 34.0713 21.312 34.0728 21.1137V19.3083C34.0864 18.9816 34.2133 18.6673 34.4351 18.411C34.607 18.1876 34.8045 17.9817 35.0243 17.7969C35.2672 17.59 35.5225 17.3957 35.789 17.2148C35.9884 17.0726 36.2195 16.9723 36.4659 16.921C36.6426 16.8863 36.8224 16.8666 37.003 16.8623H38.1356C38.3709 16.8629 38.6028 16.9142 38.8125 17.012C39.0242 17.1078 39.219 17.232 39.3905 17.3805C39.5496 17.5166 39.6836 17.6753 39.7874 17.8505C39.8756 17.9886 39.9257 18.1443 39.9334 18.3041V19.1479C39.9393 19.3351 39.8995 19.5212 39.8169 19.6926C39.7364 19.8672 39.624 20.0281 39.4844 20.1682C39.3105 20.3367 39.112 20.4825 38.8947 20.6017C38.7774 20.6611 38.6486 20.6992 38.5154 20.7139C38.3547 20.7323 38.1928 20.7408 38.0308 20.7394H35.3228V21.1239C35.3093 21.2947 35.3372 21.4661 35.4047 21.6257C35.4475 21.7095 35.5091 21.7841 35.5853 21.8448C35.6595 21.908 35.7442 21.9601 35.8361 21.9993C35.8838 22.0164 35.9325 22.0307 35.9821 22.0422C36.0412 22.0565 36.1021 22.0637 36.1633 22.0636H39.2096C39.3653 22.0636 39.4433 22.1241 39.4435 22.2451V22.8969C39.4443 22.9509 39.4301 23.0042 39.4022 23.0517C39.3743 23.0981 39.3108 23.1213 39.2099 23.1213L36.1285 23.1216ZM36.8229 17.952C36.6945 17.9798 36.5733 18.0308 36.4665 18.1019C36.2985 18.2049 36.1422 18.323 35.9997 18.4543C35.8258 18.6167 35.6621 18.7879 35.5092 18.9671C35.442 19.0414 35.3906 19.1265 35.3576 19.218C35.3287 19.2915 35.3168 19.3697 35.3228 19.4475V19.7357H38.0656C38.1495 19.736 38.2322 19.7183 38.3073 19.684C38.3823 19.6498 38.4475 19.5998 38.4976 19.5383C38.6069 19.4243 38.669 19.2787 38.6729 19.127V18.4541C38.6715 18.3858 38.6493 18.3193 38.6088 18.262C38.5662 18.198 38.5131 18.1404 38.4513 18.0912C38.3897 18.0418 38.321 18.0005 38.247 17.9683C38.1798 17.9379 38.106 17.9215 38.0311 17.9203H37.2022C37.075 17.9191 36.9479 17.9297 36.8229 17.952ZM29.6032 23.1216C29.4708 23.1216 29.4045 23.0575 29.4045 22.9293V17.7811C29.4045 17.6451 29.4104 17.5205 29.4221 17.4073C29.4333 17.294 29.4608 17.1825 29.5038 17.0758C29.5509 16.9606 29.6095 16.8497 29.6788 16.7443C29.7684 16.6102 29.8678 16.4818 29.9764 16.36C30.2949 16.0014 30.6754 15.693 31.1029 15.4471C31.4373 15.2422 31.8272 15.1258 32.2293 15.1108H32.7432C32.9065 15.1108 32.9881 15.1713 32.9879 15.2923V16.0188C32.9922 16.0704 32.9757 16.1217 32.9414 16.1629C32.8848 16.2022 32.8136 16.2194 32.7432 16.2108H32.3695C32.2839 16.2108 32.1903 16.2146 32.0894 16.2215C32.0027 16.2231 31.9196 16.2536 31.8556 16.3072C31.4863 16.5131 31.1667 16.7856 30.9161 17.1082C30.7421 17.3453 30.6468 17.6235 30.6416 17.9091V18.9985H32.9528C33.0381 18.9985 33.0921 19.0143 33.1161 19.0464C33.142 19.0868 33.1543 19.1333 33.1515 19.18V19.8532C33.1584 19.91 33.1417 19.9671 33.1047 20.0131C33.0623 20.0452 33.0078 20.0606 32.9531 20.056H30.6419V22.8974C30.6453 22.9543 30.6332 23.0111 30.6068 23.0627C30.592 23.0835 30.571 23.1 30.5464 23.1104C30.5217 23.1208 30.4944 23.1247 30.4675 23.1216H29.6032ZM26.8604 23.1216C26.801 23.1262 26.7416 23.1131 26.6909 23.0843C26.6564 23.0588 26.6386 23.0007 26.6386 22.9081V17.0867C26.6378 17.0329 26.6518 16.9796 26.6792 16.932C26.7071 16.8856 26.7673 16.8626 26.8607 16.8626H27.6427C27.7982 16.8626 27.876 16.9372 27.8762 17.0865V22.8974C27.8762 23.0469 27.8019 23.1215 27.6533 23.1213L26.8604 23.1216ZM24.8296 23.1216C24.6395 23.1181 24.4515 23.0836 24.2747 23.0196C24.062 22.9454 23.8586 22.8506 23.668 22.7368C23.4531 22.6097 23.25 22.4667 23.0608 22.3091C22.8594 22.1428 22.6703 21.9644 22.4947 21.7752C22.3869 21.6546 22.2875 21.528 22.1971 21.396C22.1274 21.2937 22.0706 21.1844 22.0279 21.0704C21.9888 20.9629 21.9633 20.8516 21.9519 20.7389C21.9407 20.6254 21.9346 20.4969 21.9346 20.3546V15.3242C21.9346 15.1819 21.9968 15.1107 22.1213 15.1105H22.9501C22.9805 15.1061 23.0115 15.1084 23.0408 15.1171C23.07 15.1258 23.0965 15.1407 23.1183 15.1606C23.14 15.1805 23.1563 15.2048 23.1658 15.2316C23.1753 15.2583 23.1778 15.2867 23.1731 15.3145V20.3558C23.1721 20.4427 23.186 20.5292 23.2143 20.6121C23.2463 20.7004 23.2872 20.7858 23.3367 20.8671C23.6274 21.2908 24.0232 21.6458 24.4921 21.9032C24.5529 21.96 24.6332 21.996 24.7195 22.0052C24.8215 22.0228 24.9251 22.0318 25.0288 22.032H25.2744C25.3753 22.032 25.4394 22.0478 25.4667 22.0799C25.4961 22.119 25.5105 22.1659 25.5076 22.2133V22.8972C25.5096 22.9522 25.4977 23.0069 25.4728 23.0571C25.4494 23.0999 25.3831 23.1211 25.2744 23.1211L24.8296 23.1216ZM26.8021 16.1578C26.7355 16.163 26.669 16.1459 26.6151 16.1096C26.5929 16.0854 26.5763 16.0573 26.5663 16.027C26.5563 15.9967 26.5532 15.9648 26.5572 15.9334V15.2497C26.5558 15.1906 26.5698 15.1319 26.5979 15.0786C26.6257 15.0276 26.6929 15.0039 26.8021 15.0039H27.7009C27.8722 15.0039 27.9579 15.0787 27.9579 15.2283V15.9331C27.9628 15.9655 27.9601 15.9984 27.95 16.0297C27.9399 16.061 27.9226 16.09 27.8993 16.1147C27.844 16.1475 27.7783 16.1625 27.7126 16.1575L26.8021 16.1578Z" fill="white"/>
</svg>
