<svg width="16" height="17" viewBox="0 0 16 17" fill="none" xmlns="http://www.w3.org/2000/svg">
<circle cx="8" cy="8.5" r="8" fill="#CFD0D1"/>
<path d="M7.09766 9.5C7.10845 8.08569 7.51889 8.25708 8.23144 7.81444C8.68488 7.53374 9.03036 7.14507 9.03036 6.57287C9.03036 5.89271 8.51215 5.47166 7.86437 5.47166C7.43257 5.47166 7.0126 5.66711 6.80189 6.0931C6.6636 6.37268 6.42375 6.62685 6.11183 6.62685C5.77709 6.62685 5.49915 6.34508 5.59195 6.02346C5.87698 5.03574 6.78266 4.5 7.86437 4.5C9.26788 4.5 10.2072 5.34211 10.2072 6.57287C10.2072 7.43657 9.7969 8.01957 9.10594 8.44062C8.45816 8.82928 8.20985 8.6255 8.18826 9.5V9.62178C8.18826 9.92346 7.9437 10.168 7.64202 10.168C7.33695 10.168 7.09101 9.91814 7.09586 9.6131L7.09766 9.5ZM7.68084 12.5C7.25978 12.5 6.90351 12.1545 6.9143 11.7335C6.90351 11.3124 7.25978 10.9669 7.68084 10.9669C8.09109 10.9669 8.44737 11.3124 8.44737 11.7335C8.44737 12.1545 8.09109 12.5 7.68084 12.5Z" fill="#5A5D60"/>
</svg>
