<svg width="20" height="20" viewBox="0 0 20 20" fill="none" xmlns="http://www.w3.org/2000/svg">
<path d="M8.93353 12.0575L16.4335 4.55748C16.4916 4.49941 16.5605 4.45335 16.6364 4.42192C16.7123 4.3905 16.7936 4.37432 16.8757 4.37432C16.9578 4.37432 17.0392 4.3905 17.115 4.42192C17.1909 4.45335 17.2598 4.49941 17.3179 4.55748C17.376 4.61555 17.422 4.68449 17.4535 4.76036C17.4849 4.83623 17.5011 4.91755 17.5011 4.99967C17.5011 5.08179 17.4849 5.16311 17.4535 5.23898C17.422 5.31485 17.376 5.38379 17.3179 5.44186L9.8179 12.9419C9.75983 12.9999 9.6909 13.046 9.61502 13.0774C9.53915 13.1088 9.45784 13.125 9.37571 13.125C9.29359 13.125 9.21228 13.1088 9.1364 13.0774C9.06053 13.046 8.9916 12.9999 8.93353 12.9419C8.87546 12.8838 8.8294 12.8149 8.79797 12.739C8.76654 12.6631 8.75037 12.5818 8.75037 12.4997C8.75037 12.4175 8.76654 12.3362 8.79797 12.2604C8.8294 12.1845 8.87546 12.1156 8.93353 12.0575ZM10.0007 6.87467C10.5436 6.87398 11.083 6.96185 11.5976 7.13483C11.6757 7.16253 11.7586 7.17441 11.8413 7.16978C11.9241 7.16515 12.0051 7.1441 12.0797 7.10785C12.1542 7.07161 12.2208 7.0209 12.2756 6.95867C12.3304 6.89644 12.3722 6.82394 12.3987 6.74539C12.4252 6.66683 12.4358 6.5838 12.4298 6.50111C12.4239 6.41843 12.4016 6.33774 12.3642 6.26377C12.3268 6.18979 12.2751 6.12399 12.212 6.0702C12.1489 6.01641 12.0758 5.9757 11.9968 5.95045C11.0008 5.61467 9.93622 5.53551 8.90151 5.72027C7.8668 5.90504 6.8954 6.34777 6.07717 7.00751C5.25894 7.66725 4.62031 8.52269 4.22035 9.49469C3.8204 10.4667 3.67204 11.5239 3.789 12.5684C3.8059 12.7212 3.87851 12.8624 3.99294 12.965C4.10738 13.0676 4.25561 13.1244 4.40931 13.1247C4.43197 13.1247 4.4554 13.1247 4.47884 13.1208C4.64355 13.1025 4.79427 13.0196 4.89785 12.8902C5.00143 12.7608 5.04939 12.5956 5.03118 12.4309C5.01084 12.2462 5.00067 12.0605 5.00072 11.8747C5.00216 10.549 5.52941 9.2781 6.46678 8.34073C7.40415 7.40337 8.67508 6.87612 10.0007 6.87467ZM17.7929 7.89029C17.7555 7.81725 17.704 7.75229 17.6414 7.69913C17.5789 7.64598 17.5065 7.60566 17.4283 7.58049C17.3502 7.55531 17.2679 7.54578 17.1861 7.55242C17.1043 7.55906 17.0245 7.58175 16.9515 7.6192C16.8784 7.65665 16.8135 7.70812 16.7603 7.77067C16.7072 7.83322 16.6669 7.90563 16.6417 7.98376C16.6165 8.06189 16.607 8.14422 16.6136 8.22603C16.6203 8.30785 16.643 8.38756 16.6804 8.46061C17.1428 9.36864 17.4159 10.3612 17.483 11.3779C17.5502 12.3947 17.41 13.4145 17.071 14.3755L2.92259 14.37C2.52784 13.2384 2.4093 12.0289 2.57684 10.8423C2.74437 9.65563 3.19314 8.52622 3.88572 7.54819C4.5783 6.57017 5.49464 5.77186 6.55835 5.21983C7.62205 4.66779 8.8023 4.37802 10.0007 4.37467H10.0695C11.2335 4.38199 12.3794 4.66299 13.4148 5.19498C13.488 5.23529 13.5686 5.2605 13.6518 5.26911C13.7349 5.27772 13.819 5.26955 13.8989 5.2451C13.9789 5.22064 14.0531 5.18039 14.1172 5.12673C14.1814 5.07308 14.2341 5.0071 14.2722 4.93271C14.3104 4.85832 14.3332 4.77703 14.3394 4.69365C14.3456 4.61027 14.335 4.5265 14.3082 4.44729C14.2814 4.36808 14.239 4.29506 14.1835 4.23253C14.128 4.17 14.0606 4.11924 13.9851 4.08326C12.4265 3.28492 10.6641 2.97263 8.9261 3.18677C7.18806 3.40091 5.55425 4.13164 4.23602 5.28444C2.9178 6.43724 1.9758 7.95906 1.53189 9.65305C1.08798 11.347 1.16257 13.1353 1.74603 14.7864C1.83221 15.031 1.99205 15.243 2.20357 15.3931C2.41509 15.5432 2.66791 15.6241 2.92728 15.6247H17.0734C17.3326 15.6248 17.5855 15.5444 17.797 15.3945C18.0085 15.2446 18.1681 15.0326 18.2538 14.788C18.648 13.6668 18.8104 12.4772 18.7312 11.2914C18.652 10.1056 18.3328 8.94827 17.7929 7.88951V7.89029Z" fill="#63666A"/>
</svg>
