<svg width="15" height="16" viewBox="0 0 15 16" fill="none" xmlns="http://www.w3.org/2000/svg">
<path fill-rule="evenodd" clip-rule="evenodd" d="M12.9185 7.57134L12.878 7.53749L12.9132 7.4992C13.7046 6.63299 14.1806 5.57396 14.1806 4.51794C14.1806 4.23606 14.1676 3.95346 14.1163 3.68557C13.7122 1.58744 11.7874 0.0044458 9.48905 0L0 0L0 3.67897H8.78634C9.57548 3.67897 10.2153 4.29421 10.2153 5.05365C10.2153 5.81245 9.57548 6.42769 8.78634 6.42769H3.99595V4.50618L0 6.42769L0 16H9.78287C12.0529 16 13.9724 14.5333 14.5725 12.5344C14.7028 12.1028 14.769 11.6556 14.7692 11.2061C14.7692 9.8402 14.059 8.51478 12.9185 7.57134ZM3.99603 12.3483H8.94324C9.79666 12.3483 10.4893 11.683 10.4893 10.8617C10.4893 10.0411 9.79666 9.37511 8.94324 9.37511H3.99603V12.3483Z" fill="#B7B9BA"/>
</svg>
