<svg width="14" height="15" viewBox="0 0 14 15" fill="none" xmlns="http://www.w3.org/2000/svg">
<g clip-path="url(#clip0_575_2645)">
<path d="M9.61953 6.27773L11.1913 7.84947C11.4464 8.10112 11.6492 8.40073 11.7879 8.73106C11.9267 9.06139 11.9988 9.4159 12 9.77419C12.0012 10.1325 11.9315 10.4875 11.7949 10.8187C11.6584 11.15 11.4576 11.4509 11.2043 11.7043C10.9509 11.9576 10.6499 12.1584 10.3186 12.2949C9.98738 12.4315 9.63237 12.5012 9.27406 12.5C8.91575 12.4988 8.56122 12.4267 8.23087 12.2879C7.90053 12.1492 7.6009 11.9464 7.34924 11.6914L6.82563 11.1678C6.75483 11.0995 6.69834 11.0178 6.65947 10.9274C6.62059 10.837 6.60011 10.7398 6.59921 10.6414C6.59831 10.543 6.61701 10.4455 6.65422 10.3544C6.69143 10.2633 6.74641 10.1806 6.81595 10.111C6.88549 10.0414 6.96819 9.98631 7.05923 9.94901C7.15028 9.91172 7.24784 9.89292 7.34622 9.89373C7.4446 9.89454 7.54184 9.91493 7.63226 9.95372C7.72268 9.99251 7.80446 10.0489 7.87285 10.1196L8.39744 10.6437C8.62942 10.8736 8.94301 11.0022 9.26959 11.0015C9.59618 11.0007 9.90916 10.8706 10.1401 10.6397C10.371 10.4087 10.501 10.0957 10.5016 9.76913C10.5023 9.44256 10.3736 9.12902 10.1436 8.89713L8.57182 7.32539C8.40193 7.15543 8.18614 7.03874 7.9509 6.9896C7.71566 6.94047 7.4712 6.96104 7.24748 7.04878C7.16779 7.08039 7.09303 7.11266 7.02322 7.14559L6.79401 7.25278C6.48775 7.39109 6.25213 7.45036 5.95229 7.15103C5.52155 6.72031 5.63318 6.32268 6.15827 5.96062C6.68134 5.60071 7.31396 5.43536 7.94625 5.49329C8.57854 5.55122 9.17057 5.82877 9.61953 6.27773ZM6.65076 3.30911L7.17437 3.8327C7.30941 3.97237 7.38418 4.15949 7.38259 4.35376C7.38099 4.54803 7.30315 4.7339 7.16584 4.87134C7.02852 5.00878 6.84272 5.08679 6.64844 5.08856C6.45417 5.09034 6.26696 5.01575 6.12715 4.88085L5.60305 4.35727C5.48917 4.23929 5.35293 4.14518 5.20228 4.08042C5.05163 4.01566 4.88959 3.98155 4.72562 3.98008C4.56165 3.97861 4.39903 4.0098 4.24724 4.07185C4.09545 4.1339 3.95755 4.22555 3.84156 4.34146C3.72558 4.45738 3.63384 4.59523 3.57171 4.74697C3.50957 4.89871 3.47828 5.06131 3.47966 5.22527C3.48104 5.38924 3.51506 5.55129 3.57974 5.70196C3.64441 5.85264 3.73846 5.98893 3.85637 6.10287L5.42819 7.67461C5.59808 7.84457 5.81387 7.96126 6.0491 8.0104C6.28434 8.05953 6.5288 8.03896 6.75252 7.95122C6.83222 7.91961 6.90697 7.88734 6.97678 7.85441L7.20599 7.74722C7.51225 7.60891 7.74837 7.54964 8.04771 7.84897C8.47846 8.27969 8.36682 8.67732 7.84173 9.03938C7.31866 9.39929 6.68604 9.56464 6.05375 9.50671C5.42146 9.44878 4.82943 9.17123 4.38047 8.72227L2.80866 7.15053C2.5536 6.89888 2.35085 6.59927 2.21206 6.26894C2.07328 5.93861 2.00122 5.5841 2.00002 5.22581C1.99881 4.86751 2.0685 4.51252 2.20507 4.18127C2.34163 3.85002 2.54238 3.54906 2.79574 3.2957C3.04911 3.04235 3.35009 2.84162 3.68136 2.70506C4.01262 2.5685 4.36763 2.49881 4.72594 2.50002C5.08425 2.50122 5.43878 2.57328 5.76913 2.71205C6.09947 2.85083 6.3991 3.05407 6.65076 3.30911Z" fill="#542FDD"/>
</g>
<defs>
<clipPath id="clip0_575_2645">
<rect width="14" height="14" fill="white" transform="translate(0 0.5)"/>
</clipPath>
</defs>
</svg>
