<svg width="40" height="20" viewBox="0 0 40 20" fill="none" xmlns="http://www.w3.org/2000/svg">
<path d="M39.4643 19.7322C39.4643 14.4989 37.3854 9.47991 33.6849 5.77942C29.9844 2.07892 24.9655 3.99759e-07 19.7322 4.65672e-09C14.4989 -3.90446e-07 9.47991 2.07892 5.77942 5.77941C2.07892 9.47991 8.16978e-07 14.4989 2.67725e-08 19.7322H4.93304C4.93304 15.8072 6.49223 12.043 9.2676 9.2676C12.043 6.49223 15.8072 4.93304 19.7322 4.93304C23.6571 4.93304 27.4213 6.49223 30.1967 9.2676C32.9721 12.043 34.5313 15.8072 34.5313 19.7322H39.4643Z" fill="#7C5FE5"/>
<path d="M10.1755 2.46865C7.08364 4.18024 4.50817 6.69078 2.71822 9.73796C0.92827 12.7851 -0.0104699 16.2571 8.80851e-05 19.7911L4.9331 19.7764C4.92519 17.1259 5.62924 14.5219 6.9717 12.2365C8.31417 9.95112 10.2458 8.06822 12.5647 6.78453L10.1755 2.46865Z" fill="#CDC2F5"/>
<path d="M29.5982 2.64361C26.606 0.916066 23.2127 0.00447464 19.7576 1.64313e-05C16.3025 -0.00444177 12.9068 0.898389 9.91021 2.6182L12.3657 6.89669C14.6132 5.60683 17.1599 4.92971 19.7513 4.93305C22.3426 4.93639 24.8876 5.62009 27.1317 6.91574L29.5982 2.64361Z" fill="#A692ED"/>
<path d="M5.71431 10.4216L20.5375 17.8188L19.5321 19.5603L5.71431 10.4216Z" fill="#542FDD"/>
<path d="M20.2657 17.5612C20.7883 17.8629 20.9674 18.5312 20.6657 19.0538C20.3639 19.5764 19.6956 19.7555 19.173 19.4537C18.6504 19.152 18.4713 18.4837 18.7731 17.9611C19.0748 17.4385 19.7431 17.2594 20.2657 17.5612Z" fill="#542FDD"/>
</svg>
