<svg width="32" height="32" viewBox="0 0 32 32" fill="none" xmlns="http://www.w3.org/2000/svg">
<path d="M16 5C15.0807 5 14.1705 5.18106 13.3212 5.53284C12.4719 5.88463 11.7003 6.40024 11.0503 7.05025C10.6597 7.44078 10.6597 8.07394 11.0503 8.46447C11.4408 8.85499 12.0739 8.85499 12.4645 8.46447C12.9288 8.00017 13.48 7.63188 14.0866 7.3806C14.6932 7.12933 15.3434 7 16 7C16.6566 7 17.3068 7.12933 17.9134 7.3806C18.52 7.63188 19.0712 8.00017 19.5355 8.46447C19.9261 8.85499 20.5592 8.85499 20.9497 8.46447C21.3403 8.07394 21.3403 7.44078 20.9497 7.05025C20.2997 6.40024 19.5281 5.88463 18.6788 5.53284C17.8295 5.18106 16.9193 5 16 5Z" fill="#63666A"/>
<path d="M13.3028 9.04618C14.0541 8.36015 15.0386 7.98619 16.0558 8.00039C17.0731 8.01459 18.0468 8.4159 18.7786 9.12264C19.1759 9.50629 19.187 10.1394 18.8033 10.5366C18.4197 10.9339 17.7866 10.945 17.3893 10.5613C17.0234 10.208 16.5366 10.0073 16.0279 10.0002C15.5193 9.99309 15.027 10.1801 14.6514 10.5231C14.2436 10.8955 13.611 10.8668 13.2386 10.4589C12.8662 10.0511 12.895 9.41859 13.3028 9.04618Z" fill="#63666A"/>
<path d="M18 22C18 21.4477 18.4477 21 19 21H23C23.5523 21 24 21.4477 24 22C24 22.5523 23.5523 23 23 23H19C18.4477 23 18 22.5523 18 22Z" fill="#63666A"/>
<path fill-rule="evenodd" clip-rule="evenodd" d="M6.75746 9.02986C7.29326 8.89591 7.83619 9.22167 7.97014 9.75746L9.78078 17H22.2192L24.0299 9.75746C24.1638 9.22167 24.7067 8.89591 25.2425 9.02986C25.7783 9.16381 26.1041 9.70674 25.9701 10.2425L24.2808 17H25C26.6569 17 28 18.3431 28 20V24C28 25.6569 26.6569 27 25 27H7C5.34314 27 4 25.6569 4 24V20C4 18.3431 5.34315 17 7 17H7.71922L6.02986 10.2425C5.89591 9.70674 6.22167 9.16381 6.75746 9.02986ZM22.979 19L22.9943 19.0002C23.0037 19.0003 23.0131 19.0002 23.0225 19H25C25.5523 19 26 19.4477 26 20V24C26 24.5523 25.5523 25 25 25H7C6.44772 25 6 24.5523 6 24V20C6 19.4477 6.44772 19 7 19H8.97755C8.99197 19.0003 9.00644 19.0003 9.02095 19H22.979Z" fill="#63666A"/>
<path d="M16 13C16.5523 13 17 12.5523 17 12C17 11.4477 16.5523 11 16 11C15.4477 11 15 11.4477 15 12C15 12.5523 15.4477 13 16 13Z" fill="#63666A"/>
</svg>
