<svg width="16" height="16" viewBox="0 0 16 16" fill="none" xmlns="http://www.w3.org/2000/svg">
<circle cx="8.00012" cy="8.00012" r="8.00012" fill="#542FDD"/>
<path d="M7.0489 11.6661C6.90874 11.6661 6.77044 11.6358 6.64451 11.5776C6.51857 11.5193 6.40832 11.4348 6.32212 11.3302L4.21189 8.71259C4.13322 8.6227 4.07441 8.5188 4.03894 8.40703C4.00348 8.29525 3.99207 8.17789 4.0054 8.06187C4.01873 7.94585 4.05653 7.83354 4.11655 7.73159C4.17657 7.62964 4.25761 7.54011 4.35485 7.46831C4.4521 7.39651 4.56358 7.3439 4.6827 7.31358C4.80182 7.28326 4.92616 7.27586 5.04836 7.29181C5.17056 7.30776 5.28814 7.34674 5.39413 7.40644C5.50012 7.46614 5.59238 7.54535 5.66544 7.63938L7.0489 9.37659L10.668 5.02177C10.7411 4.92774 10.8333 4.84853 10.9393 4.78883C11.0453 4.72913 11.1629 4.69015 11.2851 4.6742C11.4073 4.65825 11.5316 4.66566 11.6508 4.69597C11.7699 4.72629 11.8814 4.77891 11.9786 4.85071C12.0759 4.92251 12.1569 5.01203 12.2169 5.11399C12.2769 5.21594 12.3147 5.32825 12.3281 5.44426C12.3414 5.56028 12.33 5.67765 12.2945 5.78942C12.2591 5.90119 12.2002 6.0051 12.1216 6.09499L7.77567 11.3302C7.68948 11.4348 7.57922 11.5193 7.45329 11.5776C7.32736 11.6358 7.18906 11.6661 7.0489 11.6661Z" fill="white"/>
</svg>
