<svg width="40" height="40" viewBox="0 0 40 40" fill="none" xmlns="http://www.w3.org/2000/svg">
<path d="M37.4242 15.6082V13H35.4958V15.6082H32.9492V17.4494H35.4958V20.028H37.4242V17.4494H39.9889V15.6082H37.4242Z" fill="white"/>
<path d="M28.9546 15.5898V21.4944C28.9546 23.1483 28.1326 23.9614 26.7418 23.9614C25.351 23.9614 24.5289 23.1483 24.5289 21.4944V15.5898H22.1797V21.5305C22.1797 24.7957 23.919 26.0226 26.6579 26.0226H26.8257C29.5646 26.0226 31.3039 24.7957 31.3039 21.5305V15.5898H28.953H28.9546Z" fill="white"/>
<path d="M4.94119 25.8692H9.30432V23.8671H4.3789V15.5859H2V25.8692H4.94119Z" fill="white"/>
<path d="M14.5365 21.9511H16.4732V23.7496C16.1165 23.8859 15.4194 24.0222 14.7585 24.0222C12.618 24.0222 11.9045 22.9349 11.9045 20.7308C11.9045 18.5266 12.5835 17.3868 14.724 17.3868C15.9143 17.3868 16.5932 17.7596 17.1538 18.4724L18.6318 17.1158C17.7309 15.8265 16.151 15.4355 14.6731 15.4355C11.3439 15.4355 9.59473 17.2504 9.59473 20.7127C9.59473 24.1749 11.173 26.0244 14.6566 26.0244C16.2529 26.0244 17.8163 25.617 18.6663 25.0225V20.0344H14.5382V21.9528L14.5365 21.9511Z" fill="white"/>
</svg>
