<svg width="20" height="21" viewBox="0 0 20 21" fill="none" xmlns="http://www.w3.org/2000/svg">
<path d="M7.29381 12.7895L3.33398 16.7493M9.6162 6.50732L8.52357 7.59995C8.43445 7.68907 8.38988 7.73364 8.33911 7.76905C8.29404 7.80048 8.24543 7.82649 8.19428 7.84656C8.13666 7.86916 8.07486 7.88152 7.95126 7.90624L5.38612 8.41927C4.7195 8.55259 4.3862 8.61926 4.23026 8.79499C4.09442 8.94809 4.03238 9.15298 4.06049 9.35572C4.09275 9.58844 4.3331 9.82879 4.81381 10.3095L9.77385 15.2696C10.2546 15.7503 10.4949 15.9906 10.7276 16.0229C10.9304 16.051 11.1353 15.9889 11.2884 15.8531C11.4641 15.6972 11.5308 15.3639 11.6641 14.6972L12.1771 12.1321C12.2018 12.0085 12.2142 11.9467 12.2368 11.8891C12.2568 11.8379 12.2829 11.7893 12.3143 11.7442C12.3497 11.6935 12.3943 11.6489 12.4834 11.5598L13.576 10.4671C13.633 10.4102 13.6615 10.3817 13.6928 10.3568C13.7206 10.3347 13.7501 10.3147 13.781 10.2971C13.8157 10.2773 13.8527 10.2614 13.9268 10.2297L15.6729 9.48135C16.1823 9.26304 16.4369 9.15388 16.5526 8.97749C16.6538 8.82324 16.69 8.63529 16.6534 8.4545C16.6114 8.24776 16.4155 8.05181 16.0236 7.65993L12.4234 4.05971C12.0315 3.66782 11.8356 3.47188 11.6288 3.42997C11.4481 3.39332 11.2601 3.42952 11.1059 3.53069C10.9295 3.64639 10.8203 3.90108 10.602 4.41048L9.85369 6.15654C9.82194 6.23062 9.80607 6.26765 9.78623 6.30238C9.7686 6.33323 9.74865 6.3627 9.72655 6.39052C9.70168 6.42184 9.67319 6.45033 9.6162 6.50732Z" stroke="#96989B" stroke-width="2" stroke-linecap="round" stroke-linejoin="round"/>
</svg>
