<svg width="24" height="24" viewBox="0 0 24 24" fill="none" xmlns="http://www.w3.org/2000/svg">
<g clip-path="url(#clip0_605_3388)">
<path fill-rule="evenodd" clip-rule="evenodd" d="M4.00773 5.06534C4.97183 4.06305 6.27925 3.5 7.64248 3.5C9.00572 3.5 10.3131 4.06305 11.2772 5.06534C11.4657 5.26066 11.7084 5.50374 12.0052 5.79458C12.3013 5.50374 12.5437 5.26066 12.7322 5.06534C13.6922 4.07164 14.9906 3.5121 16.3451 3.50833C17.6997 3.50456 19.0009 4.05685 19.9661 5.04519C20.9312 6.03353 21.4823 7.37804 21.4996 8.78655C21.5168 10.1951 20.9989 11.5537 20.0582 12.5673L12.7311 20.1869C12.5383 20.3874 12.2768 20.5 12.0042 20.5C11.7315 20.5 11.4701 20.3874 11.2772 20.1869L3.95015 12.5684C3.0104 11.5605 2.48958 10.2087 2.50016 8.80482C2.51074 7.40097 3.0529 6.05779 4.00773 5.06534Z" fill="#542FDD"/>
</g>
<defs>
<clipPath id="clip0_605_3388">
<rect width="24" height="24" fill="white"/>
</clipPath>
</defs>
</svg>
