<svg width="40" height="40" viewBox="0 0 40 40" fill="none" xmlns="http://www.w3.org/2000/svg">
<path fill-rule="evenodd" clip-rule="evenodd" d="M24.5165 19.1635L24.4834 19.136L24.5122 19.1048C25.1564 18.3997 25.5439 17.5375 25.5439 16.6779C25.5439 16.4484 25.5333 16.2184 25.4915 16.0003C25.1626 14.2923 23.5957 13.0036 21.7247 13H14V15.9949H21.1526C21.795 15.9949 22.3159 16.4957 22.3159 17.114C22.3159 17.7317 21.795 18.2325 21.1526 18.2325H17.2529V16.6683L14 18.2325V26.025H21.9638C23.8118 26.025 25.3744 24.831 25.8629 23.2038C25.969 22.8524 26.0229 22.4884 26.023 22.1225C26.023 21.0105 25.4449 19.9315 24.5165 19.1635ZM17.253 23.0522H21.2803C21.9751 23.0522 22.5389 22.5107 22.5389 21.842C22.5389 21.1741 21.9751 20.6319 21.2803 20.6319H17.253V23.0522Z" fill="white"/>
</svg>
