<svg width="110" height="110" viewBox="0 0 110 110" fill="none" xmlns="http://www.w3.org/2000/svg">
<path d="M84 84.5C84 97.0242 71.6878 101 56.5 101C41.3122 101 29 97.0242 29 84.5C29 71.9758 41.3122 68 56.5 68C71.6878 68 84 71.9758 84 84.5Z" fill="#CFD0D1"/>
<mask id="path-2-inside-1_1064_10508" fill="white">
<path fill-rule="evenodd" clip-rule="evenodd" d="M35.4008 50.6002C34.6276 50.6002 34.0008 51.227 34.0008 52.0002V53.3015L32.2256 52.0002C29.8842 56.577 27.5188 66.0635 34.0008 71.6045V84.9002C34.0008 89.1528 37.4482 92.6002 41.7008 92.6002C44.4277 92.6002 46.8235 91.1827 48.1916 89.0443C48.3979 89.1034 48.6056 89.1592 48.8146 89.2117C50.1651 92.0434 53.0544 94.0002 56.4008 94.0002C59.7472 94.0002 62.6365 92.0434 63.987 89.2117C72.4983 87.0757 78.8008 79.374 78.8008 70.2002V67.6758C81.0992 63.2273 80.1798 57.747 78.8008 54.0134V52.0002C78.8008 51.227 78.174 50.6002 77.4008 50.6002H35.4008Z"/>
</mask>
<path fill-rule="evenodd" clip-rule="evenodd" d="M35.4008 50.6002C34.6276 50.6002 34.0008 51.227 34.0008 52.0002V53.3015L32.2256 52.0002C29.8842 56.577 27.5188 66.0635 34.0008 71.6045V84.9002C34.0008 89.1528 37.4482 92.6002 41.7008 92.6002C44.4277 92.6002 46.8235 91.1827 48.1916 89.0443C48.3979 89.1034 48.6056 89.1592 48.8146 89.2117C50.1651 92.0434 53.0544 94.0002 56.4008 94.0002C59.7472 94.0002 62.6365 92.0434 63.987 89.2117C72.4983 87.0757 78.8008 79.374 78.8008 70.2002V67.6758C81.0992 63.2273 80.1798 57.747 78.8008 54.0134V52.0002C78.8008 51.227 78.174 50.6002 77.4008 50.6002H35.4008Z" fill="white"/>
<path d="M34.0008 53.3015L33.1731 54.4306L35.4008 56.0635V53.3015H34.0008ZM32.2256 52.0002L33.0533 50.8711L31.7277 49.8994L30.9792 51.3626L32.2256 52.0002ZM34.0008 71.6045H35.4008V70.9595L34.9105 70.5404L34.0008 71.6045ZM48.1916 89.0443L48.5772 87.6985L47.5745 87.4112L47.0123 88.2898L48.1916 89.0443ZM48.8146 89.2117L50.0782 88.609L49.7946 88.0142L49.1554 87.8538L48.8146 89.2117ZM63.987 89.2117L63.6462 87.8538L63.007 88.0142L62.7233 88.609L63.987 89.2117ZM78.8008 67.6758L77.557 67.0332L77.4008 67.3355V67.6758H78.8008ZM78.8008 54.0134H77.4008V54.2636L77.4875 54.4984L78.8008 54.0134ZM35.4008 52.0002V52.0002V49.2002C33.8544 49.2002 32.6008 50.4538 32.6008 52.0002H35.4008ZM35.4008 53.3015V52.0002H32.6008V53.3015H35.4008ZM34.8285 52.1723L33.0533 50.8711L31.3979 53.1294L33.1731 54.4306L34.8285 52.1723ZM30.9792 51.3626C29.7342 53.7962 28.4837 57.5199 28.4047 61.4124C28.3252 65.3304 29.4398 69.5474 33.0911 72.6687L34.9105 70.5404C32.0798 68.1205 31.1361 64.8238 31.2042 61.4692C31.2727 58.0889 32.3756 54.781 33.472 52.6378L30.9792 51.3626ZM32.6008 71.6045V84.9002H35.4008V71.6045H32.6008ZM32.6008 84.9002C32.6008 89.926 36.675 94.0002 41.7008 94.0002V91.2002C38.2214 91.2002 35.4008 88.3796 35.4008 84.9002H32.6008ZM41.7008 94.0002C44.925 94.0002 47.7564 92.3224 49.3709 89.7988L47.0123 88.2898C45.8907 90.043 43.9304 91.2002 41.7008 91.2002V94.0002ZM49.1554 87.8538C48.9614 87.8051 48.7687 87.7533 48.5772 87.6985L47.806 90.3902C48.0272 90.4535 48.2498 90.5133 48.4738 90.5696L49.1554 87.8538ZM47.5509 89.8143C49.125 93.1148 52.4946 95.4002 56.4008 95.4002V92.6002C53.6142 92.6002 51.2052 90.9721 50.0782 88.609L47.5509 89.8143ZM56.4008 95.4002C60.307 95.4002 63.6766 93.1148 65.2506 89.8143L62.7233 88.609C61.5964 90.9721 59.1873 92.6002 56.4008 92.6002V95.4002ZM77.4008 70.2002C77.4008 78.7168 71.5497 85.8703 63.6462 87.8538L64.3278 90.5695C73.4468 88.2811 80.2008 80.0311 80.2008 70.2002H77.4008ZM77.4008 67.6758V70.2002H80.2008V67.6758H77.4008ZM80.0446 68.3185C82.6132 63.347 81.5424 57.3957 80.1141 53.5283L77.4875 54.4984C78.8171 58.0983 79.5852 63.1076 77.557 67.0332L80.0446 68.3185ZM77.4008 52.0002V54.0134H80.2008V52.0002H77.4008ZM77.4008 52.0002H80.2008C80.2008 50.4538 78.9472 49.2002 77.4008 49.2002V52.0002ZM35.4008 52.0002H77.4008V49.2002H35.4008V52.0002Z" fill="black" mask="url(#path-2-inside-1_1064_10508)"/>
<rect x="34.7" y="58.2996" width="14" height="33.6" rx="7" stroke="black" stroke-width="1.4"/>
<rect x="48.7" y="59.6996" width="15.4" height="33.6" rx="7.7" stroke="black" stroke-width="1.4"/>
<path d="M37.7236 73.1141C32.6888 70.8295 30.84 66.9526 30.5442 62.9855C30.2723 59.3395 31.3201 55.6203 32.4898 53.0612L42.4691 60.3762C42.4365 60.4155 42.4056 60.4558 42.3769 60.4973C42.2632 60.6616 42.1631 60.8712 42.1399 61.1223C42.1161 61.3806 42.1793 61.6238 42.2988 61.8388C42.5167 62.231 42.9333 62.55 43.4355 62.8408C43.9608 63.1448 44.6854 63.4761 45.6459 63.8516C47.488 64.5718 49.4475 64.8169 51.0928 65.0227C51.6433 65.0916 52.1586 65.1561 52.6225 65.2324C53.5917 65.392 54.3191 65.5946 54.8244 65.9218C55.2834 66.2191 55.5885 66.637 55.6811 67.3611C55.942 69.4008 55.7243 71.1066 55.1061 72.4324C54.494 73.7451 53.4702 74.7291 52.0224 75.3174C49.0806 76.5126 44.3 76.0984 37.7236 73.1141Z" fill="white" stroke="black" stroke-width="1.4"/>
<path d="M69.5131 75.8252C72.7706 74.9197 75.0144 73.3299 76.5302 71.4C78.0514 69.4631 78.8701 67.144 79.2055 64.7417C79.8233 60.3168 78.7867 55.7134 77.6293 53.0039L65.0602 60.6028C65.4379 61.061 65.7408 61.6562 65.7233 62.3463C65.6928 63.556 64.7133 64.586 62.7671 65.369C61.4751 65.8887 60.0543 66.021 58.6725 66.0311C57.9787 66.0362 57.2803 66.0103 56.6031 65.9824C56.5292 65.9794 56.4555 65.9763 56.3822 65.9732C55.7783 65.9481 55.1942 65.9238 54.6264 65.9188C53.3426 65.9074 52.2355 65.9981 51.3409 66.3526C50.4841 66.6922 49.796 67.2837 49.347 68.3676C48.5517 70.2871 48.5978 71.8696 49.2106 73.1265C49.8306 74.3981 51.089 75.456 52.9508 76.1915C56.6894 77.6684 62.6227 77.7406 69.5131 75.8252Z" fill="white" stroke="black" stroke-width="1.4"/>
<path d="M80.7016 41.3991C80.7016 55.639 67.9197 67.2991 52.0016 67.2991C36.0834 67.2991 23.3016 55.639 23.3016 41.3991C23.3016 27.1592 36.0834 15.4991 52.0016 15.4991C67.9197 15.4991 80.7016 27.1592 80.7016 41.3991Z" fill="white" stroke="black" stroke-width="1.4"/>
<path d="M80.7008 46.2991C76.7341 48.3991 65.4408 52.5991 52.0008 52.5991C38.5608 52.5991 27.2674 48.3991 23.3008 46.2991" stroke="black" stroke-width="1.4"/>
<path fill-rule="evenodd" clip-rule="evenodd" d="M40.634 34.399C33.7686 34.399 28.2031 39.9645 28.2031 46.8299C28.2031 53.6953 33.7686 59.2608 40.634 59.2608H44.9681L50.5976 62.8584C51.9472 63.7209 53.717 62.7516 53.717 61.1499V59.2608H59.7033C66.5687 59.2608 72.1342 53.6953 72.1342 46.8299C72.1342 39.9645 66.5687 34.399 59.7033 34.399H40.634Z" fill="black"/>
<path d="M44.6279 48.399C45.3279 49.6114 44.2422 50.2382 42.903 51.0114C41.5638 51.7846 40.4781 52.4114 39.7781 51.199C39.0781 49.9866 40.1638 49.3598 41.503 48.5866C42.8422 47.8134 43.9279 47.1866 44.6279 48.399Z" fill="#87C0F4"/>
<path d="M58.9505 51.0127C58.2505 52.2251 57.1649 51.5983 55.8257 50.8251C54.4864 50.0519 53.4008 49.4251 54.1008 48.2127C54.8008 47.0002 55.8864 47.627 57.2257 48.4002C58.5649 49.1734 59.6505 49.8002 58.9505 51.0127Z" fill="#87C0F4"/>
<path d="M77.9023 36.5002C80.2219 36.5002 82.1023 34.6198 82.1023 32.3002C82.1023 31.8723 81.9822 31.4125 81.8205 30.9751C81.6554 30.5287 81.4288 30.0582 81.1769 29.5952C80.6731 28.6693 80.0414 27.7258 79.5185 26.9913C78.7197 25.8692 77.085 25.8692 76.2862 26.9913C75.7632 27.7259 75.1316 28.6693 74.6278 29.5952C74.3759 30.0582 74.1493 30.5287 73.9842 30.9751C73.8225 31.4125 73.7023 31.8723 73.7023 32.3002C73.7023 34.6198 75.5827 36.5002 77.9023 36.5002Z" fill="#87C0F4" stroke="black" stroke-width="1.4"/>
<path d="M88 8.5V34.5" stroke="#B7B9BA" stroke-width="2" stroke-linecap="round"/>
<path d="M82 4V24" stroke="#B7B9BA" stroke-width="2" stroke-linecap="round"/>
<path d="M76 6V17" stroke="#B7B9BA" stroke-width="2" stroke-linecap="round"/>
</svg>
