<svg width="24" height="24" viewBox="0 0 24 24" fill="none" xmlns="http://www.w3.org/2000/svg">
<path fill-rule="evenodd" clip-rule="evenodd" d="M10.6023 2.59961C6.23298 3.23398 2.8263 6.83932 2.49742 11.3005H2.99873H6.72342C6.95018 8.0658 8.70525 5.02294 10.6023 2.59961ZM2.49609 12.7005C2.81739 17.1755 6.23541 20.7932 10.6184 21.4219C8.71523 18.9952 6.95082 15.9443 6.72342 12.7005H2.99873H2.49609ZM13.3837 21.4159C17.747 20.7706 21.1447 17.1615 21.465 12.7005H20.9987H17.274C17.0468 15.9416 15.2851 18.9902 13.3837 21.4159ZM21.4636 11.3005C21.1358 6.85333 17.7494 3.25664 13.3999 2.60567C15.2951 5.02801 17.0475 8.0685 17.274 11.3005H20.9987H21.4636ZM11.9987 20.9074C10.073 18.5305 8.36698 15.649 8.12743 12.7005H15.87C15.6305 15.649 13.9244 18.5305 11.9987 20.9074ZM8.12743 11.3005H15.87C15.6305 8.35194 13.9244 5.47046 11.9987 3.09351C10.073 5.47046 8.36698 8.35194 8.12743 11.3005Z" fill="#36383A"/>
</svg>
