<svg width="40" height="40" viewBox="0 0 40 40" fill="none" xmlns="http://www.w3.org/2000/svg">
<path d="M19.7736 23.8719L17.1969 20.7624L20.9415 16.2435H18.8977C17.9816 16.2435 17.3532 16.5169 16.7964 17.1573L14.822 19.5348V13H12.8423C12.6187 13.0006 12.4045 13.088 12.2466 13.2432C12.0887 13.3983 12 13.6085 12 13.8276V26.0207H13.9798C14.2033 26.0201 14.4176 25.9327 14.5755 25.7776C14.7334 25.6224 14.822 25.4122 14.822 25.1931V21.9485L16.423 23.8751L17.7873 25.5218C17.9053 25.6749 18.0578 25.7993 18.2329 25.8851C18.408 25.9709 18.601 26.0158 18.7968 26.0165H21.5624L19.7736 23.8719Z" fill="white"/>
<path d="M24.8534 26.0207C23.3252 26.0207 22.2734 24.9899 22.2734 23.4953V13.8266C22.2743 13.607 22.3639 13.3968 22.5226 13.2419C22.6812 13.087 22.8961 13 23.12 13H25.0998V22.9762C25.0998 23.1731 25.1794 23.362 25.3212 23.5016C25.463 23.6411 25.6554 23.72 25.8563 23.7208H27.873V25.1973C27.8724 25.417 27.783 25.6275 27.6243 25.7827C27.4656 25.9378 27.2506 26.025 27.0264 26.025L24.8534 26.0207Z" fill="white"/>
<path d="M26.0454 16.5673H18.6539C17.652 16.5673 16.9921 16.9141 16.5265 17.4716L15.0938 19.2055C15.6126 18.8183 16.3268 18.5885 17.0583 18.5885H26.0454C27.1851 18.5885 28.2813 18.246 28.2813 17.3662C28.2813 16.4865 28.1782 15.9961 28.1782 15.9961C28.1782 15.9961 27.642 16.5673 26.0454 16.5673Z" fill="white"/>
<path d="M15.1124 19.1768L16.7666 17.1801C17.1747 16.6897 17.7119 16.2355 18.8451 16.2355H26.0456C27.5684 16.2355 28.0981 15.7057 28.1046 15.7004L28.2783 15.5195V17.3599C28.2783 17.3599 28.3011 17.6237 28.0536 17.8907C27.7063 18.263 27.0301 18.4524 26.0456 18.4524H17.0401C15.8928 18.4524 15.1113 19.1779 15.1113 19.1779L15.1124 19.1768Z" fill="white"/>
</svg>
