<svg width="24" height="24" viewBox="0 0 24 24" fill="none" xmlns="http://www.w3.org/2000/svg">
<path fill-rule="evenodd" clip-rule="evenodd" d="M10.6042 2.59961C6.23493 3.23398 2.82826 6.83932 2.49938 11.3005H3.00068H6.72537C6.95213 8.0658 8.70721 5.02294 10.6042 2.59961ZM2.49805 12.7005C2.81935 17.1755 6.23736 20.7932 10.6204 21.4219C8.71718 18.9952 6.95278 15.9443 6.72537 12.7005H3.00068H2.49805ZM13.3857 21.4159C17.7489 20.7706 21.1466 17.1615 21.4669 12.7005H21.0007H17.276C17.0488 15.9416 15.2871 18.9902 13.3857 21.4159ZM21.4656 11.3005C21.1377 6.85333 17.7514 3.25664 13.4019 2.60567C15.2971 5.02801 17.0494 8.0685 17.276 11.3005H21.0007H21.4656ZM12.0007 20.9074C10.075 18.5305 8.36893 15.649 8.12938 12.7005H15.872C15.6324 15.649 13.9264 18.5305 12.0007 20.9074ZM8.12938 11.3005H15.872C15.6324 8.35194 13.9264 5.47046 12.0007 3.09351C10.075 5.47046 8.36893 8.35194 8.12938 11.3005Z" fill="#96989B"/>
</svg>
