<svg width="12" height="13" viewBox="0 0 12 13" fill="none" xmlns="http://www.w3.org/2000/svg">
<g clip-path="url(#clip0_515_3643)">
<path d="M4.19014 4.92668C4.53814 5.65149 5.01253 6.33081 5.61332 6.9316C6.21411 7.53238 6.89343 8.00678 7.61824 8.35478C7.68059 8.38471 7.71176 8.39968 7.7512 8.41118C7.89138 8.45204 8.06351 8.42269 8.18222 8.33768C8.21563 8.31376 8.24421 8.28518 8.30136 8.22803C8.47617 8.05322 8.56357 7.96582 8.65146 7.90868C8.9829 7.69318 9.41019 7.69318 9.74164 7.90868C9.82953 7.96582 9.91693 8.05322 10.0917 8.22803L10.1892 8.32546C10.4549 8.59118 10.5877 8.72404 10.6599 8.86673C10.8035 9.15051 10.8035 9.48565 10.6599 9.76943C10.5877 9.91212 10.4549 10.045 10.1892 10.3107L10.1103 10.3895C9.84554 10.6543 9.71313 10.7867 9.53312 10.8879C9.33336 11.0001 9.02312 11.0808 8.79401 11.0801C8.58753 11.0795 8.44642 11.0394 8.1642 10.9593C6.6475 10.5288 5.21632 9.71658 4.02233 8.52259C2.82834 7.3286 2.0161 5.89742 1.58562 4.38072C1.50551 4.09849 1.46546 3.95738 1.46485 3.75091C1.46417 3.5218 1.54485 3.21155 1.65706 3.0118C1.75818 2.83178 1.89059 2.69938 2.1554 2.43457L2.23422 2.35575C2.49994 2.09003 2.6328 1.95717 2.77549 1.885C3.05927 1.74146 3.3944 1.74146 3.67818 1.88499C3.82087 1.95717 3.95373 2.09003 4.21945 2.35575L4.31689 2.45318C4.49169 2.62799 4.57909 2.71539 4.63624 2.80328C4.85173 3.13472 4.85173 3.56201 4.63624 3.89346C4.57909 3.98135 4.49169 4.06875 4.31689 4.24355C4.25973 4.30071 4.23115 4.32929 4.20723 4.36269C4.12223 4.48141 4.09288 4.65354 4.13374 4.79371C4.14524 4.83316 4.1602 4.86433 4.19014 4.92668Z" stroke="#707070" stroke-width="0.75" stroke-linecap="round" stroke-linejoin="round"/>
</g>
<defs>
<clipPath id="clip0_515_3643">
<rect width="12" height="12" fill="white" transform="translate(0 0.5)"/>
</clipPath>
</defs>
</svg>
