<svg width="33" height="32" viewBox="0 0 33 32" fill="none" xmlns="http://www.w3.org/2000/svg">
<path fill-rule="evenodd" clip-rule="evenodd" d="M17.874 26.1839C15.7829 25.4166 13.5351 24.086 11.5576 22.1084C9.58002 20.1309 8.24944 17.8831 7.48209 15.7921C6.72375 13.7256 6.48372 11.7213 6.80489 10.2431C7.1137 8.8219 7.89611 7.43726 8.84412 6.4597C9.73486 5.5412 11.074 4.6957 12.4566 5.10673C13.022 5.27482 13.5073 5.67485 13.8889 6.07997C14.2881 6.50375 14.6623 7.02858 14.9911 7.58561C15.6432 8.69051 16.1862 10.0415 16.3803 11.2159C16.4877 11.866 16.2301 12.4646 15.8279 12.8622L15.766 12.9233C15.2901 13.3936 14.9648 13.7176 14.7356 14.013C14.5208 14.2896 14.4453 14.4742 14.421 14.6384C14.3618 15.0389 14.3309 15.3727 14.4651 15.803C14.6047 16.2506 14.9567 16.8994 15.8616 17.8044C16.7666 18.7093 17.4155 19.0613 17.863 19.2009C18.2933 19.3351 18.6271 19.3042 19.0276 19.245C19.1918 19.2207 19.3764 19.1452 19.653 18.9305C19.9484 18.7012 20.2724 18.3759 20.7427 17.9L20.8038 17.8382C21.2014 17.436 21.8 17.1783 22.4501 17.2857C23.6246 17.4798 24.9755 18.0228 26.0804 18.675C26.6374 19.0038 27.1623 19.378 27.586 19.7772C27.9912 20.1588 28.3912 20.6441 28.5593 21.2094C28.9703 22.592 28.1248 23.9312 27.2063 24.8219C26.2288 25.7699 24.8441 26.5523 23.4229 26.8611C21.9447 27.1823 19.9405 26.9423 17.874 26.1839ZM18.5622 24.3085C20.4198 24.9902 22.0192 25.1218 22.9987 24.909C24.0352 24.6838 25.09 24.0914 25.8156 23.3878C26.6002 22.6269 26.7214 22.0376 26.6445 21.7787C26.6244 21.7113 26.5224 21.5196 26.2163 21.2313C25.9288 20.9605 25.5331 20.6716 25.065 20.3953C24.1457 19.8527 23.0632 19.4259 22.198 19.2694L22.1637 19.3041C22.1526 19.3154 22.1414 19.3266 22.1303 19.3379C21.7028 19.7706 21.2889 20.1895 20.878 20.5085C20.4378 20.8502 19.9375 21.1299 19.3197 21.2212C18.8339 21.293 18.1365 21.3788 17.2682 21.108C16.4171 20.8426 15.5 20.2679 14.4491 19.2169C13.3982 18.166 12.8235 17.2489 12.558 16.3978C12.2872 15.5295 12.373 14.8321 12.4448 14.3463C12.5361 13.7285 12.8158 13.2282 13.1576 12.788C13.4765 12.3772 13.8954 11.9632 14.3281 11.5357L14.3966 11.468C14.2401 10.6028 13.8133 9.52031 13.2707 8.60105C12.9944 8.13287 12.7055 7.73718 12.4347 7.44971C12.1464 7.14358 11.9548 7.04162 11.8873 7.02157C11.6284 6.9446 11.0391 7.0658 10.2782 7.85042C9.57457 8.57598 8.9822 9.63087 8.75701 10.6673C8.54418 11.6468 8.67577 13.2462 9.35747 15.1038C10.0302 16.9369 11.208 18.9338 12.9701 20.6959C14.7322 22.458 16.7291 23.6359 18.5622 24.3085Z" fill="#63666A"/>
</svg>
