<svg width="32" height="32" viewBox="0 0 32 32" fill="none" xmlns="http://www.w3.org/2000/svg">
<path d="M7 14.1919C7 13.1414 7.20693 12.1011 7.60896 11.1305C8.011 10.1599 8.60028 9.27795 9.34315 8.53508C9.73367 8.14456 10.3668 8.14456 10.7574 8.53508C11.1479 8.9256 11.1479 9.55877 10.7574 9.94929C10.2002 10.5064 9.75825 11.1679 9.45672 11.8958C9.15519 12.6238 9 13.404 9 14.1919C9 14.9799 9.15519 15.7601 9.45672 16.488C9.75825 17.216 10.2002 17.8774 10.7574 18.4346C11.1479 18.8251 11.1479 19.4583 10.7574 19.8488C10.3668 20.2393 9.73367 20.2393 9.34315 19.8488C8.60028 19.1059 8.011 18.224 7.60896 17.2534C7.20693 16.2828 7 15.2425 7 14.1919Z" fill="#FF4160"/>
<path d="M25 14.1919C25 13.1414 24.7931 12.1011 24.391 11.1305C23.989 10.1599 23.3997 9.27795 22.6569 8.53508C22.2663 8.14456 21.6332 8.14456 21.2426 8.53508C20.8521 8.9256 20.8521 9.55877 21.2426 9.94929C21.7998 10.5064 22.2417 11.1679 22.5433 11.8958C22.8448 12.6238 23 13.404 23 14.1919C23 14.9799 22.8448 15.7601 22.5433 16.488C22.2417 17.216 21.7998 17.8774 21.2426 18.4346C20.8521 18.8251 20.8521 19.4583 21.2426 19.8488C21.6332 20.2393 22.2663 20.2393 22.6569 19.8488C23.3997 19.1059 23.989 18.224 24.391 17.2534C24.7931 16.2828 25 15.2425 25 14.1919Z" fill="#FF4160"/>
<path d="M2 14.1924C2 12.3539 2.36212 10.5334 3.06569 8.83482C3.76925 7.13626 4.80048 5.59291 6.1005 4.29289C6.49103 3.90237 7.12419 3.90237 7.51472 4.29289C7.90524 4.68342 7.90524 5.31658 7.51472 5.70711C6.40041 6.82141 5.5165 8.14428 4.91344 9.60019C4.31039 11.0561 4 12.6165 4 14.1924C4 15.7683 4.31039 17.3287 4.91345 18.7846C5.5165 20.2405 6.40042 21.5634 7.51472 22.6777C7.90525 23.0682 7.90525 23.7014 7.51472 24.0919C7.1242 24.4824 6.49103 24.4824 6.10051 24.0919C4.80049 22.7919 3.76926 21.2485 3.06569 19.55C2.36212 17.8514 2 16.0309 2 14.1924Z" fill="#FF4160"/>
<path d="M30 14.1924C30 12.3539 29.6379 10.5334 28.9343 8.83482C28.2307 7.13626 27.1995 5.59291 25.8995 4.29289C25.509 3.90237 24.8758 3.90237 24.4853 4.29289C24.0948 4.68342 24.0948 5.31658 24.4853 5.70711C25.5996 6.82141 26.4835 8.14428 27.0866 9.60019C27.6896 11.0561 28 12.6165 28 14.1924C28 15.7683 27.6896 17.3287 27.0866 18.7846C26.4835 20.2405 25.5996 21.5634 24.4853 22.6777C24.0948 23.0682 24.0948 23.7014 24.4853 24.0919C24.8758 24.4824 25.509 24.4824 25.8995 24.0919C27.1995 22.7919 28.2307 21.2485 28.9343 19.55C29.6379 17.8514 30 16.0309 30 14.1924Z" fill="#FF4160"/>
<path fill-rule="evenodd" clip-rule="evenodd" d="M16 10.1924C13.7909 10.1924 12 11.9832 12 14.1924C12 15.9722 13.1624 17.4804 14.7694 17.9995L12.3982 25.7059C12.2003 26.349 12.6812 27 13.354 27H18.646C19.3188 27 19.7997 26.349 19.6018 25.7059L17.2306 17.9995C18.8376 17.4804 20 15.9722 20 14.1924C20 11.9832 18.2091 10.1924 16 10.1924ZM14 14.1924C14 13.0878 14.8954 12.1924 16 12.1924C17.1046 12.1924 18 13.0878 18 14.1924C18 15.297 17.1046 16.1924 16 16.1924C14.8954 16.1924 14 15.297 14 14.1924Z" fill="#FF4160"/>
</svg>
