<svg width="24" height="24" viewBox="0 0 24 24" fill="none" xmlns="http://www.w3.org/2000/svg">
<path d="M4 21.6764V4C4 2.89543 4.89543 2 6 2H18C19.1046 2 20 2.89543 20 4V21.6764C20 21.8251 19.8435 21.9218 19.7106 21.8553L18.4472 21.2236C18.1657 21.0828 17.8343 21.0828 17.5528 21.2236L16.4472 21.7764C16.1657 21.9172 15.8343 21.9172 15.5528 21.7764L14.4472 21.2236C14.1657 21.0828 13.8343 21.0828 13.5528 21.2236L12.4472 21.7764C12.1657 21.9172 11.8343 21.9172 11.5528 21.7764L10.4472 21.2236C10.1657 21.0828 9.83431 21.0828 9.55279 21.2236L8.44721 21.7764C8.16569 21.9172 7.83431 21.9172 7.55279 21.7764L6.44721 21.2236C6.16569 21.0828 5.83431 21.0828 5.55279 21.2236L4.28944 21.8553C4.15646 21.9218 4 21.8251 4 21.6764Z" fill="#753EFF"/>
<path d="M15.5 8.40002H8.5M15.5 12H8.5M12.875 15.6H8.5" stroke="white" stroke-width="1.5" stroke-linecap="round" stroke-linejoin="round"/>
</svg>
