<svg width="20" height="16" viewBox="0 0 20 16" fill="none" xmlns="http://www.w3.org/2000/svg">
<path d="M9.54919 13.3551L6.38391 9.53545L10.9838 3.98432H8.47321C7.34789 3.98432 6.5759 4.32016 5.89191 5.10683L3.46662 8.02744V0L1.03465 0C0.76 0.000691988 0.496839 0.108109 0.30288 0.298695C0.108922 0.489282 -9.07512e-07 0.747478 0 1.01666L0 15.9948H2.43196C2.70662 15.9941 2.96978 15.8867 3.16374 15.6961C3.35769 15.5055 3.46662 15.2473 3.46662 14.9781V10.9925L5.43325 13.359L7.10923 15.3819C7.25414 15.57 7.44146 15.7227 7.65656 15.8281C7.87167 15.9336 8.10872 15.9888 8.34921 15.9895H11.7465L9.54919 13.3551Z" fill="white"/>
<path d="M15.7889 15.9948C13.9116 15.9948 12.6196 14.7285 12.6196 12.8925V1.01535C12.6207 0.745706 12.7307 0.487455 12.9256 0.297151C13.1206 0.106847 13.3845 -1.99444e-06 13.6596 0L16.0916 0V12.2548C16.0916 12.4967 16.1894 12.7288 16.3635 12.9003C16.5377 13.0717 16.7741 13.1685 17.0209 13.1696H19.4982V14.9833C19.4975 15.2532 19.3876 15.5118 19.1926 15.7024C18.9977 15.893 18.7336 16 18.4582 16L15.7889 15.9948Z" fill="white"/>
<path d="M17.2534 4.38142H8.17356C6.94291 4.38142 6.13226 4.80742 5.56027 5.49217L3.80029 7.62219C4.43762 7.14653 5.31494 6.86427 6.21359 6.86427H17.2534C18.6534 6.86427 20.0001 6.44349 20.0001 5.3628C20.0001 4.28211 19.8734 3.67969 19.8734 3.67969C19.8734 3.67969 19.2147 4.38142 17.2534 4.38142Z" fill="white"/>
<path d="M3.8236 7.58835L5.85557 5.13556C6.3569 4.53314 7.01689 3.97515 8.40887 3.97515H17.2541C19.1247 3.97515 19.7754 3.32439 19.7834 3.31785L19.9967 3.0957V5.3564C19.9967 5.3564 20.0247 5.68048 19.7207 6.00848C19.294 6.46584 18.4634 6.69845 17.2541 6.69845H6.19156C4.78225 6.69845 3.82227 7.58966 3.82227 7.58966L3.8236 7.58835Z" fill="white"/>
</svg>
