<svg width="21" height="20" viewBox="0 0 21 20" fill="none" xmlns="http://www.w3.org/2000/svg">
<path d="M9.56719 11.8963C10.3343 11.3837 10.9166 10.6368 11.2282 9.76614C11.5397 8.8955 11.5639 7.94733 11.2971 7.06183C11.0304 6.17633 10.4869 5.40051 9.74692 4.84911C9.00699 4.29771 8.10994 4 7.18842 4C6.26691 4 5.36986 4.29771 4.62993 4.84911C3.89 5.40051 3.34646 6.17633 3.07971 7.06183C2.81295 7.94733 2.83713 8.8955 3.14868 9.76614C3.46022 10.6368 4.04259 11.3837 4.80966 11.8963C3.4221 12.4097 2.2371 13.3598 1.43146 14.6047C1.38912 14.6679 1.35971 14.7389 1.34494 14.8135C1.33017 14.8882 1.33034 14.9651 1.34543 15.0397C1.36052 15.1144 1.39023 15.1852 1.43285 15.2482C1.47546 15.3112 1.53012 15.3651 1.59365 15.4067C1.65718 15.4483 1.72831 15.4768 1.80291 15.4905C1.87751 15.5043 1.95409 15.503 2.0282 15.4868C2.10231 15.4706 2.17247 15.4398 2.2346 15.3961C2.29673 15.3524 2.3496 15.2968 2.39012 15.2324C2.90979 14.43 3.62089 13.7706 4.45885 13.3142C5.2968 12.8577 6.23506 12.6187 7.18842 12.6187C8.14179 12.6187 9.08005 12.8577 9.918 13.3142C10.756 13.7706 11.4671 14.43 11.9867 15.2324C12.0707 15.3577 12.2003 15.4447 12.3477 15.4747C12.4951 15.5048 12.6483 15.4754 12.7743 15.3929C12.9002 15.3104 12.9888 15.1815 13.0208 15.034C13.0528 14.8865 13.0257 14.7323 12.9454 14.6047C12.1398 13.3598 10.9547 12.4097 9.56719 11.8963ZM4.04059 8.31101C4.04059 7.686 4.22521 7.07502 4.57109 6.55534C4.91698 6.03566 5.40861 5.63062 5.9838 5.39144C6.55899 5.15225 7.19192 5.08967 7.80254 5.21161C8.41316 5.33354 8.97405 5.63451 9.41428 6.07646C9.85451 6.51842 10.1543 7.0815 10.2758 7.6945C10.3972 8.3075 10.3349 8.9429 10.0966 9.52034C9.85839 10.0978 9.45493 10.5913 8.93727 10.9386C8.41961 11.2858 7.81101 11.4711 7.18842 11.4711C6.35386 11.4702 5.55374 11.1369 4.96361 10.5445C4.37349 9.95207 4.04154 9.14884 4.04059 8.31101ZM19.0744 15.3997C18.9472 15.483 18.7924 15.5121 18.6439 15.4807C18.4953 15.4493 18.3653 15.36 18.2824 15.2324C17.7634 14.4295 17.0523 13.7699 16.2142 13.3136C15.3761 12.8574 14.4375 12.619 13.4841 12.6203C13.3323 12.6203 13.1867 12.5597 13.0794 12.452C12.9721 12.3442 12.9118 12.1981 12.9118 12.0457C12.9118 11.8933 12.9721 11.7472 13.0794 11.6394C13.1867 11.5317 13.3323 11.4711 13.4841 11.4711C13.9477 11.4707 14.4054 11.3675 14.8246 11.1689C15.2439 10.9702 15.6142 10.6811 15.9092 10.3221C16.2043 9.96315 16.4166 9.5432 16.5313 9.09226C16.6459 8.64133 16.6598 8.17055 16.5722 7.71357C16.4846 7.25658 16.2975 6.82467 16.0243 6.44869C15.7511 6.07271 15.3985 5.76194 14.9918 5.5386C14.5852 5.31525 14.1343 5.18484 13.6716 5.15668C13.2089 5.12852 12.7457 5.2033 12.3151 5.37568C12.2449 5.40615 12.1693 5.42219 12.0928 5.42283C12.0164 5.42348 11.9405 5.40874 11.8698 5.37946C11.7991 5.35019 11.735 5.30699 11.6812 5.2524C11.6274 5.19782 11.585 5.13297 11.5566 5.06168C11.5282 4.99038 11.5143 4.9141 11.5158 4.83733C11.5172 4.76056 11.534 4.68486 11.5651 4.61471C11.5962 4.54455 11.641 4.48137 11.6968 4.42889C11.7526 4.3764 11.8184 4.33569 11.8901 4.30914C12.8756 3.91459 13.9717 3.9004 14.967 4.26929C15.9622 4.63818 16.7862 5.36402 17.2798 6.30678C17.7735 7.24955 17.9018 8.34244 17.6402 9.37462C17.3785 10.4068 16.7454 11.3051 15.8629 11.8963C17.2504 12.4097 18.4354 13.3598 19.2411 14.6047C19.324 14.7323 19.353 14.8878 19.3217 15.0369C19.2905 15.186 19.2015 15.3165 19.0744 15.3997Z" fill="#63666A"/>
</svg>
