<svg width="20" height="20" viewBox="0 0 20 20" fill="none" xmlns="http://www.w3.org/2000/svg">
<g clip-path="url(#clip0_1088_2207)">
<path d="M16.8163 15.9351L13.2102 12.3289C14.1041 11.2391 14.6429 9.84322 14.6429 8.32179C14.6429 4.832 11.8112 2.00037 8.32143 2.00037C4.82857 2.00037 2 4.832 2 8.32179C2 11.8116 4.82857 14.6432 8.32143 14.6432C9.84286 14.6432 11.2357 14.1075 12.3255 13.2136L15.9316 16.8167C16.1765 17.0616 16.5714 17.0616 16.8163 16.8167C17.0612 16.5749 17.0612 16.1769 16.8163 15.9351ZM8.32143 13.3851C5.52653 13.3851 3.2551 11.1136 3.2551 8.32179C3.2551 5.52996 5.52653 3.25547 8.32143 3.25547C11.1133 3.25547 13.3878 5.52996 13.3878 8.32179C13.3878 11.1136 11.1133 13.3851 8.32143 13.3851Z" fill="#63666A"/>
</g>
<defs>
<clipPath id="clip0_1088_2207">
<rect width="20" height="20" fill="white"/>
</clipPath>
</defs>
</svg>
