<svg width="24" height="24" viewBox="0 0 24 24" fill="none" xmlns="http://www.w3.org/2000/svg">
<path fill-rule="evenodd" clip-rule="evenodd" d="M7 2H5V4H3V8H21V4H19V2H17V4H7V2ZM21 10H3V22H21V10ZM12.1753 12.1336C12.1201 11.9555 11.8799 11.9555 11.8247 12.1336L11.0068 14.7741C10.9821 14.8538 10.9113 14.9077 10.8315 14.9077H8.18468C8.00612 14.9077 7.93187 15.1474 8.07633 15.2575L10.2176 16.8894C10.2822 16.9386 10.3093 17.0259 10.2846 17.1055L9.4667 19.746C9.41152 19.9242 9.60589 20.0723 9.75034 19.9622L11.8917 18.3303C11.9563 18.2811 12.0437 18.2811 12.1083 18.3303L14.2497 19.9622C14.3941 20.0723 14.5885 19.9242 14.5333 19.746L13.7154 17.1055C13.6907 17.0259 13.7178 16.9386 13.7824 16.8894L15.9237 15.2575C16.0681 15.1474 15.9939 14.9077 15.8153 14.9077H13.1685C13.0887 14.9077 13.0179 14.8538 12.9932 14.7741L12.1753 12.1336Z" fill="#36383A"/>
</svg>
