<svg width="80" height="24" viewBox="0 0 80 24" fill="none" xmlns="http://www.w3.org/2000/svg">
<g clip-path="url(#clip0_1182_12805)">
<path fill-rule="evenodd" clip-rule="evenodd" d="M72.301 14.6935C74.7607 14.6935 76.7543 16.5972 76.7543 18.9462C76.7543 21.2952 74.7607 23.199 72.301 23.199C69.8413 23.199 67.8477 21.2952 67.8477 18.9462C67.8477 16.5972 69.8413 14.6935 72.301 14.6935Z" fill="white"/>
<path d="M29.7266 15.1784L34.6235 4.75793L39.5205 15.1784H29.7266Z" fill="white"/>
<path d="M41.1435 2.69934H43.8471V17.5298H41.1435V11.4182H38.7344V8.83258H41.1435V2.69934Z" fill="white"/>
<path d="M47.8046 2.70325H45.0625V17.5506H47.8046V2.70325Z" fill="white"/>
<path d="M76.7361 5.87603V7.97152H69.9201V8.75532H77.7549V10.8123H73.7397V11.694H79.5961V14.0053H65.0039V11.694H70.8804V10.8123H67.2173V2.97668H77.2262V5.09223H69.9201V5.87603H76.7361Z" fill="white"/>
<path d="M61.4102 12.0936V4.46497H51.4141V12.0936H55.1141H57.6749H61.4102Z" fill="white"/>
<path d="M57.8806 15.0017V13.2247H55.0205V15.0017H49.1641V17.5481H63.737V15.0017H57.8806Z" fill="white"/>
<path fill-rule="evenodd" clip-rule="evenodd" d="M15.1406 13.8986H22.7316V21.4847H15.1406V13.8986Z" fill="#FF6738"/>
<path fill-rule="evenodd" clip-rule="evenodd" d="M-0.182791 21.4871L4.05953 13.8986L8.29944 21.4823L-0.183594 21.4871H-0.182791Z" fill="#40E2D9"/>
<path d="M11.2633 5.02129C14.9898 5.02129 18.3898 6.41962 20.7869 8.9058L23.2731 6.38592C21.6622 4.72445 19.752 3.52508 17.5715 2.6426C15.6324 1.858 13.4936 1.48254 11.273 1.48254C9.05233 1.48254 6.92475 1.97673 4.9857 2.76134C2.9568 3.58285 1.13648 4.8833 -0.40625 6.38592L2.09678 8.88896C4.46744 6.60253 7.70936 5.02129 11.2633 5.02129Z" fill="#7737E0"/>
</g>
<defs>
<clipPath id="clip0_1182_12805">
<rect width="80" height="24" fill="white"/>
</clipPath>
</defs>
</svg>
