<svg width="80" height="24" viewBox="0 0 80 24" fill="none" xmlns="http://www.w3.org/2000/svg">
<g clip-path="url(#clip0_1129_1603)">
<path fill-rule="evenodd" clip-rule="evenodd" d="M72.301 14.6934C74.7607 14.6934 76.7543 16.5971 76.7543 18.9461C76.7543 21.2951 74.7607 23.1989 72.301 23.1989C69.8413 23.1989 67.8477 21.2951 67.8477 18.9461C67.8477 16.5971 69.8413 14.6934 72.301 14.6934Z" fill="white"/>
<path d="M29.7266 15.1783L34.6235 4.75781L39.5205 15.1783H29.7266Z" fill="white"/>
<path d="M41.1435 2.69922H43.8471V17.5297H41.1435V11.4181H38.7344V8.83245H41.1435V2.69922Z" fill="white"/>
<path d="M47.8046 2.70312H45.0625V17.5504H47.8046V2.70312Z" fill="white"/>
<path d="M76.7361 5.87591V7.9714H69.9201V8.7552H77.7549V10.8122H73.7397V11.6939H79.5961V14.0052H65.0039V11.6939H70.8804V10.8122H67.2173V2.97656H77.2262V5.09211H69.9201V5.87591H76.7361Z" fill="white"/>
<path d="M61.4102 12.0935V4.46484H51.4141V12.0935H55.1141H57.6749H61.4102Z" fill="white"/>
<path d="M57.8806 15.0016V13.2246H55.0205V15.0016H49.1641V17.548H63.737V15.0016H57.8806Z" fill="white"/>
<path fill-rule="evenodd" clip-rule="evenodd" d="M15.1406 13.8984H22.7316V21.4846H15.1406V13.8984Z" fill="white"/>
<path fill-rule="evenodd" clip-rule="evenodd" d="M-0.182791 21.487L4.05953 13.8984L8.29944 21.4821L-0.183594 21.487H-0.182791Z" fill="white"/>
<path d="M11.2633 5.02117C14.9898 5.02117 18.3898 6.41949 20.7869 8.90568L23.2731 6.3858C21.6622 4.72433 19.752 3.52496 17.5715 2.64248C15.6324 1.85788 13.4936 1.48242 11.273 1.48242C9.05233 1.48242 6.92475 1.97661 4.9857 2.76122C2.9568 3.58272 1.13648 4.88318 -0.40625 6.3858L2.09678 8.88883C4.46744 6.60241 7.70936 5.02117 11.2633 5.02117Z" fill="white"/>
</g>
<defs>
<clipPath id="clip0_1129_1603">
<rect width="80" height="24" fill="white"/>
</clipPath>
</defs>
</svg>
