<svg width="140" height="122" viewBox="0 0 140 122" fill="none" xmlns="http://www.w3.org/2000/svg">
<g clip-path="url(#clip0_1513_14880)">
<mask id="path-1-outside-1_1513_14880" maskUnits="userSpaceOnUse" x="53.0312" y="75" width="69" height="60" fill="black">
<rect fill="white" x="53.0312" y="75" width="69" height="60"/>
<path d="M56.5475 112C57.8567 98.0384 63.8808 84.5 68.0475 79.5L105.047 78C109.047 84.8333 115.652 99.4613 118.047 110C120.547 121 119.047 129 119.047 132.5H58.0455C57.2123 131.5 55.047 128 56.5475 112Z"/>
</mask>
<path d="M56.5475 112C57.8567 98.0384 63.8808 84.5 68.0475 79.5L105.047 78C109.047 84.8333 115.652 99.4613 118.047 110C120.547 121 119.047 129 119.047 132.5H58.0455C57.2123 131.5 55.047 128 56.5475 112Z" fill="white"/>
<path d="M68.0475 79.5L67.9664 77.5016L67.0794 77.5376L66.511 78.2196L68.0475 79.5ZM56.5475 112L54.5562 111.813L56.5475 112ZM58.0455 132.5L56.509 133.78L57.1087 134.5H58.0455V132.5ZM119.047 132.5V134.5H121.047V132.5H119.047ZM118.047 110L119.997 109.557L118.047 110ZM105.047 78L106.773 76.9896L106.166 75.953L104.966 76.0016L105.047 78ZM66.511 78.2196C64.2275 80.9599 61.585 85.8241 59.3568 91.6779C57.1146 97.5685 55.2307 104.621 54.5562 111.813L58.5387 112.187C59.1735 105.417 60.9563 98.7199 63.0951 93.1009C65.2479 87.4451 67.7008 83.0401 69.5839 80.7804L66.511 78.2196ZM54.5562 111.813C53.0533 127.839 55.1097 132.101 56.509 133.78L59.5821 131.22C59.3149 130.899 57.0408 128.161 58.5387 112.187L54.5562 111.813ZM58.0455 134.5H119.047V130.5H58.0455V134.5ZM121.047 132.5C121.047 129.39 122.562 120.845 119.997 109.557L116.097 110.443C118.531 121.155 117.047 128.61 117.047 132.5H121.047ZM119.997 109.557C117.545 98.7661 110.845 83.9459 106.773 76.9896L103.321 79.0104C107.249 85.7207 113.759 100.156 116.097 110.443L119.997 109.557ZM104.966 76.0016L67.9664 77.5016L68.1285 81.4984L105.128 79.9984L104.966 76.0016Z" fill="black" mask="url(#path-1-outside-1_1513_14880)"/>
<path d="M56 85H63L60 100L25.5 103.5L10 100.5L3 92L2 80.5L4.5 73.5L10.5 68.5H17.5L16.5 61.5L19 54L25.5 51L30 53.5L29 60.5V67.5L34 73L40.5 81.5L56 85Z" fill="white"/>
<path d="M132.125 110.346C127.451 94.3062 115.5 82 107 82L113.427 138C121.608 135.465 136.8 126.385 132.125 110.346Z" fill="white" stroke="black" stroke-width="2"/>
<path d="M55.5007 110C56.0155 97 61.8504 82.5 66.0171 77.5L103.017 76C107.017 82.8333 116.501 96.5 118.501 107.5C120.519 118.598 119.501 129.5 119.501 133L56.0152 130.5C55.1819 129.5 54.8648 126.058 55.5007 110Z" fill="white"/>
<path d="M120.5 133C121.333 130.667 121 120 120 111.5C119.399 106.39 117 99 117 99" stroke="black" stroke-width="2" stroke-linecap="round"/>
<path d="M57.0455 132.5C56.2123 131.5 54.047 128 55.5475 112C56.0524 106.615 57.2587 101.293 58.7893 96.5" stroke="black" stroke-width="2" stroke-linecap="round"/>
<path d="M135.886 47.144C135.886 71.4323 114.091 91.288 86.9898 91.288C59.8887 91.288 38.0938 71.4323 38.0938 47.144C38.0938 22.8558 59.8887 3 86.9898 3C114.091 3 135.886 22.8558 135.886 47.144Z" fill="white" stroke="black" stroke-width="2"/>
<rect x="37.0938" y="46" width="98.0714" height="2" fill="black"/>
<path fill-rule="evenodd" clip-rule="evenodd" d="M72.8539 23.9922C60.0681 23.9922 49.7031 34.3571 49.7031 47.143C49.7031 59.9288 60.0681 70.2937 72.8539 70.2937H78.1512L87.5933 76.9153C89.8737 78.5145 93.0102 76.8832 93.0102 74.0979V70.2937H101.11C113.895 70.2937 124.26 59.9288 124.26 47.143C124.26 34.3571 113.895 23.9922 101.11 23.9922H72.8539Z" fill="black"/>
<path d="M64.6211 41.8372C64.6211 41.2381 65.0804 40.7409 65.6783 40.703C67.0305 40.6173 69.4752 40.4863 71.7901 40.4863C74.1049 40.4863 76.5496 40.6173 77.9018 40.703C78.4997 40.7409 78.959 41.2381 78.959 41.8372V52.462C78.959 53.0549 78.5076 53.5484 77.9161 53.5889C76.6671 53.6746 74.4121 53.798 71.7901 53.798C69.168 53.798 66.913 53.6746 65.664 53.5889C65.0725 53.5484 64.6211 53.0549 64.6211 52.462V41.8372Z" fill="#87C0F4"/>
<path d="M95.1711 48.1497C94.3691 47.7161 94.369 46.5653 95.1711 46.1317L107.671 39.3742C108.435 38.961 109.363 39.5144 109.363 40.3832L109.363 53.8982C109.363 54.767 108.435 55.3204 107.671 54.9072L95.1711 48.1497Z" fill="#87C0F4"/>
<path d="M61.5072 85.0263C57.1497 85.2621 47.2187 83.8533 40.6452 81.165C37.5137 79.8843 35.9984 76.3738 33.8793 73.7364C33.1398 72.8161 32.2058 71.7973 31.0738 70.634C30.1681 69.7032 29.3957 68.634 29.0918 67.3712C28.8658 66.4317 28.6764 65.3046 28.6044 64.1689C28.3579 60.2753 31.7695 55.5395 29.3497 52.4792C28.2578 51.0982 26.3087 50.4785 23.0073 51.5264C19.351 53.0461 14.2463 58.3137 18.0071 68.5262" stroke="black" stroke-width="2"/>
<path d="M16.2495 94.0592C15.7156 94.2005 15.3973 94.7479 15.5387 95.2818C15.68 95.8157 16.2274 96.1339 16.7613 95.9926L16.2495 94.0592ZM26.5054 103.026L26.476 102.026L26.4604 102.027L26.4449 102.028L26.5054 103.026ZM16.7613 95.9926C19.4623 95.2776 22.995 93.8141 25.3906 90.8274C27.834 87.7811 28.9561 83.327 27.139 76.9606L25.2158 77.5096C26.8921 83.3827 25.7903 87.1326 23.8304 89.5761C21.8227 92.0792 18.7727 93.3913 16.2495 94.0592L16.7613 95.9926ZM23.1194 70.7965C20.7075 68.9057 17.4849 67.2257 14.0144 67.1825C10.4685 67.1383 6.85692 68.8046 3.76537 73.2258L5.4044 74.3719C8.17608 70.4082 11.2026 69.1476 13.9895 69.1823C16.8516 69.218 19.6562 70.6229 21.8855 72.3705L23.1194 70.7965ZM2.00316 77.0526C0.629146 82.2245 0.258979 89.3392 3.56815 95.0202C6.93795 100.805 13.9265 104.79 26.5659 104.024L26.4449 102.028C14.2854 102.765 8.1652 98.9387 5.29633 94.0136C2.36684 88.9844 2.62817 82.4893 3.93611 77.5662L2.00316 77.0526ZM26.5348 104.025C32.1874 103.859 38.465 103.727 44.1363 103.323C49.7779 102.92 54.9547 102.242 58.359 100.933L57.641 99.0662C54.5453 100.257 49.6414 100.925 43.9941 101.328C38.3764 101.728 32.1567 101.859 26.476 102.026L26.5348 104.025ZM3.76537 73.2258C2.95224 74.3887 2.36363 75.6958 2.00316 77.0526L3.93611 77.5662C4.24033 76.421 4.734 75.3307 5.4044 74.3719L3.76537 73.2258ZM27.139 76.9606C26.4597 74.5808 25.1176 72.3629 23.1194 70.7965L21.8855 72.3705C23.5029 73.6384 24.6342 75.4719 25.2158 77.5096L27.139 76.9606Z" fill="black"/>
</g>
<defs>
<clipPath id="clip0_1513_14880">
<rect width="140" height="122" fill="white"/>
</clipPath>
</defs>
</svg>
