<svg width="111" height="133" viewBox="0 0 111 133" fill="none" xmlns="http://www.w3.org/2000/svg">
<mask id="path-1-outside-1_1096_12174" maskUnits="userSpaceOnUse" x="0.453125" y="64.1836" width="103" height="69" fill="black">
<rect fill="white" x="0.453125" y="64.1836" width="103" height="69"/>
<path fill-rule="evenodd" clip-rule="evenodd" d="M38.9823 81.1969C35.5746 80.1703 30.7316 78.1176 26.0014 74.5005C17.5014 68.0005 10.0014 63.5005 5.00141 68.0005C0.00140762 72.5005 1.00141 87 20.5014 93.5C25.5632 95.1873 29.5686 96.0077 32.6987 96.2722C31.4286 100.589 30.444 105.27 30.0004 110C28.5 126 30.6653 129.5 31.4985 130.5H92.4998C92.4998 129.739 92.5708 128.765 92.656 127.594C92.8463 124.981 93.1081 121.385 92.8135 116.979C98.3729 113.622 103.141 108.158 100.5 100.5C96.9591 90.2315 87.1494 83.6459 81.1289 80.8821C80.1858 79.0107 79.292 77.3527 78.5002 76L41.5004 77.5C40.7126 78.4454 39.8584 79.696 38.9823 81.1969Z"/>
</mask>
<path fill-rule="evenodd" clip-rule="evenodd" d="M38.9823 81.1969C35.5746 80.1703 30.7316 78.1176 26.0014 74.5005C17.5014 68.0005 10.0014 63.5005 5.00141 68.0005C0.00140762 72.5005 1.00141 87 20.5014 93.5C25.5632 95.1873 29.5686 96.0077 32.6987 96.2722C31.4286 100.589 30.444 105.27 30.0004 110C28.5 126 30.6653 129.5 31.4985 130.5H92.4998C92.4998 129.739 92.5708 128.765 92.656 127.594C92.8463 124.981 93.1081 121.385 92.8135 116.979C98.3729 113.622 103.141 108.158 100.5 100.5C96.9591 90.2315 87.1494 83.6459 81.1289 80.8821C80.1858 79.0107 79.292 77.3527 78.5002 76L41.5004 77.5C40.7126 78.4454 39.8584 79.696 38.9823 81.1969Z" fill="white"/>
<path d="M38.9823 81.1969L38.4053 83.1119L39.9148 83.5667L40.7095 82.2052L38.9823 81.1969ZM26.0014 74.5005L24.7865 76.0892L26.0014 74.5005ZM5.00141 68.0005L6.33934 69.4871V69.4871L5.00141 68.0005ZM20.5014 93.5L19.869 95.3974L20.5014 93.5ZM32.6987 96.2722L34.6174 96.8367L35.3092 94.4856L32.8671 94.2793L32.6987 96.2722ZM30.0004 110L28.0092 109.813L30.0004 110ZM31.4985 130.5L29.962 131.78L30.5617 132.5H31.4985V130.5ZM92.4998 130.5V132.5H94.4998V130.5H92.4998ZM92.656 127.594L90.6613 127.449V127.449L92.656 127.594ZM92.8135 116.979L91.7797 115.267L90.7367 115.896L90.818 117.112L92.8135 116.979ZM100.5 100.5L102.391 99.848L100.5 100.5ZM81.1289 80.8821L79.3429 81.7822L79.6581 82.4075L80.2945 82.6997L81.1289 80.8821ZM78.5002 76L80.2262 74.9896L79.6194 73.953L78.4192 74.0016L78.5002 76ZM41.5004 77.5L41.4194 75.5016L40.5323 75.5376L39.964 76.2196L41.5004 77.5ZM39.5592 79.282C36.3376 78.3113 31.7214 76.3568 27.2163 72.9118L24.7865 76.0892C29.7417 79.8784 34.8116 82.0292 38.4053 83.1119L39.5592 79.282ZM27.2163 72.9118C22.9674 69.6626 18.7664 66.7484 14.9091 65.2596C10.9975 63.7499 6.95822 63.5486 3.66348 66.5139L6.33934 69.4871C8.0446 67.9523 10.2554 67.7511 13.4688 68.9913C16.7364 70.2525 20.5354 72.8384 24.7865 76.0892L27.2163 72.9118ZM3.66348 66.5139C0.353997 69.4924 -0.566656 75.2317 1.71504 80.7629C4.0481 86.4187 9.70307 92.0087 19.869 95.3974L21.1339 91.6026C11.7997 88.4913 7.20472 83.5815 5.41278 79.2376C3.56947 74.769 4.64882 71.0085 6.33934 69.4871L3.66348 66.5139ZM19.869 95.3974C25.0399 97.121 29.2042 97.984 32.5304 98.2651L32.8671 94.2793C29.9329 94.0313 26.0864 93.2535 21.1339 91.6026L19.869 95.3974ZM31.9917 110.187C32.4214 105.605 33.3775 101.051 34.6174 96.8367L30.7801 95.7076C29.4796 100.128 28.4665 104.936 28.0092 109.813L31.9917 110.187ZM33.035 129.22C32.7679 128.899 30.4937 126.161 31.9917 110.187L28.0092 109.813C26.5063 125.839 28.5626 130.101 29.962 131.78L33.035 129.22ZM92.4998 128.5H31.4985V132.5H92.4998V128.5ZM90.6613 127.449C90.5781 128.591 90.4998 129.649 90.4998 130.5H94.4998C94.4998 129.828 94.5634 128.939 94.6508 127.739L90.6613 127.449ZM90.818 117.112C91.1025 121.369 90.851 124.844 90.6613 127.449L94.6508 127.739C94.8417 125.117 95.1137 121.402 94.8091 116.845L90.818 117.112ZM98.6093 101.152C99.7361 104.42 99.2753 107.104 97.9924 109.365C96.6662 111.701 94.395 113.687 91.7797 115.267L93.8474 118.691C96.7914 116.913 99.6837 114.488 101.471 111.339C103.302 108.114 103.904 104.238 102.391 99.848L98.6093 101.152ZM80.2945 82.6997C86.1217 85.3748 95.3319 91.6477 98.6093 101.152L102.391 99.848C98.5864 88.8153 88.1771 81.9171 81.9633 79.0645L80.2945 82.6997ZM76.7741 77.0104C77.5396 78.318 78.4134 79.9377 79.3429 81.7822L82.9149 79.982C81.9583 78.0838 81.0444 76.3873 80.2262 74.9896L76.7741 77.0104ZM41.5815 79.4984L78.5812 77.9984L78.4192 74.0016L41.4194 75.5016L41.5815 79.4984ZM40.7095 82.2052C41.5491 80.767 42.341 79.6154 43.0369 78.7804L39.964 76.2196C39.0842 77.2754 38.1678 78.625 37.255 80.1887L40.7095 82.2052Z" fill="black" mask="url(#path-1-outside-1_1096_12174)"/>
<path d="M60.54 98.4683C60.9927 97.7759 62.0073 97.7759 62.46 98.4683L68.8396 108.225C69.3384 108.988 68.7911 110 67.8796 110H55.1204C54.2089 110 53.6616 108.988 54.1604 108.225L60.54 98.4683Z" stroke="#6FBAFF" stroke-width="3"/>
<path d="M30.4987 130.5C29.6654 129.5 27.5002 126 29.0006 110C29.5056 104.615 30.7119 99.2933 32.2425 94.5" stroke="black" stroke-width="2" stroke-linecap="round"/>
<path d="M92.5 131C93.3333 128.667 93 118 92 109.5C91.3988 104.39 89 97 89 97" stroke="black" stroke-width="2" stroke-linecap="round"/>
<path d="M109.339 45.144C109.339 69.4323 87.5439 89.288 60.4429 89.288C33.3418 89.288 11.5469 69.4323 11.5469 45.144C11.5469 20.8558 33.3418 1 60.4429 1C87.5439 1 109.339 20.8558 109.339 45.144Z" fill="white" stroke="black" stroke-width="2"/>
<rect x="10.5469" y="44" width="98.0714" height="2" fill="black"/>
<path fill-rule="evenodd" clip-rule="evenodd" d="M46.307 21.9922C33.5212 21.9922 23.1562 32.3571 23.1562 45.143C23.1562 57.9288 33.5212 68.2937 46.307 68.2937H51.6057L61.0464 74.9143C63.3268 76.5135 66.4633 74.8822 66.4633 72.097V68.2937H74.5627C87.3485 68.2937 97.7135 57.9288 97.7135 45.143C97.7135 32.3571 87.3485 21.9922 74.5627 21.9922H46.307Z" fill="black"/>
<path d="M38.0742 39.8372C38.0742 39.2381 38.5335 38.7409 39.1314 38.703C40.4836 38.6173 42.9283 38.4863 45.2432 38.4863C47.5581 38.4863 50.0027 38.6173 51.355 38.703C51.9528 38.7409 52.4122 39.2381 52.4122 39.8372V50.462C52.4122 51.0549 51.9607 51.5484 51.3693 51.5889C50.1203 51.6746 47.8652 51.798 45.2432 51.798C42.6212 51.798 40.3661 51.6746 39.1171 51.5889C38.5256 51.5484 38.0742 51.0549 38.0742 50.462V39.8372Z" fill="#87C0F4"/>
<path d="M68.6242 46.1497C67.8222 45.7161 67.8222 44.5653 68.6242 44.1317L81.1238 37.3742C81.888 36.961 82.8163 37.5144 82.8163 38.3832L82.8163 51.8982C82.8163 52.767 81.888 53.3204 81.1238 52.9072L68.6242 46.1497Z" fill="#87C0F4"/>
</svg>
